# Tiled2Unity generated file. Do not modify by hand.
# Wavefront file for 'Map_Master_mesh_0308.obj'

# Vertices (Count = 64)
v -15 -1 0
v -16 -1 0
v -16 0 0
v -15 0 0
v -15 -2 0
v -16 -2 0
v -16 -1 0
v -15 -1 0
v -15 -3 0
v -16 -3 0
v -16 -2 0
v -15 -2 0
v -15 -4 0
v -16 -4 0
v -16 -3 0
v -15 -3 0
v -15 -5 0
v -16 -5 0
v -16 -4 0
v -15 -4 0
v -15 -6 0
v -16 -6 0
v -16 -5 0
v -15 -5 0
v -15 -7 0
v -16 -7 0
v -16 -6 0
v -15 -6 0
v -15 -8 0
v -16 -8 0
v -16 -7 0
v -15 -7 0
v -15 -9 0
v -16 -9 0
v -16 -8 0
v -15 -8 0
v -15 -10 0
v -16 -10 0
v -16 -9 0
v -15 -9 0
v -15 -11 0
v -16 -11 0
v -16 -10 0
v -15 -10 0
v -15 -12 0
v -16 -12 0
v -16 -11 0
v -15 -11 0
v -15 -13 0
v -16 -13 0
v -16 -12 0
v -15 -12 0
v -15 -14 0
v -16 -14 0
v -16 -13 0
v -15 -13 0
v -15 -15 0
v -16 -15 0
v -16 -14 0
v -15 -14 0
v -15 -16 0
v -16 -16 0
v -16 -15 0
v -15 -15 0

# Texture cooridinates (Count = 9)
vt 0.2 0.6666666
vt 0.3 0.6666666
vt 0.3 0.7777778
vt 0.2 0.7777778
vt 0.4 0.7777778
vt 0.4 0.8888889
vt 0.3 0.8888889
vt 0.1 0.6666666
vt 0.1 0.7777778

# Normal
vn 0 0 -1

# Mesh description
g Map_Master_mesh_0308

# Faces
f 1/1/1 2/2/1 3/3/1 4/4/1
f 5/1/1 6/2/1 7/3/1 8/4/1
f 9/3/1 10/5/1 11/6/1 12/7/1
f 13/8/1 14/1/1 15/4/1 16/9/1
f 17/8/1 18/1/1 19/4/1 20/9/1
f 21/8/1 22/1/1 23/4/1 24/9/1
f 25/8/1 26/1/1 27/4/1 28/9/1
f 29/8/1 30/1/1 31/4/1 32/9/1
f 33/8/1 34/1/1 35/4/1 36/9/1
f 37/8/1 38/1/1 39/4/1 40/9/1
f 41/8/1 42/1/1 43/4/1 44/9/1
f 45/8/1 46/1/1 47/4/1 48/9/1
f 49/8/1 50/1/1 51/4/1 52/9/1
f 53/8/1 54/1/1 55/4/1 56/9/1
f 57/8/1 58/1/1 59/4/1 60/9/1
f 61/8/1 62/1/1 63/4/1 64/9/1

