# Tiled2Unity generated file. Do not modify by hand.
# Wavefront file for 'Map_Master_mesh_0142.obj'

# Vertices (Count = 12)
v -7 -14 0
v -8 -14 0
v -8 -13 0
v -7 -13 0
v -7 -15 0
v -8 -15 0
v -8 -14 0
v -7 -14 0
v -7 -16 0
v -8 -16 0
v -8 -15 0
v -7 -15 0

# Texture cooridinates (Count = 4)
vt 0 0.6666666
vt 0.1 0.6666666
vt 0.1 0.7777778
vt 0 0.7777778

# Normal
vn 0 0 -1

# Mesh description
g Map_Master_mesh_0142

# Faces
f 1/1/1 2/2/1 3/3/1 4/4/1
f 5/1/1 6/2/1 7/3/1 8/4/1
f 9/1/1 10/2/1 11/3/1 12/4/1

