# Tiled2Unity generated file. Do not modify by hand.
# Wavefront file for 'Map_Master_mesh_0517.obj'

# Vertices (Count = 12)
v -14 -15 0
v -15 -15 0
v -15 -14 0
v -14 -14 0
v -15 -15 0
v -16 -15 0
v -16 -14 0
v -15 -14 0
v -14 -16 0
v -15 -16 0
v -15 -15 0
v -14 -15 0

# Texture cooridinates (Count = 8)
vt 0.4444444 0.3333333
vt 0.5555556 0.3333333
vt 0.5555556 0.5
vt 0.4444444 0.5
vt 0.1111111 0
vt 0.2222222 0
vt 0.2222222 0.1666667
vt 0.1111111 0.1666667

# Normal
vn 0 0 -1

# Mesh description
g Map_Master_mesh_0517

# Faces
f 1/1/1 2/2/1 3/3/1 4/4/1
f 5/5/1 6/6/1 7/7/1 8/8/1
f 9/5/1 10/6/1 11/7/1 12/8/1

