# Tiled2Unity generated file. Do not modify by hand.
# Wavefront file for 'Map_Master_mesh_0236.obj'

# Vertices (Count = 868)
v -2 -1 0
v -3 -1 0
v -3 0 0
v -2 0 0
v -3 -1 0
v -4 -1 0
v -4 0 0
v -3 0 0
v -4 -1 0
v -5 -1 0
v -5 0 0
v -4 0 0
v -5 -1 0
v -6 -1 0
v -6 0 0
v -5 0 0
v -6 -1 0
v -7 -1 0
v -7 0 0
v -6 0 0
v -7 -1 0
v -8 -1 0
v -8 0 0
v -7 0 0
v -8 -1 0
v -9 -1 0
v -9 0 0
v -8 0 0
v -9 -1 0
v -10 -1 0
v -10 0 0
v -9 0 0
v -10 -1 0
v -11 -1 0
v -11 0 0
v -10 0 0
v -2 -2 0
v -3 -2 0
v -3 -1 0
v -2 -1 0
v -3 -2 0
v -4 -2 0
v -4 -1 0
v -3 -1 0
v -4 -2 0
v -5 -2 0
v -5 -1 0
v -4 -1 0
v -5 -2 0
v -6 -2 0
v -6 -1 0
v -5 -1 0
v -6 -2 0
v -7 -2 0
v -7 -1 0
v -6 -1 0
v -7 -2 0
v -8 -2 0
v -8 -1 0
v -7 -1 0
v -8 -2 0
v -9 -2 0
v -9 -1 0
v -8 -1 0
v -9 -2 0
v -10 -2 0
v -10 -1 0
v -9 -1 0
v -10 -2 0
v -11 -2 0
v -11 -1 0
v -10 -1 0
v -11 -2 0
v -12 -2 0
v -12 -1 0
v -11 -1 0
v -12 -2 0
v -13 -2 0
v -13 -1 0
v -12 -1 0
v -13 -2 0
v -14 -2 0
v -14 -1 0
v -13 -1 0
v -2 -3 0
v -3 -3 0
v -3 -2 0
v -2 -2 0
v -3 -3 0
v -4 -3 0
v -4 -2 0
v -3 -2 0
v -4 -3 0
v -5 -3 0
v -5 -2 0
v -4 -2 0
v -5 -3 0
v -6 -3 0
v -6 -2 0
v -5 -2 0
v -6 -3 0
v -7 -3 0
v -7 -2 0
v -6 -2 0
v -7 -3 0
v -8 -3 0
v -8 -2 0
v -7 -2 0
v -8 -3 0
v -9 -3 0
v -9 -2 0
v -8 -2 0
v -9 -3 0
v -10 -3 0
v -10 -2 0
v -9 -2 0
v -10 -3 0
v -11 -3 0
v -11 -2 0
v -10 -2 0
v -11 -3 0
v -12 -3 0
v -12 -2 0
v -11 -2 0
v -12 -3 0
v -13 -3 0
v -13 -2 0
v -12 -2 0
v -13 -3 0
v -14 -3 0
v -14 -2 0
v -13 -2 0
v -2 -4 0
v -3 -4 0
v -3 -3 0
v -2 -3 0
v -3 -4 0
v -4 -4 0
v -4 -3 0
v -3 -3 0
v -4 -4 0
v -5 -4 0
v -5 -3 0
v -4 -3 0
v -5 -4 0
v -6 -4 0
v -6 -3 0
v -5 -3 0
v -6 -4 0
v -7 -4 0
v -7 -3 0
v -6 -3 0
v -7 -4 0
v -8 -4 0
v -8 -3 0
v -7 -3 0
v -8 -4 0
v -9 -4 0
v -9 -3 0
v -8 -3 0
v -9 -4 0
v -10 -4 0
v -10 -3 0
v -9 -3 0
v -10 -4 0
v -11 -4 0
v -11 -3 0
v -10 -3 0
v -11 -4 0
v -12 -4 0
v -12 -3 0
v -11 -3 0
v -12 -4 0
v -13 -4 0
v -13 -3 0
v -12 -3 0
v -13 -4 0
v -14 -4 0
v -14 -3 0
v -13 -3 0
v -2 -5 0
v -3 -5 0
v -3 -4 0
v -2 -4 0
v -3 -5 0
v -4 -5 0
v -4 -4 0
v -3 -4 0
v -4 -5 0
v -5 -5 0
v -5 -4 0
v -4 -4 0
v -5 -5 0
v -6 -5 0
v -6 -4 0
v -5 -4 0
v -6 -5 0
v -7 -5 0
v -7 -4 0
v -6 -4 0
v -7 -5 0
v -8 -5 0
v -8 -4 0
v -7 -4 0
v -8 -5 0
v -9 -5 0
v -9 -4 0
v -8 -4 0
v -9 -5 0
v -10 -5 0
v -10 -4 0
v -9 -4 0
v -10 -5 0
v -11 -5 0
v -11 -4 0
v -10 -4 0
v -11 -5 0
v -12 -5 0
v -12 -4 0
v -11 -4 0
v -12 -5 0
v -13 -5 0
v -13 -4 0
v -12 -4 0
v -13 -5 0
v -14 -5 0
v -14 -4 0
v -13 -4 0
v -2 -6 0
v -3 -6 0
v -3 -5 0
v -2 -5 0
v -3 -6 0
v -4 -6 0
v -4 -5 0
v -3 -5 0
v -4 -6 0
v -5 -6 0
v -5 -5 0
v -4 -5 0
v -5 -6 0
v -6 -6 0
v -6 -5 0
v -5 -5 0
v -6 -6 0
v -7 -6 0
v -7 -5 0
v -6 -5 0
v -7 -6 0
v -8 -6 0
v -8 -5 0
v -7 -5 0
v -8 -6 0
v -9 -6 0
v -9 -5 0
v -8 -5 0
v -9 -6 0
v -10 -6 0
v -10 -5 0
v -9 -5 0
v -10 -6 0
v -11 -6 0
v -11 -5 0
v -10 -5 0
v -11 -6 0
v -12 -6 0
v -12 -5 0
v -11 -5 0
v -12 -6 0
v -13 -6 0
v -13 -5 0
v -12 -5 0
v -13 -6 0
v -14 -6 0
v -14 -5 0
v -13 -5 0
v 0 -7 0
v -1 -7 0
v -1 -6 0
v 0 -6 0
v -1 -7 0
v -2 -7 0
v -2 -6 0
v -1 -6 0
v -2 -7 0
v -3 -7 0
v -3 -6 0
v -2 -6 0
v -3 -7 0
v -4 -7 0
v -4 -6 0
v -3 -6 0
v -4 -7 0
v -5 -7 0
v -5 -6 0
v -4 -6 0
v -5 -7 0
v -6 -7 0
v -6 -6 0
v -5 -6 0
v -6 -7 0
v -7 -7 0
v -7 -6 0
v -6 -6 0
v -7 -7 0
v -8 -7 0
v -8 -6 0
v -7 -6 0
v -8 -7 0
v -9 -7 0
v -9 -6 0
v -8 -6 0
v -9 -7 0
v -10 -7 0
v -10 -6 0
v -9 -6 0
v -10 -7 0
v -11 -7 0
v -11 -6 0
v -10 -6 0
v -11 -7 0
v -12 -7 0
v -12 -6 0
v -11 -6 0
v -12 -7 0
v -13 -7 0
v -13 -6 0
v -12 -6 0
v -13 -7 0
v -14 -7 0
v -14 -6 0
v -13 -6 0
v 0 -8 0
v -1 -8 0
v -1 -7 0
v 0 -7 0
v -1 -8 0
v -2 -8 0
v -2 -7 0
v -1 -7 0
v -2 -8 0
v -3 -8 0
v -3 -7 0
v -2 -7 0
v -3 -8 0
v -4 -8 0
v -4 -7 0
v -3 -7 0
v -4 -8 0
v -5 -8 0
v -5 -7 0
v -4 -7 0
v -5 -8 0
v -6 -8 0
v -6 -7 0
v -5 -7 0
v -6 -8 0
v -7 -8 0
v -7 -7 0
v -6 -7 0
v -7 -8 0
v -8 -8 0
v -8 -7 0
v -7 -7 0
v -8 -8 0
v -9 -8 0
v -9 -7 0
v -8 -7 0
v -9 -8 0
v -10 -8 0
v -10 -7 0
v -9 -7 0
v -10 -8 0
v -11 -8 0
v -11 -7 0
v -10 -7 0
v -11 -8 0
v -12 -8 0
v -12 -7 0
v -11 -7 0
v -12 -8 0
v -13 -8 0
v -13 -7 0
v -12 -7 0
v -13 -8 0
v -14 -8 0
v -14 -7 0
v -13 -7 0
v 0 -9 0
v -1 -9 0
v -1 -8 0
v 0 -8 0
v -1 -9 0
v -2 -9 0
v -2 -8 0
v -1 -8 0
v -2 -9 0
v -3 -9 0
v -3 -8 0
v -2 -8 0
v -3 -9 0
v -4 -9 0
v -4 -8 0
v -3 -8 0
v -4 -9 0
v -5 -9 0
v -5 -8 0
v -4 -8 0
v -5 -9 0
v -6 -9 0
v -6 -8 0
v -5 -8 0
v -6 -9 0
v -7 -9 0
v -7 -8 0
v -6 -8 0
v -7 -9 0
v -8 -9 0
v -8 -8 0
v -7 -8 0
v -8 -9 0
v -9 -9 0
v -9 -8 0
v -8 -8 0
v -9 -9 0
v -10 -9 0
v -10 -8 0
v -9 -8 0
v -10 -9 0
v -11 -9 0
v -11 -8 0
v -10 -8 0
v -11 -9 0
v -12 -9 0
v -12 -8 0
v -11 -8 0
v -12 -9 0
v -13 -9 0
v -13 -8 0
v -12 -8 0
v -13 -9 0
v -14 -9 0
v -14 -8 0
v -13 -8 0
v 0 -10 0
v -1 -10 0
v -1 -9 0
v 0 -9 0
v -1 -10 0
v -2 -10 0
v -2 -9 0
v -1 -9 0
v -2 -10 0
v -3 -10 0
v -3 -9 0
v -2 -9 0
v -3 -10 0
v -4 -10 0
v -4 -9 0
v -3 -9 0
v -4 -10 0
v -5 -10 0
v -5 -9 0
v -4 -9 0
v -5 -10 0
v -6 -10 0
v -6 -9 0
v -5 -9 0
v -6 -10 0
v -7 -10 0
v -7 -9 0
v -6 -9 0
v -7 -10 0
v -8 -10 0
v -8 -9 0
v -7 -9 0
v -8 -10 0
v -9 -10 0
v -9 -9 0
v -8 -9 0
v -9 -10 0
v -10 -10 0
v -10 -9 0
v -9 -9 0
v -10 -10 0
v -11 -10 0
v -11 -9 0
v -10 -9 0
v -11 -10 0
v -12 -10 0
v -12 -9 0
v -11 -9 0
v -12 -10 0
v -13 -10 0
v -13 -9 0
v -12 -9 0
v -13 -10 0
v -14 -10 0
v -14 -9 0
v -13 -9 0
v 0 -11 0
v -1 -11 0
v -1 -10 0
v 0 -10 0
v -1 -11 0
v -2 -11 0
v -2 -10 0
v -1 -10 0
v -2 -11 0
v -3 -11 0
v -3 -10 0
v -2 -10 0
v -3 -11 0
v -4 -11 0
v -4 -10 0
v -3 -10 0
v -4 -11 0
v -5 -11 0
v -5 -10 0
v -4 -10 0
v -5 -11 0
v -6 -11 0
v -6 -10 0
v -5 -10 0
v -6 -11 0
v -7 -11 0
v -7 -10 0
v -6 -10 0
v -7 -11 0
v -8 -11 0
v -8 -10 0
v -7 -10 0
v -8 -11 0
v -9 -11 0
v -9 -10 0
v -8 -10 0
v -9 -11 0
v -10 -11 0
v -10 -10 0
v -9 -10 0
v -10 -11 0
v -11 -11 0
v -11 -10 0
v -10 -10 0
v -11 -11 0
v -12 -11 0
v -12 -10 0
v -11 -10 0
v -12 -11 0
v -13 -11 0
v -13 -10 0
v -12 -10 0
v -13 -11 0
v -14 -11 0
v -14 -10 0
v -13 -10 0
v 0 -12 0
v -1 -12 0
v -1 -11 0
v 0 -11 0
v -1 -12 0
v -2 -12 0
v -2 -11 0
v -1 -11 0
v -2 -12 0
v -3 -12 0
v -3 -11 0
v -2 -11 0
v -3 -12 0
v -4 -12 0
v -4 -11 0
v -3 -11 0
v -4 -12 0
v -5 -12 0
v -5 -11 0
v -4 -11 0
v -5 -12 0
v -6 -12 0
v -6 -11 0
v -5 -11 0
v -6 -12 0
v -7 -12 0
v -7 -11 0
v -6 -11 0
v -7 -12 0
v -8 -12 0
v -8 -11 0
v -7 -11 0
v -8 -12 0
v -9 -12 0
v -9 -11 0
v -8 -11 0
v -9 -12 0
v -10 -12 0
v -10 -11 0
v -9 -11 0
v -10 -12 0
v -11 -12 0
v -11 -11 0
v -10 -11 0
v -11 -12 0
v -12 -12 0
v -12 -11 0
v -11 -11 0
v -12 -12 0
v -13 -12 0
v -13 -11 0
v -12 -11 0
v -13 -12 0
v -14 -12 0
v -14 -11 0
v -13 -11 0
v 0 -13 0
v -1 -13 0
v -1 -12 0
v 0 -12 0
v -1 -13 0
v -2 -13 0
v -2 -12 0
v -1 -12 0
v -2 -13 0
v -3 -13 0
v -3 -12 0
v -2 -12 0
v -3 -13 0
v -4 -13 0
v -4 -12 0
v -3 -12 0
v -4 -13 0
v -5 -13 0
v -5 -12 0
v -4 -12 0
v -5 -13 0
v -6 -13 0
v -6 -12 0
v -5 -12 0
v -6 -13 0
v -7 -13 0
v -7 -12 0
v -6 -12 0
v -7 -13 0
v -8 -13 0
v -8 -12 0
v -7 -12 0
v -8 -13 0
v -9 -13 0
v -9 -12 0
v -8 -12 0
v -9 -13 0
v -10 -13 0
v -10 -12 0
v -9 -12 0
v -10 -13 0
v -11 -13 0
v -11 -12 0
v -10 -12 0
v -11 -13 0
v -12 -13 0
v -12 -12 0
v -11 -12 0
v -12 -13 0
v -13 -13 0
v -13 -12 0
v -12 -12 0
v -13 -13 0
v -14 -13 0
v -14 -12 0
v -13 -12 0
v -14 -13 0
v -15 -13 0
v -15 -12 0
v -14 -12 0
v -15 -13 0
v -16 -13 0
v -16 -12 0
v -15 -12 0
v 0 -14 0
v -1 -14 0
v -1 -13 0
v 0 -13 0
v -1 -14 0
v -2 -14 0
v -2 -13 0
v -1 -13 0
v -2 -14 0
v -3 -14 0
v -3 -13 0
v -2 -13 0
v -3 -14 0
v -4 -14 0
v -4 -13 0
v -3 -13 0
v -4 -14 0
v -5 -14 0
v -5 -13 0
v -4 -13 0
v -5 -14 0
v -6 -14 0
v -6 -13 0
v -5 -13 0
v -6 -14 0
v -7 -14 0
v -7 -13 0
v -6 -13 0
v -7 -14 0
v -8 -14 0
v -8 -13 0
v -7 -13 0
v -8 -14 0
v -9 -14 0
v -9 -13 0
v -8 -13 0
v -9 -14 0
v -10 -14 0
v -10 -13 0
v -9 -13 0
v -10 -14 0
v -11 -14 0
v -11 -13 0
v -10 -13 0
v -11 -14 0
v -12 -14 0
v -12 -13 0
v -11 -13 0
v -12 -14 0
v -13 -14 0
v -13 -13 0
v -12 -13 0
v -13 -14 0
v -14 -14 0
v -14 -13 0
v -13 -13 0
v -14 -14 0
v -15 -14 0
v -15 -13 0
v -14 -13 0
v -15 -14 0
v -16 -14 0
v -16 -13 0
v -15 -13 0
v 0 -15 0
v -1 -15 0
v -1 -14 0
v 0 -14 0
v -1 -15 0
v -2 -15 0
v -2 -14 0
v -1 -14 0
v -2 -15 0
v -3 -15 0
v -3 -14 0
v -2 -14 0
v -3 -15 0
v -4 -15 0
v -4 -14 0
v -3 -14 0
v -4 -15 0
v -5 -15 0
v -5 -14 0
v -4 -14 0
v -5 -15 0
v -6 -15 0
v -6 -14 0
v -5 -14 0
v -6 -15 0
v -7 -15 0
v -7 -14 0
v -6 -14 0
v -7 -15 0
v -8 -15 0
v -8 -14 0
v -7 -14 0
v -8 -15 0
v -9 -15 0
v -9 -14 0
v -8 -14 0
v -9 -15 0
v -10 -15 0
v -10 -14 0
v -9 -14 0
v -10 -15 0
v -11 -15 0
v -11 -14 0
v -10 -14 0
v -11 -15 0
v -12 -15 0
v -12 -14 0
v -11 -14 0
v -12 -15 0
v -13 -15 0
v -13 -14 0
v -12 -14 0
v -13 -15 0
v -14 -15 0
v -14 -14 0
v -13 -14 0
v -14 -15 0
v -15 -15 0
v -15 -14 0
v -14 -14 0
v -15 -15 0
v -16 -15 0
v -16 -14 0
v -15 -14 0
v 0 -16 0
v -1 -16 0
v -1 -15 0
v 0 -15 0
v -1 -16 0
v -2 -16 0
v -2 -15 0
v -1 -15 0
v -2 -16 0
v -3 -16 0
v -3 -15 0
v -2 -15 0
v -3 -16 0
v -4 -16 0
v -4 -15 0
v -3 -15 0
v -4 -16 0
v -5 -16 0
v -5 -15 0
v -4 -15 0
v -5 -16 0
v -6 -16 0
v -6 -15 0
v -5 -15 0
v -6 -16 0
v -7 -16 0
v -7 -15 0
v -6 -15 0
v -7 -16 0
v -8 -16 0
v -8 -15 0
v -7 -15 0
v -8 -16 0
v -9 -16 0
v -9 -15 0
v -8 -15 0
v -9 -16 0
v -10 -16 0
v -10 -15 0
v -9 -15 0
v -10 -16 0
v -11 -16 0
v -11 -15 0
v -10 -15 0
v -11 -16 0
v -12 -16 0
v -12 -15 0
v -11 -15 0
v -12 -16 0
v -13 -16 0
v -13 -15 0
v -12 -15 0
v -13 -16 0
v -14 -16 0
v -14 -15 0
v -13 -15 0
v -14 -16 0
v -15 -16 0
v -15 -15 0
v -14 -15 0
v -15 -16 0
v -16 -16 0
v -16 -15 0
v -15 -15 0

# Texture cooridinates (Count = 30)
vt 0 0.6666666
vt 0.1 0.6666666
vt 0.1 0.7777778
vt 0 0.7777778
vt 0.4 0.5555556
vt 0.5 0.5555556
vt 0.5 0.6666666
vt 0.4 0.6666666
vt 0.5 0.4444444
vt 0.6 0.4444444
vt 0.6 0.5555556
vt 0.2 0.6666666
vt 0.2 0.7777778
vt 0.3 0.6666666
vt 0.3 0.7777778
vt 0.2 0.8888889
vt 0.1 0.8888889
vt 0.7 0.7777778
vt 0.8 0.7777778
vt 0.8 0.8888889
vt 0.7 0.8888889
vt 0.9 0.7777778
vt 0.9 0.8888889
vt 0.4 0.4444444
vt 0.6 0.6666666
vt 0.4 0.7777778
vt 0.5 0.7777778
vt 0.5 0.8888889
vt 0.4 0.8888889
vt 0.3 0.8888889

# Normal
vn 0 0 -1

# Mesh description
g Map_Master_mesh_0236

# Faces
f 1/1/1 2/2/1 3/3/1 4/4/1
f 5/5/1 6/6/1 7/7/1 8/8/1
f 9/9/1 10/10/1 11/11/1 12/6/1
f 13/2/1 14/12/1 15/13/1 16/3/1
f 17/2/1 18/12/1 19/13/1 20/3/1
f 21/2/1 22/12/1 23/13/1 24/3/1
f 25/2/1 26/12/1 27/13/1 28/3/1
f 29/2/1 30/12/1 31/13/1 32/3/1
f 33/12/1 34/14/1 35/15/1 36/13/1
f 37/1/1 38/2/1 39/3/1 40/4/1
f 41/2/1 42/12/1 43/13/1 44/3/1
f 45/2/1 46/12/1 47/13/1 48/3/1
f 49/2/1 50/12/1 51/13/1 52/3/1
f 53/2/1 54/12/1 55/13/1 56/3/1
f 57/2/1 58/12/1 59/13/1 60/3/1
f 61/2/1 62/12/1 63/13/1 64/3/1
f 65/2/1 66/12/1 67/13/1 68/3/1
f 69/3/1 70/13/1 71/16/1 72/17/1
f 73/18/1 74/19/1 75/20/1 76/21/1
f 77/18/1 78/19/1 79/20/1 80/21/1
f 81/19/1 82/22/1 83/23/1 84/20/1
f 85/1/1 86/2/1 87/3/1 88/4/1
f 89/2/1 90/12/1 91/13/1 92/3/1
f 93/2/1 94/12/1 95/13/1 96/3/1
f 97/2/1 98/12/1 99/13/1 100/3/1
f 101/24/1 102/9/1 103/6/1 104/5/1
f 105/2/1 106/12/1 107/13/1 108/3/1
f 109/2/1 110/12/1 111/13/1 112/3/1
f 113/2/1 114/12/1 115/13/1 116/3/1
f 117/6/1 118/11/1 119/25/1 120/7/1
f 121/9/1 122/10/1 123/11/1 124/6/1
f 125/2/1 126/12/1 127/13/1 128/3/1
f 129/12/1 130/14/1 131/15/1 132/13/1
f 133/1/1 134/2/1 135/3/1 136/4/1
f 137/2/1 138/12/1 139/13/1 140/3/1
f 141/2/1 142/12/1 143/13/1 144/3/1
f 145/2/1 146/12/1 147/13/1 148/3/1
f 149/2/1 150/12/1 151/13/1 152/3/1
f 153/2/1 154/12/1 155/13/1 156/3/1
f 157/5/1 158/6/1 159/7/1 160/8/1
f 161/2/1 162/12/1 163/13/1 164/3/1
f 165/2/1 166/12/1 167/13/1 168/3/1
f 169/2/1 170/12/1 171/13/1 172/3/1
f 173/2/1 174/12/1 175/13/1 176/3/1
f 177/12/1 178/14/1 179/15/1 180/13/1
f 181/1/1 182/2/1 183/3/1 184/4/1
f 185/2/1 186/12/1 187/13/1 188/3/1
f 189/2/1 190/12/1 191/13/1 192/3/1
f 193/2/1 194/12/1 195/13/1 196/3/1
f 197/2/1 198/12/1 199/13/1 200/3/1
f 201/2/1 202/12/1 203/13/1 204/3/1
f 205/2/1 206/12/1 207/13/1 208/3/1
f 209/2/1 210/12/1 211/13/1 212/3/1
f 213/2/1 214/12/1 215/13/1 216/3/1
f 217/2/1 218/12/1 219/13/1 220/3/1
f 221/2/1 222/12/1 223/13/1 224/3/1
f 225/12/1 226/14/1 227/15/1 228/13/1
f 229/1/1 230/2/1 231/3/1 232/4/1
f 233/2/1 234/12/1 235/13/1 236/3/1
f 237/2/1 238/12/1 239/13/1 240/3/1
f 241/2/1 242/12/1 243/13/1 244/3/1
f 245/2/1 246/12/1 247/13/1 248/3/1
f 249/2/1 250/12/1 251/13/1 252/3/1
f 253/2/1 254/12/1 255/13/1 256/3/1
f 257/2/1 258/12/1 259/13/1 260/3/1
f 261/2/1 262/12/1 263/13/1 264/3/1
f 265/2/1 266/12/1 267/13/1 268/3/1
f 269/2/1 270/12/1 271/13/1 272/3/1
f 273/12/1 274/14/1 275/15/1 276/13/1
f 277/18/1 278/19/1 279/20/1 280/21/1
f 281/18/1 282/19/1 283/20/1 284/21/1
f 285/26/1 286/27/1 287/28/1 288/29/1
f 289/2/1 290/12/1 291/13/1 292/3/1
f 293/2/1 294/12/1 295/13/1 296/3/1
f 297/2/1 298/12/1 299/13/1 300/3/1
f 301/2/1 302/12/1 303/13/1 304/3/1
f 305/6/1 306/11/1 307/25/1 308/7/1
f 309/2/1 310/12/1 311/13/1 312/3/1
f 313/2/1 314/12/1 315/13/1 316/3/1
f 317/2/1 318/12/1 319/13/1 320/3/1
f 321/2/1 322/12/1 323/13/1 324/3/1
f 325/2/1 326/12/1 327/13/1 328/3/1
f 329/12/1 330/14/1 331/15/1 332/13/1
f 333/2/1 334/12/1 335/13/1 336/3/1
f 337/2/1 338/12/1 339/13/1 340/3/1
f 341/2/1 342/12/1 343/13/1 344/3/1
f 345/9/1 346/10/1 347/11/1 348/6/1
f 349/5/1 350/6/1 351/7/1 352/8/1
f 353/2/1 354/12/1 355/13/1 356/3/1
f 357/2/1 358/12/1 359/13/1 360/3/1
f 361/2/1 362/12/1 363/13/1 364/3/1
f 365/2/1 366/12/1 367/13/1 368/3/1
f 369/2/1 370/12/1 371/13/1 372/3/1
f 373/2/1 374/12/1 375/13/1 376/3/1
f 377/2/1 378/12/1 379/13/1 380/3/1
f 381/2/1 382/12/1 383/13/1 384/3/1
f 385/12/1 386/14/1 387/15/1 388/13/1
f 389/2/1 390/12/1 391/13/1 392/3/1
f 393/2/1 394/12/1 395/13/1 396/3/1
f 397/2/1 398/12/1 399/13/1 400/3/1
f 401/2/1 402/12/1 403/13/1 404/3/1
f 405/2/1 406/12/1 407/13/1 408/3/1
f 409/2/1 410/12/1 411/13/1 412/3/1
f 413/2/1 414/12/1 415/13/1 416/3/1
f 417/2/1 418/12/1 419/13/1 420/3/1
f 421/2/1 422/12/1 423/13/1 424/3/1
f 425/2/1 426/12/1 427/13/1 428/3/1
f 429/2/1 430/12/1 431/13/1 432/3/1
f 433/2/1 434/12/1 435/13/1 436/3/1
f 437/24/1 438/9/1 439/6/1 440/5/1
f 441/12/1 442/14/1 443/15/1 444/13/1
f 445/2/1 446/12/1 447/13/1 448/3/1
f 449/2/1 450/12/1 451/13/1 452/3/1
f 453/2/1 454/12/1 455/13/1 456/3/1
f 457/2/1 458/12/1 459/13/1 460/3/1
f 461/2/1 462/12/1 463/13/1 464/3/1
f 465/2/1 466/12/1 467/13/1 468/3/1
f 469/2/1 470/12/1 471/13/1 472/3/1
f 473/2/1 474/12/1 475/13/1 476/3/1
f 477/2/1 478/12/1 479/13/1 480/3/1
f 481/2/1 482/12/1 483/13/1 484/3/1
f 485/2/1 486/12/1 487/13/1 488/3/1
f 489/2/1 490/12/1 491/13/1 492/3/1
f 493/2/1 494/12/1 495/13/1 496/3/1
f 497/12/1 498/14/1 499/15/1 500/13/1
f 501/2/1 502/12/1 503/13/1 504/3/1
f 505/2/1 506/12/1 507/13/1 508/3/1
f 509/2/1 510/12/1 511/13/1 512/3/1
f 513/2/1 514/12/1 515/13/1 516/3/1
f 517/2/1 518/12/1 519/13/1 520/3/1
f 521/2/1 522/12/1 523/13/1 524/3/1
f 525/2/1 526/12/1 527/13/1 528/3/1
f 529/2/1 530/12/1 531/13/1 532/3/1
f 533/2/1 534/12/1 535/13/1 536/3/1
f 537/2/1 538/12/1 539/13/1 540/3/1
f 541/2/1 542/12/1 543/13/1 544/3/1
f 545/2/1 546/12/1 547/13/1 548/3/1
f 549/2/1 550/12/1 551/13/1 552/3/1
f 553/12/1 554/14/1 555/15/1 556/13/1
f 557/2/1 558/12/1 559/13/1 560/3/1
f 561/2/1 562/12/1 563/13/1 564/3/1
f 565/2/1 566/12/1 567/13/1 568/3/1
f 569/2/1 570/12/1 571/13/1 572/3/1
f 573/2/1 574/12/1 575/13/1 576/3/1
f 577/2/1 578/12/1 579/13/1 580/3/1
f 581/2/1 582/12/1 583/13/1 584/3/1
f 585/2/1 586/12/1 587/13/1 588/3/1
f 589/2/1 590/12/1 591/13/1 592/3/1
f 593/2/1 594/12/1 595/13/1 596/3/1
f 597/2/1 598/12/1 599/13/1 600/3/1
f 601/5/1 602/6/1 603/7/1 604/8/1
f 605/2/1 606/12/1 607/13/1 608/3/1
f 609/12/1 610/14/1 611/15/1 612/13/1
f 613/2/1 614/12/1 615/13/1 616/3/1
f 617/2/1 618/12/1 619/13/1 620/3/1
f 621/2/1 622/12/1 623/13/1 624/3/1
f 625/2/1 626/12/1 627/13/1 628/3/1
f 629/2/1 630/12/1 631/13/1 632/3/1
f 633/2/1 634/12/1 635/13/1 636/3/1
f 637/2/1 638/12/1 639/13/1 640/3/1
f 641/2/1 642/12/1 643/13/1 644/3/1
f 645/2/1 646/12/1 647/13/1 648/3/1
f 649/2/1 650/12/1 651/13/1 652/3/1
f 653/2/1 654/12/1 655/13/1 656/3/1
f 657/2/1 658/12/1 659/13/1 660/3/1
f 661/2/1 662/12/1 663/13/1 664/3/1
f 665/15/1 666/26/1 667/29/1 668/30/1
f 669/18/1 670/19/1 671/20/1 672/21/1
f 673/18/1 674/19/1 675/20/1 676/21/1
f 677/2/1 678/12/1 679/13/1 680/3/1
f 681/2/1 682/12/1 683/13/1 684/3/1
f 685/2/1 686/12/1 687/13/1 688/3/1
f 689/2/1 690/12/1 691/13/1 692/3/1
f 693/2/1 694/12/1 695/13/1 696/3/1
f 697/2/1 698/12/1 699/13/1 700/3/1
f 701/2/1 702/12/1 703/13/1 704/3/1
f 705/2/1 706/12/1 707/13/1 708/3/1
f 709/2/1 710/12/1 711/13/1 712/3/1
f 713/2/1 714/12/1 715/13/1 716/3/1
f 717/2/1 718/12/1 719/13/1 720/3/1
f 721/2/1 722/12/1 723/13/1 724/3/1
f 725/2/1 726/12/1 727/13/1 728/3/1
f 729/2/1 730/12/1 731/13/1 732/3/1
f 733/2/1 734/12/1 735/13/1 736/3/1
f 737/2/1 738/12/1 739/13/1 740/3/1
f 741/2/1 742/12/1 743/13/1 744/3/1
f 745/2/1 746/12/1 747/13/1 748/3/1
f 749/2/1 750/12/1 751/13/1 752/3/1
f 753/2/1 754/12/1 755/13/1 756/3/1
f 757/2/1 758/12/1 759/13/1 760/3/1
f 761/2/1 762/12/1 763/13/1 764/3/1
f 765/2/1 766/12/1 767/13/1 768/3/1
f 769/2/1 770/12/1 771/13/1 772/3/1
f 773/2/1 774/12/1 775/13/1 776/3/1
f 777/2/1 778/12/1 779/13/1 780/3/1
f 781/2/1 782/12/1 783/13/1 784/3/1
f 785/2/1 786/12/1 787/13/1 788/3/1
f 789/2/1 790/12/1 791/13/1 792/3/1
f 793/2/1 794/12/1 795/13/1 796/3/1
f 797/2/1 798/12/1 799/13/1 800/3/1
f 801/2/1 802/12/1 803/13/1 804/3/1
f 805/2/1 806/12/1 807/13/1 808/3/1
f 809/2/1 810/12/1 811/13/1 812/3/1
f 813/2/1 814/12/1 815/13/1 816/3/1
f 817/2/1 818/12/1 819/13/1 820/3/1
f 821/2/1 822/12/1 823/13/1 824/3/1
f 825/2/1 826/12/1 827/13/1 828/3/1
f 829/2/1 830/12/1 831/13/1 832/3/1
f 833/2/1 834/12/1 835/13/1 836/3/1
f 837/2/1 838/12/1 839/13/1 840/3/1
f 841/2/1 842/12/1 843/13/1 844/3/1
f 845/2/1 846/12/1 847/13/1 848/3/1
f 849/2/1 850/12/1 851/13/1 852/3/1
f 853/2/1 854/12/1 855/13/1 856/3/1
f 857/2/1 858/12/1 859/13/1 860/3/1
f 861/2/1 862/12/1 863/13/1 864/3/1
f 865/2/1 866/12/1 867/13/1 868/3/1

