# Tiled2Unity generated file. Do not modify by hand.
# Wavefront file for 'Map_Master_mesh_0051.obj'

# Vertices (Count = 16)
v -11 -3 0
v -12 -3 0
v -12 -2 0
v -11 -2 0
v -11 -4 0
v -12 -4 0
v -12 -3 0
v -11 -3 0
v -11 -5 0
v -12 -5 0
v -12 -4 0
v -11 -4 0
v -11 -6 0
v -12 -6 0
v -12 -5 0
v -11 -5 0

# Texture cooridinates (Count = 4)
vt 0.1 0.1111111
vt 0.2 0.1111111
vt 0.2 0.2222222
vt 0.1 0.2222222

# Normal
vn 0 0 -1

# Mesh description
g Map_Master_mesh_0051

# Faces
f 1/1/1 2/2/1 3/3/1 4/4/1
f 5/1/1 6/2/1 7/3/1 8/4/1
f 9/1/1 10/2/1 11/3/1 12/4/1
f 13/1/1 14/2/1 15/3/1 16/4/1

