# Tiled2Unity generated file. Do not modify by hand.
# Wavefront file for 'Map_Master_mesh_0093.obj'

# Vertices (Count = 16)
v -5 -5 0
v -6 -5 0
v -6 -4 0
v -5 -4 0
v -12 -6 0
v -13 -6 0
v -13 -5 0
v -12 -5 0
v -13 -6 0
v -14 -6 0
v -14 -5 0
v -13 -5 0
v -14 -6 0
v -15 -6 0
v -15 -5 0
v -14 -5 0

# Texture cooridinates (Count = 12)
vt 0.4 0.6666666
vt 0.5 0.6666666
vt 0.5 0.7777778
vt 0.4 0.7777778
vt 0.6 0.8888889
vt 0.7 0.8888889
vt 0.7 1
vt 0.6 1
vt 0.8 0.8888889
vt 0.8 1
vt 0.9 0.8888889
vt 0.9 1

# Normal
vn 0 0 -1

# Mesh description
g Map_Master_mesh_0093

# Faces
f 1/1/1 2/2/1 3/3/1 4/4/1
f 5/5/1 6/6/1 7/7/1 8/8/1
f 9/6/1 10/9/1 11/10/1 12/7/1
f 13/9/1 14/11/1 15/12/1 16/10/1

