# Tiled2Unity generated file. Do not modify by hand.
# Wavefront file for 'Map_Master_mesh_0099.obj'

# Vertices (Count = 28)
v 0 -10 0
v -1 -10 0
v -1 -9 0
v 0 -9 0
v -5 -12 0
v -6 -12 0
v -6 -11 0
v -5 -11 0
v -6 -12 0
v -7 -12 0
v -7 -11 0
v -6 -11 0
v -7 -12 0
v -8 -12 0
v -8 -11 0
v -7 -11 0
v -11 -12 0
v -12 -12 0
v -12 -11 0
v -11 -11 0
v -12 -12 0
v -13 -12 0
v -13 -11 0
v -12 -11 0
v -13 -12 0
v -14 -12 0
v -14 -11 0
v -13 -11 0

# Texture cooridinates (Count = 14)
vt 0.2 0.8888889
vt 0.3 0.8888889
vt 0.3 1
vt 0.2 1
vt 0.1 0.8888889
vt 0.1 1
vt 0.6 0.8888889
vt 0.7 0.8888889
vt 0.7 1
vt 0.6 1
vt 0.8 0.8888889
vt 0.8 1
vt 0.9 0.8888889
vt 0.9 1

# Normal
vn 0 0 -1

# Mesh description
g Map_Master_mesh_0099

# Faces
f 1/1/1 2/2/1 3/3/1 4/4/1
f 5/5/1 6/1/1 7/4/1 8/6/1
f 9/5/1 10/1/1 11/4/1 12/6/1
f 13/1/1 14/2/1 15/3/1 16/4/1
f 17/7/1 18/8/1 19/9/1 20/10/1
f 21/8/1 22/11/1 23/12/1 24/9/1
f 25/11/1 26/13/1 27/14/1 28/12/1

