# Tiled2Unity generated file. Do not modify by hand.
# Wavefront file for 'Map_Master_mesh_0064.obj'

# Vertices (Count = 16)
v -7 -12 0
v -8 -12 0
v -8 -11 0
v -7 -11 0
v -10 -12 0
v -11 -12 0
v -11 -11 0
v -10 -11 0
v -11 -12 0
v -12 -12 0
v -12 -11 0
v -11 -11 0
v -12 -12 0
v -13 -12 0
v -13 -11 0
v -12 -11 0

# Texture cooridinates (Count = 8)
vt 0.2 0
vt 0.3 0
vt 0.3 0.1111111
vt 0.2 0.1111111
vt 0 0
vt 0.1 0
vt 0.1 0.1111111
vt 0 0.1111111

# Normal
vn 0 0 -1

# Mesh description
g Map_Master_mesh_0064

# Faces
f 1/1/1 2/2/1 3/3/1 4/4/1
f 5/5/1 6/6/1 7/7/1 8/8/1
f 9/6/1 10/1/1 11/4/1 12/7/1
f 13/1/1 14/2/1 15/3/1 16/4/1

