# Tiled2Unity generated file. Do not modify by hand.
# Wavefront file for 'Map_Master_mesh_0568.obj'

# Vertices (Count = 12)
v -6 -6 0
v -7 -6 0
v -7 -5 0
v -6 -5 0
v -13 -9 0
v -14 -9 0
v -14 -8 0
v -13 -8 0
v -9 -14 0
v -10 -14 0
v -10 -13 0
v -9 -13 0

# Texture cooridinates (Count = 8)
vt 0.5 0
vt 0.75 0
vt 0.75 1
vt 0.5 1
vt 0.25 0
vt 0.25 1
vt 0 0
vt 0 1

# Normal
vn 0 0 -1

# Mesh description
g Map_Master_mesh_0568

# Faces
f 1/1/1 2/2/1 3/3/1 4/4/1
f 5/5/1 6/1/1 7/4/1 8/6/1
f 9/7/1 10/5/1 11/6/1 12/8/1

