# Tiled2Unity generated file. Do not modify by hand.
# Wavefront file for 'Map_Master_mesh_0227.obj'

# Vertices (Count = 304)
v 0 -1 0
v -1 -1 0
v -1 0 0
v 0 0 0
v -1 -1 0
v -2 -1 0
v -2 0 0
v -1 0 0
v -4 -1 0
v -5 -1 0
v -5 0 0
v -4 0 0
v -5 -1 0
v -6 -1 0
v -6 0 0
v -5 0 0
v -6 -1 0
v -7 -1 0
v -7 0 0
v -6 0 0
v 0 -2 0
v -1 -2 0
v -1 -1 0
v 0 -1 0
v -1 -2 0
v -2 -2 0
v -2 -1 0
v -1 -1 0
v -12 -2 0
v -13 -2 0
v -13 -1 0
v -12 -1 0
v -13 -2 0
v -14 -2 0
v -14 -1 0
v -13 -1 0
v -14 -2 0
v -15 -2 0
v -15 -1 0
v -14 -1 0
v 0 -3 0
v -1 -3 0
v -1 -2 0
v 0 -2 0
v -1 -3 0
v -2 -3 0
v -2 -2 0
v -1 -2 0
v -12 -3 0
v -13 -3 0
v -13 -2 0
v -12 -2 0
v -13 -3 0
v -14 -3 0
v -14 -2 0
v -13 -2 0
v -14 -3 0
v -15 -3 0
v -15 -2 0
v -14 -2 0
v 0 -4 0
v -1 -4 0
v -1 -3 0
v 0 -3 0
v -1 -4 0
v -2 -4 0
v -2 -3 0
v -1 -3 0
v -13 -4 0
v -14 -4 0
v -14 -3 0
v -13 -3 0
v -14 -4 0
v -15 -4 0
v -15 -3 0
v -14 -3 0
v -7 -6 0
v -8 -6 0
v -8 -5 0
v -7 -5 0
v -8 -6 0
v -9 -6 0
v -9 -5 0
v -8 -5 0
v -9 -6 0
v -10 -6 0
v -10 -5 0
v -9 -5 0
v -6 -7 0
v -7 -7 0
v -7 -6 0
v -6 -6 0
v -7 -7 0
v -8 -7 0
v -8 -6 0
v -7 -6 0
v -8 -7 0
v -9 -7 0
v -9 -6 0
v -8 -6 0
v -9 -7 0
v -10 -7 0
v -10 -6 0
v -9 -6 0
v -10 -7 0
v -11 -7 0
v -11 -6 0
v -10 -6 0
v -1 -8 0
v -2 -8 0
v -2 -7 0
v -1 -7 0
v -2 -8 0
v -3 -8 0
v -3 -7 0
v -2 -7 0
v -3 -8 0
v -4 -8 0
v -4 -7 0
v -3 -7 0
v -4 -8 0
v -5 -8 0
v -5 -7 0
v -4 -7 0
v -7 -8 0
v -8 -8 0
v -8 -7 0
v -7 -7 0
v -8 -8 0
v -9 -8 0
v -9 -7 0
v -8 -7 0
v -9 -8 0
v -10 -8 0
v -10 -7 0
v -9 -7 0
v -10 -8 0
v -11 -8 0
v -11 -7 0
v -10 -7 0
v -12 -8 0
v -13 -8 0
v -13 -7 0
v -12 -7 0
v -13 -8 0
v -14 -8 0
v -14 -7 0
v -13 -7 0
v -1 -9 0
v -2 -9 0
v -2 -8 0
v -1 -8 0
v -2 -9 0
v -3 -9 0
v -3 -8 0
v -2 -8 0
v -3 -9 0
v -4 -9 0
v -4 -8 0
v -3 -8 0
v -4 -9 0
v -5 -9 0
v -5 -8 0
v -4 -8 0
v -5 -9 0
v -6 -9 0
v -6 -8 0
v -5 -8 0
v -7 -9 0
v -8 -9 0
v -8 -8 0
v -7 -8 0
v -8 -9 0
v -9 -9 0
v -9 -8 0
v -8 -8 0
v -9 -9 0
v -10 -9 0
v -10 -8 0
v -9 -8 0
v -10 -9 0
v -11 -9 0
v -11 -8 0
v -10 -8 0
v -12 -9 0
v -13 -9 0
v -13 -8 0
v -12 -8 0
v -13 -9 0
v -14 -9 0
v -14 -8 0
v -13 -8 0
v 0 -10 0
v -1 -10 0
v -1 -9 0
v 0 -9 0
v -1 -10 0
v -2 -10 0
v -2 -9 0
v -1 -9 0
v -2 -10 0
v -3 -10 0
v -3 -9 0
v -2 -9 0
v -3 -10 0
v -4 -10 0
v -4 -9 0
v -3 -9 0
v -4 -10 0
v -5 -10 0
v -5 -9 0
v -4 -9 0
v -5 -10 0
v -6 -10 0
v -6 -9 0
v -5 -9 0
v -8 -10 0
v -9 -10 0
v -9 -9 0
v -8 -9 0
v -9 -10 0
v -10 -10 0
v -10 -9 0
v -9 -9 0
v 0 -11 0
v -1 -11 0
v -1 -10 0
v 0 -10 0
v -1 -11 0
v -2 -11 0
v -2 -10 0
v -1 -10 0
v -2 -11 0
v -3 -11 0
v -3 -10 0
v -2 -10 0
v -3 -11 0
v -4 -11 0
v -4 -10 0
v -3 -10 0
v -4 -11 0
v -5 -11 0
v -5 -10 0
v -4 -10 0
v 0 -12 0
v -1 -12 0
v -1 -11 0
v 0 -11 0
v -1 -12 0
v -2 -12 0
v -2 -11 0
v -1 -11 0
v -2 -12 0
v -3 -12 0
v -3 -11 0
v -2 -11 0
v -3 -12 0
v -4 -12 0
v -4 -11 0
v -3 -11 0
v -4 -12 0
v -5 -12 0
v -5 -11 0
v -4 -11 0
v -5 -12 0
v -6 -12 0
v -6 -11 0
v -5 -11 0
v -2 -13 0
v -3 -13 0
v -3 -12 0
v -2 -12 0
v -3 -13 0
v -4 -13 0
v -4 -12 0
v -3 -12 0
v -4 -13 0
v -5 -13 0
v -5 -12 0
v -4 -12 0
v -5 -13 0
v -6 -13 0
v -6 -12 0
v -5 -12 0
v -11 -16 0
v -12 -16 0
v -12 -15 0
v -11 -15 0
v -12 -16 0
v -13 -16 0
v -13 -15 0
v -12 -15 0
v -13 -16 0
v -14 -16 0
v -14 -15 0
v -13 -15 0
v -14 -16 0
v -15 -16 0
v -15 -15 0
v -14 -15 0
v -15 -16 0
v -16 -16 0
v -16 -15 0
v -15 -15 0

# Texture cooridinates (Count = 29)
vt 0.3 0.2222222
vt 0.4 0.2222222
vt 0.4 0.3333333
vt 0.3 0.3333333
vt 0.7 0.2222222
vt 0.8 0.2222222
vt 0.8 0.3333333
vt 0.7 0.3333333
vt 0 0
vt 0.1 0
vt 0.1 0.1111111
vt 0 0.1111111
vt 0.2 0
vt 0.2 0.1111111
vt 0.3 0
vt 0.3 0.1111111
vt 0.2 0.2222222
vt 0.1 0.2222222
vt 0.5 0.2222222
vt 0.6 0.2222222
vt 0.6 0.3333333
vt 0.5 0.3333333
vt 0.5 0.4444444
vt 0.4 0.4444444
vt 0.2 0.3333333
vt 0 0.2222222
vt 0.1 0.3333333
vt 0 0.3333333
vt 0.3 0.4444444

# Normal
vn 0 0 -1

# Mesh description
g Map_Master_mesh_0227

# Faces
f 1/1/1 2/2/1 3/3/1 4/4/1
f 5/5/1 6/6/1 7/7/1 8/8/1
f 9/9/1 10/10/1 11/11/1 12/12/1
f 13/10/1 14/13/1 15/14/1 16/11/1
f 17/13/1 18/15/1 19/16/1 20/14/1
f 21/11/1 22/14/1 23/17/1 24/18/1
f 25/14/1 26/16/1 27/1/1 28/17/1
f 29/19/1 30/20/1 31/21/1 32/22/1
f 33/20/1 34/5/1 35/8/1 36/21/1
f 37/5/1 38/6/1 39/7/1 40/8/1
f 41/3/1 42/22/1 43/23/1 44/24/1
f 45/14/1 46/16/1 47/1/1 48/17/1
f 49/9/1 50/10/1 51/11/1 52/12/1
f 53/3/1 54/22/1 55/23/1 56/24/1
f 57/17/1 58/1/1 59/4/1 60/25/1
f 61/9/1 62/10/1 63/11/1 64/12/1
f 65/13/1 66/15/1 67/16/1 68/14/1
f 69/9/1 70/10/1 71/11/1 72/12/1
f 73/13/1 74/15/1 75/16/1 76/14/1
f 77/26/1 78/18/1 79/27/1 80/28/1
f 81/18/1 82/17/1 83/25/1 84/27/1
f 85/17/1 86/1/1 87/4/1 88/25/1
f 89/9/1 90/10/1 91/11/1 92/12/1
f 93/3/1 94/22/1 95/23/1 96/24/1
f 97/11/1 98/14/1 99/17/1 100/18/1
f 101/1/1 102/2/1 103/3/1 104/4/1
f 105/5/1 106/6/1 107/7/1 108/8/1
f 109/19/1 110/20/1 111/21/1 112/22/1
f 113/20/1 114/5/1 115/8/1 116/21/1
f 117/20/1 118/5/1 119/8/1 120/21/1
f 121/5/1 122/6/1 123/7/1 124/8/1
f 125/12/1 126/11/1 127/18/1 128/26/1
f 129/11/1 130/14/1 131/17/1 132/18/1
f 133/11/1 134/14/1 135/17/1 136/18/1
f 137/17/1 138/1/1 139/4/1 140/25/1
f 141/26/1 142/18/1 143/27/1 144/28/1
f 145/17/1 146/1/1 147/4/1 148/25/1
f 149/12/1 150/11/1 151/18/1 152/26/1
f 153/11/1 154/14/1 155/17/1 156/18/1
f 157/11/1 158/14/1 159/17/1 160/18/1
f 161/1/1 162/2/1 163/3/1 164/4/1
f 165/5/1 166/6/1 167/7/1 168/8/1
f 169/9/1 170/10/1 171/11/1 172/12/1
f 173/3/1 174/22/1 175/23/1 176/24/1
f 177/4/1 178/3/1 179/24/1 180/29/1
f 181/13/1 182/15/1 183/16/1 184/14/1
f 185/9/1 186/10/1 187/11/1 188/12/1
f 189/13/1 190/15/1 191/16/1 192/14/1
f 193/26/1 194/18/1 195/27/1 196/28/1
f 197/2/1 198/19/1 199/22/1 200/3/1
f 201/11/1 202/14/1 203/17/1 204/18/1
f 205/11/1 206/14/1 207/17/1 208/18/1
f 209/4/1 210/3/1 211/24/1 212/29/1
f 213/13/1 214/15/1 215/16/1 216/14/1
f 217/9/1 218/10/1 219/11/1 220/12/1
f 221/13/1 222/15/1 223/16/1 224/14/1
f 225/12/1 226/11/1 227/18/1 228/26/1
f 229/11/1 230/14/1 231/17/1 232/18/1
f 233/11/1 234/14/1 235/17/1 236/18/1
f 237/11/1 238/14/1 239/17/1 240/18/1
f 241/14/1 242/16/1 243/1/1 244/17/1
f 245/9/1 246/10/1 247/11/1 248/12/1
f 249/10/1 250/13/1 251/14/1 252/11/1
f 253/3/1 254/22/1 255/23/1 256/24/1
f 257/11/1 258/14/1 259/17/1 260/18/1
f 261/1/1 262/2/1 263/3/1 264/4/1
f 265/17/1 266/1/1 267/4/1 268/25/1
f 269/9/1 270/10/1 271/11/1 272/12/1
f 273/10/1 274/13/1 275/14/1 276/11/1
f 277/10/1 278/13/1 279/14/1 280/11/1
f 281/13/1 282/15/1 283/16/1 284/14/1
f 285/26/1 286/18/1 287/27/1 288/28/1
f 289/18/1 290/17/1 291/25/1 292/27/1
f 293/18/1 294/17/1 295/25/1 296/27/1
f 297/18/1 298/17/1 299/25/1 300/27/1
f 301/18/1 302/17/1 303/25/1 304/27/1

