# Tiled2Unity generated file. Do not modify by hand.
# Wavefront file for 'Map_Master_mesh_0370.obj'

# Vertices (Count = 492)
v -6 -2 0
v -7 -2 0
v -7 -1 0
v -6 -1 0
v -7 -2 0
v -8 -2 0
v -8 -1 0
v -7 -1 0
v -8 -2 0
v -9 -2 0
v -9 -1 0
v -8 -1 0
v 0 -3 0
v -1 -3 0
v -1 -2 0
v 0 -2 0
v 0 -4 0
v -1 -4 0
v -1 -3 0
v 0 -3 0
v -1 -4 0
v -2 -4 0
v -2 -3 0
v -1 -3 0
v -2 -4 0
v -3 -4 0
v -3 -3 0
v -2 -3 0
v -3 -4 0
v -4 -4 0
v -4 -3 0
v -3 -3 0
v -4 -4 0
v -5 -4 0
v -5 -3 0
v -4 -3 0
v -5 -4 0
v -6 -4 0
v -6 -3 0
v -5 -3 0
v -9 -4 0
v -10 -4 0
v -10 -3 0
v -9 -3 0
v -10 -4 0
v -11 -4 0
v -11 -3 0
v -10 -3 0
v -11 -4 0
v -12 -4 0
v -12 -3 0
v -11 -3 0
v -12 -4 0
v -13 -4 0
v -13 -3 0
v -12 -3 0
v 0 -5 0
v -1 -5 0
v -1 -4 0
v 0 -4 0
v -1 -5 0
v -2 -5 0
v -2 -4 0
v -1 -4 0
v -2 -5 0
v -3 -5 0
v -3 -4 0
v -2 -4 0
v -3 -5 0
v -4 -5 0
v -4 -4 0
v -3 -4 0
v -4 -5 0
v -5 -5 0
v -5 -4 0
v -4 -4 0
v -5 -5 0
v -6 -5 0
v -6 -4 0
v -5 -4 0
v -6 -5 0
v -7 -5 0
v -7 -4 0
v -6 -4 0
v -7 -5 0
v -8 -5 0
v -8 -4 0
v -7 -4 0
v -8 -5 0
v -9 -5 0
v -9 -4 0
v -8 -4 0
v -9 -5 0
v -10 -5 0
v -10 -4 0
v -9 -4 0
v -10 -5 0
v -11 -5 0
v -11 -4 0
v -10 -4 0
v -11 -5 0
v -12 -5 0
v -12 -4 0
v -11 -4 0
v -12 -5 0
v -13 -5 0
v -13 -4 0
v -12 -4 0
v -13 -5 0
v -14 -5 0
v -14 -4 0
v -13 -4 0
v -14 -5 0
v -15 -5 0
v -15 -4 0
v -14 -4 0
v -15 -5 0
v -16 -5 0
v -16 -4 0
v -15 -4 0
v 0 -6 0
v -1 -6 0
v -1 -5 0
v 0 -5 0
v -1 -6 0
v -2 -6 0
v -2 -5 0
v -1 -5 0
v -2 -6 0
v -3 -6 0
v -3 -5 0
v -2 -5 0
v -3 -6 0
v -4 -6 0
v -4 -5 0
v -3 -5 0
v -4 -6 0
v -5 -6 0
v -5 -5 0
v -4 -5 0
v -5 -6 0
v -6 -6 0
v -6 -5 0
v -5 -5 0
v -6 -6 0
v -7 -6 0
v -7 -5 0
v -6 -5 0
v -7 -6 0
v -8 -6 0
v -8 -5 0
v -7 -5 0
v -8 -6 0
v -9 -6 0
v -9 -5 0
v -8 -5 0
v -9 -6 0
v -10 -6 0
v -10 -5 0
v -9 -5 0
v -10 -6 0
v -11 -6 0
v -11 -5 0
v -10 -5 0
v -11 -6 0
v -12 -6 0
v -12 -5 0
v -11 -5 0
v -12 -6 0
v -13 -6 0
v -13 -5 0
v -12 -5 0
v -13 -6 0
v -14 -6 0
v -14 -5 0
v -13 -5 0
v -14 -6 0
v -15 -6 0
v -15 -5 0
v -14 -5 0
v -15 -6 0
v -16 -6 0
v -16 -5 0
v -15 -5 0
v 0 -7 0
v -1 -7 0
v -1 -6 0
v 0 -6 0
v -1 -7 0
v -2 -7 0
v -2 -6 0
v -1 -6 0
v -2 -7 0
v -3 -7 0
v -3 -6 0
v -2 -6 0
v -3 -7 0
v -4 -7 0
v -4 -6 0
v -3 -6 0
v -4 -7 0
v -5 -7 0
v -5 -6 0
v -4 -6 0
v -5 -7 0
v -6 -7 0
v -6 -6 0
v -5 -6 0
v -6 -7 0
v -7 -7 0
v -7 -6 0
v -6 -6 0
v -7 -7 0
v -8 -7 0
v -8 -6 0
v -7 -6 0
v -8 -7 0
v -9 -7 0
v -9 -6 0
v -8 -6 0
v -9 -7 0
v -10 -7 0
v -10 -6 0
v -9 -6 0
v -10 -7 0
v -11 -7 0
v -11 -6 0
v -10 -6 0
v -11 -7 0
v -12 -7 0
v -12 -6 0
v -11 -6 0
v -12 -7 0
v -13 -7 0
v -13 -6 0
v -12 -6 0
v -13 -7 0
v -14 -7 0
v -14 -6 0
v -13 -6 0
v -14 -7 0
v -15 -7 0
v -15 -6 0
v -14 -6 0
v -15 -7 0
v -16 -7 0
v -16 -6 0
v -15 -6 0
v 0 -8 0
v -1 -8 0
v -1 -7 0
v 0 -7 0
v -1 -8 0
v -2 -8 0
v -2 -7 0
v -1 -7 0
v -2 -8 0
v -3 -8 0
v -3 -7 0
v -2 -7 0
v -3 -8 0
v -4 -8 0
v -4 -7 0
v -3 -7 0
v -4 -8 0
v -5 -8 0
v -5 -7 0
v -4 -7 0
v -5 -8 0
v -6 -8 0
v -6 -7 0
v -5 -7 0
v -6 -8 0
v -7 -8 0
v -7 -7 0
v -6 -7 0
v -7 -8 0
v -8 -8 0
v -8 -7 0
v -7 -7 0
v -8 -8 0
v -9 -8 0
v -9 -7 0
v -8 -7 0
v -9 -8 0
v -10 -8 0
v -10 -7 0
v -9 -7 0
v -10 -8 0
v -11 -8 0
v -11 -7 0
v -10 -7 0
v -11 -8 0
v -12 -8 0
v -12 -7 0
v -11 -7 0
v -12 -8 0
v -13 -8 0
v -13 -7 0
v -12 -7 0
v -13 -8 0
v -14 -8 0
v -14 -7 0
v -13 -7 0
v -14 -8 0
v -15 -8 0
v -15 -7 0
v -14 -7 0
v -15 -8 0
v -16 -8 0
v -16 -7 0
v -15 -7 0
v -13 -9 0
v -14 -9 0
v -14 -8 0
v -13 -8 0
v -14 -9 0
v -15 -9 0
v -15 -8 0
v -14 -8 0
v -15 -9 0
v -16 -9 0
v -16 -8 0
v -15 -8 0
v -1 -13 0
v -2 -13 0
v -2 -12 0
v -1 -12 0
v -2 -13 0
v -3 -13 0
v -3 -12 0
v -2 -12 0
v -3 -13 0
v -4 -13 0
v -4 -12 0
v -3 -12 0
v -8 -13 0
v -9 -13 0
v -9 -12 0
v -8 -12 0
v -9 -13 0
v -10 -13 0
v -10 -12 0
v -9 -12 0
v -10 -13 0
v -11 -13 0
v -11 -12 0
v -10 -12 0
v -11 -13 0
v -12 -13 0
v -12 -12 0
v -11 -12 0
v 0 -14 0
v -1 -14 0
v -1 -13 0
v 0 -13 0
v -1 -14 0
v -2 -14 0
v -2 -13 0
v -1 -13 0
v -2 -14 0
v -3 -14 0
v -3 -13 0
v -2 -13 0
v -3 -14 0
v -4 -14 0
v -4 -13 0
v -3 -13 0
v -4 -14 0
v -5 -14 0
v -5 -13 0
v -4 -13 0
v -5 -14 0
v -6 -14 0
v -6 -13 0
v -5 -13 0
v -6 -14 0
v -7 -14 0
v -7 -13 0
v -6 -13 0
v -7 -14 0
v -8 -14 0
v -8 -13 0
v -7 -13 0
v -8 -14 0
v -9 -14 0
v -9 -13 0
v -8 -13 0
v -9 -14 0
v -10 -14 0
v -10 -13 0
v -9 -13 0
v -10 -14 0
v -11 -14 0
v -11 -13 0
v -10 -13 0
v -11 -14 0
v -12 -14 0
v -12 -13 0
v -11 -13 0
v -12 -14 0
v -13 -14 0
v -13 -13 0
v -12 -13 0
v -13 -14 0
v -14 -14 0
v -14 -13 0
v -13 -13 0
v -14 -14 0
v -15 -14 0
v -15 -13 0
v -14 -13 0
v -15 -14 0
v -16 -14 0
v -16 -13 0
v -15 -13 0
v 0 -15 0
v -1 -15 0
v -1 -14 0
v 0 -14 0
v -1 -15 0
v -2 -15 0
v -2 -14 0
v -1 -14 0
v -2 -15 0
v -3 -15 0
v -3 -14 0
v -2 -14 0
v -3 -15 0
v -4 -15 0
v -4 -14 0
v -3 -14 0
v -4 -15 0
v -5 -15 0
v -5 -14 0
v -4 -14 0
v -5 -15 0
v -6 -15 0
v -6 -14 0
v -5 -14 0
v -6 -15 0
v -7 -15 0
v -7 -14 0
v -6 -14 0
v -7 -15 0
v -8 -15 0
v -8 -14 0
v -7 -14 0
v -8 -15 0
v -9 -15 0
v -9 -14 0
v -8 -14 0
v -9 -15 0
v -10 -15 0
v -10 -14 0
v -9 -14 0
v -10 -15 0
v -11 -15 0
v -11 -14 0
v -10 -14 0
v -11 -15 0
v -12 -15 0
v -12 -14 0
v -11 -14 0
v -12 -15 0
v -13 -15 0
v -13 -14 0
v -12 -14 0
v -13 -15 0
v -14 -15 0
v -14 -14 0
v -13 -14 0
v -14 -15 0
v -15 -15 0
v -15 -14 0
v -14 -14 0
v -15 -15 0
v -16 -15 0
v -16 -14 0
v -15 -14 0
v 0 -16 0
v -1 -16 0
v -1 -15 0
v 0 -15 0
v -1 -16 0
v -2 -16 0
v -2 -15 0
v -1 -15 0
v -2 -16 0
v -3 -16 0
v -3 -15 0
v -2 -15 0

# Texture cooridinates (Count = 30)
vt 0.1111111 0.3333333
vt 0.2222222 0.3333333
vt 0.2222222 0.5
vt 0.1111111 0.5
vt 0.3333333 0.3333333
vt 0.3333333 0.5
vt 0.4444444 0.3333333
vt 0.4444444 0.5
vt 0.2222222 0.8333333
vt 0.3333333 0.8333333
vt 0.3333333 1
vt 0.2222222 1
vt 0.3333333 0.6666666
vt 0.4444444 0.6666666
vt 0.4444444 0.8333333
vt 0.1111111 0.8333333
vt 0.1111111 1
vt 0 0.8333333
vt 0 1
vt 0.1111111 0.6666666
vt 0.2222222 0.6666666
vt 0.5555556 0.5
vt 0.5555556 0.6666666
vt 0.5555556 0.8333333
vt 0.5555556 1
vt 0.4444444 1
vt 0 0.5
vt 0 0.6666666
vt 0.6666667 0.6666666
vt 0.6666667 0.8333333

# Normal
vn 0 0 -1

# Mesh description
g Map_Master_mesh_0370

# Faces
f 1/1/1 2/2/1 3/3/1 4/4/1
f 5/2/1 6/5/1 7/6/1 8/3/1
f 9/5/1 10/7/1 11/8/1 12/6/1
f 13/9/1 14/10/1 15/11/1 16/12/1
f 17/13/1 18/14/1 19/15/1 20/10/1
f 21/16/1 22/9/1 23/12/1 24/17/1
f 25/16/1 26/9/1 27/12/1 28/17/1
f 29/16/1 30/9/1 31/12/1 32/17/1
f 33/16/1 34/9/1 35/12/1 36/17/1
f 37/9/1 38/10/1 39/11/1 40/12/1
f 41/18/1 42/16/1 43/17/1 44/19/1
f 45/16/1 46/9/1 47/12/1 48/17/1
f 49/16/1 50/9/1 51/12/1 52/17/1
f 53/9/1 54/10/1 55/11/1 56/12/1
f 57/20/1 58/21/1 59/9/1 60/16/1
f 61/20/1 62/21/1 63/9/1 64/16/1
f 65/20/1 66/21/1 67/9/1 68/16/1
f 69/20/1 70/21/1 71/9/1 72/16/1
f 73/8/1 74/22/1 75/23/1 76/14/1
f 77/13/1 78/14/1 79/15/1 80/10/1
f 81/16/1 82/9/1 83/12/1 84/17/1
f 85/16/1 86/9/1 87/12/1 88/17/1
f 89/16/1 90/9/1 91/12/1 92/17/1
f 93/14/1 94/23/1 95/24/1 96/15/1
f 97/20/1 98/21/1 99/9/1 100/16/1
f 101/20/1 102/21/1 103/9/1 104/16/1
f 105/13/1 106/14/1 107/15/1 108/10/1
f 109/16/1 110/9/1 111/12/1 112/17/1
f 113/16/1 114/9/1 115/12/1 116/17/1
f 117/16/1 118/9/1 119/12/1 120/17/1
f 121/20/1 122/21/1 123/9/1 124/16/1
f 125/20/1 126/21/1 127/9/1 128/16/1
f 129/20/1 130/21/1 131/9/1 132/16/1
f 133/20/1 134/21/1 135/9/1 136/16/1
f 137/20/1 138/21/1 139/9/1 140/16/1
f 141/20/1 142/21/1 143/9/1 144/16/1
f 145/20/1 146/21/1 147/9/1 148/16/1
f 149/20/1 150/21/1 151/9/1 152/16/1
f 153/8/1 154/22/1 155/23/1 156/14/1
f 157/20/1 158/21/1 159/9/1 160/16/1
f 161/8/1 162/22/1 163/23/1 164/14/1
f 165/20/1 166/21/1 167/9/1 168/16/1
f 169/20/1 170/21/1 171/9/1 172/16/1
f 173/20/1 174/21/1 175/9/1 176/16/1
f 177/20/1 178/21/1 179/9/1 180/16/1
f 181/20/1 182/21/1 183/9/1 184/16/1
f 185/20/1 186/21/1 187/9/1 188/16/1
f 189/20/1 190/21/1 191/9/1 192/16/1
f 193/20/1 194/21/1 195/9/1 196/16/1
f 197/20/1 198/21/1 199/9/1 200/16/1
f 201/20/1 202/21/1 203/9/1 204/16/1
f 205/20/1 206/21/1 207/9/1 208/16/1
f 209/20/1 210/21/1 211/9/1 212/16/1
f 213/20/1 214/21/1 215/9/1 216/16/1
f 217/20/1 218/21/1 219/9/1 220/16/1
f 221/20/1 222/21/1 223/9/1 224/16/1
f 225/20/1 226/21/1 227/9/1 228/16/1
f 229/20/1 230/21/1 231/9/1 232/16/1
f 233/20/1 234/21/1 235/9/1 236/16/1
f 237/20/1 238/21/1 239/9/1 240/16/1
f 241/20/1 242/21/1 243/9/1 244/16/1
f 245/20/1 246/21/1 247/9/1 248/16/1
f 249/4/1 250/3/1 251/21/1 252/20/1
f 253/4/1 254/3/1 255/21/1 256/20/1
f 257/4/1 258/3/1 259/21/1 260/20/1
f 261/4/1 262/3/1 263/21/1 264/20/1
f 265/4/1 266/3/1 267/21/1 268/20/1
f 269/4/1 270/3/1 271/21/1 272/20/1
f 273/4/1 274/3/1 275/21/1 276/20/1
f 277/4/1 278/3/1 279/21/1 280/20/1
f 281/4/1 282/3/1 283/21/1 284/20/1
f 285/4/1 286/3/1 287/21/1 288/20/1
f 289/4/1 290/3/1 291/21/1 292/20/1
f 293/4/1 294/3/1 295/21/1 296/20/1
f 297/4/1 298/3/1 299/21/1 300/20/1
f 301/15/1 302/24/1 303/25/1 304/26/1
f 305/20/1 306/21/1 307/9/1 308/16/1
f 309/20/1 310/21/1 311/9/1 312/16/1
f 313/27/1 314/4/1 315/20/1 316/28/1
f 317/4/1 318/3/1 319/21/1 320/20/1
f 321/4/1 322/3/1 323/21/1 324/20/1
f 325/18/1 326/16/1 327/17/1 328/19/1
f 329/16/1 330/9/1 331/12/1 332/17/1
f 333/9/1 334/10/1 335/11/1 336/12/1
f 337/18/1 338/16/1 339/17/1 340/19/1
f 341/16/1 342/9/1 343/12/1 344/17/1
f 345/16/1 346/9/1 347/12/1 348/17/1
f 349/9/1 350/10/1 351/11/1 352/12/1
f 353/16/1 354/9/1 355/12/1 356/17/1
f 357/14/1 358/23/1 359/24/1 360/15/1
f 361/20/1 362/21/1 363/9/1 364/16/1
f 365/13/1 366/14/1 367/15/1 368/10/1
f 369/16/1 370/9/1 371/12/1 372/17/1
f 373/16/1 374/9/1 375/12/1 376/17/1
f 377/16/1 378/9/1 379/12/1 380/17/1
f 381/16/1 382/9/1 383/12/1 384/17/1
f 385/14/1 386/23/1 387/24/1 388/15/1
f 389/6/1 390/8/1 391/14/1 392/13/1
f 393/23/1 394/29/1 395/30/1 396/24/1
f 397/13/1 398/14/1 399/15/1 400/10/1
f 401/16/1 402/9/1 403/12/1 404/17/1
f 405/16/1 406/9/1 407/12/1 408/17/1
f 409/16/1 410/9/1 411/12/1 412/17/1
f 413/16/1 414/9/1 415/12/1 416/17/1
f 417/20/1 418/21/1 419/9/1 420/16/1
f 421/20/1 422/21/1 423/9/1 424/16/1
f 425/10/1 426/15/1 427/26/1 428/11/1
f 429/4/1 430/3/1 431/21/1 432/20/1
f 433/4/1 434/3/1 435/21/1 436/20/1
f 437/4/1 438/3/1 439/21/1 440/20/1
f 441/4/1 442/3/1 443/21/1 444/20/1
f 445/4/1 446/3/1 447/21/1 448/20/1
f 449/4/1 450/3/1 451/21/1 452/20/1
f 453/4/1 454/3/1 455/21/1 456/20/1
f 457/4/1 458/3/1 459/21/1 460/20/1
f 461/4/1 462/3/1 463/21/1 464/20/1
f 465/4/1 466/3/1 467/21/1 468/20/1
f 469/4/1 470/3/1 471/21/1 472/20/1
f 473/4/1 474/3/1 475/21/1 476/20/1
f 477/4/1 478/3/1 479/21/1 480/20/1
f 481/20/1 482/21/1 483/9/1 484/16/1
f 485/10/1 486/15/1 487/26/1 488/11/1
f 489/3/1 490/6/1 491/13/1 492/21/1

