# Tiled2Unity generated file. Do not modify by hand.
# Wavefront file for 'Map_Master_mesh_0070.obj'

# Vertices (Count = 56)
v -4 -15 0
v -5 -15 0
v -5 -14 0
v -4 -14 0
v -5 -15 0
v -6 -15 0
v -6 -14 0
v -5 -14 0
v -6 -15 0
v -7 -15 0
v -7 -14 0
v -6 -14 0
v -7 -15 0
v -8 -15 0
v -8 -14 0
v -7 -14 0
v -8 -15 0
v -9 -15 0
v -9 -14 0
v -8 -14 0
v -9 -15 0
v -10 -15 0
v -10 -14 0
v -9 -14 0
v -10 -15 0
v -11 -15 0
v -11 -14 0
v -10 -14 0
v -11 -15 0
v -12 -15 0
v -12 -14 0
v -11 -14 0
v -5 -16 0
v -6 -16 0
v -6 -15 0
v -5 -15 0
v -6 -16 0
v -7 -16 0
v -7 -15 0
v -6 -15 0
v -7 -16 0
v -8 -16 0
v -8 -15 0
v -7 -15 0
v -8 -16 0
v -9 -16 0
v -9 -15 0
v -8 -15 0
v -9 -16 0
v -10 -16 0
v -10 -15 0
v -9 -15 0
v -10 -16 0
v -11 -16 0
v -11 -15 0
v -10 -15 0

# Texture cooridinates (Count = 21)
vt 0 0
vt 0.1 0
vt 0.1 0.1111111
vt 0 0.1111111
vt 0.4 0.3333333
vt 0.5 0.3333333
vt 0.5 0.4444444
vt 0.4 0.4444444
vt 0.3 0
vt 0.4 0
vt 0.4 0.1111111
vt 0.3 0.1111111
vt 0.2 0.1111111
vt 0.2 0.2222222
vt 0.1 0.2222222
vt 0.3 0.3333333
vt 0.3 0.4444444
vt 0.2 0
vt 0.5 0
vt 0.5 0.1111111
vt 0.3 0.2222222

# Normal
vn 0 0 -1

# Mesh description
g Map_Master_mesh_0070

# Faces
f 1/1/1 2/2/1 3/3/1 4/4/1
f 5/5/1 6/6/1 7/7/1 8/8/1
f 9/9/1 10/10/1 11/11/1 12/12/1
f 13/3/1 14/13/1 15/14/1 16/15/1
f 17/3/1 18/13/1 19/14/1 20/15/1
f 21/3/1 22/13/1 23/14/1 24/15/1
f 25/16/1 26/5/1 27/8/1 28/17/1
f 29/18/1 30/9/1 31/12/1 32/13/1
f 33/1/1 34/2/1 35/3/1 36/4/1
f 37/2/1 38/18/1 39/13/1 40/3/1
f 41/5/1 42/6/1 43/7/1 44/8/1
f 45/10/1 46/19/1 47/20/1 48/11/1
f 49/3/1 50/13/1 51/14/1 52/15/1
f 53/13/1 54/12/1 55/21/1 56/14/1

