# Tiled2Unity generated file. Do not modify by hand.
# Wavefront file for 'Map_Master_mesh_0619.obj'

# Vertices (Count = 44)
v -12 -2 0
v -12.5 -2 0
v -12.5 -1.5 0
v -12 -1.5 0
v -13 -2 0
v -13.5 -2 0
v -13.5 -1.5 0
v -13 -1.5 0
v -14 -2 0
v -14.5 -2 0
v -14.5 -1.5 0
v -14 -1.5 0
v -11 -8 0
v -11.5 -8 0
v -11.5 -7.5 0
v -11 -7.5 0
v -12 -8 0
v -12.5 -8 0
v -12.5 -7.5 0
v -12 -7.5 0
v -4 -15 0
v -4.5 -15 0
v -4.5 -14.5 0
v -4 -14.5 0
v -5 -15 0
v -5.5 -15 0
v -5.5 -14.5 0
v -5 -14.5 0
v -6 -15 0
v -6.5 -15 0
v -6.5 -14.5 0
v -6 -14.5 0
v -4 -16 0
v -4.5 -16 0
v -4.5 -15.5 0
v -4 -15.5 0
v -5 -16 0
v -5.5 -16 0
v -5.5 -15.5 0
v -5 -15.5 0
v -6 -16 0
v -6.5 -16 0
v -6.5 -15.5 0
v -6 -15.5 0

# Texture cooridinates (Count = 6)
vt 0.3333333 0.5
vt 0.5 0.5
vt 0.5 1
vt 0.3333333 1
vt 0.1666667 0.5
vt 0.1666667 1

# Normal
vn 0 0 -1

# Mesh description
g Map_Master_mesh_0619

# Faces
f 1/1/1 2/2/1 3/3/1 4/4/1
f 5/1/1 6/2/1 7/3/1 8/4/1
f 9/1/1 10/2/1 11/3/1 12/4/1
f 13/1/1 14/2/1 15/3/1 16/4/1
f 17/1/1 18/2/1 19/3/1 20/4/1
f 21/5/1 22/1/1 23/4/1 24/6/1
f 25/5/1 26/1/1 27/4/1 28/6/1
f 29/5/1 30/1/1 31/4/1 32/6/1
f 33/5/1 34/1/1 35/4/1 36/6/1
f 37/5/1 38/1/1 39/4/1 40/6/1
f 41/5/1 42/1/1 43/4/1 44/6/1

