# Tiled2Unity generated file. Do not modify by hand.
# Wavefront file for 'Map_Master_mesh_0402.obj'

# Vertices (Count = 772)
v 0 -1 0
v -1 -1 0
v -1 0 0
v 0 0 0
v -1 -1 0
v -2 -1 0
v -2 0 0
v -1 0 0
v -9 -1 0
v -10 -1 0
v -10 0 0
v -9 0 0
v -10 -1 0
v -11 -1 0
v -11 0 0
v -10 0 0
v -11 -1 0
v -12 -1 0
v -12 0 0
v -11 0 0
v -12 -1 0
v -13 -1 0
v -13 0 0
v -12 0 0
v -13 -1 0
v -14 -1 0
v -14 0 0
v -13 0 0
v -14 -1 0
v -15 -1 0
v -15 0 0
v -14 0 0
v -15 -1 0
v -16 -1 0
v -16 0 0
v -15 0 0
v 0 -2 0
v -1 -2 0
v -1 -1 0
v 0 -1 0
v -1 -2 0
v -2 -2 0
v -2 -1 0
v -1 -1 0
v -7 -2 0
v -8 -2 0
v -8 -1 0
v -7 -1 0
v -8 -2 0
v -9 -2 0
v -9 -1 0
v -8 -1 0
v -9 -2 0
v -10 -2 0
v -10 -1 0
v -9 -1 0
v -10 -2 0
v -11 -2 0
v -11 -1 0
v -10 -1 0
v -11 -2 0
v -12 -2 0
v -12 -1 0
v -11 -1 0
v -12 -2 0
v -13 -2 0
v -13 -1 0
v -12 -1 0
v -13 -2 0
v -14 -2 0
v -14 -1 0
v -13 -1 0
v -14 -2 0
v -15 -2 0
v -15 -1 0
v -14 -1 0
v -15 -2 0
v -16 -2 0
v -16 -1 0
v -15 -1 0
v 0 -3 0
v -1 -3 0
v -1 -2 0
v 0 -2 0
v -1 -3 0
v -2 -3 0
v -2 -2 0
v -1 -2 0
v -5 -3 0
v -6 -3 0
v -6 -2 0
v -5 -2 0
v -6 -3 0
v -7 -3 0
v -7 -2 0
v -6 -2 0
v -7 -3 0
v -8 -3 0
v -8 -2 0
v -7 -2 0
v -8 -3 0
v -9 -3 0
v -9 -2 0
v -8 -2 0
v -9 -3 0
v -10 -3 0
v -10 -2 0
v -9 -2 0
v -10 -3 0
v -11 -3 0
v -11 -2 0
v -10 -2 0
v -11 -3 0
v -12 -3 0
v -12 -2 0
v -11 -2 0
v -12 -3 0
v -13 -3 0
v -13 -2 0
v -12 -2 0
v -13 -3 0
v -14 -3 0
v -14 -2 0
v -13 -2 0
v -14 -3 0
v -15 -3 0
v -15 -2 0
v -14 -2 0
v -15 -3 0
v -16 -3 0
v -16 -2 0
v -15 -2 0
v 0 -4 0
v -1 -4 0
v -1 -3 0
v 0 -3 0
v -1 -4 0
v -2 -4 0
v -2 -3 0
v -1 -3 0
v -2 -4 0
v -3 -4 0
v -3 -3 0
v -2 -3 0
v -3 -4 0
v -4 -4 0
v -4 -3 0
v -3 -3 0
v -4 -4 0
v -5 -4 0
v -5 -3 0
v -4 -3 0
v -5 -4 0
v -6 -4 0
v -6 -3 0
v -5 -3 0
v -6 -4 0
v -7 -4 0
v -7 -3 0
v -6 -3 0
v -7 -4 0
v -8 -4 0
v -8 -3 0
v -7 -3 0
v -8 -4 0
v -9 -4 0
v -9 -3 0
v -8 -3 0
v -9 -4 0
v -10 -4 0
v -10 -3 0
v -9 -3 0
v -10 -4 0
v -11 -4 0
v -11 -3 0
v -10 -3 0
v -11 -4 0
v -12 -4 0
v -12 -3 0
v -11 -3 0
v -12 -4 0
v -13 -4 0
v -13 -3 0
v -12 -3 0
v -13 -4 0
v -14 -4 0
v -14 -3 0
v -13 -3 0
v -14 -4 0
v -15 -4 0
v -15 -3 0
v -14 -3 0
v -15 -4 0
v -16 -4 0
v -16 -3 0
v -15 -3 0
v 0 -5 0
v -1 -5 0
v -1 -4 0
v 0 -4 0
v -1 -5 0
v -2 -5 0
v -2 -4 0
v -1 -4 0
v -2 -5 0
v -3 -5 0
v -3 -4 0
v -2 -4 0
v -3 -5 0
v -4 -5 0
v -4 -4 0
v -3 -4 0
v -4 -5 0
v -5 -5 0
v -5 -4 0
v -4 -4 0
v -5 -5 0
v -6 -5 0
v -6 -4 0
v -5 -4 0
v -6 -5 0
v -7 -5 0
v -7 -4 0
v -6 -4 0
v -7 -5 0
v -8 -5 0
v -8 -4 0
v -7 -4 0
v -8 -5 0
v -9 -5 0
v -9 -4 0
v -8 -4 0
v -9 -5 0
v -10 -5 0
v -10 -4 0
v -9 -4 0
v -10 -5 0
v -11 -5 0
v -11 -4 0
v -10 -4 0
v -11 -5 0
v -12 -5 0
v -12 -4 0
v -11 -4 0
v -12 -5 0
v -13 -5 0
v -13 -4 0
v -12 -4 0
v -13 -5 0
v -14 -5 0
v -14 -4 0
v -13 -4 0
v -14 -5 0
v -15 -5 0
v -15 -4 0
v -14 -4 0
v -15 -5 0
v -16 -5 0
v -16 -4 0
v -15 -4 0
v 0 -6 0
v -1 -6 0
v -1 -5 0
v 0 -5 0
v -1 -6 0
v -2 -6 0
v -2 -5 0
v -1 -5 0
v -2 -6 0
v -3 -6 0
v -3 -5 0
v -2 -5 0
v -3 -6 0
v -4 -6 0
v -4 -5 0
v -3 -5 0
v -4 -6 0
v -5 -6 0
v -5 -5 0
v -4 -5 0
v -5 -6 0
v -6 -6 0
v -6 -5 0
v -5 -5 0
v -6 -6 0
v -7 -6 0
v -7 -5 0
v -6 -5 0
v -7 -6 0
v -8 -6 0
v -8 -5 0
v -7 -5 0
v -8 -6 0
v -9 -6 0
v -9 -5 0
v -8 -5 0
v -9 -6 0
v -10 -6 0
v -10 -5 0
v -9 -5 0
v -10 -6 0
v -11 -6 0
v -11 -5 0
v -10 -5 0
v -11 -6 0
v -12 -6 0
v -12 -5 0
v -11 -5 0
v -12 -6 0
v -13 -6 0
v -13 -5 0
v -12 -5 0
v -13 -6 0
v -14 -6 0
v -14 -5 0
v -13 -5 0
v -14 -6 0
v -15 -6 0
v -15 -5 0
v -14 -5 0
v -15 -6 0
v -16 -6 0
v -16 -5 0
v -15 -5 0
v 0 -7 0
v -1 -7 0
v -1 -6 0
v 0 -6 0
v -1 -7 0
v -2 -7 0
v -2 -6 0
v -1 -6 0
v -2 -7 0
v -3 -7 0
v -3 -6 0
v -2 -6 0
v -3 -7 0
v -4 -7 0
v -4 -6 0
v -3 -6 0
v -4 -7 0
v -5 -7 0
v -5 -6 0
v -4 -6 0
v -5 -7 0
v -6 -7 0
v -6 -6 0
v -5 -6 0
v -6 -7 0
v -7 -7 0
v -7 -6 0
v -6 -6 0
v -7 -7 0
v -8 -7 0
v -8 -6 0
v -7 -6 0
v -8 -7 0
v -9 -7 0
v -9 -6 0
v -8 -6 0
v -9 -7 0
v -10 -7 0
v -10 -6 0
v -9 -6 0
v -10 -7 0
v -11 -7 0
v -11 -6 0
v -10 -6 0
v -11 -7 0
v -12 -7 0
v -12 -6 0
v -11 -6 0
v -12 -7 0
v -13 -7 0
v -13 -6 0
v -12 -6 0
v -13 -7 0
v -14 -7 0
v -14 -6 0
v -13 -6 0
v -14 -7 0
v -15 -7 0
v -15 -6 0
v -14 -6 0
v -15 -7 0
v -16 -7 0
v -16 -6 0
v -15 -6 0
v 0 -8 0
v -1 -8 0
v -1 -7 0
v 0 -7 0
v -1 -8 0
v -2 -8 0
v -2 -7 0
v -1 -7 0
v -2 -8 0
v -3 -8 0
v -3 -7 0
v -2 -7 0
v -3 -8 0
v -4 -8 0
v -4 -7 0
v -3 -7 0
v -4 -8 0
v -5 -8 0
v -5 -7 0
v -4 -7 0
v -5 -8 0
v -6 -8 0
v -6 -7 0
v -5 -7 0
v -6 -8 0
v -7 -8 0
v -7 -7 0
v -6 -7 0
v -7 -8 0
v -8 -8 0
v -8 -7 0
v -7 -7 0
v -8 -8 0
v -9 -8 0
v -9 -7 0
v -8 -7 0
v -9 -8 0
v -10 -8 0
v -10 -7 0
v -9 -7 0
v -10 -8 0
v -11 -8 0
v -11 -7 0
v -10 -7 0
v -11 -8 0
v -12 -8 0
v -12 -7 0
v -11 -7 0
v -12 -8 0
v -13 -8 0
v -13 -7 0
v -12 -7 0
v -13 -8 0
v -14 -8 0
v -14 -7 0
v -13 -7 0
v -14 -8 0
v -15 -8 0
v -15 -7 0
v -14 -7 0
v -15 -8 0
v -16 -8 0
v -16 -7 0
v -15 -7 0
v 0 -9 0
v -1 -9 0
v -1 -8 0
v 0 -8 0
v -1 -9 0
v -2 -9 0
v -2 -8 0
v -1 -8 0
v -2 -9 0
v -3 -9 0
v -3 -8 0
v -2 -8 0
v -3 -9 0
v -4 -9 0
v -4 -8 0
v -3 -8 0
v -4 -9 0
v -5 -9 0
v -5 -8 0
v -4 -8 0
v -5 -9 0
v -6 -9 0
v -6 -8 0
v -5 -8 0
v -6 -9 0
v -7 -9 0
v -7 -8 0
v -6 -8 0
v -7 -9 0
v -8 -9 0
v -8 -8 0
v -7 -8 0
v -8 -9 0
v -9 -9 0
v -9 -8 0
v -8 -8 0
v -9 -9 0
v -10 -9 0
v -10 -8 0
v -9 -8 0
v -10 -9 0
v -11 -9 0
v -11 -8 0
v -10 -8 0
v -11 -9 0
v -12 -9 0
v -12 -8 0
v -11 -8 0
v -12 -9 0
v -13 -9 0
v -13 -8 0
v -12 -8 0
v -13 -9 0
v -14 -9 0
v -14 -8 0
v -13 -8 0
v -14 -9 0
v -15 -9 0
v -15 -8 0
v -14 -8 0
v -15 -9 0
v -16 -9 0
v -16 -8 0
v -15 -8 0
v 0 -10 0
v -1 -10 0
v -1 -9 0
v 0 -9 0
v -1 -10 0
v -2 -10 0
v -2 -9 0
v -1 -9 0
v -2 -10 0
v -3 -10 0
v -3 -9 0
v -2 -9 0
v -3 -10 0
v -4 -10 0
v -4 -9 0
v -3 -9 0
v -4 -10 0
v -5 -10 0
v -5 -9 0
v -4 -9 0
v -5 -10 0
v -6 -10 0
v -6 -9 0
v -5 -9 0
v -6 -10 0
v -7 -10 0
v -7 -9 0
v -6 -9 0
v -7 -10 0
v -8 -10 0
v -8 -9 0
v -7 -9 0
v -8 -10 0
v -9 -10 0
v -9 -9 0
v -8 -9 0
v -9 -10 0
v -10 -10 0
v -10 -9 0
v -9 -9 0
v -10 -10 0
v -11 -10 0
v -11 -9 0
v -10 -9 0
v -11 -10 0
v -12 -10 0
v -12 -9 0
v -11 -9 0
v -12 -10 0
v -13 -10 0
v -13 -9 0
v -12 -9 0
v -13 -10 0
v -14 -10 0
v -14 -9 0
v -13 -9 0
v -14 -10 0
v -15 -10 0
v -15 -9 0
v -14 -9 0
v -15 -10 0
v -16 -10 0
v -16 -9 0
v -15 -9 0
v 0 -11 0
v -1 -11 0
v -1 -10 0
v 0 -10 0
v -1 -11 0
v -2 -11 0
v -2 -10 0
v -1 -10 0
v -2 -11 0
v -3 -11 0
v -3 -10 0
v -2 -10 0
v -3 -11 0
v -4 -11 0
v -4 -10 0
v -3 -10 0
v -4 -11 0
v -5 -11 0
v -5 -10 0
v -4 -10 0
v -5 -11 0
v -6 -11 0
v -6 -10 0
v -5 -10 0
v -6 -11 0
v -7 -11 0
v -7 -10 0
v -6 -10 0
v -7 -11 0
v -8 -11 0
v -8 -10 0
v -7 -10 0
v -8 -11 0
v -9 -11 0
v -9 -10 0
v -8 -10 0
v -9 -11 0
v -10 -11 0
v -10 -10 0
v -9 -10 0
v -10 -11 0
v -11 -11 0
v -11 -10 0
v -10 -10 0
v -11 -11 0
v -12 -11 0
v -12 -10 0
v -11 -10 0
v -12 -11 0
v -13 -11 0
v -13 -10 0
v -12 -10 0
v -13 -11 0
v -14 -11 0
v -14 -10 0
v -13 -10 0
v -14 -11 0
v -15 -11 0
v -15 -10 0
v -14 -10 0
v -15 -11 0
v -16 -11 0
v -16 -10 0
v -15 -10 0
v 0 -12 0
v -1 -12 0
v -1 -11 0
v 0 -11 0
v -1 -12 0
v -2 -12 0
v -2 -11 0
v -1 -11 0
v -2 -12 0
v -3 -12 0
v -3 -11 0
v -2 -11 0
v -3 -12 0
v -4 -12 0
v -4 -11 0
v -3 -11 0
v -4 -12 0
v -5 -12 0
v -5 -11 0
v -4 -11 0
v -5 -12 0
v -6 -12 0
v -6 -11 0
v -5 -11 0
v -6 -12 0
v -7 -12 0
v -7 -11 0
v -6 -11 0
v -7 -12 0
v -8 -12 0
v -8 -11 0
v -7 -11 0
v -8 -12 0
v -9 -12 0
v -9 -11 0
v -8 -11 0
v -9 -12 0
v -10 -12 0
v -10 -11 0
v -9 -11 0
v -10 -12 0
v -11 -12 0
v -11 -11 0
v -10 -11 0
v -11 -12 0
v -12 -12 0
v -12 -11 0
v -11 -11 0
v -12 -12 0
v -13 -12 0
v -13 -11 0
v -12 -11 0
v -13 -12 0
v -14 -12 0
v -14 -11 0
v -13 -11 0
v -14 -12 0
v -15 -12 0
v -15 -11 0
v -14 -11 0
v -15 -12 0
v -16 -12 0
v -16 -11 0
v -15 -11 0
v 0 -16 0
v -1 -16 0
v -1 -15 0
v 0 -15 0
v -1 -16 0
v -2 -16 0
v -2 -15 0
v -1 -15 0
v -2 -16 0
v -3 -16 0
v -3 -15 0
v -2 -15 0
v -3 -16 0
v -4 -16 0
v -4 -15 0
v -3 -15 0
v -4 -16 0
v -5 -16 0
v -5 -15 0
v -4 -15 0
v -5 -16 0
v -6 -16 0
v -6 -15 0
v -5 -15 0
v -6 -16 0
v -7 -16 0
v -7 -15 0
v -6 -15 0
v -7 -16 0
v -8 -16 0
v -8 -15 0
v -7 -15 0
v -8 -16 0
v -9 -16 0
v -9 -15 0
v -8 -15 0
v -9 -16 0
v -10 -16 0
v -10 -15 0
v -9 -15 0
v -10 -16 0
v -11 -16 0
v -11 -15 0
v -10 -15 0
v -11 -16 0
v -12 -16 0
v -12 -15 0
v -11 -15 0
v -12 -16 0
v -13 -16 0
v -13 -15 0
v -12 -15 0
v -13 -16 0
v -14 -16 0
v -14 -15 0
v -13 -15 0
v -14 -16 0
v -15 -16 0
v -15 -15 0
v -14 -15 0
v -15 -16 0
v -16 -16 0
v -16 -15 0
v -15 -15 0

# Texture cooridinates (Count = 23)
vt 0.3333333 0.5
vt 0.4444444 0.5
vt 0.4444444 0.6666666
vt 0.3333333 0.6666666
vt 0.2222222 0.6666666
vt 0.3333333 0.8333333
vt 0.2222222 0.8333333
vt 0 0.8333333
vt 0.1111111 0.8333333
vt 0.1111111 1
vt 0 1
vt 0.2222222 1
vt 0.5555556 0.6666666
vt 0.5555556 0.8333333
vt 0.4444444 0.8333333
vt 0.1111111 0.6666666
vt 0.5555556 0.5
vt 0.6666667 0.8333333
vt 0.6666667 1
vt 0.5555556 1
vt 0.6666667 0.6666666
vt 0.1111111 0.5
vt 0.2222222 0.5

# Normal
vn 0 0 -1

# Mesh description
g Map_Master_mesh_0402

# Faces
f 1/1/1 2/2/1 3/3/1 4/4/1
f 5/5/1 6/4/1 7/6/1 8/7/1
f 9/8/1 10/9/1 11/10/1 12/11/1
f 13/9/1 14/7/1 15/12/1 16/10/1
f 17/3/1 18/13/1 19/14/1 20/15/1
f 21/16/1 22/5/1 23/7/1 24/9/1
f 25/16/1 26/5/1 27/7/1 28/9/1
f 29/16/1 30/5/1 31/7/1 32/9/1
f 33/16/1 34/5/1 35/7/1 36/9/1
f 37/2/1 38/17/1 39/13/1 40/3/1
f 41/5/1 42/4/1 43/6/1 44/7/1
f 45/8/1 46/9/1 47/10/1 48/11/1
f 49/9/1 50/7/1 51/12/1 52/10/1
f 53/3/1 54/13/1 55/14/1 56/15/1
f 57/16/1 58/5/1 59/7/1 60/9/1
f 61/16/1 62/5/1 63/7/1 64/9/1
f 65/16/1 66/5/1 67/7/1 68/9/1
f 69/16/1 70/5/1 71/7/1 72/9/1
f 73/16/1 74/5/1 75/7/1 76/9/1
f 77/16/1 78/5/1 79/7/1 80/9/1
f 81/16/1 82/5/1 83/7/1 84/9/1
f 85/5/1 86/4/1 87/6/1 88/7/1
f 89/8/1 90/9/1 91/10/1 92/11/1
f 93/9/1 94/7/1 95/12/1 96/10/1
f 97/3/1 98/13/1 99/14/1 100/15/1
f 101/16/1 102/5/1 103/7/1 104/9/1
f 105/16/1 106/5/1 107/7/1 108/9/1
f 109/16/1 110/5/1 111/7/1 112/9/1
f 113/16/1 114/5/1 115/7/1 116/9/1
f 117/16/1 118/5/1 119/7/1 120/9/1
f 121/16/1 122/5/1 123/7/1 124/9/1
f 125/16/1 126/5/1 127/7/1 128/9/1
f 129/16/1 130/5/1 131/7/1 132/9/1
f 133/16/1 134/5/1 135/7/1 136/9/1
f 137/4/1 138/3/1 139/15/1 140/6/1
f 141/9/1 142/7/1 143/12/1 144/10/1
f 145/9/1 146/7/1 147/12/1 148/10/1
f 149/9/1 150/7/1 151/12/1 152/10/1
f 153/3/1 154/13/1 155/14/1 156/15/1
f 157/16/1 158/5/1 159/7/1 160/9/1
f 161/16/1 162/5/1 163/7/1 164/9/1
f 165/16/1 166/5/1 167/7/1 168/9/1
f 169/16/1 170/5/1 171/7/1 172/9/1
f 173/16/1 174/5/1 175/7/1 176/9/1
f 177/16/1 178/5/1 179/7/1 180/9/1
f 181/16/1 182/5/1 183/7/1 184/9/1
f 185/16/1 186/5/1 187/7/1 188/9/1
f 189/16/1 190/5/1 191/7/1 192/9/1
f 193/16/1 194/5/1 195/7/1 196/9/1
f 197/16/1 198/5/1 199/7/1 200/9/1
f 201/16/1 202/5/1 203/7/1 204/9/1
f 205/16/1 206/5/1 207/7/1 208/9/1
f 209/16/1 210/5/1 211/7/1 212/9/1
f 213/16/1 214/5/1 215/7/1 216/9/1
f 217/16/1 218/5/1 219/7/1 220/9/1
f 221/16/1 222/5/1 223/7/1 224/9/1
f 225/16/1 226/5/1 227/7/1 228/9/1
f 229/14/1 230/18/1 231/19/1 232/20/1
f 233/16/1 234/5/1 235/7/1 236/9/1
f 237/16/1 238/5/1 239/7/1 240/9/1
f 241/16/1 242/5/1 243/7/1 244/9/1
f 245/16/1 246/5/1 247/7/1 248/9/1
f 249/16/1 250/5/1 251/7/1 252/9/1
f 253/16/1 254/5/1 255/7/1 256/9/1
f 257/16/1 258/5/1 259/7/1 260/9/1
f 261/16/1 262/5/1 263/7/1 264/9/1
f 265/16/1 266/5/1 267/7/1 268/9/1
f 269/16/1 270/5/1 271/7/1 272/9/1
f 273/16/1 274/5/1 275/7/1 276/9/1
f 277/16/1 278/5/1 279/7/1 280/9/1
f 281/16/1 282/5/1 283/7/1 284/9/1
f 285/16/1 286/5/1 287/7/1 288/9/1
f 289/16/1 290/5/1 291/7/1 292/9/1
f 293/16/1 294/5/1 295/7/1 296/9/1
f 297/16/1 298/5/1 299/7/1 300/9/1
f 301/16/1 302/5/1 303/7/1 304/9/1
f 305/16/1 306/5/1 307/7/1 308/9/1
f 309/16/1 310/5/1 311/7/1 312/9/1
f 313/16/1 314/5/1 315/7/1 316/9/1
f 317/16/1 318/5/1 319/7/1 320/9/1
f 321/16/1 322/5/1 323/7/1 324/9/1
f 325/16/1 326/5/1 327/7/1 328/9/1
f 329/16/1 330/5/1 331/7/1 332/9/1
f 333/16/1 334/5/1 335/7/1 336/9/1
f 337/16/1 338/5/1 339/7/1 340/9/1
f 341/16/1 342/5/1 343/7/1 344/9/1
f 345/16/1 346/5/1 347/7/1 348/9/1
f 349/16/1 350/5/1 351/7/1 352/9/1
f 353/16/1 354/5/1 355/7/1 356/9/1
f 357/16/1 358/5/1 359/7/1 360/9/1
f 361/16/1 362/5/1 363/7/1 364/9/1
f 365/16/1 366/5/1 367/7/1 368/9/1
f 369/16/1 370/5/1 371/7/1 372/9/1
f 373/16/1 374/5/1 375/7/1 376/9/1
f 377/16/1 378/5/1 379/7/1 380/9/1
f 381/16/1 382/5/1 383/7/1 384/9/1
f 385/16/1 386/5/1 387/7/1 388/9/1
f 389/16/1 390/5/1 391/7/1 392/9/1
f 393/16/1 394/5/1 395/7/1 396/9/1
f 397/16/1 398/5/1 399/7/1 400/9/1
f 401/16/1 402/5/1 403/7/1 404/9/1
f 405/16/1 406/5/1 407/7/1 408/9/1
f 409/16/1 410/5/1 411/7/1 412/9/1
f 413/16/1 414/5/1 415/7/1 416/9/1
f 417/16/1 418/5/1 419/7/1 420/9/1
f 421/16/1 422/5/1 423/7/1 424/9/1
f 425/16/1 426/5/1 427/7/1 428/9/1
f 429/16/1 430/5/1 431/7/1 432/9/1
f 433/16/1 434/5/1 435/7/1 436/9/1
f 437/16/1 438/5/1 439/7/1 440/9/1
f 441/16/1 442/5/1 443/7/1 444/9/1
f 445/16/1 446/5/1 447/7/1 448/9/1
f 449/16/1 450/5/1 451/7/1 452/9/1
f 453/16/1 454/5/1 455/7/1 456/9/1
f 457/16/1 458/5/1 459/7/1 460/9/1
f 461/16/1 462/5/1 463/7/1 464/9/1
f 465/16/1 466/5/1 467/7/1 468/9/1
f 469/16/1 470/5/1 471/7/1 472/9/1
f 473/16/1 474/5/1 475/7/1 476/9/1
f 477/16/1 478/5/1 479/7/1 480/9/1
f 481/16/1 482/5/1 483/7/1 484/9/1
f 485/16/1 486/5/1 487/7/1 488/9/1
f 489/16/1 490/5/1 491/7/1 492/9/1
f 493/16/1 494/5/1 495/7/1 496/9/1
f 497/16/1 498/5/1 499/7/1 500/9/1
f 501/16/1 502/5/1 503/7/1 504/9/1
f 505/16/1 506/5/1 507/7/1 508/9/1
f 509/16/1 510/5/1 511/7/1 512/9/1
f 513/16/1 514/5/1 515/7/1 516/9/1
f 517/16/1 518/5/1 519/7/1 520/9/1
f 521/16/1 522/5/1 523/7/1 524/9/1
f 525/16/1 526/5/1 527/7/1 528/9/1
f 529/16/1 530/5/1 531/7/1 532/9/1
f 533/2/1 534/17/1 535/13/1 536/3/1
f 537/16/1 538/5/1 539/7/1 540/9/1
f 541/16/1 542/5/1 543/7/1 544/9/1
f 545/2/1 546/17/1 547/13/1 548/3/1
f 549/16/1 550/5/1 551/7/1 552/9/1
f 553/16/1 554/5/1 555/7/1 556/9/1
f 557/16/1 558/5/1 559/7/1 560/9/1
f 561/16/1 562/5/1 563/7/1 564/9/1
f 565/2/1 566/17/1 567/13/1 568/3/1
f 569/2/1 570/17/1 571/13/1 572/3/1
f 573/13/1 574/21/1 575/18/1 576/14/1
f 577/16/1 578/5/1 579/7/1 580/9/1
f 581/16/1 582/5/1 583/7/1 584/9/1
f 585/16/1 586/5/1 587/7/1 588/9/1
f 589/16/1 590/5/1 591/7/1 592/9/1
f 593/13/1 594/21/1 595/18/1 596/14/1
f 597/2/1 598/17/1 599/13/1 600/3/1
f 601/16/1 602/5/1 603/7/1 604/9/1
f 605/16/1 606/5/1 607/7/1 608/9/1
f 609/16/1 610/5/1 611/7/1 612/9/1
f 613/16/1 614/5/1 615/7/1 616/9/1
f 617/16/1 618/5/1 619/7/1 620/9/1
f 621/16/1 622/5/1 623/7/1 624/9/1
f 625/16/1 626/5/1 627/7/1 628/9/1
f 629/16/1 630/5/1 631/7/1 632/9/1
f 633/16/1 634/5/1 635/7/1 636/9/1
f 637/16/1 638/5/1 639/7/1 640/9/1
f 641/16/1 642/5/1 643/7/1 644/9/1
f 645/22/1 646/23/1 647/5/1 648/16/1
f 649/22/1 650/23/1 651/5/1 652/16/1
f 653/22/1 654/23/1 655/5/1 656/16/1
f 657/22/1 658/23/1 659/5/1 660/16/1
f 661/22/1 662/23/1 663/5/1 664/16/1
f 665/22/1 666/23/1 667/5/1 668/16/1
f 669/22/1 670/23/1 671/5/1 672/16/1
f 673/22/1 674/23/1 675/5/1 676/16/1
f 677/22/1 678/23/1 679/5/1 680/16/1
f 681/22/1 682/23/1 683/5/1 684/16/1
f 685/22/1 686/23/1 687/5/1 688/16/1
f 689/22/1 690/23/1 691/5/1 692/16/1
f 693/22/1 694/23/1 695/5/1 696/16/1
f 697/22/1 698/23/1 699/5/1 700/16/1
f 701/22/1 702/23/1 703/5/1 704/16/1
f 705/22/1 706/23/1 707/5/1 708/16/1
f 709/9/1 710/7/1 711/12/1 712/10/1
f 713/9/1 714/7/1 715/12/1 716/10/1
f 717/9/1 718/7/1 719/12/1 720/10/1
f 721/9/1 722/7/1 723/12/1 724/10/1
f 725/9/1 726/7/1 727/12/1 728/10/1
f 729/9/1 730/7/1 731/12/1 732/10/1
f 733/9/1 734/7/1 735/12/1 736/10/1
f 737/9/1 738/7/1 739/12/1 740/10/1
f 741/9/1 742/7/1 743/12/1 744/10/1
f 745/9/1 746/7/1 747/12/1 748/10/1
f 749/9/1 750/7/1 751/12/1 752/10/1
f 753/9/1 754/7/1 755/12/1 756/10/1
f 757/9/1 758/7/1 759/12/1 760/10/1
f 761/9/1 762/7/1 763/12/1 764/10/1
f 765/9/1 766/7/1 767/12/1 768/10/1
f 769/9/1 770/7/1 771/12/1 772/10/1

