# Tiled2Unity generated file. Do not modify by hand.
# Wavefront file for 'Map_Master_mesh_0602.obj'

# Vertices (Count = 12)
v 0 -4 0
v -0.5 -4 0
v -0.5 -3.5 0
v 0 -3.5 0
v -1 -4 0
v -1.5 -4 0
v -1.5 -3.5 0
v -1 -3.5 0
v -2 -4 0
v -2.5 -4 0
v -2.5 -3.5 0
v -2 -3.5 0

# Texture cooridinates (Count = 4)
vt 0.3333333 0.5
vt 0.5 0.5
vt 0.5 1
vt 0.3333333 1

# Normal
vn 0 0 -1

# Mesh description
g Map_Master_mesh_0602

# Faces
f 1/1/1 2/2/1 3/3/1 4/4/1
f 5/1/1 6/2/1 7/3/1 8/4/1
f 9/1/1 10/2/1 11/3/1 12/4/1

