# Tiled2Unity generated file. Do not modify by hand.
# Wavefront file for 'Map_Master_mesh_0091.obj'

# Vertices (Count = 32)
v -9 -1 0
v -10 -1 0
v -10 0 0
v -9 0 0
v -10 -1 0
v -11 -1 0
v -11 0 0
v -10 0 0
v -11 -1 0
v -12 -1 0
v -12 0 0
v -11 0 0
v -2 -3 0
v -3 -3 0
v -3 -2 0
v -2 -2 0
v -3 -3 0
v -4 -3 0
v -4 -2 0
v -3 -2 0
v -4 -3 0
v -5 -3 0
v -5 -2 0
v -4 -2 0
v -15 -5 0
v -16 -5 0
v -16 -4 0
v -15 -4 0
v -15 -6 0
v -16 -6 0
v -16 -5 0
v -15 -5 0

# Texture cooridinates (Count = 14)
vt 0 0.8888889
vt 0.1 0.8888889
vt 0.1 1
vt 0 1
vt 0.2 0.8888889
vt 0.2 1
vt 0.3 0.8888889
vt 0.3 1
vt 0.6 0.8888889
vt 0.7 0.8888889
vt 0.7 1
vt 0.6 1
vt 0.6 0.7777778
vt 0.7 0.7777778

# Normal
vn 0 0 -1

# Mesh description
g Map_Master_mesh_0091

# Faces
f 1/1/1 2/2/1 3/3/1 4/4/1
f 5/2/1 6/5/1 7/6/1 8/3/1
f 9/5/1 10/7/1 11/8/1 12/6/1
f 13/1/1 14/2/1 15/3/1 16/4/1
f 17/2/1 18/5/1 19/6/1 20/3/1
f 21/5/1 22/7/1 23/8/1 24/6/1
f 25/9/1 26/10/1 27/11/1 28/12/1
f 29/13/1 30/14/1 31/10/1 32/9/1

