# Tiled2Unity generated file. Do not modify by hand.
# Wavefront file for 'Map_Master_mesh_0329.obj'

# Vertices (Count = 532)
v 0 -1 0
v -1 -1 0
v -1 0 0
v 0 0 0
v -1 -1 0
v -2 -1 0
v -2 0 0
v -1 0 0
v -2 -1 0
v -3 -1 0
v -3 0 0
v -2 0 0
v -3 -1 0
v -4 -1 0
v -4 0 0
v -3 0 0
v -4 -1 0
v -5 -1 0
v -5 0 0
v -4 0 0
v -5 -1 0
v -6 -1 0
v -6 0 0
v -5 0 0
v -6 -1 0
v -7 -1 0
v -7 0 0
v -6 0 0
v -7 -1 0
v -8 -1 0
v -8 0 0
v -7 0 0
v -8 -1 0
v -9 -1 0
v -9 0 0
v -8 0 0
v -9 -1 0
v -10 -1 0
v -10 0 0
v -9 0 0
v -10 -1 0
v -11 -1 0
v -11 0 0
v -10 0 0
v -11 -1 0
v -12 -1 0
v -12 0 0
v -11 0 0
v -12 -1 0
v -13 -1 0
v -13 0 0
v -12 0 0
v -13 -1 0
v -14 -1 0
v -14 0 0
v -13 0 0
v -14 -1 0
v -15 -1 0
v -15 0 0
v -14 0 0
v -15 -1 0
v -16 -1 0
v -16 0 0
v -15 0 0
v 0 -2 0
v -1 -2 0
v -1 -1 0
v 0 -1 0
v -1 -2 0
v -2 -2 0
v -2 -1 0
v -1 -1 0
v -2 -2 0
v -3 -2 0
v -3 -1 0
v -2 -1 0
v -3 -2 0
v -4 -2 0
v -4 -1 0
v -3 -1 0
v -4 -2 0
v -5 -2 0
v -5 -1 0
v -4 -1 0
v -5 -2 0
v -6 -2 0
v -6 -1 0
v -5 -1 0
v -6 -2 0
v -7 -2 0
v -7 -1 0
v -6 -1 0
v -7 -2 0
v -8 -2 0
v -8 -1 0
v -7 -1 0
v -8 -2 0
v -9 -2 0
v -9 -1 0
v -8 -1 0
v -9 -2 0
v -10 -2 0
v -10 -1 0
v -9 -1 0
v -10 -2 0
v -11 -2 0
v -11 -1 0
v -10 -1 0
v -11 -2 0
v -12 -2 0
v -12 -1 0
v -11 -1 0
v -12 -2 0
v -13 -2 0
v -13 -1 0
v -12 -1 0
v -13 -2 0
v -14 -2 0
v -14 -1 0
v -13 -1 0
v -14 -2 0
v -15 -2 0
v -15 -1 0
v -14 -1 0
v -15 -2 0
v -16 -2 0
v -16 -1 0
v -15 -1 0
v 0 -3 0
v -1 -3 0
v -1 -2 0
v 0 -2 0
v -1 -3 0
v -2 -3 0
v -2 -2 0
v -1 -2 0
v -2 -3 0
v -3 -3 0
v -3 -2 0
v -2 -2 0
v -3 -3 0
v -4 -3 0
v -4 -2 0
v -3 -2 0
v -4 -3 0
v -5 -3 0
v -5 -2 0
v -4 -2 0
v -5 -3 0
v -6 -3 0
v -6 -2 0
v -5 -2 0
v -6 -3 0
v -7 -3 0
v -7 -2 0
v -6 -2 0
v -7 -3 0
v -8 -3 0
v -8 -2 0
v -7 -2 0
v -8 -3 0
v -9 -3 0
v -9 -2 0
v -8 -2 0
v -9 -3 0
v -10 -3 0
v -10 -2 0
v -9 -2 0
v -10 -3 0
v -11 -3 0
v -11 -2 0
v -10 -2 0
v -11 -3 0
v -12 -3 0
v -12 -2 0
v -11 -2 0
v -12 -3 0
v -13 -3 0
v -13 -2 0
v -12 -2 0
v -13 -3 0
v -14 -3 0
v -14 -2 0
v -13 -2 0
v -14 -3 0
v -15 -3 0
v -15 -2 0
v -14 -2 0
v -15 -3 0
v -16 -3 0
v -16 -2 0
v -15 -2 0
v 0 -4 0
v -1 -4 0
v -1 -3 0
v 0 -3 0
v -1 -4 0
v -2 -4 0
v -2 -3 0
v -1 -3 0
v -2 -4 0
v -3 -4 0
v -3 -3 0
v -2 -3 0
v -3 -4 0
v -4 -4 0
v -4 -3 0
v -3 -3 0
v -4 -4 0
v -5 -4 0
v -5 -3 0
v -4 -3 0
v -5 -4 0
v -6 -4 0
v -6 -3 0
v -5 -3 0
v -6 -4 0
v -7 -4 0
v -7 -3 0
v -6 -3 0
v -7 -4 0
v -8 -4 0
v -8 -3 0
v -7 -3 0
v -8 -4 0
v -9 -4 0
v -9 -3 0
v -8 -3 0
v -9 -4 0
v -10 -4 0
v -10 -3 0
v -9 -3 0
v -10 -4 0
v -11 -4 0
v -11 -3 0
v -10 -3 0
v -11 -4 0
v -12 -4 0
v -12 -3 0
v -11 -3 0
v -12 -4 0
v -13 -4 0
v -13 -3 0
v -12 -3 0
v -13 -4 0
v -14 -4 0
v -14 -3 0
v -13 -3 0
v -14 -4 0
v -15 -4 0
v -15 -3 0
v -14 -3 0
v -15 -4 0
v -16 -4 0
v -16 -3 0
v -15 -3 0
v 0 -5 0
v -1 -5 0
v -1 -4 0
v 0 -4 0
v -1 -5 0
v -2 -5 0
v -2 -4 0
v -1 -4 0
v -2 -5 0
v -3 -5 0
v -3 -4 0
v -2 -4 0
v -3 -5 0
v -4 -5 0
v -4 -4 0
v -3 -4 0
v -4 -5 0
v -5 -5 0
v -5 -4 0
v -4 -4 0
v -5 -5 0
v -6 -5 0
v -6 -4 0
v -5 -4 0
v -6 -5 0
v -7 -5 0
v -7 -4 0
v -6 -4 0
v -7 -5 0
v -8 -5 0
v -8 -4 0
v -7 -4 0
v -8 -5 0
v -9 -5 0
v -9 -4 0
v -8 -4 0
v -9 -5 0
v -10 -5 0
v -10 -4 0
v -9 -4 0
v -10 -5 0
v -11 -5 0
v -11 -4 0
v -10 -4 0
v -11 -5 0
v -12 -5 0
v -12 -4 0
v -11 -4 0
v -12 -5 0
v -13 -5 0
v -13 -4 0
v -12 -4 0
v -13 -5 0
v -14 -5 0
v -14 -4 0
v -13 -4 0
v -14 -5 0
v -15 -5 0
v -15 -4 0
v -14 -4 0
v -15 -5 0
v -16 -5 0
v -16 -4 0
v -15 -4 0
v -1 -6 0
v -2 -6 0
v -2 -5 0
v -1 -5 0
v -2 -6 0
v -3 -6 0
v -3 -5 0
v -2 -5 0
v -3 -6 0
v -4 -6 0
v -4 -5 0
v -3 -5 0
v -4 -6 0
v -5 -6 0
v -5 -5 0
v -4 -5 0
v -5 -6 0
v -6 -6 0
v -6 -5 0
v -5 -5 0
v -6 -6 0
v -7 -6 0
v -7 -5 0
v -6 -5 0
v -7 -6 0
v -8 -6 0
v -8 -5 0
v -7 -5 0
v -8 -6 0
v -9 -6 0
v -9 -5 0
v -8 -5 0
v -12 -6 0
v -13 -6 0
v -13 -5 0
v -12 -5 0
v -13 -6 0
v -14 -6 0
v -14 -5 0
v -13 -5 0
v -14 -6 0
v -15 -6 0
v -15 -5 0
v -14 -5 0
v -15 -6 0
v -16 -6 0
v -16 -5 0
v -15 -5 0
v -1 -7 0
v -2 -7 0
v -2 -6 0
v -1 -6 0
v -2 -7 0
v -3 -7 0
v -3 -6 0
v -2 -6 0
v -3 -7 0
v -4 -7 0
v -4 -6 0
v -3 -6 0
v -4 -7 0
v -5 -7 0
v -5 -6 0
v -4 -6 0
v -5 -7 0
v -6 -7 0
v -6 -6 0
v -5 -6 0
v -6 -7 0
v -7 -7 0
v -7 -6 0
v -6 -6 0
v -7 -7 0
v -8 -7 0
v -8 -6 0
v -7 -6 0
v -3 -8 0
v -4 -8 0
v -4 -7 0
v -3 -7 0
v -4 -8 0
v -5 -8 0
v -5 -7 0
v -4 -7 0
v -5 -8 0
v -6 -8 0
v -6 -7 0
v -5 -7 0
v -6 -8 0
v -7 -8 0
v -7 -7 0
v -6 -7 0
v -7 -8 0
v -8 -8 0
v -8 -7 0
v -7 -7 0
v -6 -9 0
v -7 -9 0
v -7 -8 0
v -6 -8 0
v -2 -12 0
v -3 -12 0
v -3 -11 0
v -2 -11 0
v -5 -14 0
v -6 -14 0
v -6 -13 0
v -5 -13 0
v -6 -14 0
v -7 -14 0
v -7 -13 0
v -6 -13 0
v -7 -14 0
v -8 -14 0
v -8 -13 0
v -7 -13 0
v -8 -14 0
v -9 -14 0
v -9 -13 0
v -8 -13 0
v -9 -14 0
v -10 -14 0
v -10 -13 0
v -9 -13 0
v -10 -14 0
v -11 -14 0
v -11 -13 0
v -10 -13 0
v -11 -14 0
v -12 -14 0
v -12 -13 0
v -11 -13 0
v -14 -14 0
v -15 -14 0
v -15 -13 0
v -14 -13 0
v -5 -15 0
v -6 -15 0
v -6 -14 0
v -5 -14 0
v -6 -15 0
v -7 -15 0
v -7 -14 0
v -6 -14 0
v -7 -15 0
v -8 -15 0
v -8 -14 0
v -7 -14 0
v -8 -15 0
v -9 -15 0
v -9 -14 0
v -8 -14 0
v -9 -15 0
v -10 -15 0
v -10 -14 0
v -9 -14 0
v -10 -15 0
v -11 -15 0
v -11 -14 0
v -10 -14 0
v -11 -15 0
v -12 -15 0
v -12 -14 0
v -11 -14 0
v 0 -16 0
v -1 -16 0
v -1 -15 0
v 0 -15 0
v -1 -16 0
v -2 -16 0
v -2 -15 0
v -1 -15 0
v -2 -16 0
v -3 -16 0
v -3 -15 0
v -2 -15 0
v -3 -16 0
v -4 -16 0
v -4 -15 0
v -3 -15 0
v -4 -16 0
v -5 -16 0
v -5 -15 0
v -4 -15 0
v -5 -16 0
v -6 -16 0
v -6 -15 0
v -5 -15 0
v -6 -16 0
v -7 -16 0
v -7 -15 0
v -6 -15 0
v -7 -16 0
v -8 -16 0
v -8 -15 0
v -7 -15 0
v -8 -16 0
v -9 -16 0
v -9 -15 0
v -8 -15 0
v -9 -16 0
v -10 -16 0
v -10 -15 0
v -9 -15 0
v -10 -16 0
v -11 -16 0
v -11 -15 0
v -10 -15 0
v -11 -16 0
v -12 -16 0
v -12 -15 0
v -11 -15 0

# Texture cooridinates (Count = 49)
vt 0.1 0.1111111
vt 0.2 0.1111111
vt 0.2 0.2222222
vt 0.1 0.2222222
vt 0.4 0.1111111
vt 0.5 0.1111111
vt 0.5 0.2222222
vt 0.4 0.2222222
vt 0.3 0.1111111
vt 0.3 0.2222222
vt 0.1 0.6666666
vt 0.2 0.6666666
vt 0.2 0.7777778
vt 0.1 0.7777778
vt 0.5 0.5555556
vt 0.6 0.5555556
vt 0.6 0.6666666
vt 0.5 0.6666666
vt 0.1 0.4444444
vt 0.2 0.4444444
vt 0.2 0.5555556
vt 0.1 0.5555556
vt 0.4 0.8888889
vt 0.5 0.8888889
vt 0.5 1
vt 0.4 1
vt 0.3 0.8888889
vt 0.3 1
vt 0 0.6666666
vt 0 0.7777778
vt 0.4 0.5555556
vt 0.4 0.6666666
vt 0.4 0.4444444
vt 0.5 0.4444444
vt 0.3 0.4444444
vt 0.3 0.5555556
vt 0 0.5555556
vt 0 0.4444444
vt 0.3 0.6666666
vt 0.3 0.7777778
vt 0.2 0.8888889
vt 0.1 0.8888889
vt 0.8 0.5555556
vt 0.9 0.5555556
vt 0.9 0.6666666
vt 0.8 0.6666666
vt 0 0.8888889
vt 0.4 0.7777778
vt 0.5 0.7777778

# Normal
vn 0 0 -1

# Mesh description
g Map_Master_mesh_0329

# Faces
f 1/1/1 2/2/1 3/3/1 4/4/1
f 5/5/1 6/6/1 7/7/1 8/8/1
f 9/1/1 10/2/1 11/3/1 12/4/1
f 13/1/1 14/2/1 15/3/1 16/4/1
f 17/1/1 18/2/1 19/3/1 20/4/1
f 21/1/1 22/2/1 23/3/1 24/4/1
f 25/1/1 26/2/1 27/3/1 28/4/1
f 29/1/1 30/2/1 31/3/1 32/4/1
f 33/1/1 34/2/1 35/3/1 36/4/1
f 37/1/1 38/2/1 39/3/1 40/4/1
f 41/1/1 42/2/1 43/3/1 44/4/1
f 45/1/1 46/2/1 47/3/1 48/4/1
f 49/1/1 50/2/1 51/3/1 52/4/1
f 53/1/1 54/2/1 55/3/1 56/4/1
f 57/1/1 58/2/1 59/3/1 60/4/1
f 61/1/1 62/2/1 63/3/1 64/4/1
f 65/1/1 66/2/1 67/3/1 68/4/1
f 69/1/1 70/2/1 71/3/1 72/4/1
f 73/1/1 74/2/1 75/3/1 76/4/1
f 77/1/1 78/2/1 79/3/1 80/4/1
f 81/1/1 82/2/1 83/3/1 84/4/1
f 85/1/1 86/2/1 87/3/1 88/4/1
f 89/1/1 90/2/1 91/3/1 92/4/1
f 93/1/1 94/2/1 95/3/1 96/4/1
f 97/1/1 98/2/1 99/3/1 100/4/1
f 101/9/1 102/5/1 103/8/1 104/10/1
f 105/1/1 106/2/1 107/3/1 108/4/1
f 109/1/1 110/2/1 111/3/1 112/4/1
f 113/1/1 114/2/1 115/3/1 116/4/1
f 117/1/1 118/2/1 119/3/1 120/4/1
f 121/1/1 122/2/1 123/3/1 124/4/1
f 125/1/1 126/2/1 127/3/1 128/4/1
f 129/11/1 130/12/1 131/13/1 132/14/1
f 133/11/1 134/12/1 135/13/1 136/14/1
f 137/11/1 138/12/1 139/13/1 140/14/1
f 141/11/1 142/12/1 143/13/1 144/14/1
f 145/11/1 146/12/1 147/13/1 148/14/1
f 149/11/1 150/12/1 151/13/1 152/14/1
f 153/11/1 154/12/1 155/13/1 156/14/1
f 157/11/1 158/12/1 159/13/1 160/14/1
f 161/11/1 162/12/1 163/13/1 164/14/1
f 165/11/1 166/12/1 167/13/1 168/14/1
f 169/11/1 170/12/1 171/13/1 172/14/1
f 173/11/1 174/12/1 175/13/1 176/14/1
f 177/11/1 178/12/1 179/13/1 180/14/1
f 181/11/1 182/12/1 183/13/1 184/14/1
f 185/11/1 186/12/1 187/13/1 188/14/1
f 189/11/1 190/12/1 191/13/1 192/14/1
f 193/15/1 194/16/1 195/17/1 196/18/1
f 197/11/1 198/12/1 199/13/1 200/14/1
f 201/11/1 202/12/1 203/13/1 204/14/1
f 205/11/1 206/12/1 207/13/1 208/14/1
f 209/11/1 210/12/1 211/13/1 212/14/1
f 213/11/1 214/12/1 215/13/1 216/14/1
f 217/11/1 218/12/1 219/13/1 220/14/1
f 221/11/1 222/12/1 223/13/1 224/14/1
f 225/15/1 226/16/1 227/17/1 228/18/1
f 229/11/1 230/12/1 231/13/1 232/14/1
f 233/11/1 234/12/1 235/13/1 236/14/1
f 237/11/1 238/12/1 239/13/1 240/14/1
f 241/15/1 242/16/1 243/17/1 244/18/1
f 245/11/1 246/12/1 247/13/1 248/14/1
f 249/11/1 250/12/1 251/13/1 252/14/1
f 253/11/1 254/12/1 255/13/1 256/14/1
f 257/19/1 258/20/1 259/21/1 260/22/1
f 261/23/1 262/24/1 263/25/1 264/26/1
f 265/11/1 266/12/1 267/13/1 268/14/1
f 269/11/1 270/12/1 271/13/1 272/14/1
f 273/11/1 274/12/1 275/13/1 276/14/1
f 277/11/1 278/12/1 279/13/1 280/14/1
f 281/11/1 282/12/1 283/13/1 284/14/1
f 285/11/1 286/12/1 287/13/1 288/14/1
f 289/27/1 290/23/1 291/26/1 292/28/1
f 293/19/1 294/20/1 295/21/1 296/22/1
f 297/19/1 298/20/1 299/21/1 300/22/1
f 301/19/1 302/20/1 303/21/1 304/22/1
f 305/23/1 306/24/1 307/25/1 308/26/1
f 309/11/1 310/12/1 311/13/1 312/14/1
f 313/11/1 314/12/1 315/13/1 316/14/1
f 317/15/1 318/16/1 319/17/1 320/18/1
f 321/29/1 322/11/1 323/14/1 324/30/1
f 325/31/1 326/15/1 327/18/1 328/32/1
f 329/11/1 330/12/1 331/13/1 332/14/1
f 333/11/1 334/12/1 335/13/1 336/14/1
f 337/33/1 338/34/1 339/15/1 340/31/1
f 341/11/1 342/12/1 343/13/1 344/14/1
f 345/27/1 346/23/1 347/26/1 348/28/1
f 349/20/1 350/35/1 351/36/1 352/21/1
f 353/37/1 354/22/1 355/11/1 356/29/1
f 357/19/1 358/20/1 359/21/1 360/22/1
f 361/19/1 362/20/1 363/21/1 364/22/1
f 365/19/1 366/20/1 367/21/1 368/22/1
f 369/38/1 370/19/1 371/22/1 372/37/1
f 373/19/1 374/20/1 375/21/1 376/22/1
f 377/23/1 378/24/1 379/25/1 380/26/1
f 381/11/1 382/12/1 383/13/1 384/14/1
f 385/11/1 386/12/1 387/13/1 388/14/1
f 389/15/1 390/16/1 391/17/1 392/18/1
f 393/12/1 394/39/1 395/40/1 396/13/1
f 397/38/1 398/19/1 399/22/1 400/37/1
f 401/19/1 402/20/1 403/21/1 404/22/1
f 405/19/1 406/20/1 407/21/1 408/22/1
f 409/14/1 410/13/1 411/41/1 412/42/1
f 413/20/1 414/35/1 415/36/1 416/21/1
f 417/35/1 418/33/1 419/31/1 420/36/1
f 421/43/1 422/44/1 423/45/1 424/46/1
f 425/30/1 426/14/1 427/42/1 428/47/1
f 429/14/1 430/13/1 431/41/1 432/42/1
f 433/14/1 434/13/1 435/41/1 436/42/1
f 437/14/1 438/13/1 439/41/1 440/42/1
f 441/14/1 442/13/1 443/41/1 444/42/1
f 445/14/1 446/13/1 447/41/1 448/42/1
f 449/13/1 450/40/1 451/27/1 452/41/1
f 453/43/1 454/44/1 455/45/1 456/46/1
f 457/29/1 458/11/1 459/14/1 460/30/1
f 461/11/1 462/12/1 463/13/1 464/14/1
f 465/11/1 466/12/1 467/13/1 468/14/1
f 469/11/1 470/12/1 471/13/1 472/14/1
f 473/11/1 474/12/1 475/13/1 476/14/1
f 477/15/1 478/16/1 479/17/1 480/18/1
f 481/12/1 482/39/1 483/40/1 484/13/1
f 485/14/1 486/13/1 487/41/1 488/42/1
f 489/14/1 490/13/1 491/41/1 492/42/1
f 493/14/1 494/13/1 495/41/1 496/42/1
f 497/14/1 498/13/1 499/41/1 500/42/1
f 501/14/1 502/13/1 503/41/1 504/42/1
f 505/48/1 506/49/1 507/24/1 508/23/1
f 509/11/1 510/12/1 511/13/1 512/14/1
f 513/11/1 514/12/1 515/13/1 516/14/1
f 517/31/1 518/15/1 519/18/1 520/32/1
f 521/11/1 522/12/1 523/13/1 524/14/1
f 525/11/1 526/12/1 527/13/1 528/14/1
f 529/12/1 530/39/1 531/40/1 532/13/1

