# Tiled2Unity generated file. Do not modify by hand.
# Wavefront file for 'Map_Master_mesh_0063.obj'

# Vertices (Count = 20)
v -5 -8 0
v -6 -8 0
v -6 -7 0
v -5 -7 0
v -6 -8 0
v -7 -8 0
v -7 -7 0
v -6 -7 0
v -7 -8 0
v -8 -8 0
v -8 -7 0
v -7 -7 0
v -7 -9 0
v -8 -9 0
v -8 -8 0
v -7 -8 0
v -8 -9 0
v -9 -9 0
v -9 -8 0
v -8 -8 0

# Texture cooridinates (Count = 8)
vt 0 0.3333333
vt 0.1 0.3333333
vt 0.1 0.4444444
vt 0 0.4444444
vt 0.2 0.3333333
vt 0.2 0.4444444
vt 0.3 0.3333333
vt 0.3 0.4444444

# Normal
vn 0 0 -1

# Mesh description
g Map_Master_mesh_0063

# Faces
f 1/1/1 2/2/1 3/3/1 4/4/1
f 5/2/1 6/5/1 7/6/1 8/3/1
f 9/5/1 10/7/1 11/8/1 12/6/1
f 13/2/1 14/5/1 15/6/1 16/3/1
f 17/5/1 18/7/1 19/8/1 20/6/1

