# Tiled2Unity generated file. Do not modify by hand.
# Wavefront file for 'Map_Master_mesh_0188.obj'

# Vertices (Count = 20)
v -6 -9 0
v -7 -9 0
v -7 -8 0
v -6 -8 0
v -7 -9 0
v -8 -9 0
v -8 -8 0
v -7 -8 0
v -8 -9 0
v -9 -9 0
v -9 -8 0
v -8 -8 0
v -3 -10 0
v -4 -10 0
v -4 -9 0
v -3 -9 0
v -4 -10 0
v -5 -10 0
v -5 -9 0
v -4 -9 0

# Texture cooridinates (Count = 8)
vt 0 0.8888889
vt 0.1 0.8888889
vt 0.1 1
vt 0 1
vt 0.2 0.8888889
vt 0.2 1
vt 0.3 0.8888889
vt 0.3 1

# Normal
vn 0 0 -1

# Mesh description
g Map_Master_mesh_0188

# Faces
f 1/1/1 2/2/1 3/3/1 4/4/1
f 5/2/1 6/5/1 7/6/1 8/3/1
f 9/5/1 10/7/1 11/8/1 12/6/1
f 13/1/1 14/2/1 15/3/1 16/4/1
f 17/2/1 18/5/1 19/6/1 20/3/1

