# Tiled2Unity generated file. Do not modify by hand.
# Wavefront file for 'Map_Master_mesh_0503.obj'

# Vertices (Count = 8)
v -14 -7 0
v -15 -7 0
v -15 -6 0
v -14 -6 0
v -3 -8 0
v -4 -8 0
v -4 -7 0
v -3 -7 0

# Texture cooridinates (Count = 8)
vt 0.1111111 0
vt 0.2222222 0
vt 0.2222222 0.1666667
vt 0.1111111 0.1666667
vt 0.4444444 0.3333333
vt 0.5555556 0.3333333
vt 0.5555556 0.5
vt 0.4444444 0.5

# Normal
vn 0 0 -1

# Mesh description
g Map_Master_mesh_0503

# Faces
f 1/1/1 2/2/1 3/3/1 4/4/1
f 5/5/1 6/6/1 7/7/1 8/8/1

