# Tiled2Unity generated file. Do not modify by hand.
# Wavefront file for 'Map_Master_mesh_0622.obj'

# Vertices (Count = 16)
v -6 -1 0
v -7 -1 0
v -7 0 0
v -6 0 0
v 0 -11 0
v -1 -11 0
v -1 -10 0
v 0 -10 0
v -6 -14 0
v -7 -14 0
v -7 -13 0
v -6 -13 0
v -9 -14 0
v -10 -14 0
v -10 -13 0
v -9 -13 0

# Texture cooridinates (Count = 8)
vt 0.5 0
vt 0.75 0
vt 0.75 1
vt 0.5 1
vt 0.25 0
vt 0.25 1
vt 0 0
vt 0 1

# Normal
vn 0 0 -1

# Mesh description
g Map_Master_mesh_0622

# Faces
f 1/1/1 2/2/1 3/3/1 4/4/1
f 5/5/1 6/1/1 7/4/1 8/6/1
f 9/7/1 10/5/1 11/6/1 12/8/1
f 13/7/1 14/5/1 15/6/1 16/8/1

