# Tiled2Unity generated file. Do not modify by hand.
# Wavefront file for 'Map_Master_mesh_0200.obj'

# Vertices (Count = 584)
v 0 -5 0
v -1 -5 0
v -1 -4 0
v 0 -4 0
v -1 -5 0
v -2 -5 0
v -2 -4 0
v -1 -4 0
v -2 -5 0
v -3 -5 0
v -3 -4 0
v -2 -4 0
v -3 -5 0
v -4 -5 0
v -4 -4 0
v -3 -4 0
v -4 -5 0
v -5 -5 0
v -5 -4 0
v -4 -4 0
v -5 -5 0
v -6 -5 0
v -6 -4 0
v -5 -4 0
v -6 -5 0
v -7 -5 0
v -7 -4 0
v -6 -4 0
v -7 -5 0
v -8 -5 0
v -8 -4 0
v -7 -4 0
v -8 -5 0
v -9 -5 0
v -9 -4 0
v -8 -4 0
v -9 -5 0
v -10 -5 0
v -10 -4 0
v -9 -4 0
v 0 -6 0
v -1 -6 0
v -1 -5 0
v 0 -5 0
v -1 -6 0
v -2 -6 0
v -2 -5 0
v -1 -5 0
v -2 -6 0
v -3 -6 0
v -3 -5 0
v -2 -5 0
v -3 -6 0
v -4 -6 0
v -4 -5 0
v -3 -5 0
v -4 -6 0
v -5 -6 0
v -5 -5 0
v -4 -5 0
v -5 -6 0
v -6 -6 0
v -6 -5 0
v -5 -5 0
v -6 -6 0
v -7 -6 0
v -7 -5 0
v -6 -5 0
v -7 -6 0
v -8 -6 0
v -8 -5 0
v -7 -5 0
v -8 -6 0
v -9 -6 0
v -9 -5 0
v -8 -5 0
v -9 -6 0
v -10 -6 0
v -10 -5 0
v -9 -5 0
v -10 -6 0
v -11 -6 0
v -11 -5 0
v -10 -5 0
v 0 -7 0
v -1 -7 0
v -1 -6 0
v 0 -6 0
v -1 -7 0
v -2 -7 0
v -2 -6 0
v -1 -6 0
v -2 -7 0
v -3 -7 0
v -3 -6 0
v -2 -6 0
v -3 -7 0
v -4 -7 0
v -4 -6 0
v -3 -6 0
v -4 -7 0
v -5 -7 0
v -5 -6 0
v -4 -6 0
v -5 -7 0
v -6 -7 0
v -6 -6 0
v -5 -6 0
v -6 -7 0
v -7 -7 0
v -7 -6 0
v -6 -6 0
v -7 -7 0
v -8 -7 0
v -8 -6 0
v -7 -6 0
v -8 -7 0
v -9 -7 0
v -9 -6 0
v -8 -6 0
v -9 -7 0
v -10 -7 0
v -10 -6 0
v -9 -6 0
v -10 -7 0
v -11 -7 0
v -11 -6 0
v -10 -6 0
v 0 -8 0
v -1 -8 0
v -1 -7 0
v 0 -7 0
v -1 -8 0
v -2 -8 0
v -2 -7 0
v -1 -7 0
v -2 -8 0
v -3 -8 0
v -3 -7 0
v -2 -7 0
v -3 -8 0
v -4 -8 0
v -4 -7 0
v -3 -7 0
v -4 -8 0
v -5 -8 0
v -5 -7 0
v -4 -7 0
v -5 -8 0
v -6 -8 0
v -6 -7 0
v -5 -7 0
v -6 -8 0
v -7 -8 0
v -7 -7 0
v -6 -7 0
v -7 -8 0
v -8 -8 0
v -8 -7 0
v -7 -7 0
v -8 -8 0
v -9 -8 0
v -9 -7 0
v -8 -7 0
v -9 -8 0
v -10 -8 0
v -10 -7 0
v -9 -7 0
v -10 -8 0
v -11 -8 0
v -11 -7 0
v -10 -7 0
v -11 -8 0
v -12 -8 0
v -12 -7 0
v -11 -7 0
v 0 -9 0
v -1 -9 0
v -1 -8 0
v 0 -8 0
v -1 -9 0
v -2 -9 0
v -2 -8 0
v -1 -8 0
v -2 -9 0
v -3 -9 0
v -3 -8 0
v -2 -8 0
v -3 -9 0
v -4 -9 0
v -4 -8 0
v -3 -8 0
v -4 -9 0
v -5 -9 0
v -5 -8 0
v -4 -8 0
v -5 -9 0
v -6 -9 0
v -6 -8 0
v -5 -8 0
v -6 -9 0
v -7 -9 0
v -7 -8 0
v -6 -8 0
v -7 -9 0
v -8 -9 0
v -8 -8 0
v -7 -8 0
v -8 -9 0
v -9 -9 0
v -9 -8 0
v -8 -8 0
v -9 -9 0
v -10 -9 0
v -10 -8 0
v -9 -8 0
v -10 -9 0
v -11 -9 0
v -11 -8 0
v -10 -8 0
v -11 -9 0
v -12 -9 0
v -12 -8 0
v -11 -8 0
v 0 -10 0
v -1 -10 0
v -1 -9 0
v 0 -9 0
v -1 -10 0
v -2 -10 0
v -2 -9 0
v -1 -9 0
v -2 -10 0
v -3 -10 0
v -3 -9 0
v -2 -9 0
v -3 -10 0
v -4 -10 0
v -4 -9 0
v -3 -9 0
v -4 -10 0
v -5 -10 0
v -5 -9 0
v -4 -9 0
v -5 -10 0
v -6 -10 0
v -6 -9 0
v -5 -9 0
v -6 -10 0
v -7 -10 0
v -7 -9 0
v -6 -9 0
v -7 -10 0
v -8 -10 0
v -8 -9 0
v -7 -9 0
v -8 -10 0
v -9 -10 0
v -9 -9 0
v -8 -9 0
v -9 -10 0
v -10 -10 0
v -10 -9 0
v -9 -9 0
v -10 -10 0
v -11 -10 0
v -11 -9 0
v -10 -9 0
v -11 -10 0
v -12 -10 0
v -12 -9 0
v -11 -9 0
v -12 -10 0
v -13 -10 0
v -13 -9 0
v -12 -9 0
v -13 -10 0
v -14 -10 0
v -14 -9 0
v -13 -9 0
v -14 -10 0
v -15 -10 0
v -15 -9 0
v -14 -9 0
v -15 -10 0
v -16 -10 0
v -16 -9 0
v -15 -9 0
v 0 -11 0
v -1 -11 0
v -1 -10 0
v 0 -10 0
v -1 -11 0
v -2 -11 0
v -2 -10 0
v -1 -10 0
v -2 -11 0
v -3 -11 0
v -3 -10 0
v -2 -10 0
v -3 -11 0
v -4 -11 0
v -4 -10 0
v -3 -10 0
v -4 -11 0
v -5 -11 0
v -5 -10 0
v -4 -10 0
v -5 -11 0
v -6 -11 0
v -6 -10 0
v -5 -10 0
v -6 -11 0
v -7 -11 0
v -7 -10 0
v -6 -10 0
v -7 -11 0
v -8 -11 0
v -8 -10 0
v -7 -10 0
v -8 -11 0
v -9 -11 0
v -9 -10 0
v -8 -10 0
v -9 -11 0
v -10 -11 0
v -10 -10 0
v -9 -10 0
v -10 -11 0
v -11 -11 0
v -11 -10 0
v -10 -10 0
v -11 -11 0
v -12 -11 0
v -12 -10 0
v -11 -10 0
v -12 -11 0
v -13 -11 0
v -13 -10 0
v -12 -10 0
v -13 -11 0
v -14 -11 0
v -14 -10 0
v -13 -10 0
v -14 -11 0
v -15 -11 0
v -15 -10 0
v -14 -10 0
v -15 -11 0
v -16 -11 0
v -16 -10 0
v -15 -10 0
v 0 -12 0
v -1 -12 0
v -1 -11 0
v 0 -11 0
v -1 -12 0
v -2 -12 0
v -2 -11 0
v -1 -11 0
v -2 -12 0
v -3 -12 0
v -3 -11 0
v -2 -11 0
v -3 -12 0
v -4 -12 0
v -4 -11 0
v -3 -11 0
v -4 -12 0
v -5 -12 0
v -5 -11 0
v -4 -11 0
v -5 -12 0
v -6 -12 0
v -6 -11 0
v -5 -11 0
v -6 -12 0
v -7 -12 0
v -7 -11 0
v -6 -11 0
v -7 -12 0
v -8 -12 0
v -8 -11 0
v -7 -11 0
v -8 -12 0
v -9 -12 0
v -9 -11 0
v -8 -11 0
v -9 -12 0
v -10 -12 0
v -10 -11 0
v -9 -11 0
v -10 -12 0
v -11 -12 0
v -11 -11 0
v -10 -11 0
v -11 -12 0
v -12 -12 0
v -12 -11 0
v -11 -11 0
v -12 -12 0
v -13 -12 0
v -13 -11 0
v -12 -11 0
v -13 -12 0
v -14 -12 0
v -14 -11 0
v -13 -11 0
v -14 -12 0
v -15 -12 0
v -15 -11 0
v -14 -11 0
v -15 -12 0
v -16 -12 0
v -16 -11 0
v -15 -11 0
v 0 -13 0
v -1 -13 0
v -1 -12 0
v 0 -12 0
v -1 -13 0
v -2 -13 0
v -2 -12 0
v -1 -12 0
v -2 -13 0
v -3 -13 0
v -3 -12 0
v -2 -12 0
v -3 -13 0
v -4 -13 0
v -4 -12 0
v -3 -12 0
v -4 -13 0
v -5 -13 0
v -5 -12 0
v -4 -12 0
v 0 -14 0
v -1 -14 0
v -1 -13 0
v 0 -13 0
v -1 -14 0
v -2 -14 0
v -2 -13 0
v -1 -13 0
v -2 -14 0
v -3 -14 0
v -3 -13 0
v -2 -13 0
v -3 -14 0
v -4 -14 0
v -4 -13 0
v -3 -13 0
v -4 -14 0
v -5 -14 0
v -5 -13 0
v -4 -13 0
v 0 -15 0
v -1 -15 0
v -1 -14 0
v 0 -14 0
v -1 -15 0
v -2 -15 0
v -2 -14 0
v -1 -14 0
v -2 -15 0
v -3 -15 0
v -3 -14 0
v -2 -14 0
v -3 -15 0
v -4 -15 0
v -4 -14 0
v -3 -14 0
v -4 -15 0
v -5 -15 0
v -5 -14 0
v -4 -14 0
v -5 -15 0
v -6 -15 0
v -6 -14 0
v -5 -14 0
v -6 -15 0
v -7 -15 0
v -7 -14 0
v -6 -14 0
v -7 -15 0
v -8 -15 0
v -8 -14 0
v -7 -14 0
v -8 -15 0
v -9 -15 0
v -9 -14 0
v -8 -14 0
v -9 -15 0
v -10 -15 0
v -10 -14 0
v -9 -14 0
v -10 -15 0
v -11 -15 0
v -11 -14 0
v -10 -14 0
v -11 -15 0
v -12 -15 0
v -12 -14 0
v -11 -14 0
v -12 -15 0
v -13 -15 0
v -13 -14 0
v -12 -14 0
v -13 -15 0
v -14 -15 0
v -14 -14 0
v -13 -14 0
v -14 -15 0
v -15 -15 0
v -15 -14 0
v -14 -14 0
v -15 -15 0
v -16 -15 0
v -16 -14 0
v -15 -14 0
v 0 -16 0
v -1 -16 0
v -1 -15 0
v 0 -15 0
v -1 -16 0
v -2 -16 0
v -2 -15 0
v -1 -15 0
v -2 -16 0
v -3 -16 0
v -3 -15 0
v -2 -15 0
v -3 -16 0
v -4 -16 0
v -4 -15 0
v -3 -15 0
v -4 -16 0
v -5 -16 0
v -5 -15 0
v -4 -15 0
v -5 -16 0
v -6 -16 0
v -6 -15 0
v -5 -15 0
v -6 -16 0
v -7 -16 0
v -7 -15 0
v -6 -15 0
v -7 -16 0
v -8 -16 0
v -8 -15 0
v -7 -15 0
v -8 -16 0
v -9 -16 0
v -9 -15 0
v -8 -15 0
v -9 -16 0
v -10 -16 0
v -10 -15 0
v -9 -15 0
v -10 -16 0
v -11 -16 0
v -11 -15 0
v -10 -15 0
v -11 -16 0
v -12 -16 0
v -12 -15 0
v -11 -15 0
v -12 -16 0
v -13 -16 0
v -13 -15 0
v -12 -15 0
v -13 -16 0
v -14 -16 0
v -14 -15 0
v -13 -15 0
v -14 -16 0
v -15 -16 0
v -15 -15 0
v -14 -15 0
v -15 -16 0
v -16 -16 0
v -16 -15 0
v -15 -15 0

# Texture cooridinates (Count = 17)
vt 0.1 0.7777778
vt 0.2 0.7777778
vt 0.2 0.8888889
vt 0.1 0.8888889
vt 0.1 0.2222222
vt 0.2 0.2222222
vt 0.2 0.3333333
vt 0.1 0.3333333
vt 0.3 0.2222222
vt 0.3 0.3333333
vt 0.1 0.6666666
vt 0.2 0.6666666
vt 0.1 0.1111111
vt 0.2 0.1111111
vt 0.4 0.2222222
vt 0.4 0.3333333
vt 0.3 0.1111111

# Normal
vn 0 0 -1

# Mesh description
g Map_Master_mesh_0200

# Faces
f 1/1/1 2/2/1 3/3/1 4/4/1
f 5/1/1 6/2/1 7/3/1 8/4/1
f 9/1/1 10/2/1 11/3/1 12/4/1
f 13/1/1 14/2/1 15/3/1 16/4/1
f 17/1/1 18/2/1 19/3/1 20/4/1
f 21/5/1 22/6/1 23/7/1 24/8/1
f 25/5/1 26/6/1 27/7/1 28/8/1
f 29/5/1 30/6/1 31/7/1 32/8/1
f 33/5/1 34/6/1 35/7/1 36/8/1
f 37/6/1 38/9/1 39/10/1 40/7/1
f 41/11/1 42/12/1 43/2/1 44/1/1
f 45/11/1 46/12/1 47/2/1 48/1/1
f 49/11/1 50/12/1 51/2/1 52/1/1
f 53/11/1 54/12/1 55/2/1 56/1/1
f 57/11/1 58/12/1 59/2/1 60/1/1
f 61/13/1 62/14/1 63/6/1 64/5/1
f 65/13/1 66/14/1 67/6/1 68/5/1
f 69/13/1 70/14/1 71/6/1 72/5/1
f 73/13/1 74/14/1 75/6/1 76/5/1
f 77/9/1 78/15/1 79/16/1 80/10/1
f 81/6/1 82/9/1 83/10/1 84/7/1
f 85/11/1 86/12/1 87/2/1 88/1/1
f 89/11/1 90/12/1 91/2/1 92/1/1
f 93/11/1 94/12/1 95/2/1 96/1/1
f 97/11/1 98/12/1 99/2/1 100/1/1
f 101/11/1 102/12/1 103/2/1 104/1/1
f 105/13/1 106/14/1 107/6/1 108/5/1
f 109/13/1 110/14/1 111/6/1 112/5/1
f 113/13/1 114/14/1 115/6/1 116/5/1
f 117/13/1 118/14/1 119/6/1 120/5/1
f 121/13/1 122/14/1 123/6/1 124/5/1
f 125/14/1 126/17/1 127/9/1 128/6/1
f 129/11/1 130/12/1 131/2/1 132/1/1
f 133/11/1 134/12/1 135/2/1 136/1/1
f 137/11/1 138/12/1 139/2/1 140/1/1
f 141/11/1 142/12/1 143/2/1 144/1/1
f 145/11/1 146/12/1 147/2/1 148/1/1
f 149/13/1 150/14/1 151/6/1 152/5/1
f 153/13/1 154/14/1 155/6/1 156/5/1
f 157/13/1 158/14/1 159/6/1 160/5/1
f 161/13/1 162/14/1 163/6/1 164/5/1
f 165/13/1 166/14/1 167/6/1 168/5/1
f 169/9/1 170/15/1 171/16/1 172/10/1
f 173/6/1 174/9/1 175/10/1 176/7/1
f 177/11/1 178/12/1 179/2/1 180/1/1
f 181/11/1 182/12/1 183/2/1 184/1/1
f 185/11/1 186/12/1 187/2/1 188/1/1
f 189/11/1 190/12/1 191/2/1 192/1/1
f 193/11/1 194/12/1 195/2/1 196/1/1
f 197/13/1 198/14/1 199/6/1 200/5/1
f 201/13/1 202/14/1 203/6/1 204/5/1
f 205/13/1 206/14/1 207/6/1 208/5/1
f 209/13/1 210/14/1 211/6/1 212/5/1
f 213/13/1 214/14/1 215/6/1 216/5/1
f 217/13/1 218/14/1 219/6/1 220/5/1
f 221/14/1 222/17/1 223/9/1 224/6/1
f 225/11/1 226/12/1 227/2/1 228/1/1
f 229/11/1 230/12/1 231/2/1 232/1/1
f 233/11/1 234/12/1 235/2/1 236/1/1
f 237/11/1 238/12/1 239/2/1 240/1/1
f 241/11/1 242/12/1 243/2/1 244/1/1
f 245/13/1 246/14/1 247/6/1 248/5/1
f 249/13/1 250/14/1 251/6/1 252/5/1
f 253/13/1 254/14/1 255/6/1 256/5/1
f 257/13/1 258/14/1 259/6/1 260/5/1
f 261/13/1 262/14/1 263/6/1 264/5/1
f 265/13/1 266/14/1 267/6/1 268/5/1
f 269/9/1 270/15/1 271/16/1 272/10/1
f 273/5/1 274/6/1 275/7/1 276/8/1
f 277/5/1 278/6/1 279/7/1 280/8/1
f 281/5/1 282/6/1 283/7/1 284/8/1
f 285/5/1 286/6/1 287/7/1 288/8/1
f 289/11/1 290/12/1 291/2/1 292/1/1
f 293/11/1 294/12/1 295/2/1 296/1/1
f 297/11/1 298/12/1 299/2/1 300/1/1
f 301/11/1 302/12/1 303/2/1 304/1/1
f 305/11/1 306/12/1 307/2/1 308/1/1
f 309/13/1 310/14/1 311/6/1 312/5/1
f 313/13/1 314/14/1 315/6/1 316/5/1
f 317/13/1 318/14/1 319/6/1 320/5/1
f 321/13/1 322/14/1 323/6/1 324/5/1
f 325/13/1 326/14/1 327/6/1 328/5/1
f 329/13/1 330/14/1 331/6/1 332/5/1
f 333/13/1 334/14/1 335/6/1 336/5/1
f 337/13/1 338/14/1 339/6/1 340/5/1
f 341/13/1 342/14/1 343/6/1 344/5/1
f 345/13/1 346/14/1 347/6/1 348/5/1
f 349/13/1 350/14/1 351/6/1 352/5/1
f 353/11/1 354/12/1 355/2/1 356/1/1
f 357/11/1 358/12/1 359/2/1 360/1/1
f 361/11/1 362/12/1 363/2/1 364/1/1
f 365/11/1 366/12/1 367/2/1 368/1/1
f 369/11/1 370/12/1 371/2/1 372/1/1
f 373/13/1 374/14/1 375/6/1 376/5/1
f 377/13/1 378/14/1 379/6/1 380/5/1
f 381/13/1 382/14/1 383/6/1 384/5/1
f 385/13/1 386/14/1 387/6/1 388/5/1
f 389/13/1 390/14/1 391/6/1 392/5/1
f 393/13/1 394/14/1 395/6/1 396/5/1
f 397/13/1 398/14/1 399/6/1 400/5/1
f 401/13/1 402/14/1 403/6/1 404/5/1
f 405/13/1 406/14/1 407/6/1 408/5/1
f 409/13/1 410/14/1 411/6/1 412/5/1
f 413/13/1 414/14/1 415/6/1 416/5/1
f 417/11/1 418/12/1 419/2/1 420/1/1
f 421/11/1 422/12/1 423/2/1 424/1/1
f 425/11/1 426/12/1 427/2/1 428/1/1
f 429/11/1 430/12/1 431/2/1 432/1/1
f 433/11/1 434/12/1 435/2/1 436/1/1
f 437/11/1 438/12/1 439/2/1 440/1/1
f 441/11/1 442/12/1 443/2/1 444/1/1
f 445/11/1 446/12/1 447/2/1 448/1/1
f 449/11/1 450/12/1 451/2/1 452/1/1
f 453/11/1 454/12/1 455/2/1 456/1/1
f 457/11/1 458/12/1 459/2/1 460/1/1
f 461/11/1 462/12/1 463/2/1 464/1/1
f 465/11/1 466/12/1 467/2/1 468/1/1
f 469/11/1 470/12/1 471/2/1 472/1/1
f 473/11/1 474/12/1 475/2/1 476/1/1
f 477/11/1 478/12/1 479/2/1 480/1/1
f 481/11/1 482/12/1 483/2/1 484/1/1
f 485/11/1 486/12/1 487/2/1 488/1/1
f 489/11/1 490/12/1 491/2/1 492/1/1
f 493/11/1 494/12/1 495/2/1 496/1/1
f 497/11/1 498/12/1 499/2/1 500/1/1
f 501/11/1 502/12/1 503/2/1 504/1/1
f 505/11/1 506/12/1 507/2/1 508/1/1
f 509/11/1 510/12/1 511/2/1 512/1/1
f 513/11/1 514/12/1 515/2/1 516/1/1
f 517/11/1 518/12/1 519/2/1 520/1/1
f 521/11/1 522/12/1 523/2/1 524/1/1
f 525/11/1 526/12/1 527/2/1 528/1/1
f 529/11/1 530/12/1 531/2/1 532/1/1
f 533/11/1 534/12/1 535/2/1 536/1/1
f 537/11/1 538/12/1 539/2/1 540/1/1
f 541/11/1 542/12/1 543/2/1 544/1/1
f 545/11/1 546/12/1 547/2/1 548/1/1
f 549/11/1 550/12/1 551/2/1 552/1/1
f 553/11/1 554/12/1 555/2/1 556/1/1
f 557/11/1 558/12/1 559/2/1 560/1/1
f 561/11/1 562/12/1 563/2/1 564/1/1
f 565/11/1 566/12/1 567/2/1 568/1/1
f 569/11/1 570/12/1 571/2/1 572/1/1
f 573/11/1 574/12/1 575/2/1 576/1/1
f 577/11/1 578/12/1 579/2/1 580/1/1
f 581/11/1 582/12/1 583/2/1 584/1/1

