# Tiled2Unity generated file. Do not modify by hand.
# Wavefront file for 'Map_Master_mesh_0222.obj'

# Vertices (Count = 552)
v 0 -1 0
v -1 -1 0
v -1 0 0
v 0 0 0
v -1 -1 0
v -2 -1 0
v -2 0 0
v -1 0 0
v -2 -1 0
v -3 -1 0
v -3 0 0
v -2 0 0
v -3 -1 0
v -4 -1 0
v -4 0 0
v -3 0 0
v -4 -1 0
v -5 -1 0
v -5 0 0
v -4 0 0
v -9 -1 0
v -10 -1 0
v -10 0 0
v -9 0 0
v -10 -1 0
v -11 -1 0
v -11 0 0
v -10 0 0
v -11 -1 0
v -12 -1 0
v -12 0 0
v -11 0 0
v -12 -1 0
v -13 -1 0
v -13 0 0
v -12 0 0
v -13 -1 0
v -14 -1 0
v -14 0 0
v -13 0 0
v -14 -1 0
v -15 -1 0
v -15 0 0
v -14 0 0
v -15 -1 0
v -16 -1 0
v -16 0 0
v -15 0 0
v 0 -2 0
v -1 -2 0
v -1 -1 0
v 0 -1 0
v -1 -2 0
v -2 -2 0
v -2 -1 0
v -1 -1 0
v -2 -2 0
v -3 -2 0
v -3 -1 0
v -2 -1 0
v -3 -2 0
v -4 -2 0
v -4 -1 0
v -3 -1 0
v -4 -2 0
v -5 -2 0
v -5 -1 0
v -4 -1 0
v -5 -2 0
v -6 -2 0
v -6 -1 0
v -5 -1 0
v -8 -2 0
v -9 -2 0
v -9 -1 0
v -8 -1 0
v -9 -2 0
v -10 -2 0
v -10 -1 0
v -9 -1 0
v -10 -2 0
v -11 -2 0
v -11 -1 0
v -10 -1 0
v -11 -2 0
v -12 -2 0
v -12 -1 0
v -11 -1 0
v -12 -2 0
v -13 -2 0
v -13 -1 0
v -12 -1 0
v -13 -2 0
v -14 -2 0
v -14 -1 0
v -13 -1 0
v -14 -2 0
v -15 -2 0
v -15 -1 0
v -14 -1 0
v -15 -2 0
v -16 -2 0
v -16 -1 0
v -15 -1 0
v 0 -3 0
v -1 -3 0
v -1 -2 0
v 0 -2 0
v -1 -3 0
v -2 -3 0
v -2 -2 0
v -1 -2 0
v -2 -3 0
v -3 -3 0
v -3 -2 0
v -2 -2 0
v -3 -3 0
v -4 -3 0
v -4 -2 0
v -3 -2 0
v -4 -3 0
v -5 -3 0
v -5 -2 0
v -4 -2 0
v -5 -3 0
v -6 -3 0
v -6 -2 0
v -5 -2 0
v -8 -3 0
v -9 -3 0
v -9 -2 0
v -8 -2 0
v -9 -3 0
v -10 -3 0
v -10 -2 0
v -9 -2 0
v -10 -3 0
v -11 -3 0
v -11 -2 0
v -10 -2 0
v -11 -3 0
v -12 -3 0
v -12 -2 0
v -11 -2 0
v -12 -3 0
v -13 -3 0
v -13 -2 0
v -12 -2 0
v -13 -3 0
v -14 -3 0
v -14 -2 0
v -13 -2 0
v -14 -3 0
v -15 -3 0
v -15 -2 0
v -14 -2 0
v -15 -3 0
v -16 -3 0
v -16 -2 0
v -15 -2 0
v 0 -4 0
v -1 -4 0
v -1 -3 0
v 0 -3 0
v -1 -4 0
v -2 -4 0
v -2 -3 0
v -1 -3 0
v -2 -4 0
v -3 -4 0
v -3 -3 0
v -2 -3 0
v -3 -4 0
v -4 -4 0
v -4 -3 0
v -3 -3 0
v -4 -4 0
v -5 -4 0
v -5 -3 0
v -4 -3 0
v -5 -4 0
v -6 -4 0
v -6 -3 0
v -5 -3 0
v -8 -4 0
v -9 -4 0
v -9 -3 0
v -8 -3 0
v -9 -4 0
v -10 -4 0
v -10 -3 0
v -9 -3 0
v -10 -4 0
v -11 -4 0
v -11 -3 0
v -10 -3 0
v -11 -4 0
v -12 -4 0
v -12 -3 0
v -11 -3 0
v -12 -4 0
v -13 -4 0
v -13 -3 0
v -12 -3 0
v -13 -4 0
v -14 -4 0
v -14 -3 0
v -13 -3 0
v -14 -4 0
v -15 -4 0
v -15 -3 0
v -14 -3 0
v -15 -4 0
v -16 -4 0
v -16 -3 0
v -15 -3 0
v 0 -5 0
v -1 -5 0
v -1 -4 0
v 0 -4 0
v -1 -5 0
v -2 -5 0
v -2 -4 0
v -1 -4 0
v -2 -5 0
v -3 -5 0
v -3 -4 0
v -2 -4 0
v -3 -5 0
v -4 -5 0
v -4 -4 0
v -3 -4 0
v -4 -5 0
v -5 -5 0
v -5 -4 0
v -4 -4 0
v -5 -5 0
v -6 -5 0
v -6 -4 0
v -5 -4 0
v -8 -5 0
v -9 -5 0
v -9 -4 0
v -8 -4 0
v -9 -5 0
v -10 -5 0
v -10 -4 0
v -9 -4 0
v -10 -5 0
v -11 -5 0
v -11 -4 0
v -10 -4 0
v -11 -5 0
v -12 -5 0
v -12 -4 0
v -11 -4 0
v -12 -5 0
v -13 -5 0
v -13 -4 0
v -12 -4 0
v -13 -5 0
v -14 -5 0
v -14 -4 0
v -13 -4 0
v -14 -5 0
v -15 -5 0
v -15 -4 0
v -14 -4 0
v -15 -5 0
v -16 -5 0
v -16 -4 0
v -15 -4 0
v 0 -6 0
v -1 -6 0
v -1 -5 0
v 0 -5 0
v -1 -6 0
v -2 -6 0
v -2 -5 0
v -1 -5 0
v -2 -6 0
v -3 -6 0
v -3 -5 0
v -2 -5 0
v -3 -6 0
v -4 -6 0
v -4 -5 0
v -3 -5 0
v -4 -6 0
v -5 -6 0
v -5 -5 0
v -4 -5 0
v -9 -6 0
v -10 -6 0
v -10 -5 0
v -9 -5 0
v -10 -6 0
v -11 -6 0
v -11 -5 0
v -10 -5 0
v -11 -6 0
v -12 -6 0
v -12 -5 0
v -11 -5 0
v -12 -6 0
v -13 -6 0
v -13 -5 0
v -12 -5 0
v -13 -6 0
v -14 -6 0
v -14 -5 0
v -13 -5 0
v -14 -6 0
v -15 -6 0
v -15 -5 0
v -14 -5 0
v -15 -6 0
v -16 -6 0
v -16 -5 0
v -15 -5 0
v 0 -7 0
v -1 -7 0
v -1 -6 0
v 0 -6 0
v -1 -7 0
v -2 -7 0
v -2 -6 0
v -1 -6 0
v -2 -7 0
v -3 -7 0
v -3 -6 0
v -2 -6 0
v -3 -7 0
v -4 -7 0
v -4 -6 0
v -3 -6 0
v -4 -7 0
v -5 -7 0
v -5 -6 0
v -4 -6 0
v -9 -7 0
v -10 -7 0
v -10 -6 0
v -9 -6 0
v -10 -7 0
v -11 -7 0
v -11 -6 0
v -10 -6 0
v -11 -7 0
v -12 -7 0
v -12 -6 0
v -11 -6 0
v -12 -7 0
v -13 -7 0
v -13 -6 0
v -12 -6 0
v -13 -7 0
v -14 -7 0
v -14 -6 0
v -13 -6 0
v -14 -7 0
v -15 -7 0
v -15 -6 0
v -14 -6 0
v -15 -7 0
v -16 -7 0
v -16 -6 0
v -15 -6 0
v 0 -8 0
v -1 -8 0
v -1 -7 0
v 0 -7 0
v -1 -8 0
v -2 -8 0
v -2 -7 0
v -1 -7 0
v -2 -8 0
v -3 -8 0
v -3 -7 0
v -2 -7 0
v -3 -8 0
v -4 -8 0
v -4 -7 0
v -3 -7 0
v -4 -8 0
v -5 -8 0
v -5 -7 0
v -4 -7 0
v -9 -8 0
v -10 -8 0
v -10 -7 0
v -9 -7 0
v -10 -8 0
v -11 -8 0
v -11 -7 0
v -10 -7 0
v -11 -8 0
v -12 -8 0
v -12 -7 0
v -11 -7 0
v -12 -8 0
v -13 -8 0
v -13 -7 0
v -12 -7 0
v -13 -8 0
v -14 -8 0
v -14 -7 0
v -13 -7 0
v -14 -8 0
v -15 -8 0
v -15 -7 0
v -14 -7 0
v -15 -8 0
v -16 -8 0
v -16 -7 0
v -15 -7 0
v 0 -9 0
v -1 -9 0
v -1 -8 0
v 0 -8 0
v -1 -9 0
v -2 -9 0
v -2 -8 0
v -1 -8 0
v -2 -9 0
v -3 -9 0
v -3 -8 0
v -2 -8 0
v -3 -9 0
v -4 -9 0
v -4 -8 0
v -3 -8 0
v -4 -9 0
v -5 -9 0
v -5 -8 0
v -4 -8 0
v -9 -9 0
v -10 -9 0
v -10 -8 0
v -9 -8 0
v -10 -9 0
v -11 -9 0
v -11 -8 0
v -10 -8 0
v -11 -9 0
v -12 -9 0
v -12 -8 0
v -11 -8 0
v -12 -9 0
v -13 -9 0
v -13 -8 0
v -12 -8 0
v -13 -9 0
v -14 -9 0
v -14 -8 0
v -13 -8 0
v -14 -9 0
v -15 -9 0
v -15 -8 0
v -14 -8 0
v -15 -9 0
v -16 -9 0
v -16 -8 0
v -15 -8 0
v 0 -10 0
v -1 -10 0
v -1 -9 0
v 0 -9 0
v -1 -10 0
v -2 -10 0
v -2 -9 0
v -1 -9 0
v -2 -10 0
v -3 -10 0
v -3 -9 0
v -2 -9 0
v -11 -10 0
v -12 -10 0
v -12 -9 0
v -11 -9 0
v -12 -10 0
v -13 -10 0
v -13 -9 0
v -12 -9 0
v -13 -10 0
v -14 -10 0
v -14 -9 0
v -13 -9 0
v -14 -10 0
v -15 -10 0
v -15 -9 0
v -14 -9 0
v -15 -10 0
v -16 -10 0
v -16 -9 0
v -15 -9 0
v 0 -11 0
v -1 -11 0
v -1 -10 0
v 0 -10 0
v -13 -11 0
v -14 -11 0
v -14 -10 0
v -13 -10 0
v -14 -11 0
v -15 -11 0
v -15 -10 0
v -14 -10 0
v -15 -11 0
v -16 -11 0
v -16 -10 0
v -15 -10 0
v -14 -12 0
v -15 -12 0
v -15 -11 0
v -14 -11 0
v -15 -12 0
v -16 -12 0
v -16 -11 0
v -15 -11 0
v -14 -13 0
v -15 -13 0
v -15 -12 0
v -14 -12 0
v -15 -13 0
v -16 -13 0
v -16 -12 0
v -15 -12 0
v -14 -14 0
v -15 -14 0
v -15 -13 0
v -14 -13 0
v -15 -14 0
v -16 -14 0
v -16 -13 0
v -15 -13 0
v -14 -15 0
v -15 -15 0
v -15 -14 0
v -14 -14 0
v -15 -15 0
v -16 -15 0
v -16 -14 0
v -15 -14 0
v -14 -16 0
v -15 -16 0
v -15 -15 0
v -14 -15 0
v -15 -16 0
v -16 -16 0
v -16 -15 0
v -15 -15 0

# Texture cooridinates (Count = 27)
vt 0.1 0.7777778
vt 0.2 0.7777778
vt 0.2 0.8888889
vt 0.1 0.8888889
vt 0.3 0.7777778
vt 0.3 0.8888889
vt 0 0.7777778
vt 0 0.8888889
vt 0.4 0.7777778
vt 0.5 0.7777778
vt 0.5 0.8888889
vt 0.4 0.8888889
vt 0.1 0.6666666
vt 0.2 0.6666666
vt 0.3 0.6666666
vt 0 0.6666666
vt 0.4 1
vt 0.3 1
vt 0.2 0.4444444
vt 0.3 0.4444444
vt 0.3 0.5555556
vt 0.2 0.5555556
vt 0 0.4444444
vt 0.1 0.4444444
vt 0.1 0.5555556
vt 0 0.5555556
vt 0.5 1

# Normal
vn 0 0 -1

# Mesh description
g Map_Master_mesh_0222

# Faces
f 1/1/1 2/2/1 3/3/1 4/4/1
f 5/1/1 6/2/1 7/3/1 8/4/1
f 9/1/1 10/2/1 11/3/1 12/4/1
f 13/1/1 14/2/1 15/3/1 16/4/1
f 17/2/1 18/5/1 19/6/1 20/3/1
f 21/7/1 22/1/1 23/4/1 24/8/1
f 25/1/1 26/2/1 27/3/1 28/4/1
f 29/1/1 30/2/1 31/3/1 32/4/1
f 33/9/1 34/10/1 35/11/1 36/12/1
f 37/13/1 38/14/1 39/2/1 40/1/1
f 41/13/1 42/14/1 43/2/1 44/1/1
f 45/13/1 46/14/1 47/2/1 48/1/1
f 49/13/1 50/14/1 51/2/1 52/1/1
f 53/13/1 54/14/1 55/2/1 56/1/1
f 57/13/1 58/14/1 59/2/1 60/1/1
f 61/13/1 62/14/1 63/2/1 64/1/1
f 65/5/1 66/9/1 67/12/1 68/6/1
f 69/2/1 70/5/1 71/6/1 72/3/1
f 73/7/1 74/1/1 75/4/1 76/8/1
f 77/9/1 78/10/1 79/11/1 80/12/1
f 81/13/1 82/14/1 83/2/1 84/1/1
f 85/13/1 86/14/1 87/2/1 88/1/1
f 89/13/1 90/14/1 91/2/1 92/1/1
f 93/13/1 94/14/1 95/2/1 96/1/1
f 97/13/1 98/14/1 99/2/1 100/1/1
f 101/13/1 102/14/1 103/2/1 104/1/1
f 105/13/1 106/14/1 107/2/1 108/1/1
f 109/13/1 110/14/1 111/2/1 112/1/1
f 113/13/1 114/14/1 115/2/1 116/1/1
f 117/13/1 118/14/1 119/2/1 120/1/1
f 121/13/1 122/14/1 123/2/1 124/1/1
f 125/14/1 126/15/1 127/5/1 128/2/1
f 129/16/1 130/13/1 131/1/1 132/7/1
f 133/13/1 134/14/1 135/2/1 136/1/1
f 137/13/1 138/14/1 139/2/1 140/1/1
f 141/13/1 142/14/1 143/2/1 144/1/1
f 145/13/1 146/14/1 147/2/1 148/1/1
f 149/13/1 150/14/1 151/2/1 152/1/1
f 153/13/1 154/14/1 155/2/1 156/1/1
f 157/13/1 158/14/1 159/2/1 160/1/1
f 161/13/1 162/14/1 163/2/1 164/1/1
f 165/13/1 166/14/1 167/2/1 168/1/1
f 169/13/1 170/14/1 171/2/1 172/1/1
f 173/13/1 174/14/1 175/2/1 176/1/1
f 177/13/1 178/14/1 179/2/1 180/1/1
f 181/14/1 182/15/1 183/5/1 184/2/1
f 185/16/1 186/13/1 187/1/1 188/7/1
f 189/13/1 190/14/1 191/2/1 192/1/1
f 193/13/1 194/14/1 195/2/1 196/1/1
f 197/13/1 198/14/1 199/2/1 200/1/1
f 201/13/1 202/14/1 203/2/1 204/1/1
f 205/13/1 206/14/1 207/2/1 208/1/1
f 209/13/1 210/14/1 211/2/1 212/1/1
f 213/13/1 214/14/1 215/2/1 216/1/1
f 217/13/1 218/14/1 219/2/1 220/1/1
f 221/13/1 222/14/1 223/2/1 224/1/1
f 225/13/1 226/14/1 227/2/1 228/1/1
f 229/13/1 230/14/1 231/2/1 232/1/1
f 233/6/1 234/12/1 235/17/1 236/18/1
f 237/19/1 238/20/1 239/21/1 240/22/1
f 241/23/1 242/24/1 243/25/1 244/26/1
f 245/12/1 246/11/1 247/27/1 248/17/1
f 249/13/1 250/14/1 251/2/1 252/1/1
f 253/13/1 254/14/1 255/2/1 256/1/1
f 257/13/1 258/14/1 259/2/1 260/1/1
f 261/13/1 262/14/1 263/2/1 264/1/1
f 265/13/1 266/14/1 267/2/1 268/1/1
f 269/13/1 270/14/1 271/2/1 272/1/1
f 273/13/1 274/14/1 275/2/1 276/1/1
f 277/13/1 278/14/1 279/2/1 280/1/1
f 281/13/1 282/14/1 283/2/1 284/1/1
f 285/13/1 286/14/1 287/2/1 288/1/1
f 289/14/1 290/15/1 291/5/1 292/2/1
f 293/16/1 294/13/1 295/1/1 296/7/1
f 297/13/1 298/14/1 299/2/1 300/1/1
f 301/13/1 302/14/1 303/2/1 304/1/1
f 305/13/1 306/14/1 307/2/1 308/1/1
f 309/13/1 310/14/1 311/2/1 312/1/1
f 313/13/1 314/14/1 315/2/1 316/1/1
f 317/13/1 318/14/1 319/2/1 320/1/1
f 321/13/1 322/14/1 323/2/1 324/1/1
f 325/13/1 326/14/1 327/2/1 328/1/1
f 329/13/1 330/14/1 331/2/1 332/1/1
f 333/13/1 334/14/1 335/2/1 336/1/1
f 337/14/1 338/15/1 339/5/1 340/2/1
f 341/16/1 342/13/1 343/1/1 344/7/1
f 345/13/1 346/14/1 347/2/1 348/1/1
f 349/13/1 350/14/1 351/2/1 352/1/1
f 353/13/1 354/14/1 355/2/1 356/1/1
f 357/13/1 358/14/1 359/2/1 360/1/1
f 361/13/1 362/14/1 363/2/1 364/1/1
f 365/13/1 366/14/1 367/2/1 368/1/1
f 369/13/1 370/14/1 371/2/1 372/1/1
f 373/13/1 374/14/1 375/2/1 376/1/1
f 377/13/1 378/14/1 379/2/1 380/1/1
f 381/13/1 382/14/1 383/2/1 384/1/1
f 385/14/1 386/15/1 387/5/1 388/2/1
f 389/16/1 390/13/1 391/1/1 392/7/1
f 393/13/1 394/14/1 395/2/1 396/1/1
f 397/13/1 398/14/1 399/2/1 400/1/1
f 401/13/1 402/14/1 403/2/1 404/1/1
f 405/13/1 406/14/1 407/2/1 408/1/1
f 409/13/1 410/14/1 411/2/1 412/1/1
f 413/13/1 414/14/1 415/2/1 416/1/1
f 417/13/1 418/14/1 419/2/1 420/1/1
f 421/13/1 422/14/1 423/2/1 424/1/1
f 425/6/1 426/12/1 427/17/1 428/18/1
f 429/24/1 430/19/1 431/22/1 432/25/1
f 433/19/1 434/20/1 435/21/1 436/22/1
f 437/23/1 438/24/1 439/25/1 440/26/1
f 441/24/1 442/19/1 443/22/1 444/25/1
f 445/12/1 446/11/1 447/27/1 448/17/1
f 449/13/1 450/14/1 451/2/1 452/1/1
f 453/13/1 454/14/1 455/2/1 456/1/1
f 457/13/1 458/14/1 459/2/1 460/1/1
f 461/13/1 462/14/1 463/2/1 464/1/1
f 465/6/1 466/12/1 467/17/1 468/18/1
f 469/24/1 470/19/1 471/22/1 472/25/1
f 473/19/1 474/20/1 475/21/1 476/22/1
f 477/23/1 478/24/1 479/25/1 480/26/1
f 481/24/1 482/19/1 483/22/1 484/25/1
f 485/6/1 486/12/1 487/17/1 488/18/1
f 489/13/1 490/14/1 491/2/1 492/1/1
f 493/13/1 494/14/1 495/2/1 496/1/1
f 497/19/1 498/20/1 499/21/1 500/22/1
f 501/23/1 502/24/1 503/25/1 504/26/1
f 505/6/1 506/12/1 507/17/1 508/18/1
f 509/13/1 510/14/1 511/2/1 512/1/1
f 513/16/1 514/13/1 515/1/1 516/7/1
f 517/13/1 518/14/1 519/2/1 520/1/1
f 521/16/1 522/13/1 523/1/1 524/7/1
f 525/13/1 526/14/1 527/2/1 528/1/1
f 529/16/1 530/13/1 531/1/1 532/7/1
f 533/13/1 534/14/1 535/2/1 536/1/1
f 537/16/1 538/13/1 539/1/1 540/7/1
f 541/13/1 542/14/1 543/2/1 544/1/1
f 545/23/1 546/24/1 547/25/1 548/26/1
f 549/12/1 550/11/1 551/27/1 552/17/1

