# Tiled2Unity generated file. Do not modify by hand.
# Wavefront file for 'Map_Master_mesh_0410.obj'

# Vertices (Count = 512)
v 0 -3 0
v -1 -3 0
v -1 -2 0
v 0 -2 0
v -1 -3 0
v -2 -3 0
v -2 -2 0
v -1 -2 0
v -2 -3 0
v -3 -3 0
v -3 -2 0
v -2 -2 0
v -3 -3 0
v -4 -3 0
v -4 -2 0
v -3 -2 0
v -4 -3 0
v -5 -3 0
v -5 -2 0
v -4 -2 0
v -5 -3 0
v -6 -3 0
v -6 -2 0
v -5 -2 0
v -6 -3 0
v -7 -3 0
v -7 -2 0
v -6 -2 0
v -7 -3 0
v -8 -3 0
v -8 -2 0
v -7 -2 0
v -8 -3 0
v -9 -3 0
v -9 -2 0
v -8 -2 0
v -9 -3 0
v -10 -3 0
v -10 -2 0
v -9 -2 0
v -10 -3 0
v -11 -3 0
v -11 -2 0
v -10 -2 0
v -11 -3 0
v -12 -3 0
v -12 -2 0
v -11 -2 0
v -12 -3 0
v -13 -3 0
v -13 -2 0
v -12 -2 0
v -13 -3 0
v -14 -3 0
v -14 -2 0
v -13 -2 0
v -14 -3 0
v -15 -3 0
v -15 -2 0
v -14 -2 0
v -15 -3 0
v -16 -3 0
v -16 -2 0
v -15 -2 0
v 0 -4 0
v -1 -4 0
v -1 -3 0
v 0 -3 0
v -1 -4 0
v -2 -4 0
v -2 -3 0
v -1 -3 0
v -2 -4 0
v -3 -4 0
v -3 -3 0
v -2 -3 0
v -3 -4 0
v -4 -4 0
v -4 -3 0
v -3 -3 0
v -4 -4 0
v -5 -4 0
v -5 -3 0
v -4 -3 0
v -5 -4 0
v -6 -4 0
v -6 -3 0
v -5 -3 0
v -6 -4 0
v -7 -4 0
v -7 -3 0
v -6 -3 0
v -7 -4 0
v -8 -4 0
v -8 -3 0
v -7 -3 0
v -8 -4 0
v -9 -4 0
v -9 -3 0
v -8 -3 0
v -9 -4 0
v -10 -4 0
v -10 -3 0
v -9 -3 0
v -10 -4 0
v -11 -4 0
v -11 -3 0
v -10 -3 0
v -11 -4 0
v -12 -4 0
v -12 -3 0
v -11 -3 0
v -12 -4 0
v -13 -4 0
v -13 -3 0
v -12 -3 0
v -13 -4 0
v -14 -4 0
v -14 -3 0
v -13 -3 0
v -14 -4 0
v -15 -4 0
v -15 -3 0
v -14 -3 0
v -15 -4 0
v -16 -4 0
v -16 -3 0
v -15 -3 0
v 0 -5 0
v -1 -5 0
v -1 -4 0
v 0 -4 0
v -1 -5 0
v -2 -5 0
v -2 -4 0
v -1 -4 0
v -2 -5 0
v -3 -5 0
v -3 -4 0
v -2 -4 0
v -3 -5 0
v -4 -5 0
v -4 -4 0
v -3 -4 0
v -4 -5 0
v -5 -5 0
v -5 -4 0
v -4 -4 0
v -5 -5 0
v -6 -5 0
v -6 -4 0
v -5 -4 0
v -6 -5 0
v -7 -5 0
v -7 -4 0
v -6 -4 0
v -7 -5 0
v -8 -5 0
v -8 -4 0
v -7 -4 0
v -8 -5 0
v -9 -5 0
v -9 -4 0
v -8 -4 0
v -9 -5 0
v -10 -5 0
v -10 -4 0
v -9 -4 0
v -10 -5 0
v -11 -5 0
v -11 -4 0
v -10 -4 0
v -11 -5 0
v -12 -5 0
v -12 -4 0
v -11 -4 0
v -12 -5 0
v -13 -5 0
v -13 -4 0
v -12 -4 0
v -13 -5 0
v -14 -5 0
v -14 -4 0
v -13 -4 0
v -14 -5 0
v -15 -5 0
v -15 -4 0
v -14 -4 0
v -15 -5 0
v -16 -5 0
v -16 -4 0
v -15 -4 0
v 0 -6 0
v -1 -6 0
v -1 -5 0
v 0 -5 0
v -1 -6 0
v -2 -6 0
v -2 -5 0
v -1 -5 0
v -2 -6 0
v -3 -6 0
v -3 -5 0
v -2 -5 0
v -3 -6 0
v -4 -6 0
v -4 -5 0
v -3 -5 0
v -4 -6 0
v -5 -6 0
v -5 -5 0
v -4 -5 0
v -5 -6 0
v -6 -6 0
v -6 -5 0
v -5 -5 0
v -6 -6 0
v -7 -6 0
v -7 -5 0
v -6 -5 0
v -7 -6 0
v -8 -6 0
v -8 -5 0
v -7 -5 0
v -8 -6 0
v -9 -6 0
v -9 -5 0
v -8 -5 0
v -9 -6 0
v -10 -6 0
v -10 -5 0
v -9 -5 0
v -10 -6 0
v -11 -6 0
v -11 -5 0
v -10 -5 0
v -11 -6 0
v -12 -6 0
v -12 -5 0
v -11 -5 0
v -12 -6 0
v -13 -6 0
v -13 -5 0
v -12 -5 0
v -13 -6 0
v -14 -6 0
v -14 -5 0
v -13 -5 0
v -14 -6 0
v -15 -6 0
v -15 -5 0
v -14 -5 0
v -15 -6 0
v -16 -6 0
v -16 -5 0
v -15 -5 0
v 0 -7 0
v -1 -7 0
v -1 -6 0
v 0 -6 0
v -1 -7 0
v -2 -7 0
v -2 -6 0
v -1 -6 0
v -2 -7 0
v -3 -7 0
v -3 -6 0
v -2 -6 0
v -3 -7 0
v -4 -7 0
v -4 -6 0
v -3 -6 0
v -4 -7 0
v -5 -7 0
v -5 -6 0
v -4 -6 0
v -5 -7 0
v -6 -7 0
v -6 -6 0
v -5 -6 0
v -6 -7 0
v -7 -7 0
v -7 -6 0
v -6 -6 0
v -7 -7 0
v -8 -7 0
v -8 -6 0
v -7 -6 0
v -8 -7 0
v -9 -7 0
v -9 -6 0
v -8 -6 0
v -9 -7 0
v -10 -7 0
v -10 -6 0
v -9 -6 0
v -10 -7 0
v -11 -7 0
v -11 -6 0
v -10 -6 0
v -11 -7 0
v -12 -7 0
v -12 -6 0
v -11 -6 0
v -12 -7 0
v -13 -7 0
v -13 -6 0
v -12 -6 0
v -13 -7 0
v -14 -7 0
v -14 -6 0
v -13 -6 0
v -14 -7 0
v -15 -7 0
v -15 -6 0
v -14 -6 0
v -15 -7 0
v -16 -7 0
v -16 -6 0
v -15 -6 0
v 0 -8 0
v -1 -8 0
v -1 -7 0
v 0 -7 0
v -1 -8 0
v -2 -8 0
v -2 -7 0
v -1 -7 0
v -2 -8 0
v -3 -8 0
v -3 -7 0
v -2 -7 0
v -3 -8 0
v -4 -8 0
v -4 -7 0
v -3 -7 0
v -4 -8 0
v -5 -8 0
v -5 -7 0
v -4 -7 0
v -5 -8 0
v -6 -8 0
v -6 -7 0
v -5 -7 0
v -6 -8 0
v -7 -8 0
v -7 -7 0
v -6 -7 0
v -7 -8 0
v -8 -8 0
v -8 -7 0
v -7 -7 0
v -8 -8 0
v -9 -8 0
v -9 -7 0
v -8 -7 0
v -9 -8 0
v -10 -8 0
v -10 -7 0
v -9 -7 0
v -10 -8 0
v -11 -8 0
v -11 -7 0
v -10 -7 0
v -11 -8 0
v -12 -8 0
v -12 -7 0
v -11 -7 0
v -12 -8 0
v -13 -8 0
v -13 -7 0
v -12 -7 0
v -13 -8 0
v -14 -8 0
v -14 -7 0
v -13 -7 0
v -14 -8 0
v -15 -8 0
v -15 -7 0
v -14 -7 0
v -15 -8 0
v -16 -8 0
v -16 -7 0
v -15 -7 0
v 0 -9 0
v -1 -9 0
v -1 -8 0
v 0 -8 0
v -1 -9 0
v -2 -9 0
v -2 -8 0
v -1 -8 0
v -2 -9 0
v -3 -9 0
v -3 -8 0
v -2 -8 0
v -3 -9 0
v -4 -9 0
v -4 -8 0
v -3 -8 0
v -4 -9 0
v -5 -9 0
v -5 -8 0
v -4 -8 0
v -5 -9 0
v -6 -9 0
v -6 -8 0
v -5 -8 0
v -6 -9 0
v -7 -9 0
v -7 -8 0
v -6 -8 0
v -7 -9 0
v -8 -9 0
v -8 -8 0
v -7 -8 0
v -8 -9 0
v -9 -9 0
v -9 -8 0
v -8 -8 0
v -9 -9 0
v -10 -9 0
v -10 -8 0
v -9 -8 0
v -10 -9 0
v -11 -9 0
v -11 -8 0
v -10 -8 0
v -11 -9 0
v -12 -9 0
v -12 -8 0
v -11 -8 0
v -12 -9 0
v -13 -9 0
v -13 -8 0
v -12 -8 0
v -13 -9 0
v -14 -9 0
v -14 -8 0
v -13 -8 0
v -14 -9 0
v -15 -9 0
v -15 -8 0
v -14 -8 0
v -15 -9 0
v -16 -9 0
v -16 -8 0
v -15 -8 0
v 0 -10 0
v -1 -10 0
v -1 -9 0
v 0 -9 0
v -1 -10 0
v -2 -10 0
v -2 -9 0
v -1 -9 0
v -2 -10 0
v -3 -10 0
v -3 -9 0
v -2 -9 0
v -3 -10 0
v -4 -10 0
v -4 -9 0
v -3 -9 0
v -4 -10 0
v -5 -10 0
v -5 -9 0
v -4 -9 0
v -5 -10 0
v -6 -10 0
v -6 -9 0
v -5 -9 0
v -6 -10 0
v -7 -10 0
v -7 -9 0
v -6 -9 0
v -7 -10 0
v -8 -10 0
v -8 -9 0
v -7 -9 0
v -8 -10 0
v -9 -10 0
v -9 -9 0
v -8 -9 0
v -9 -10 0
v -10 -10 0
v -10 -9 0
v -9 -9 0
v -10 -10 0
v -11 -10 0
v -11 -9 0
v -10 -9 0
v -11 -10 0
v -12 -10 0
v -12 -9 0
v -11 -9 0
v -12 -10 0
v -13 -10 0
v -13 -9 0
v -12 -9 0
v -13 -10 0
v -14 -10 0
v -14 -9 0
v -13 -9 0
v -14 -10 0
v -15 -10 0
v -15 -9 0
v -14 -9 0
v -15 -10 0
v -16 -10 0
v -16 -9 0
v -15 -9 0

# Texture cooridinates (Count = 16)
vt 0 0.7777778
vt 0.1 0.7777778
vt 0.1 0.8888889
vt 0 0.8888889
vt 0.7 0.7777778
vt 0.8 0.7777778
vt 0.8 0.8888889
vt 0.7 0.8888889
vt 0.2 0.7777778
vt 0.2 0.8888889
vt 0.4 0.7777778
vt 0.5 0.7777778
vt 0.5 0.8888889
vt 0.4 0.8888889
vt 0.2 0.6666666
vt 0.1 0.6666666

# Normal
vn 0 0 -1

# Mesh description
g Map_Master_mesh_0410

# Faces
f 1/1/1 2/2/1 3/3/1 4/4/1
f 5/5/1 6/6/1 7/7/1 8/8/1
f 9/5/1 10/6/1 11/7/1 12/8/1
f 13/5/1 14/6/1 15/7/1 16/8/1
f 17/5/1 18/6/1 19/7/1 20/8/1
f 21/5/1 22/6/1 23/7/1 24/8/1
f 25/5/1 26/6/1 27/7/1 28/8/1
f 29/5/1 30/6/1 31/7/1 32/8/1
f 33/5/1 34/6/1 35/7/1 36/8/1
f 37/5/1 38/6/1 39/7/1 40/8/1
f 41/5/1 42/6/1 43/7/1 44/8/1
f 45/5/1 46/6/1 47/7/1 48/8/1
f 49/5/1 50/6/1 51/7/1 52/8/1
f 53/2/1 54/9/1 55/10/1 56/3/1
f 57/2/1 58/9/1 59/10/1 60/3/1
f 61/2/1 62/9/1 63/10/1 64/3/1
f 65/11/1 66/12/1 67/13/1 68/14/1
f 69/15/1 70/16/1 71/2/1 72/9/1
f 73/15/1 74/16/1 75/2/1 76/9/1
f 77/15/1 78/16/1 79/2/1 80/9/1
f 81/15/1 82/16/1 83/2/1 84/9/1
f 85/15/1 86/16/1 87/2/1 88/9/1
f 89/15/1 90/16/1 91/2/1 92/9/1
f 93/15/1 94/16/1 95/2/1 96/9/1
f 97/15/1 98/16/1 99/2/1 100/9/1
f 101/15/1 102/16/1 103/2/1 104/9/1
f 105/15/1 106/16/1 107/2/1 108/9/1
f 109/15/1 110/16/1 111/2/1 112/9/1
f 113/15/1 114/16/1 115/2/1 116/9/1
f 117/15/1 118/16/1 119/2/1 120/9/1
f 121/15/1 122/16/1 123/2/1 124/9/1
f 125/15/1 126/16/1 127/2/1 128/9/1
f 129/15/1 130/16/1 131/2/1 132/9/1
f 133/15/1 134/16/1 135/2/1 136/9/1
f 137/15/1 138/16/1 139/2/1 140/9/1
f 141/15/1 142/16/1 143/2/1 144/9/1
f 145/15/1 146/16/1 147/2/1 148/9/1
f 149/15/1 150/16/1 151/2/1 152/9/1
f 153/15/1 154/16/1 155/2/1 156/9/1
f 157/15/1 158/16/1 159/2/1 160/9/1
f 161/15/1 162/16/1 163/2/1 164/9/1
f 165/15/1 166/16/1 167/2/1 168/9/1
f 169/15/1 170/16/1 171/2/1 172/9/1
f 173/15/1 174/16/1 175/2/1 176/9/1
f 177/15/1 178/16/1 179/2/1 180/9/1
f 181/15/1 182/16/1 183/2/1 184/9/1
f 185/15/1 186/16/1 187/2/1 188/9/1
f 189/15/1 190/16/1 191/2/1 192/9/1
f 193/15/1 194/16/1 195/2/1 196/9/1
f 197/15/1 198/16/1 199/2/1 200/9/1
f 201/15/1 202/16/1 203/2/1 204/9/1
f 205/15/1 206/16/1 207/2/1 208/9/1
f 209/15/1 210/16/1 211/2/1 212/9/1
f 213/15/1 214/16/1 215/2/1 216/9/1
f 217/15/1 218/16/1 219/2/1 220/9/1
f 221/15/1 222/16/1 223/2/1 224/9/1
f 225/15/1 226/16/1 227/2/1 228/9/1
f 229/15/1 230/16/1 231/2/1 232/9/1
f 233/15/1 234/16/1 235/2/1 236/9/1
f 237/15/1 238/16/1 239/2/1 240/9/1
f 241/15/1 242/16/1 243/2/1 244/9/1
f 245/15/1 246/16/1 247/2/1 248/9/1
f 249/15/1 250/16/1 251/2/1 252/9/1
f 253/15/1 254/16/1 255/2/1 256/9/1
f 257/15/1 258/16/1 259/2/1 260/9/1
f 261/15/1 262/16/1 263/2/1 264/9/1
f 265/15/1 266/16/1 267/2/1 268/9/1
f 269/15/1 270/16/1 271/2/1 272/9/1
f 273/15/1 274/16/1 275/2/1 276/9/1
f 277/15/1 278/16/1 279/2/1 280/9/1
f 281/15/1 282/16/1 283/2/1 284/9/1
f 285/15/1 286/16/1 287/2/1 288/9/1
f 289/15/1 290/16/1 291/2/1 292/9/1
f 293/15/1 294/16/1 295/2/1 296/9/1
f 297/15/1 298/16/1 299/2/1 300/9/1
f 301/15/1 302/16/1 303/2/1 304/9/1
f 305/15/1 306/16/1 307/2/1 308/9/1
f 309/15/1 310/16/1 311/2/1 312/9/1
f 313/15/1 314/16/1 315/2/1 316/9/1
f 317/15/1 318/16/1 319/2/1 320/9/1
f 321/15/1 322/16/1 323/2/1 324/9/1
f 325/15/1 326/16/1 327/2/1 328/9/1
f 329/15/1 330/16/1 331/2/1 332/9/1
f 333/15/1 334/16/1 335/2/1 336/9/1
f 337/15/1 338/16/1 339/2/1 340/9/1
f 341/15/1 342/16/1 343/2/1 344/9/1
f 345/15/1 346/16/1 347/2/1 348/9/1
f 349/15/1 350/16/1 351/2/1 352/9/1
f 353/15/1 354/16/1 355/2/1 356/9/1
f 357/15/1 358/16/1 359/2/1 360/9/1
f 361/15/1 362/16/1 363/2/1 364/9/1
f 365/15/1 366/16/1 367/2/1 368/9/1
f 369/15/1 370/16/1 371/2/1 372/9/1
f 373/15/1 374/16/1 375/2/1 376/9/1
f 377/15/1 378/16/1 379/2/1 380/9/1
f 381/15/1 382/16/1 383/2/1 384/9/1
f 385/15/1 386/16/1 387/2/1 388/9/1
f 389/15/1 390/16/1 391/2/1 392/9/1
f 393/15/1 394/16/1 395/2/1 396/9/1
f 397/15/1 398/16/1 399/2/1 400/9/1
f 401/15/1 402/16/1 403/2/1 404/9/1
f 405/15/1 406/16/1 407/2/1 408/9/1
f 409/15/1 410/16/1 411/2/1 412/9/1
f 413/15/1 414/16/1 415/2/1 416/9/1
f 417/15/1 418/16/1 419/2/1 420/9/1
f 421/15/1 422/16/1 423/2/1 424/9/1
f 425/15/1 426/16/1 427/2/1 428/9/1
f 429/15/1 430/16/1 431/2/1 432/9/1
f 433/15/1 434/16/1 435/2/1 436/9/1
f 437/15/1 438/16/1 439/2/1 440/9/1
f 441/15/1 442/16/1 443/2/1 444/9/1
f 445/15/1 446/16/1 447/2/1 448/9/1
f 449/15/1 450/16/1 451/2/1 452/9/1
f 453/15/1 454/16/1 455/2/1 456/9/1
f 457/15/1 458/16/1 459/2/1 460/9/1
f 461/15/1 462/16/1 463/2/1 464/9/1
f 465/15/1 466/16/1 467/2/1 468/9/1
f 469/15/1 470/16/1 471/2/1 472/9/1
f 473/15/1 474/16/1 475/2/1 476/9/1
f 477/15/1 478/16/1 479/2/1 480/9/1
f 481/15/1 482/16/1 483/2/1 484/9/1
f 485/15/1 486/16/1 487/2/1 488/9/1
f 489/15/1 490/16/1 491/2/1 492/9/1
f 493/15/1 494/16/1 495/2/1 496/9/1
f 497/15/1 498/16/1 499/2/1 500/9/1
f 501/15/1 502/16/1 503/2/1 504/9/1
f 505/15/1 506/16/1 507/2/1 508/9/1
f 509/15/1 510/16/1 511/2/1 512/9/1

