# Tiled2Unity generated file. Do not modify by hand.
# Wavefront file for 'Map_Master_mesh_0282.obj'

# Vertices (Count = 428)
v 0 -1 0
v -1 -1 0
v -1 0 0
v 0 0 0
v -1 -1 0
v -2 -1 0
v -2 0 0
v -1 0 0
v -2 -1 0
v -3 -1 0
v -3 0 0
v -2 0 0
v -3 -1 0
v -4 -1 0
v -4 0 0
v -3 0 0
v -4 -1 0
v -5 -1 0
v -5 0 0
v -4 0 0
v -5 -1 0
v -6 -1 0
v -6 0 0
v -5 0 0
v -6 -1 0
v -7 -1 0
v -7 0 0
v -6 0 0
v -7 -1 0
v -8 -1 0
v -8 0 0
v -7 0 0
v -8 -1 0
v -9 -1 0
v -9 0 0
v -8 0 0
v -9 -1 0
v -10 -1 0
v -10 0 0
v -9 0 0
v -10 -1 0
v -11 -1 0
v -11 0 0
v -10 0 0
v -11 -1 0
v -12 -1 0
v -12 0 0
v -11 0 0
v -12 -1 0
v -13 -1 0
v -13 0 0
v -12 0 0
v -13 -1 0
v -14 -1 0
v -14 0 0
v -13 0 0
v -14 -1 0
v -15 -1 0
v -15 0 0
v -14 0 0
v -15 -1 0
v -16 -1 0
v -16 0 0
v -15 0 0
v -3 -2 0
v -4 -2 0
v -4 -1 0
v -3 -1 0
v -4 -2 0
v -5 -2 0
v -5 -1 0
v -4 -1 0
v -5 -2 0
v -6 -2 0
v -6 -1 0
v -5 -1 0
v -9 -2 0
v -10 -2 0
v -10 -1 0
v -9 -1 0
v -10 -2 0
v -11 -2 0
v -11 -1 0
v -10 -1 0
v -11 -2 0
v -12 -2 0
v -12 -1 0
v -11 -1 0
v -15 -2 0
v -16 -2 0
v -16 -1 0
v -15 -1 0
v -3 -3 0
v -4 -3 0
v -4 -2 0
v -3 -2 0
v -4 -3 0
v -5 -3 0
v -5 -2 0
v -4 -2 0
v -5 -3 0
v -6 -3 0
v -6 -2 0
v -5 -2 0
v -9 -3 0
v -10 -3 0
v -10 -2 0
v -9 -2 0
v -10 -3 0
v -11 -3 0
v -11 -2 0
v -10 -2 0
v -11 -3 0
v -12 -3 0
v -12 -2 0
v -11 -2 0
v -15 -3 0
v -16 -3 0
v -16 -2 0
v -15 -2 0
v -3 -4 0
v -4 -4 0
v -4 -3 0
v -3 -3 0
v -4 -4 0
v -5 -4 0
v -5 -3 0
v -4 -3 0
v -5 -4 0
v -6 -4 0
v -6 -3 0
v -5 -3 0
v -9 -4 0
v -10 -4 0
v -10 -3 0
v -9 -3 0
v -10 -4 0
v -11 -4 0
v -11 -3 0
v -10 -3 0
v -11 -4 0
v -12 -4 0
v -12 -3 0
v -11 -3 0
v -15 -4 0
v -16 -4 0
v -16 -3 0
v -15 -3 0
v -3 -5 0
v -4 -5 0
v -4 -4 0
v -3 -4 0
v -4 -5 0
v -5 -5 0
v -5 -4 0
v -4 -4 0
v -5 -5 0
v -6 -5 0
v -6 -4 0
v -5 -4 0
v -9 -5 0
v -10 -5 0
v -10 -4 0
v -9 -4 0
v -10 -5 0
v -11 -5 0
v -11 -4 0
v -10 -4 0
v -11 -5 0
v -12 -5 0
v -12 -4 0
v -11 -4 0
v -15 -5 0
v -16 -5 0
v -16 -4 0
v -15 -4 0
v -3 -6 0
v -4 -6 0
v -4 -5 0
v -3 -5 0
v -4 -6 0
v -5 -6 0
v -5 -5 0
v -4 -5 0
v -5 -6 0
v -6 -6 0
v -6 -5 0
v -5 -5 0
v -9 -6 0
v -10 -6 0
v -10 -5 0
v -9 -5 0
v -10 -6 0
v -11 -6 0
v -11 -5 0
v -10 -5 0
v -11 -6 0
v -12 -6 0
v -12 -5 0
v -11 -5 0
v -15 -6 0
v -16 -6 0
v -16 -5 0
v -15 -5 0
v -3 -7 0
v -4 -7 0
v -4 -6 0
v -3 -6 0
v -4 -7 0
v -5 -7 0
v -5 -6 0
v -4 -6 0
v -5 -7 0
v -6 -7 0
v -6 -6 0
v -5 -6 0
v -9 -7 0
v -10 -7 0
v -10 -6 0
v -9 -6 0
v -10 -7 0
v -11 -7 0
v -11 -6 0
v -10 -6 0
v -11 -7 0
v -12 -7 0
v -12 -6 0
v -11 -6 0
v -15 -7 0
v -16 -7 0
v -16 -6 0
v -15 -6 0
v -3 -8 0
v -4 -8 0
v -4 -7 0
v -3 -7 0
v -4 -8 0
v -5 -8 0
v -5 -7 0
v -4 -7 0
v -5 -8 0
v -6 -8 0
v -6 -7 0
v -5 -7 0
v -9 -8 0
v -10 -8 0
v -10 -7 0
v -9 -7 0
v -10 -8 0
v -11 -8 0
v -11 -7 0
v -10 -7 0
v -11 -8 0
v -12 -8 0
v -12 -7 0
v -11 -7 0
v -15 -8 0
v -16 -8 0
v -16 -7 0
v -15 -7 0
v -3 -9 0
v -4 -9 0
v -4 -8 0
v -3 -8 0
v -4 -9 0
v -5 -9 0
v -5 -8 0
v -4 -8 0
v -5 -9 0
v -6 -9 0
v -6 -8 0
v -5 -8 0
v -9 -9 0
v -10 -9 0
v -10 -8 0
v -9 -8 0
v -10 -9 0
v -11 -9 0
v -11 -8 0
v -10 -8 0
v -11 -9 0
v -12 -9 0
v -12 -8 0
v -11 -8 0
v -15 -9 0
v -16 -9 0
v -16 -8 0
v -15 -8 0
v -3 -10 0
v -4 -10 0
v -4 -9 0
v -3 -9 0
v -4 -10 0
v -5 -10 0
v -5 -9 0
v -4 -9 0
v -5 -10 0
v -6 -10 0
v -6 -9 0
v -5 -9 0
v -15 -10 0
v -16 -10 0
v -16 -9 0
v -15 -9 0
v -3 -11 0
v -4 -11 0
v -4 -10 0
v -3 -10 0
v -4 -11 0
v -5 -11 0
v -5 -10 0
v -4 -10 0
v -5 -11 0
v -6 -11 0
v -6 -10 0
v -5 -10 0
v -15 -11 0
v -16 -11 0
v -16 -10 0
v -15 -10 0
v -3 -12 0
v -4 -12 0
v -4 -11 0
v -3 -11 0
v -4 -12 0
v -5 -12 0
v -5 -11 0
v -4 -11 0
v -5 -12 0
v -6 -12 0
v -6 -11 0
v -5 -11 0
v -9 -12 0
v -10 -12 0
v -10 -11 0
v -9 -11 0
v -10 -12 0
v -11 -12 0
v -11 -11 0
v -10 -11 0
v -11 -12 0
v -12 -12 0
v -12 -11 0
v -11 -11 0
v -3 -13 0
v -4 -13 0
v -4 -12 0
v -3 -12 0
v -4 -13 0
v -5 -13 0
v -5 -12 0
v -4 -12 0
v -5 -13 0
v -6 -13 0
v -6 -12 0
v -5 -12 0
v -9 -13 0
v -10 -13 0
v -10 -12 0
v -9 -12 0
v -10 -13 0
v -11 -13 0
v -11 -12 0
v -10 -12 0
v -11 -13 0
v -12 -13 0
v -12 -12 0
v -11 -12 0
v -9 -14 0
v -10 -14 0
v -10 -13 0
v -9 -13 0
v -10 -14 0
v -11 -14 0
v -11 -13 0
v -10 -13 0
v -11 -14 0
v -12 -14 0
v -12 -13 0
v -11 -13 0
v -15 -14 0
v -16 -14 0
v -16 -13 0
v -15 -13 0
v -9 -15 0
v -10 -15 0
v -10 -14 0
v -9 -14 0
v -10 -15 0
v -11 -15 0
v -11 -14 0
v -10 -14 0
v -11 -15 0
v -12 -15 0
v -12 -14 0
v -11 -14 0
v -15 -15 0
v -16 -15 0
v -16 -14 0
v -15 -14 0
v -3 -16 0
v -4 -16 0
v -4 -15 0
v -3 -15 0
v -4 -16 0
v -5 -16 0
v -5 -15 0
v -4 -15 0
v -5 -16 0
v -6 -16 0
v -6 -15 0
v -5 -15 0
v -9 -16 0
v -10 -16 0
v -10 -15 0
v -9 -15 0
v -10 -16 0
v -11 -16 0
v -11 -15 0
v -10 -15 0
v -11 -16 0
v -12 -16 0
v -12 -15 0
v -11 -15 0
v -15 -16 0
v -16 -16 0
v -16 -15 0
v -15 -15 0

# Texture cooridinates (Count = 20)
vt 0.1111111 0.5
vt 0.2222222 0.5
vt 0.2222222 0.6666666
vt 0.1111111 0.6666666
vt 0.4444444 0.8333333
vt 0.5555556 0.8333333
vt 0.5555556 1
vt 0.4444444 1
vt 0.2222222 0.8333333
vt 0.1111111 0.8333333
vt 0.3333333 0.8333333
vt 0.3333333 1
vt 0 0.6666666
vt 0 0.8333333
vt 0.3333333 0.6666666
vt 0 0.5
vt 0.3333333 0.5
vt 0.1111111 1
vt 0 1
vt 0.2222222 1

# Normal
vn 0 0 -1

# Mesh description
g Map_Master_mesh_0282

# Faces
f 1/1/1 2/2/1 3/3/1 4/4/1
f 5/1/1 6/2/1 7/3/1 8/4/1
f 9/1/1 10/2/1 11/3/1 12/4/1
f 13/5/1 14/6/1 15/7/1 16/8/1
f 17/4/1 18/3/1 19/9/1 20/10/1
f 21/11/1 22/5/1 23/8/1 24/12/1
f 25/1/1 26/2/1 27/3/1 28/4/1
f 29/1/1 30/2/1 31/3/1 32/4/1
f 33/1/1 34/2/1 35/3/1 36/4/1
f 37/5/1 38/6/1 39/7/1 40/8/1
f 41/4/1 42/3/1 43/9/1 44/10/1
f 45/11/1 46/5/1 47/8/1 48/12/1
f 49/1/1 50/2/1 51/3/1 52/4/1
f 53/1/1 54/2/1 55/3/1 56/4/1
f 57/1/1 58/2/1 59/3/1 60/4/1
f 61/5/1 62/6/1 63/7/1 64/8/1
f 65/13/1 66/4/1 67/10/1 68/14/1
f 69/4/1 70/3/1 71/9/1 72/10/1
f 73/3/1 74/15/1 75/11/1 76/9/1
f 77/13/1 78/4/1 79/10/1 80/14/1
f 81/4/1 82/3/1 83/9/1 84/10/1
f 85/3/1 86/15/1 87/11/1 88/9/1
f 89/13/1 90/4/1 91/10/1 92/14/1
f 93/13/1 94/4/1 95/10/1 96/14/1
f 97/4/1 98/3/1 99/9/1 100/10/1
f 101/3/1 102/15/1 103/11/1 104/9/1
f 105/13/1 106/4/1 107/10/1 108/14/1
f 109/4/1 110/3/1 111/9/1 112/10/1
f 113/3/1 114/15/1 115/11/1 116/9/1
f 117/13/1 118/4/1 119/10/1 120/14/1
f 121/13/1 122/4/1 123/10/1 124/14/1
f 125/4/1 126/3/1 127/9/1 128/10/1
f 129/3/1 130/15/1 131/11/1 132/9/1
f 133/13/1 134/4/1 135/10/1 136/14/1
f 137/4/1 138/3/1 139/9/1 140/10/1
f 141/3/1 142/15/1 143/11/1 144/9/1
f 145/13/1 146/4/1 147/10/1 148/14/1
f 149/13/1 150/4/1 151/10/1 152/14/1
f 153/4/1 154/3/1 155/9/1 156/10/1
f 157/3/1 158/15/1 159/11/1 160/9/1
f 161/13/1 162/4/1 163/10/1 164/14/1
f 165/4/1 166/3/1 167/9/1 168/10/1
f 169/3/1 170/15/1 171/11/1 172/9/1
f 173/13/1 174/4/1 175/10/1 176/14/1
f 177/13/1 178/4/1 179/10/1 180/14/1
f 181/4/1 182/3/1 183/9/1 184/10/1
f 185/3/1 186/15/1 187/11/1 188/9/1
f 189/13/1 190/4/1 191/10/1 192/14/1
f 193/4/1 194/3/1 195/9/1 196/10/1
f 197/3/1 198/15/1 199/11/1 200/9/1
f 201/13/1 202/4/1 203/10/1 204/14/1
f 205/13/1 206/4/1 207/10/1 208/14/1
f 209/4/1 210/3/1 211/9/1 212/10/1
f 213/3/1 214/15/1 215/11/1 216/9/1
f 217/13/1 218/4/1 219/10/1 220/14/1
f 221/4/1 222/3/1 223/9/1 224/10/1
f 225/3/1 226/15/1 227/11/1 228/9/1
f 229/13/1 230/4/1 231/10/1 232/14/1
f 233/13/1 234/4/1 235/10/1 236/14/1
f 237/4/1 238/3/1 239/9/1 240/10/1
f 241/3/1 242/15/1 243/11/1 244/9/1
f 245/13/1 246/4/1 247/10/1 248/14/1
f 249/4/1 250/3/1 251/9/1 252/10/1
f 253/3/1 254/15/1 255/11/1 256/9/1
f 257/13/1 258/4/1 259/10/1 260/14/1
f 261/13/1 262/4/1 263/10/1 264/14/1
f 265/4/1 266/3/1 267/9/1 268/10/1
f 269/3/1 270/15/1 271/11/1 272/9/1
f 273/16/1 274/1/1 275/4/1 276/13/1
f 277/1/1 278/2/1 279/3/1 280/4/1
f 281/2/1 282/17/1 283/15/1 284/3/1
f 285/13/1 286/4/1 287/10/1 288/14/1
f 289/13/1 290/4/1 291/10/1 292/14/1
f 293/4/1 294/3/1 295/9/1 296/10/1
f 297/3/1 298/15/1 299/11/1 300/9/1
f 301/13/1 302/4/1 303/10/1 304/14/1
f 305/13/1 306/4/1 307/10/1 308/14/1
f 309/4/1 310/3/1 311/9/1 312/10/1
f 313/3/1 314/15/1 315/11/1 316/9/1
f 317/16/1 318/1/1 319/4/1 320/13/1
f 321/13/1 322/4/1 323/10/1 324/14/1
f 325/4/1 326/3/1 327/9/1 328/10/1
f 329/3/1 330/15/1 331/11/1 332/9/1
f 333/14/1 334/10/1 335/18/1 336/19/1
f 337/10/1 338/9/1 339/20/1 340/18/1
f 341/9/1 342/11/1 343/12/1 344/20/1
f 345/16/1 346/1/1 347/4/1 348/13/1
f 349/1/1 350/2/1 351/3/1 352/4/1
f 353/2/1 354/17/1 355/15/1 356/3/1
f 357/13/1 358/4/1 359/10/1 360/14/1
f 361/4/1 362/3/1 363/9/1 364/10/1
f 365/3/1 366/15/1 367/11/1 368/9/1
f 369/13/1 370/4/1 371/10/1 372/14/1
f 373/4/1 374/3/1 375/9/1 376/10/1
f 377/3/1 378/15/1 379/11/1 380/9/1
f 381/14/1 382/10/1 383/18/1 384/19/1
f 385/13/1 386/4/1 387/10/1 388/14/1
f 389/4/1 390/3/1 391/9/1 392/10/1
f 393/3/1 394/15/1 395/11/1 396/9/1
f 397/13/1 398/4/1 399/10/1 400/14/1
f 401/14/1 402/10/1 403/18/1 404/19/1
f 405/10/1 406/9/1 407/20/1 408/18/1
f 409/9/1 410/11/1 411/12/1 412/20/1
f 413/13/1 414/4/1 415/10/1 416/14/1
f 417/4/1 418/3/1 419/9/1 420/10/1
f 421/3/1 422/15/1 423/11/1 424/9/1
f 425/13/1 426/4/1 427/10/1 428/14/1

