# Tiled2Unity generated file. Do not modify by hand.
# Wavefront file for 'Map_Master_mesh_0121.obj'

# Vertices (Count = 444)
v 0 -1 0
v -1 -1 0
v -1 0 0
v 0 0 0
v -1 -1 0
v -2 -1 0
v -2 0 0
v -1 0 0
v -2 -1 0
v -3 -1 0
v -3 0 0
v -2 0 0
v -3 -1 0
v -4 -1 0
v -4 0 0
v -3 0 0
v -4 -1 0
v -5 -1 0
v -5 0 0
v -4 0 0
v -5 -1 0
v -6 -1 0
v -6 0 0
v -5 0 0
v 0 -2 0
v -1 -2 0
v -1 -1 0
v 0 -1 0
v -1 -2 0
v -2 -2 0
v -2 -1 0
v -1 -1 0
v -2 -2 0
v -3 -2 0
v -3 -1 0
v -2 -1 0
v -3 -2 0
v -4 -2 0
v -4 -1 0
v -3 -1 0
v -4 -2 0
v -5 -2 0
v -5 -1 0
v -4 -1 0
v -5 -2 0
v -6 -2 0
v -6 -1 0
v -5 -1 0
v 0 -3 0
v -1 -3 0
v -1 -2 0
v 0 -2 0
v -1 -3 0
v -2 -3 0
v -2 -2 0
v -1 -2 0
v -2 -3 0
v -3 -3 0
v -3 -2 0
v -2 -2 0
v -3 -3 0
v -4 -3 0
v -4 -2 0
v -3 -2 0
v -4 -3 0
v -5 -3 0
v -5 -2 0
v -4 -2 0
v -5 -3 0
v -6 -3 0
v -6 -2 0
v -5 -2 0
v 0 -4 0
v -1 -4 0
v -1 -3 0
v 0 -3 0
v -1 -4 0
v -2 -4 0
v -2 -3 0
v -1 -3 0
v -2 -4 0
v -3 -4 0
v -3 -3 0
v -2 -3 0
v -3 -4 0
v -4 -4 0
v -4 -3 0
v -3 -3 0
v -4 -4 0
v -5 -4 0
v -5 -3 0
v -4 -3 0
v -5 -4 0
v -6 -4 0
v -6 -3 0
v -5 -3 0
v 0 -5 0
v -1 -5 0
v -1 -4 0
v 0 -4 0
v -1 -5 0
v -2 -5 0
v -2 -4 0
v -1 -4 0
v -2 -5 0
v -3 -5 0
v -3 -4 0
v -2 -4 0
v -3 -5 0
v -4 -5 0
v -4 -4 0
v -3 -4 0
v -4 -5 0
v -5 -5 0
v -5 -4 0
v -4 -4 0
v -5 -5 0
v -6 -5 0
v -6 -4 0
v -5 -4 0
v -9 -5 0
v -10 -5 0
v -10 -4 0
v -9 -4 0
v -10 -5 0
v -11 -5 0
v -11 -4 0
v -10 -4 0
v -11 -5 0
v -12 -5 0
v -12 -4 0
v -11 -4 0
v 0 -6 0
v -1 -6 0
v -1 -5 0
v 0 -5 0
v -1 -6 0
v -2 -6 0
v -2 -5 0
v -1 -5 0
v -2 -6 0
v -3 -6 0
v -3 -5 0
v -2 -5 0
v -3 -6 0
v -4 -6 0
v -4 -5 0
v -3 -5 0
v -4 -6 0
v -5 -6 0
v -5 -5 0
v -4 -5 0
v -5 -6 0
v -6 -6 0
v -6 -5 0
v -5 -5 0
v -9 -6 0
v -10 -6 0
v -10 -5 0
v -9 -5 0
v -10 -6 0
v -11 -6 0
v -11 -5 0
v -10 -5 0
v -11 -6 0
v -12 -6 0
v -12 -5 0
v -11 -5 0
v -15 -6 0
v -16 -6 0
v -16 -5 0
v -15 -5 0
v 0 -7 0
v -1 -7 0
v -1 -6 0
v 0 -6 0
v -1 -7 0
v -2 -7 0
v -2 -6 0
v -1 -6 0
v -2 -7 0
v -3 -7 0
v -3 -6 0
v -2 -6 0
v -3 -7 0
v -4 -7 0
v -4 -6 0
v -3 -6 0
v -4 -7 0
v -5 -7 0
v -5 -6 0
v -4 -6 0
v -5 -7 0
v -6 -7 0
v -6 -6 0
v -5 -6 0
v -9 -7 0
v -10 -7 0
v -10 -6 0
v -9 -6 0
v -10 -7 0
v -11 -7 0
v -11 -6 0
v -10 -6 0
v -11 -7 0
v -12 -7 0
v -12 -6 0
v -11 -6 0
v -15 -7 0
v -16 -7 0
v -16 -6 0
v -15 -6 0
v -9 -8 0
v -10 -8 0
v -10 -7 0
v -9 -7 0
v -10 -8 0
v -11 -8 0
v -11 -7 0
v -10 -7 0
v -11 -8 0
v -12 -8 0
v -12 -7 0
v -11 -7 0
v -15 -8 0
v -16 -8 0
v -16 -7 0
v -15 -7 0
v -9 -9 0
v -10 -9 0
v -10 -8 0
v -9 -8 0
v -10 -9 0
v -11 -9 0
v -11 -8 0
v -10 -8 0
v -11 -9 0
v -12 -9 0
v -12 -8 0
v -11 -8 0
v -15 -9 0
v -16 -9 0
v -16 -8 0
v -15 -8 0
v -9 -10 0
v -10 -10 0
v -10 -9 0
v -9 -9 0
v -10 -10 0
v -11 -10 0
v -11 -9 0
v -10 -9 0
v -11 -10 0
v -12 -10 0
v -12 -9 0
v -11 -9 0
v -15 -10 0
v -16 -10 0
v -16 -9 0
v -15 -9 0
v -2 -11 0
v -3 -11 0
v -3 -10 0
v -2 -10 0
v -3 -11 0
v -4 -11 0
v -4 -10 0
v -3 -10 0
v -4 -11 0
v -5 -11 0
v -5 -10 0
v -4 -10 0
v -9 -11 0
v -10 -11 0
v -10 -10 0
v -9 -10 0
v -10 -11 0
v -11 -11 0
v -11 -10 0
v -10 -10 0
v -11 -11 0
v -12 -11 0
v -12 -10 0
v -11 -10 0
v -15 -11 0
v -16 -11 0
v -16 -10 0
v -15 -10 0
v -9 -12 0
v -10 -12 0
v -10 -11 0
v -9 -11 0
v -10 -12 0
v -11 -12 0
v -11 -11 0
v -10 -11 0
v -11 -12 0
v -12 -12 0
v -12 -11 0
v -11 -11 0
v -15 -12 0
v -16 -12 0
v -16 -11 0
v -15 -11 0
v -9 -13 0
v -10 -13 0
v -10 -12 0
v -9 -12 0
v -10 -13 0
v -11 -13 0
v -11 -12 0
v -10 -12 0
v -11 -13 0
v -12 -13 0
v -12 -12 0
v -11 -12 0
v -15 -13 0
v -16 -13 0
v -16 -12 0
v -15 -12 0
v -8 -14 0
v -9 -14 0
v -9 -13 0
v -8 -13 0
v -9 -14 0
v -10 -14 0
v -10 -13 0
v -9 -13 0
v -10 -14 0
v -11 -14 0
v -11 -13 0
v -10 -13 0
v -11 -14 0
v -12 -14 0
v -12 -13 0
v -11 -13 0
v -15 -14 0
v -16 -14 0
v -16 -13 0
v -15 -13 0
v 0 -15 0
v -1 -15 0
v -1 -14 0
v 0 -14 0
v -1 -15 0
v -2 -15 0
v -2 -14 0
v -1 -14 0
v -2 -15 0
v -3 -15 0
v -3 -14 0
v -2 -14 0
v -3 -15 0
v -4 -15 0
v -4 -14 0
v -3 -14 0
v -4 -15 0
v -5 -15 0
v -5 -14 0
v -4 -14 0
v -5 -15 0
v -6 -15 0
v -6 -14 0
v -5 -14 0
v -6 -15 0
v -7 -15 0
v -7 -14 0
v -6 -14 0
v -7 -15 0
v -8 -15 0
v -8 -14 0
v -7 -14 0
v -8 -15 0
v -9 -15 0
v -9 -14 0
v -8 -14 0
v -9 -15 0
v -10 -15 0
v -10 -14 0
v -9 -14 0
v -10 -15 0
v -11 -15 0
v -11 -14 0
v -10 -14 0
v -11 -15 0
v -12 -15 0
v -12 -14 0
v -11 -14 0
v -15 -15 0
v -16 -15 0
v -16 -14 0
v -15 -14 0
v 0 -16 0
v -1 -16 0
v -1 -15 0
v 0 -15 0
v -1 -16 0
v -2 -16 0
v -2 -15 0
v -1 -15 0
v -2 -16 0
v -3 -16 0
v -3 -15 0
v -2 -15 0
v -3 -16 0
v -4 -16 0
v -4 -15 0
v -3 -15 0
v -4 -16 0
v -5 -16 0
v -5 -15 0
v -4 -15 0
v -5 -16 0
v -6 -16 0
v -6 -15 0
v -5 -15 0
v -6 -16 0
v -7 -16 0
v -7 -15 0
v -6 -15 0
v -7 -16 0
v -8 -16 0
v -8 -15 0
v -7 -15 0
v -8 -16 0
v -9 -16 0
v -9 -15 0
v -8 -15 0
v -9 -16 0
v -10 -16 0
v -10 -15 0
v -9 -15 0
v -10 -16 0
v -11 -16 0
v -11 -15 0
v -10 -15 0
v -11 -16 0
v -12 -16 0
v -12 -15 0
v -11 -15 0
v -15 -16 0
v -16 -16 0
v -16 -15 0
v -15 -15 0

# Texture cooridinates (Count = 37)
vt 0.1 0.6666666
vt 0.2 0.6666666
vt 0.2 0.7777778
vt 0.1 0.7777778
vt 0.3 0.6666666
vt 0.3 0.7777778
vt 0.5 0.4444444
vt 0.6 0.4444444
vt 0.6 0.5555556
vt 0.5 0.5555556
vt 0.4 0.5555556
vt 0.5 0.6666666
vt 0.4 0.6666666
vt 0.4 0.4444444
vt 0 0.6666666
vt 0 0.7777778
vt 0.2 0.8888889
vt 0.1 0.8888889
vt 0.3 0.8888889
vt 0.1 0.5555556
vt 0.2 0.5555556
vt 0.3 0.5555556
vt 0.6 0.6666666
vt 0.7 0.6666666
vt 0.7 0.7777778
vt 0.6 0.7777778
vt 0.8 0.6666666
vt 0.8 0.7777778
vt 0.9 0.6666666
vt 0.9 0.7777778
vt 0 0.8888889
vt 0.4 0.7777778
vt 0.5 0.7777778
vt 0.5 0.8888889
vt 0.4 0.8888889
vt 0.8 0.8888889
vt 0.7 0.8888889

# Normal
vn 0 0 -1

# Mesh description
g Map_Master_mesh_0121

# Faces
f 1/1/1 2/2/1 3/3/1 4/4/1
f 5/1/1 6/2/1 7/3/1 8/4/1
f 9/1/1 10/2/1 11/3/1 12/4/1
f 13/1/1 14/2/1 15/3/1 16/4/1
f 17/1/1 18/2/1 19/3/1 20/4/1
f 21/2/1 22/5/1 23/6/1 24/3/1
f 25/1/1 26/2/1 27/3/1 28/4/1
f 29/1/1 30/2/1 31/3/1 32/4/1
f 33/1/1 34/2/1 35/3/1 36/4/1
f 37/1/1 38/2/1 39/3/1 40/4/1
f 41/1/1 42/2/1 43/3/1 44/4/1
f 45/2/1 46/5/1 47/6/1 48/3/1
f 49/1/1 50/2/1 51/3/1 52/4/1
f 53/1/1 54/2/1 55/3/1 56/4/1
f 57/1/1 58/2/1 59/3/1 60/4/1
f 61/1/1 62/2/1 63/3/1 64/4/1
f 65/1/1 66/2/1 67/3/1 68/4/1
f 69/2/1 70/5/1 71/6/1 72/3/1
f 73/1/1 74/2/1 75/3/1 76/4/1
f 77/1/1 78/2/1 79/3/1 80/4/1
f 81/1/1 82/2/1 83/3/1 84/4/1
f 85/1/1 86/2/1 87/3/1 88/4/1
f 89/1/1 90/2/1 91/3/1 92/4/1
f 93/2/1 94/5/1 95/6/1 96/3/1
f 97/1/1 98/2/1 99/3/1 100/4/1
f 101/7/1 102/8/1 103/9/1 104/10/1
f 105/11/1 106/10/1 107/12/1 108/13/1
f 109/1/1 110/2/1 111/3/1 112/4/1
f 113/14/1 114/7/1 115/10/1 116/11/1
f 117/2/1 118/5/1 119/6/1 120/3/1
f 121/15/1 122/1/1 123/4/1 124/16/1
f 125/4/1 126/3/1 127/17/1 128/18/1
f 129/3/1 130/6/1 131/19/1 132/17/1
f 133/1/1 134/2/1 135/3/1 136/4/1
f 137/1/1 138/2/1 139/3/1 140/4/1
f 141/1/1 142/2/1 143/3/1 144/4/1
f 145/1/1 146/2/1 147/3/1 148/4/1
f 149/1/1 150/2/1 151/3/1 152/4/1
f 153/2/1 154/5/1 155/6/1 156/3/1
f 157/15/1 158/1/1 159/4/1 160/16/1
f 161/1/1 162/2/1 163/3/1 164/4/1
f 165/2/1 166/5/1 167/6/1 168/3/1
f 169/15/1 170/1/1 171/4/1 172/16/1
f 173/20/1 174/21/1 175/2/1 176/1/1
f 177/20/1 178/21/1 179/2/1 180/1/1
f 181/20/1 182/21/1 183/2/1 184/1/1
f 185/20/1 186/21/1 187/2/1 188/1/1
f 189/20/1 190/21/1 191/2/1 192/1/1
f 193/21/1 194/22/1 195/5/1 196/2/1
f 197/15/1 198/1/1 199/4/1 200/16/1
f 201/11/1 202/10/1 203/12/1 204/13/1
f 205/2/1 206/5/1 207/6/1 208/3/1
f 209/15/1 210/1/1 211/4/1 212/16/1
f 213/15/1 214/1/1 215/4/1 216/16/1
f 217/1/1 218/2/1 219/3/1 220/4/1
f 221/2/1 222/5/1 223/6/1 224/3/1
f 225/15/1 226/1/1 227/4/1 228/16/1
f 229/15/1 230/1/1 231/4/1 232/16/1
f 233/7/1 234/8/1 235/9/1 236/10/1
f 237/2/1 238/5/1 239/6/1 240/3/1
f 241/15/1 242/1/1 243/4/1 244/16/1
f 245/15/1 246/1/1 247/4/1 248/16/1
f 249/1/1 250/2/1 251/3/1 252/4/1
f 253/2/1 254/5/1 255/6/1 256/3/1
f 257/15/1 258/1/1 259/4/1 260/16/1
f 261/23/1 262/24/1 263/25/1 264/26/1
f 265/24/1 266/27/1 267/28/1 268/25/1
f 269/27/1 270/29/1 271/30/1 272/28/1
f 273/15/1 274/1/1 275/4/1 276/16/1
f 277/1/1 278/2/1 279/3/1 280/4/1
f 281/2/1 282/5/1 283/6/1 284/3/1
f 285/15/1 286/1/1 287/4/1 288/16/1
f 289/15/1 290/1/1 291/4/1 292/16/1
f 293/1/1 294/2/1 295/3/1 296/4/1
f 297/2/1 298/5/1 299/6/1 300/3/1
f 301/15/1 302/1/1 303/4/1 304/16/1
f 305/15/1 306/1/1 307/4/1 308/16/1
f 309/1/1 310/2/1 311/3/1 312/4/1
f 313/2/1 314/5/1 315/6/1 316/3/1
f 317/15/1 318/1/1 319/4/1 320/16/1
f 321/16/1 322/4/1 323/18/1 324/31/1
f 325/32/1 326/33/1 327/34/1 328/35/1
f 329/1/1 330/2/1 331/3/1 332/4/1
f 333/2/1 334/5/1 335/6/1 336/3/1
f 337/15/1 338/1/1 339/4/1 340/16/1
f 341/4/1 342/3/1 343/17/1 344/18/1
f 345/4/1 346/3/1 347/17/1 348/18/1
f 349/4/1 350/3/1 351/17/1 352/18/1
f 353/25/1 354/28/1 355/36/1 356/37/1
f 357/25/1 358/28/1 359/36/1 360/37/1
f 361/25/1 362/28/1 363/36/1 364/37/1
f 365/25/1 366/28/1 367/36/1 368/37/1
f 369/25/1 370/28/1 371/36/1 372/37/1
f 373/32/1 374/33/1 375/34/1 376/35/1
f 377/1/1 378/2/1 379/3/1 380/4/1
f 381/1/1 382/2/1 383/3/1 384/4/1
f 385/2/1 386/5/1 387/6/1 388/3/1
f 389/15/1 390/1/1 391/4/1 392/16/1
f 393/1/1 394/2/1 395/3/1 396/4/1
f 397/1/1 398/2/1 399/3/1 400/4/1
f 401/1/1 402/2/1 403/3/1 404/4/1
f 405/1/1 406/2/1 407/3/1 408/4/1
f 409/1/1 410/2/1 411/3/1 412/4/1
f 413/1/1 414/2/1 415/3/1 416/4/1
f 417/1/1 418/2/1 419/3/1 420/4/1
f 421/1/1 422/2/1 423/3/1 424/4/1
f 425/1/1 426/2/1 427/3/1 428/4/1
f 429/1/1 430/2/1 431/3/1 432/4/1
f 433/11/1 434/10/1 435/12/1 436/13/1
f 437/2/1 438/5/1 439/6/1 440/3/1
f 441/15/1 442/1/1 443/4/1 444/16/1

