# Tiled2Unity generated file. Do not modify by hand.
# Wavefront file for 'Map_Master_mesh_0254.obj'

# Vertices (Count = 12)
v -3 -11 0
v -4 -11 0
v -4 -10 0
v -3 -10 0
v -7 -13 0
v -8 -13 0
v -8 -12 0
v -7 -12 0
v -10 -13 0
v -11 -13 0
v -11 -12 0
v -10 -12 0

# Texture cooridinates (Count = 6)
vt 0.5 0.5
vt 1 0.5
vt 1 1
vt 0.5 1
vt 0 0.5
vt 0 1

# Normal
vn 0 0 -1

# Mesh description
g Map_Master_mesh_0254

# Faces
f 1/1/1 2/2/1 3/3/1 4/4/1
f 5/5/1 6/1/1 7/4/1 8/6/1
f 9/1/1 10/2/1 11/3/1 12/4/1

