# Tiled2Unity generated file. Do not modify by hand.
# Wavefront file for 'Map_Master_mesh_0347.obj'

# Vertices (Count = 548)
v -4 -1 0
v -5 -1 0
v -5 0 0
v -4 0 0
v -5 -1 0
v -6 -1 0
v -6 0 0
v -5 0 0
v -6 -1 0
v -7 -1 0
v -7 0 0
v -6 0 0
v -7 -1 0
v -8 -1 0
v -8 0 0
v -7 0 0
v -8 -1 0
v -9 -1 0
v -9 0 0
v -8 0 0
v -9 -1 0
v -10 -1 0
v -10 0 0
v -9 0 0
v -10 -1 0
v -11 -1 0
v -11 0 0
v -10 0 0
v -11 -1 0
v -12 -1 0
v -12 0 0
v -11 0 0
v -12 -1 0
v -13 -1 0
v -13 0 0
v -12 0 0
v -13 -1 0
v -14 -1 0
v -14 0 0
v -13 0 0
v -14 -1 0
v -15 -1 0
v -15 0 0
v -14 0 0
v -15 -1 0
v -16 -1 0
v -16 0 0
v -15 0 0
v -5 -2 0
v -6 -2 0
v -6 -1 0
v -5 -1 0
v -6 -2 0
v -7 -2 0
v -7 -1 0
v -6 -1 0
v -7 -2 0
v -8 -2 0
v -8 -1 0
v -7 -1 0
v -8 -2 0
v -9 -2 0
v -9 -1 0
v -8 -1 0
v -9 -2 0
v -10 -2 0
v -10 -1 0
v -9 -1 0
v -10 -2 0
v -11 -2 0
v -11 -1 0
v -10 -1 0
v -11 -2 0
v -12 -2 0
v -12 -1 0
v -11 -1 0
v -12 -2 0
v -13 -2 0
v -13 -1 0
v -12 -1 0
v -13 -2 0
v -14 -2 0
v -14 -1 0
v -13 -1 0
v -14 -2 0
v -15 -2 0
v -15 -1 0
v -14 -1 0
v -15 -2 0
v -16 -2 0
v -16 -1 0
v -15 -1 0
v -6 -3 0
v -7 -3 0
v -7 -2 0
v -6 -2 0
v -7 -3 0
v -8 -3 0
v -8 -2 0
v -7 -2 0
v -8 -3 0
v -9 -3 0
v -9 -2 0
v -8 -2 0
v -9 -3 0
v -10 -3 0
v -10 -2 0
v -9 -2 0
v -10 -3 0
v -11 -3 0
v -11 -2 0
v -10 -2 0
v -14 -3 0
v -15 -3 0
v -15 -2 0
v -14 -2 0
v -15 -3 0
v -16 -3 0
v -16 -2 0
v -15 -2 0
v -6 -4 0
v -7 -4 0
v -7 -3 0
v -6 -3 0
v -7 -4 0
v -8 -4 0
v -8 -3 0
v -7 -3 0
v -8 -4 0
v -9 -4 0
v -9 -3 0
v -8 -3 0
v -9 -4 0
v -10 -4 0
v -10 -3 0
v -9 -3 0
v -1 -5 0
v -2 -5 0
v -2 -4 0
v -1 -4 0
v -2 -5 0
v -3 -5 0
v -3 -4 0
v -2 -4 0
v -6 -5 0
v -7 -5 0
v -7 -4 0
v -6 -4 0
v -7 -5 0
v -8 -5 0
v -8 -4 0
v -7 -4 0
v -8 -5 0
v -9 -5 0
v -9 -4 0
v -8 -4 0
v -9 -5 0
v -10 -5 0
v -10 -4 0
v -9 -4 0
v 0 -6 0
v -1 -6 0
v -1 -5 0
v 0 -5 0
v -1 -6 0
v -2 -6 0
v -2 -5 0
v -1 -5 0
v -2 -6 0
v -3 -6 0
v -3 -5 0
v -2 -5 0
v -3 -6 0
v -4 -6 0
v -4 -5 0
v -3 -5 0
v -6 -6 0
v -7 -6 0
v -7 -5 0
v -6 -5 0
v -7 -6 0
v -8 -6 0
v -8 -5 0
v -7 -5 0
v -8 -6 0
v -9 -6 0
v -9 -5 0
v -8 -5 0
v 0 -7 0
v -1 -7 0
v -1 -6 0
v 0 -6 0
v -1 -7 0
v -2 -7 0
v -2 -6 0
v -1 -6 0
v -2 -7 0
v -3 -7 0
v -3 -6 0
v -2 -6 0
v -3 -7 0
v -4 -7 0
v -4 -6 0
v -3 -6 0
v -6 -7 0
v -7 -7 0
v -7 -6 0
v -6 -6 0
v -7 -7 0
v -8 -7 0
v -8 -6 0
v -7 -6 0
v -8 -7 0
v -9 -7 0
v -9 -6 0
v -8 -6 0
v -1 -8 0
v -2 -8 0
v -2 -7 0
v -1 -7 0
v -2 -8 0
v -3 -8 0
v -3 -7 0
v -2 -7 0
v -3 -8 0
v -4 -8 0
v -4 -7 0
v -3 -7 0
v -6 -8 0
v -7 -8 0
v -7 -7 0
v -6 -7 0
v -7 -8 0
v -8 -8 0
v -8 -7 0
v -7 -7 0
v -8 -8 0
v -9 -8 0
v -9 -7 0
v -8 -7 0
v -6 -9 0
v -7 -9 0
v -7 -8 0
v -6 -8 0
v -7 -9 0
v -8 -9 0
v -8 -8 0
v -7 -8 0
v -8 -9 0
v -9 -9 0
v -9 -8 0
v -8 -8 0
v -6 -10 0
v -7 -10 0
v -7 -9 0
v -6 -9 0
v -7 -10 0
v -8 -10 0
v -8 -9 0
v -7 -9 0
v -8 -10 0
v -9 -10 0
v -9 -9 0
v -8 -9 0
v 0 -11 0
v -1 -11 0
v -1 -10 0
v 0 -10 0
v -5 -11 0
v -6 -11 0
v -6 -10 0
v -5 -10 0
v -6 -11 0
v -7 -11 0
v -7 -10 0
v -6 -10 0
v -7 -11 0
v -8 -11 0
v -8 -10 0
v -7 -10 0
v -8 -11 0
v -9 -11 0
v -9 -10 0
v -8 -10 0
v -11 -11 0
v -12 -11 0
v -12 -10 0
v -11 -10 0
v -12 -11 0
v -13 -11 0
v -13 -10 0
v -12 -10 0
v -13 -11 0
v -14 -11 0
v -14 -10 0
v -13 -10 0
v -14 -11 0
v -15 -11 0
v -15 -10 0
v -14 -10 0
v -15 -11 0
v -16 -11 0
v -16 -10 0
v -15 -10 0
v 0 -12 0
v -1 -12 0
v -1 -11 0
v 0 -11 0
v -1 -12 0
v -2 -12 0
v -2 -11 0
v -1 -11 0
v -2 -12 0
v -3 -12 0
v -3 -11 0
v -2 -11 0
v -3 -12 0
v -4 -12 0
v -4 -11 0
v -3 -11 0
v -4 -12 0
v -5 -12 0
v -5 -11 0
v -4 -11 0
v -5 -12 0
v -6 -12 0
v -6 -11 0
v -5 -11 0
v -6 -12 0
v -7 -12 0
v -7 -11 0
v -6 -11 0
v -7 -12 0
v -8 -12 0
v -8 -11 0
v -7 -11 0
v -8 -12 0
v -9 -12 0
v -9 -11 0
v -8 -11 0
v -11 -12 0
v -12 -12 0
v -12 -11 0
v -11 -11 0
v -12 -12 0
v -13 -12 0
v -13 -11 0
v -12 -11 0
v -13 -12 0
v -14 -12 0
v -14 -11 0
v -13 -11 0
v -14 -12 0
v -15 -12 0
v -15 -11 0
v -14 -11 0
v -15 -12 0
v -16 -12 0
v -16 -11 0
v -15 -11 0
v 0 -13 0
v -1 -13 0
v -1 -12 0
v 0 -12 0
v -1 -13 0
v -2 -13 0
v -2 -12 0
v -1 -12 0
v -2 -13 0
v -3 -13 0
v -3 -12 0
v -2 -12 0
v -3 -13 0
v -4 -13 0
v -4 -12 0
v -3 -12 0
v -4 -13 0
v -5 -13 0
v -5 -12 0
v -4 -12 0
v -5 -13 0
v -6 -13 0
v -6 -12 0
v -5 -12 0
v -6 -13 0
v -7 -13 0
v -7 -12 0
v -6 -12 0
v -7 -13 0
v -8 -13 0
v -8 -12 0
v -7 -12 0
v -8 -13 0
v -9 -13 0
v -9 -12 0
v -8 -12 0
v -11 -13 0
v -12 -13 0
v -12 -12 0
v -11 -12 0
v -12 -13 0
v -13 -13 0
v -13 -12 0
v -12 -12 0
v -13 -13 0
v -14 -13 0
v -14 -12 0
v -13 -12 0
v -14 -13 0
v -15 -13 0
v -15 -12 0
v -14 -12 0
v -15 -13 0
v -16 -13 0
v -16 -12 0
v -15 -12 0
v 0 -14 0
v -1 -14 0
v -1 -13 0
v 0 -13 0
v -1 -14 0
v -2 -14 0
v -2 -13 0
v -1 -13 0
v -2 -14 0
v -3 -14 0
v -3 -13 0
v -2 -13 0
v -3 -14 0
v -4 -14 0
v -4 -13 0
v -3 -13 0
v -4 -14 0
v -5 -14 0
v -5 -13 0
v -4 -13 0
v -5 -14 0
v -6 -14 0
v -6 -13 0
v -5 -13 0
v -6 -14 0
v -7 -14 0
v -7 -13 0
v -6 -13 0
v -7 -14 0
v -8 -14 0
v -8 -13 0
v -7 -13 0
v -8 -14 0
v -9 -14 0
v -9 -13 0
v -8 -13 0
v -11 -14 0
v -12 -14 0
v -12 -13 0
v -11 -13 0
v -12 -14 0
v -13 -14 0
v -13 -13 0
v -12 -13 0
v -13 -14 0
v -14 -14 0
v -14 -13 0
v -13 -13 0
v -14 -14 0
v -15 -14 0
v -15 -13 0
v -14 -13 0
v 0 -15 0
v -1 -15 0
v -1 -14 0
v 0 -14 0
v -1 -15 0
v -2 -15 0
v -2 -14 0
v -1 -14 0
v -2 -15 0
v -3 -15 0
v -3 -14 0
v -2 -14 0
v -3 -15 0
v -4 -15 0
v -4 -14 0
v -3 -14 0
v -4 -15 0
v -5 -15 0
v -5 -14 0
v -4 -14 0
v -5 -15 0
v -6 -15 0
v -6 -14 0
v -5 -14 0
v -6 -15 0
v -7 -15 0
v -7 -14 0
v -6 -14 0
v -7 -15 0
v -8 -15 0
v -8 -14 0
v -7 -14 0
v -8 -15 0
v -9 -15 0
v -9 -14 0
v -8 -14 0
v -11 -15 0
v -12 -15 0
v -12 -14 0
v -11 -14 0
v -12 -15 0
v -13 -15 0
v -13 -14 0
v -12 -14 0
v 0 -16 0
v -1 -16 0
v -1 -15 0
v 0 -15 0
v -1 -16 0
v -2 -16 0
v -2 -15 0
v -1 -15 0
v -2 -16 0
v -3 -16 0
v -3 -15 0
v -2 -15 0
v -3 -16 0
v -4 -16 0
v -4 -15 0
v -3 -15 0
v -4 -16 0
v -5 -16 0
v -5 -15 0
v -4 -15 0
v -5 -16 0
v -6 -16 0
v -6 -15 0
v -5 -15 0
v -6 -16 0
v -7 -16 0
v -7 -15 0
v -6 -15 0
v -7 -16 0
v -8 -16 0
v -8 -15 0
v -7 -15 0
v -8 -16 0
v -9 -16 0
v -9 -15 0
v -8 -15 0

# Texture cooridinates (Count = 27)
vt 0 0.5
vt 0.1111111 0.5
vt 0.1111111 0.6666666
vt 0 0.6666666
vt 0.4444444 0.8333333
vt 0.5555556 0.8333333
vt 0.5555556 1
vt 0.4444444 1
vt 0.3333333 0.5
vt 0.4444444 0.5
vt 0.4444444 0.6666666
vt 0.3333333 0.6666666
vt 0.5555556 0.6666666
vt 0.6666667 0.6666666
vt 0.6666667 0.8333333
vt 0.2222222 0.6666666
vt 0.2222222 0.8333333
vt 0.1111111 0.8333333
vt 0.3333333 0.8333333
vt 0.3333333 1
vt 0.2222222 0.5
vt 0 0.8333333
vt 0.1111111 1
vt 0 1
vt 0.2222222 1
vt 0.6666667 1
vt 0.5555556 0.5

# Normal
vn 0 0 -1

# Mesh description
g Map_Master_mesh_0347

# Faces
f 1/1/1 2/2/1 3/3/1 4/4/1
f 5/5/1 6/6/1 7/7/1 8/8/1
f 9/9/1 10/10/1 11/11/1 12/12/1
f 13/13/1 14/14/1 15/15/1 16/6/1
f 17/3/1 18/16/1 19/17/1 20/18/1
f 21/3/1 22/16/1 23/17/1 24/18/1
f 25/3/1 26/16/1 27/17/1 28/18/1
f 29/3/1 30/16/1 31/17/1 32/18/1
f 33/3/1 34/16/1 35/17/1 36/18/1
f 37/3/1 38/16/1 39/17/1 40/18/1
f 41/3/1 42/16/1 43/17/1 44/18/1
f 45/3/1 46/16/1 47/17/1 48/18/1
f 49/1/1 50/2/1 51/3/1 52/4/1
f 53/5/1 54/6/1 55/7/1 56/8/1
f 57/13/1 58/14/1 59/15/1 60/6/1
f 61/3/1 62/16/1 63/17/1 64/18/1
f 65/3/1 66/16/1 67/17/1 68/18/1
f 69/19/1 70/5/1 71/8/1 72/20/1
f 73/2/1 74/21/1 75/16/1 76/3/1
f 77/2/1 78/21/1 79/16/1 80/3/1
f 81/2/1 82/21/1 83/16/1 84/3/1
f 85/5/1 86/6/1 87/7/1 88/8/1
f 89/3/1 90/16/1 91/17/1 92/18/1
f 93/4/1 94/3/1 95/18/1 96/22/1
f 97/3/1 98/16/1 99/17/1 100/18/1
f 101/3/1 102/16/1 103/17/1 104/18/1
f 105/19/1 106/5/1 107/8/1 108/20/1
f 109/21/1 110/9/1 111/12/1 112/16/1
f 113/1/1 114/2/1 115/3/1 116/4/1
f 117/2/1 118/21/1 119/16/1 120/3/1
f 121/4/1 122/3/1 123/18/1 124/22/1
f 125/3/1 126/16/1 127/17/1 128/18/1
f 129/3/1 130/16/1 131/17/1 132/18/1
f 133/16/1 134/12/1 135/19/1 136/17/1
f 137/22/1 138/18/1 139/23/1 140/24/1
f 141/17/1 142/19/1 143/20/1 144/25/1
f 145/4/1 146/3/1 147/18/1 148/22/1
f 149/3/1 150/16/1 151/17/1 152/18/1
f 153/19/1 154/5/1 155/8/1 156/20/1
f 157/21/1 158/9/1 159/12/1 160/16/1
f 161/22/1 162/18/1 163/23/1 164/24/1
f 165/11/1 166/13/1 167/6/1 168/5/1
f 169/12/1 170/11/1 171/5/1 172/19/1
f 173/17/1 174/19/1 175/20/1 176/25/1
f 177/4/1 178/3/1 179/18/1 180/22/1
f 181/3/1 182/16/1 183/17/1 184/18/1
f 185/16/1 186/12/1 187/19/1 188/17/1
f 189/1/1 190/2/1 191/3/1 192/4/1
f 193/5/1 194/6/1 195/7/1 196/8/1
f 197/3/1 198/16/1 199/17/1 200/18/1
f 201/16/1 202/12/1 203/19/1 204/17/1
f 205/4/1 206/3/1 207/18/1 208/22/1
f 209/9/1 210/10/1 211/11/1 212/12/1
f 213/16/1 214/12/1 215/19/1 216/17/1
f 217/1/1 218/2/1 219/3/1 220/4/1
f 221/2/1 222/21/1 223/16/1 224/3/1
f 225/21/1 226/9/1 227/12/1 228/16/1
f 229/4/1 230/3/1 231/18/1 232/22/1
f 233/3/1 234/16/1 235/17/1 236/18/1
f 237/16/1 238/12/1 239/19/1 240/17/1
f 241/4/1 242/3/1 243/18/1 244/22/1
f 245/6/1 246/15/1 247/26/1 248/7/1
f 249/16/1 250/12/1 251/19/1 252/17/1
f 253/4/1 254/3/1 255/18/1 256/22/1
f 257/3/1 258/16/1 259/17/1 260/18/1
f 261/16/1 262/12/1 263/19/1 264/17/1
f 265/17/1 266/19/1 267/20/1 268/25/1
f 269/22/1 270/18/1 271/23/1 272/24/1
f 273/11/1 274/13/1 275/6/1 276/5/1
f 277/3/1 278/16/1 279/17/1 280/18/1
f 281/16/1 282/12/1 283/19/1 284/17/1
f 285/22/1 286/18/1 287/23/1 288/24/1
f 289/18/1 290/17/1 291/25/1 292/23/1
f 293/18/1 294/17/1 295/25/1 296/23/1
f 297/18/1 298/17/1 299/25/1 300/23/1
f 301/18/1 302/17/1 303/25/1 304/23/1
f 305/12/1 306/11/1 307/5/1 308/19/1
f 309/18/1 310/17/1 311/25/1 312/23/1
f 313/18/1 314/17/1 315/25/1 316/23/1
f 317/18/1 318/17/1 319/25/1 320/23/1
f 321/18/1 322/17/1 323/25/1 324/23/1
f 325/11/1 326/13/1 327/6/1 328/5/1
f 329/3/1 330/16/1 331/17/1 332/18/1
f 333/3/1 334/16/1 335/17/1 336/18/1
f 337/16/1 338/12/1 339/19/1 340/17/1
f 341/4/1 342/3/1 343/18/1 344/22/1
f 345/3/1 346/16/1 347/17/1 348/18/1
f 349/13/1 350/14/1 351/15/1 352/6/1
f 353/3/1 354/16/1 355/17/1 356/18/1
f 357/10/1 358/27/1 359/13/1 360/11/1
f 361/3/1 362/16/1 363/17/1 364/18/1
f 365/3/1 366/16/1 367/17/1 368/18/1
f 369/3/1 370/16/1 371/17/1 372/18/1
f 373/3/1 374/16/1 375/17/1 376/18/1
f 377/3/1 378/16/1 379/17/1 380/18/1
f 381/3/1 382/16/1 383/17/1 384/18/1
f 385/3/1 386/16/1 387/17/1 388/18/1
f 389/3/1 390/16/1 391/17/1 392/18/1
f 393/16/1 394/12/1 395/19/1 396/17/1
f 397/4/1 398/3/1 399/18/1 400/22/1
f 401/3/1 402/16/1 403/17/1 404/18/1
f 405/3/1 406/16/1 407/17/1 408/18/1
f 409/19/1 410/5/1 411/8/1 412/20/1
f 413/2/1 414/21/1 415/16/1 416/3/1
f 417/3/1 418/16/1 419/17/1 420/18/1
f 421/3/1 422/16/1 423/17/1 424/18/1
f 425/6/1 426/15/1 427/26/1 428/7/1
f 429/3/1 430/16/1 431/17/1 432/18/1
f 433/3/1 434/16/1 435/17/1 436/18/1
f 437/3/1 438/16/1 439/17/1 440/18/1
f 441/3/1 442/16/1 443/17/1 444/18/1
f 445/3/1 446/16/1 447/17/1 448/18/1
f 449/16/1 450/12/1 451/19/1 452/17/1
f 453/4/1 454/3/1 455/18/1 456/22/1
f 457/19/1 458/5/1 459/8/1 460/20/1
f 461/2/1 462/21/1 463/16/1 464/3/1
f 465/21/1 466/9/1 467/12/1 468/16/1
f 469/3/1 470/16/1 471/17/1 472/18/1
f 473/3/1 474/16/1 475/17/1 476/18/1
f 477/3/1 478/16/1 479/17/1 480/18/1
f 481/3/1 482/16/1 483/17/1 484/18/1
f 485/3/1 486/16/1 487/17/1 488/18/1
f 489/3/1 490/16/1 491/17/1 492/18/1
f 493/3/1 494/16/1 495/17/1 496/18/1
f 497/3/1 498/16/1 499/17/1 500/18/1
f 501/16/1 502/12/1 503/19/1 504/17/1
f 505/1/1 506/2/1 507/3/1 508/4/1
f 509/21/1 510/9/1 511/12/1 512/16/1
f 513/3/1 514/16/1 515/17/1 516/18/1
f 517/3/1 518/16/1 519/17/1 520/18/1
f 521/3/1 522/16/1 523/17/1 524/18/1
f 525/3/1 526/16/1 527/17/1 528/18/1
f 529/3/1 530/16/1 531/17/1 532/18/1
f 533/3/1 534/16/1 535/17/1 536/18/1
f 537/3/1 538/16/1 539/17/1 540/18/1
f 541/19/1 542/5/1 543/8/1 544/20/1
f 545/21/1 546/9/1 547/12/1 548/16/1

