# Tiled2Unity generated file. Do not modify by hand.
# Wavefront file for 'Map_Master_mesh_0193.obj'

# Vertices (Count = 32)
v -10 -6 0
v -11 -6 0
v -11 -5 0
v -10 -5 0
v -11 -6 0
v -12 -6 0
v -12 -5 0
v -11 -5 0
v -12 -6 0
v -13 -6 0
v -13 -5 0
v -12 -5 0
v -6 -7 0
v -7 -7 0
v -7 -6 0
v -6 -6 0
v 0 -9 0
v -1 -9 0
v -1 -8 0
v 0 -8 0
v -5 -13 0
v -6 -13 0
v -6 -12 0
v -5 -12 0
v -6 -13 0
v -7 -13 0
v -7 -12 0
v -6 -12 0
v -7 -13 0
v -8 -13 0
v -8 -12 0
v -7 -12 0

# Texture cooridinates (Count = 18)
vt 0.6 0.8888889
vt 0.7 0.8888889
vt 0.7 1
vt 0.6 1
vt 0.8 0.8888889
vt 0.8 1
vt 0.9 0.8888889
vt 0.9 1
vt 0.4 0.6666666
vt 0.5 0.6666666
vt 0.5 0.7777778
vt 0.4 0.7777778
vt 0.2 0.8888889
vt 0.3 0.8888889
vt 0.3 1
vt 0.2 1
vt 0.1 0.8888889
vt 0.1 1

# Normal
vn 0 0 -1

# Mesh description
g Map_Master_mesh_0193

# Faces
f 1/1/1 2/2/1 3/3/1 4/4/1
f 5/2/1 6/5/1 7/6/1 8/3/1
f 9/5/1 10/7/1 11/8/1 12/6/1
f 13/9/1 14/10/1 15/11/1 16/12/1
f 17/13/1 18/14/1 19/15/1 20/16/1
f 21/17/1 22/13/1 23/16/1 24/18/1
f 25/17/1 26/13/1 27/16/1 28/18/1
f 29/13/1 30/14/1 31/15/1 32/16/1

