# Tiled2Unity generated file. Do not modify by hand.
# Wavefront file for 'Map_Master_mesh_0287.obj'

# Vertices (Count = 44)
v -1 -1 0
v -2 -1 0
v -2 0 0
v -1 0 0
v -1 -2 0
v -2 -2 0
v -2 -1 0
v -1 -1 0
v 0 -3 0
v -1 -3 0
v -1 -2 0
v 0 -2 0
v -1 -3 0
v -2 -3 0
v -2 -2 0
v -1 -2 0
v 0 -12 0
v -1 -12 0
v -1 -11 0
v 0 -11 0
v -1 -12 0
v -2 -12 0
v -2 -11 0
v -1 -11 0
v -1 -13 0
v -2 -13 0
v -2 -12 0
v -1 -12 0
v -1 -14 0
v -2 -14 0
v -2 -13 0
v -1 -13 0
v -1 -15 0
v -2 -15 0
v -2 -14 0
v -1 -14 0
v 0 -16 0
v -1 -16 0
v -1 -15 0
v 0 -15 0
v -1 -16 0
v -2 -16 0
v -2 -15 0
v -1 -15 0

# Texture cooridinates (Count = 16)
vt 0 0.6666666
vt 0.1111111 0.6666666
vt 0.1111111 0.8333333
vt 0 0.8333333
vt 0.2222222 0.8333333
vt 0.2222222 1
vt 0.1111111 1
vt 0.4444444 0.6666666
vt 0.5555556 0.6666666
vt 0.5555556 0.8333333
vt 0.4444444 0.8333333
vt 0.1111111 0.5
vt 0.2222222 0.5
vt 0.2222222 0.6666666
vt 0.5555556 1
vt 0.4444444 1

# Normal
vn 0 0 -1

# Mesh description
g Map_Master_mesh_0287

# Faces
f 1/1/1 2/2/1 3/3/1 4/4/1
f 5/1/1 6/2/1 7/3/1 8/4/1
f 9/3/1 10/5/1 11/6/1 12/7/1
f 13/8/1 14/9/1 15/10/1 16/11/1
f 17/12/1 18/13/1 19/14/1 20/2/1
f 21/11/1 22/10/1 23/15/1 24/16/1
f 25/1/1 26/2/1 27/3/1 28/4/1
f 29/1/1 30/2/1 31/3/1 32/4/1
f 33/1/1 34/2/1 35/3/1 36/4/1
f 37/3/1 38/5/1 39/6/1 40/7/1
f 41/8/1 42/9/1 43/10/1 44/11/1

