# Tiled2Unity generated file. Do not modify by hand.
# Wavefront file for 'Map_Master_mesh_0563.obj'

# Vertices (Count = 16)
v 0 -8 0
v -0.5 -8 0
v -0.5 -7.5 0
v 0 -7.5 0
v 0 -9 0
v -0.5 -9 0
v -0.5 -8.5 0
v 0 -8.5 0
v -1 -9 0
v -1.5 -9 0
v -1.5 -8.5 0
v -1 -8.5 0
v 0 -10 0
v -0.5 -10 0
v -0.5 -9.5 0
v 0 -9.5 0

# Texture cooridinates (Count = 4)
vt 0 0.5
vt 0.1666667 0.5
vt 0.1666667 1
vt 0 1

# Normal
vn 0 0 -1

# Mesh description
g Map_Master_mesh_0563

# Faces
f 1/1/1 2/2/1 3/3/1 4/4/1
f 5/1/1 6/2/1 7/3/1 8/4/1
f 9/1/1 10/2/1 11/3/1 12/4/1
f 13/1/1 14/2/1 15/3/1 16/4/1

