# Tiled2Unity generated file. Do not modify by hand.
# Wavefront file for 'Map_Master_mesh_0232.obj'

# Vertices (Count = 176)
v -4 -6 0
v -5 -6 0
v -5 -5 0
v -4 -5 0
v -8 -7 0
v -9 -7 0
v -9 -6 0
v -8 -6 0
v -9 -7 0
v -10 -7 0
v -10 -6 0
v -9 -6 0
v -10 -7 0
v -11 -7 0
v -11 -6 0
v -10 -6 0
v -8 -8 0
v -9 -8 0
v -9 -7 0
v -8 -7 0
v -9 -8 0
v -10 -8 0
v -10 -7 0
v -9 -7 0
v -10 -8 0
v -11 -8 0
v -11 -7 0
v -10 -7 0
v 0 -9 0
v -1 -9 0
v -1 -8 0
v 0 -8 0
v -1 -9 0
v -2 -9 0
v -2 -8 0
v -1 -8 0
v -2 -9 0
v -3 -9 0
v -3 -8 0
v -2 -8 0
v -8 -9 0
v -9 -9 0
v -9 -8 0
v -8 -8 0
v -9 -9 0
v -10 -9 0
v -10 -8 0
v -9 -8 0
v -10 -9 0
v -11 -9 0
v -11 -8 0
v -10 -8 0
v 0 -10 0
v -1 -10 0
v -1 -9 0
v 0 -9 0
v -1 -10 0
v -2 -10 0
v -2 -9 0
v -1 -9 0
v -2 -10 0
v -3 -10 0
v -3 -9 0
v -2 -9 0
v -5 -10 0
v -6 -10 0
v -6 -9 0
v -5 -9 0
v -8 -10 0
v -9 -10 0
v -9 -9 0
v -8 -9 0
v -9 -10 0
v -10 -10 0
v -10 -9 0
v -9 -9 0
v -10 -10 0
v -11 -10 0
v -11 -9 0
v -10 -9 0
v 0 -11 0
v -1 -11 0
v -1 -10 0
v 0 -10 0
v -1 -11 0
v -2 -11 0
v -2 -10 0
v -1 -10 0
v -2 -11 0
v -3 -11 0
v -3 -10 0
v -2 -10 0
v -8 -11 0
v -9 -11 0
v -9 -10 0
v -8 -10 0
v -9 -11 0
v -10 -11 0
v -10 -10 0
v -9 -10 0
v -10 -11 0
v -11 -11 0
v -11 -10 0
v -10 -10 0
v 0 -12 0
v -1 -12 0
v -1 -11 0
v 0 -11 0
v -1 -12 0
v -2 -12 0
v -2 -11 0
v -1 -11 0
v -2 -12 0
v -3 -12 0
v -3 -11 0
v -2 -11 0
v -8 -12 0
v -9 -12 0
v -9 -11 0
v -8 -11 0
v -9 -12 0
v -10 -12 0
v -10 -11 0
v -9 -11 0
v -10 -12 0
v -11 -12 0
v -11 -11 0
v -10 -11 0
v -11 -12 0
v -12 -12 0
v -12 -11 0
v -11 -11 0
v -8 -13 0
v -9 -13 0
v -9 -12 0
v -8 -12 0
v -9 -13 0
v -10 -13 0
v -10 -12 0
v -9 -12 0
v -10 -13 0
v -11 -13 0
v -11 -12 0
v -10 -12 0
v -11 -13 0
v -12 -13 0
v -12 -12 0
v -11 -12 0
v -15 -13 0
v -16 -13 0
v -16 -12 0
v -15 -12 0
v -8 -14 0
v -9 -14 0
v -9 -13 0
v -8 -13 0
v -9 -14 0
v -10 -14 0
v -10 -13 0
v -9 -13 0
v -10 -14 0
v -11 -14 0
v -11 -13 0
v -10 -13 0
v -15 -14 0
v -16 -14 0
v -16 -13 0
v -15 -13 0
v -15 -15 0
v -16 -15 0
v -16 -14 0
v -15 -14 0
v -15 -16 0
v -16 -16 0
v -16 -15 0
v -15 -15 0

# Texture cooridinates (Count = 32)
vt 0.3 0.4444444
vt 0.4 0.4444444
vt 0.4 0.5555556
vt 0.3 0.5555556
vt 0.6 0.7777778
vt 0.7 0.7777778
vt 0.7 0.8888889
vt 0.6 0.8888889
vt 0.8 0.7777778
vt 0.8 0.8888889
vt 0.9 0.7777778
vt 0.9 0.8888889
vt 0 0.6666666
vt 0.1 0.6666666
vt 0.1 0.7777778
vt 0 0.7777778
vt 0.2 0.6666666
vt 0.2 0.7777778
vt 0.3 0.6666666
vt 0.3 0.7777778
vt 0.8 0.5555556
vt 0.9 0.5555556
vt 0.9 0.6666666
vt 0.8 0.6666666
vt 0 0.5555556
vt 0.1 0.5555556
vt 0.2 0.5555556
vt 0.3 0.8888889
vt 0.4 0.8888889
vt 0.4 1
vt 0.3 1
vt 0.2 0.4444444

# Normal
vn 0 0 -1

# Mesh description
g Map_Master_mesh_0232

# Faces
f 1/1/1 2/2/1 3/3/1 4/4/1
f 5/5/1 6/6/1 7/7/1 8/8/1
f 9/6/1 10/9/1 11/10/1 12/7/1
f 13/9/1 14/11/1 15/12/1 16/10/1
f 17/13/1 18/14/1 19/15/1 20/16/1
f 21/14/1 22/17/1 23/18/1 24/15/1
f 25/17/1 26/19/1 27/20/1 28/18/1
f 29/5/1 30/6/1 31/7/1 32/8/1
f 33/6/1 34/9/1 35/10/1 36/7/1
f 37/9/1 38/11/1 39/12/1 40/10/1
f 41/13/1 42/14/1 43/15/1 44/16/1
f 45/14/1 46/17/1 47/18/1 48/15/1
f 49/17/1 50/19/1 51/20/1 52/18/1
f 53/13/1 54/14/1 55/15/1 56/16/1
f 57/14/1 58/17/1 59/18/1 60/15/1
f 61/17/1 62/19/1 63/20/1 64/18/1
f 65/21/1 66/22/1 67/23/1 68/24/1
f 69/13/1 70/14/1 71/15/1 72/16/1
f 73/14/1 74/17/1 75/18/1 76/15/1
f 77/17/1 78/19/1 79/20/1 80/18/1
f 81/13/1 82/14/1 83/15/1 84/16/1
f 85/14/1 86/17/1 87/18/1 88/15/1
f 89/17/1 90/19/1 91/20/1 92/18/1
f 93/13/1 94/14/1 95/15/1 96/16/1
f 97/14/1 98/17/1 99/18/1 100/15/1
f 101/17/1 102/19/1 103/20/1 104/18/1
f 105/25/1 106/26/1 107/14/1 108/13/1
f 109/26/1 110/27/1 111/17/1 112/14/1
f 113/27/1 114/4/1 115/19/1 116/17/1
f 117/13/1 118/14/1 119/15/1 120/16/1
f 121/14/1 122/17/1 123/18/1 124/15/1
f 125/17/1 126/19/1 127/20/1 128/18/1
f 129/9/1 130/11/1 131/12/1 132/10/1
f 133/13/1 134/14/1 135/15/1 136/16/1
f 137/14/1 138/17/1 139/18/1 140/15/1
f 141/28/1 142/29/1 143/30/1 144/31/1
f 145/32/1 146/1/1 147/4/1 148/27/1
f 149/5/1 150/6/1 151/7/1 152/8/1
f 153/25/1 154/26/1 155/14/1 156/13/1
f 157/26/1 158/27/1 159/17/1 160/14/1
f 161/27/1 162/4/1 163/19/1 164/17/1
f 165/13/1 166/14/1 167/15/1 168/16/1
f 169/13/1 170/14/1 171/15/1 172/16/1
f 173/13/1 174/14/1 175/15/1 176/16/1

