# Tiled2Unity generated file. Do not modify by hand.
# Wavefront file for 'Map_Master_mesh_0171.obj'

# Vertices (Count = 12)
v -11 -1 0
v -12 -1 0
v -12 0 0
v -11 0 0
v -12 -1 0
v -13 -1 0
v -13 0 0
v -12 0 0
v -13 -1 0
v -14 -1 0
v -14 0 0
v -13 0 0

# Texture cooridinates (Count = 6)
vt 0.1 0.8888889
vt 0.2 0.8888889
vt 0.2 1
vt 0.1 1
vt 0.3 0.8888889
vt 0.3 1

# Normal
vn 0 0 -1

# Mesh description
g Map_Master_mesh_0171

# Faces
f 1/1/1 2/2/1 3/3/1 4/4/1
f 5/1/1 6/2/1 7/3/1 8/4/1
f 9/2/1 10/5/1 11/6/1 12/3/1

