# Tiled2Unity generated file. Do not modify by hand.
# Wavefront file for 'Map_Master_mesh_0292.obj'

# Vertices (Count = 36)
v 0 -1 0
v -1 -1 0
v -1 0 0
v 0 0 0
v -1 -1 0
v -2 -1 0
v -2 0 0
v -1 0 0
v -2 -1 0
v -3 -1 0
v -3 0 0
v -2 0 0
v -3 -1 0
v -4 -1 0
v -4 0 0
v -3 0 0
v -4 -1 0
v -5 -1 0
v -5 0 0
v -4 0 0
v 0 -2 0
v -1 -2 0
v -1 -1 0
v 0 -1 0
v -1 -2 0
v -2 -2 0
v -2 -1 0
v -1 -1 0
v -2 -2 0
v -3 -2 0
v -3 -1 0
v -2 -1 0
v -3 -2 0
v -4 -2 0
v -4 -1 0
v -3 -1 0

# Texture cooridinates (Count = 12)
vt 0.1111111 0.6666666
vt 0.2222222 0.6666666
vt 0.2222222 0.8333333
vt 0.1111111 0.8333333
vt 0.3333333 0.8333333
vt 0.4444444 0.8333333
vt 0.4444444 1
vt 0.3333333 1
vt 0.2222222 0.5
vt 0.3333333 0.5
vt 0.3333333 0.6666666
vt 0.1111111 0.5

# Normal
vn 0 0 -1

# Mesh description
g Map_Master_mesh_0292

# Faces
f 1/1/1 2/2/1 3/3/1 4/4/1
f 5/1/1 6/2/1 7/3/1 8/4/1
f 9/1/1 10/2/1 11/3/1 12/4/1
f 13/5/1 14/6/1 15/7/1 16/8/1
f 17/9/1 18/10/1 19/11/1 20/2/1
f 21/12/1 22/9/1 23/2/1 24/1/1
f 25/12/1 26/9/1 27/2/1 28/1/1
f 29/12/1 30/9/1 31/2/1 32/1/1
f 33/9/1 34/10/1 35/11/1 36/2/1

