# Tiled2Unity generated file. Do not modify by hand.
# Wavefront file for 'Map_Master_mesh_0304.obj'

# Vertices (Count = 12)
v -9 -14 0
v -9.5 -14 0
v -9.5 -13.5 0
v -9 -13.5 0
v -10 -14 0
v -10.5 -14 0
v -10.5 -13.5 0
v -10 -13.5 0
v -11 -14 0
v -11.5 -14 0
v -11.5 -13.5 0
v -11 -13.5 0

# Texture cooridinates (Count = 4)
vt 0.3333333 0.5
vt 0.5 0.5
vt 0.5 1
vt 0.3333333 1

# Normal
vn 0 0 -1

# Mesh description
g Map_Master_mesh_0304

# Faces
f 1/1/1 2/2/1 3/3/1 4/4/1
f 5/1/1 6/2/1 7/3/1 8/4/1
f 9/1/1 10/2/1 11/3/1 12/4/1

