# Tiled2Unity generated file. Do not modify by hand.
# Wavefront file for 'Map_Master_mesh_0383.obj'

# Vertices (Count = 396)
v 0 -1 0
v -1 -1 0
v -1 0 0
v 0 0 0
v -1 -1 0
v -2 -1 0
v -2 0 0
v -1 0 0
v -2 -1 0
v -3 -1 0
v -3 0 0
v -2 0 0
v -15 -1 0
v -16 -1 0
v -16 0 0
v -15 0 0
v 0 -2 0
v -1 -2 0
v -1 -1 0
v 0 -1 0
v -1 -2 0
v -2 -2 0
v -2 -1 0
v -1 -1 0
v -2 -2 0
v -3 -2 0
v -3 -1 0
v -2 -1 0
v -3 -2 0
v -4 -2 0
v -4 -1 0
v -3 -1 0
v -9 -2 0
v -10 -2 0
v -10 -1 0
v -9 -1 0
v -10 -2 0
v -11 -2 0
v -11 -1 0
v -10 -1 0
v -15 -2 0
v -16 -2 0
v -16 -1 0
v -15 -1 0
v 0 -3 0
v -1 -3 0
v -1 -2 0
v 0 -2 0
v -1 -3 0
v -2 -3 0
v -2 -2 0
v -1 -2 0
v -2 -3 0
v -3 -3 0
v -3 -2 0
v -2 -2 0
v -3 -3 0
v -4 -3 0
v -4 -2 0
v -3 -2 0
v -9 -3 0
v -10 -3 0
v -10 -2 0
v -9 -2 0
v -10 -3 0
v -11 -3 0
v -11 -2 0
v -10 -2 0
v -11 -3 0
v -12 -3 0
v -12 -2 0
v -11 -2 0
v -14 -3 0
v -15 -3 0
v -15 -2 0
v -14 -2 0
v -15 -3 0
v -16 -3 0
v -16 -2 0
v -15 -2 0
v 0 -4 0
v -1 -4 0
v -1 -3 0
v 0 -3 0
v -1 -4 0
v -2 -4 0
v -2 -3 0
v -1 -3 0
v -2 -4 0
v -3 -4 0
v -3 -3 0
v -2 -3 0
v -3 -4 0
v -4 -4 0
v -4 -3 0
v -3 -3 0
v -9 -4 0
v -10 -4 0
v -10 -3 0
v -9 -3 0
v -10 -4 0
v -11 -4 0
v -11 -3 0
v -10 -3 0
v -11 -4 0
v -12 -4 0
v -12 -3 0
v -11 -3 0
v -14 -4 0
v -15 -4 0
v -15 -3 0
v -14 -3 0
v -15 -4 0
v -16 -4 0
v -16 -3 0
v -15 -3 0
v 0 -5 0
v -1 -5 0
v -1 -4 0
v 0 -4 0
v -1 -5 0
v -2 -5 0
v -2 -4 0
v -1 -4 0
v -2 -5 0
v -3 -5 0
v -3 -4 0
v -2 -4 0
v -3 -5 0
v -4 -5 0
v -4 -4 0
v -3 -4 0
v -4 -5 0
v -5 -5 0
v -5 -4 0
v -4 -4 0
v -5 -5 0
v -6 -5 0
v -6 -4 0
v -5 -4 0
v -6 -5 0
v -7 -5 0
v -7 -4 0
v -6 -4 0
v -8 -5 0
v -9 -5 0
v -9 -4 0
v -8 -4 0
v -9 -5 0
v -10 -5 0
v -10 -4 0
v -9 -4 0
v -10 -5 0
v -11 -5 0
v -11 -4 0
v -10 -4 0
v -11 -5 0
v -12 -5 0
v -12 -4 0
v -11 -4 0
v -13 -5 0
v -14 -5 0
v -14 -4 0
v -13 -4 0
v -14 -5 0
v -15 -5 0
v -15 -4 0
v -14 -4 0
v -15 -5 0
v -16 -5 0
v -16 -4 0
v -15 -4 0
v 0 -6 0
v -1 -6 0
v -1 -5 0
v 0 -5 0
v -1 -6 0
v -2 -6 0
v -2 -5 0
v -1 -5 0
v -2 -6 0
v -3 -6 0
v -3 -5 0
v -2 -5 0
v -3 -6 0
v -4 -6 0
v -4 -5 0
v -3 -5 0
v -4 -6 0
v -5 -6 0
v -5 -5 0
v -4 -5 0
v -5 -6 0
v -6 -6 0
v -6 -5 0
v -5 -5 0
v -6 -6 0
v -7 -6 0
v -7 -5 0
v -6 -5 0
v -8 -6 0
v -9 -6 0
v -9 -5 0
v -8 -5 0
v -9 -6 0
v -10 -6 0
v -10 -5 0
v -9 -5 0
v -10 -6 0
v -11 -6 0
v -11 -5 0
v -10 -5 0
v -13 -6 0
v -14 -6 0
v -14 -5 0
v -13 -5 0
v -14 -6 0
v -15 -6 0
v -15 -5 0
v -14 -5 0
v -15 -6 0
v -16 -6 0
v -16 -5 0
v -15 -5 0
v 0 -7 0
v -1 -7 0
v -1 -6 0
v 0 -6 0
v -1 -7 0
v -2 -7 0
v -2 -6 0
v -1 -6 0
v -2 -7 0
v -3 -7 0
v -3 -6 0
v -2 -6 0
v -3 -7 0
v -4 -7 0
v -4 -6 0
v -3 -6 0
v -4 -7 0
v -5 -7 0
v -5 -6 0
v -4 -6 0
v -15 -7 0
v -16 -7 0
v -16 -6 0
v -15 -6 0
v 0 -8 0
v -1 -8 0
v -1 -7 0
v 0 -7 0
v -1 -8 0
v -2 -8 0
v -2 -7 0
v -1 -7 0
v -2 -8 0
v -3 -8 0
v -3 -7 0
v -2 -7 0
v -3 -8 0
v -4 -8 0
v -4 -7 0
v -3 -7 0
v -4 -8 0
v -5 -8 0
v -5 -7 0
v -4 -7 0
v -15 -8 0
v -16 -8 0
v -16 -7 0
v -15 -7 0
v 0 -9 0
v -1 -9 0
v -1 -8 0
v 0 -8 0
v -1 -9 0
v -2 -9 0
v -2 -8 0
v -1 -8 0
v -2 -9 0
v -3 -9 0
v -3 -8 0
v -2 -8 0
v -3 -9 0
v -4 -9 0
v -4 -8 0
v -3 -8 0
v -4 -9 0
v -5 -9 0
v -5 -8 0
v -4 -8 0
v -15 -9 0
v -16 -9 0
v -16 -8 0
v -15 -8 0
v 0 -10 0
v -1 -10 0
v -1 -9 0
v 0 -9 0
v -1 -10 0
v -2 -10 0
v -2 -9 0
v -1 -9 0
v -2 -10 0
v -3 -10 0
v -3 -9 0
v -2 -9 0
v -3 -10 0
v -4 -10 0
v -4 -9 0
v -3 -9 0
v -15 -10 0
v -16 -10 0
v -16 -9 0
v -15 -9 0
v 0 -11 0
v -1 -11 0
v -1 -10 0
v 0 -10 0
v -1 -11 0
v -2 -11 0
v -2 -10 0
v -1 -10 0
v -15 -11 0
v -16 -11 0
v -16 -10 0
v -15 -10 0
v -7 -12 0
v -8 -12 0
v -8 -11 0
v -7 -11 0
v -10 -12 0
v -11 -12 0
v -11 -11 0
v -10 -11 0
v -11 -12 0
v -12 -12 0
v -12 -11 0
v -11 -11 0
v -12 -12 0
v -13 -12 0
v -13 -11 0
v -12 -11 0
v -15 -12 0
v -16 -12 0
v -16 -11 0
v -15 -11 0
v -10 -13 0
v -11 -13 0
v -11 -12 0
v -10 -12 0
v -11 -13 0
v -12 -13 0
v -12 -12 0
v -11 -12 0
v -12 -13 0
v -13 -13 0
v -13 -12 0
v -12 -12 0
v -13 -13 0
v -14 -13 0
v -14 -12 0
v -13 -12 0
v -11 -14 0
v -12 -14 0
v -12 -13 0
v -11 -13 0
v -12 -14 0
v -13 -14 0
v -13 -13 0
v -12 -13 0
v -13 -14 0
v -14 -14 0
v -14 -13 0
v -13 -13 0
v 0 -16 0
v -1 -16 0
v -1 -15 0
v 0 -15 0
v -1 -16 0
v -2 -16 0
v -2 -15 0
v -1 -15 0
v -2 -16 0
v -3 -16 0
v -3 -15 0
v -2 -15 0
v -3 -16 0
v -4 -16 0
v -4 -15 0
v -3 -15 0
v -4 -16 0
v -5 -16 0
v -5 -15 0
v -4 -15 0

# Texture cooridinates (Count = 28)
vt 0.1111111 0.6666666
vt 0.2222222 0.6666666
vt 0.2222222 0.8333333
vt 0.1111111 0.8333333
vt 0.3333333 0.6666666
vt 0.3333333 0.8333333
vt 0 0.6666666
vt 0 0.8333333
vt 0.4444444 0.6666666
vt 0.4444444 0.8333333
vt 0.3333333 1
vt 0.2222222 1
vt 0.1111111 1
vt 0 1
vt 0.5555556 0.6666666
vt 0.5555556 0.8333333
vt 0.4444444 1
vt 0.2222222 0.5
vt 0.3333333 0.5
vt 0.4444444 0.5
vt 0.5555556 0.5
vt 0.1111111 0.5
vt 0 0.5
vt 0.5555556 1
vt 0.1111111 0.1666667
vt 0.2222222 0.1666667
vt 0.2222222 0.3333333
vt 0.1111111 0.3333333

# Normal
vn 0 0 -1

# Mesh description
g Map_Master_mesh_0383

# Faces
f 1/1/1 2/2/1 3/3/1 4/4/1
f 5/1/1 6/2/1 7/3/1 8/4/1
f 9/2/1 10/5/1 11/6/1 12/3/1
f 13/7/1 14/1/1 15/4/1 16/8/1
f 17/1/1 18/2/1 19/3/1 20/4/1
f 21/1/1 22/2/1 23/3/1 24/4/1
f 25/5/1 26/9/1 27/10/1 28/6/1
f 29/3/1 30/6/1 31/11/1 32/12/1
f 33/8/1 34/4/1 35/13/1 36/14/1
f 37/3/1 38/6/1 39/11/1 40/12/1
f 41/7/1 42/1/1 43/4/1 44/8/1
f 45/1/1 46/2/1 47/3/1 48/4/1
f 49/1/1 50/2/1 51/3/1 52/4/1
f 53/1/1 54/2/1 55/3/1 56/4/1
f 57/2/1 58/5/1 59/6/1 60/3/1
f 61/7/1 62/1/1 63/4/1 64/8/1
f 65/5/1 66/9/1 67/10/1 68/6/1
f 69/3/1 70/6/1 71/11/1 72/12/1
f 73/8/1 74/4/1 75/13/1 76/14/1
f 77/9/1 78/15/1 79/16/1 80/10/1
f 81/1/1 82/2/1 83/3/1 84/4/1
f 85/1/1 86/2/1 87/3/1 88/4/1
f 89/1/1 90/2/1 91/3/1 92/4/1
f 93/2/1 94/5/1 95/6/1 96/3/1
f 97/7/1 98/1/1 99/4/1 100/8/1
f 101/1/1 102/2/1 103/3/1 104/4/1
f 105/2/1 106/5/1 107/6/1 108/3/1
f 109/7/1 110/1/1 111/4/1 112/8/1
f 113/1/1 114/2/1 115/3/1 116/4/1
f 117/1/1 118/2/1 119/3/1 120/4/1
f 121/1/1 122/2/1 123/3/1 124/4/1
f 125/1/1 126/2/1 127/3/1 128/4/1
f 129/5/1 130/9/1 131/10/1 132/6/1
f 133/4/1 134/3/1 135/12/1 136/13/1
f 137/4/1 138/3/1 139/12/1 140/13/1
f 141/3/1 142/6/1 143/11/1 144/12/1
f 145/8/1 146/4/1 147/13/1 148/14/1
f 149/9/1 150/15/1 151/16/1 152/10/1
f 153/6/1 154/10/1 155/17/1 156/11/1
f 157/18/1 158/19/1 159/5/1 160/2/1
f 161/8/1 162/4/1 163/13/1 164/14/1
f 165/9/1 166/15/1 167/16/1 168/10/1
f 169/1/1 170/2/1 171/3/1 172/4/1
f 173/1/1 174/2/1 175/3/1 176/4/1
f 177/1/1 178/2/1 179/3/1 180/4/1
f 181/20/1 182/21/1 183/15/1 184/9/1
f 185/1/1 186/2/1 187/3/1 188/4/1
f 189/6/1 190/10/1 191/17/1 192/11/1
f 193/22/1 194/18/1 195/2/1 196/1/1
f 197/18/1 198/19/1 199/5/1 200/2/1
f 201/23/1 202/22/1 203/1/1 204/7/1
f 205/22/1 206/18/1 207/2/1 208/1/1
f 209/18/1 210/19/1 211/5/1 212/2/1
f 213/23/1 214/22/1 215/1/1 216/7/1
f 217/22/1 218/18/1 219/2/1 220/1/1
f 221/10/1 222/16/1 223/24/1 224/17/1
f 225/1/1 226/2/1 227/3/1 228/4/1
f 229/1/1 230/2/1 231/3/1 232/4/1
f 233/1/1 234/2/1 235/3/1 236/4/1
f 237/20/1 238/21/1 239/15/1 240/9/1
f 241/2/1 242/5/1 243/6/1 244/3/1
f 245/7/1 246/1/1 247/4/1 248/8/1
f 249/1/1 250/2/1 251/3/1 252/4/1
f 253/1/1 254/2/1 255/3/1 256/4/1
f 257/1/1 258/2/1 259/3/1 260/4/1
f 261/1/1 262/2/1 263/3/1 264/4/1
f 265/2/1 266/5/1 267/6/1 268/3/1
f 269/7/1 270/1/1 271/4/1 272/8/1
f 273/1/1 274/2/1 275/3/1 276/4/1
f 277/1/1 278/2/1 279/3/1 280/4/1
f 281/20/1 282/21/1 283/15/1 284/9/1
f 285/6/1 286/10/1 287/17/1 288/11/1
f 289/18/1 290/19/1 291/5/1 292/2/1
f 293/7/1 294/1/1 295/4/1 296/8/1
f 297/1/1 298/2/1 299/3/1 300/4/1
f 301/6/1 302/10/1 303/17/1 304/11/1
f 305/22/1 306/18/1 307/2/1 308/1/1
f 309/18/1 310/19/1 311/5/1 312/2/1
f 313/7/1 314/1/1 315/4/1 316/8/1
f 317/22/1 318/18/1 319/2/1 320/1/1
f 321/18/1 322/19/1 323/5/1 324/2/1
f 325/7/1 326/1/1 327/4/1 328/8/1
f 329/25/1 330/26/1 331/27/1 332/28/1
f 333/8/1 334/4/1 335/13/1 336/14/1
f 337/4/1 338/3/1 339/12/1 340/13/1
f 341/3/1 342/6/1 343/11/1 344/12/1
f 345/23/1 346/22/1 347/1/1 348/7/1
f 349/23/1 350/22/1 351/1/1 352/7/1
f 353/10/1 354/16/1 355/24/1 356/17/1
f 357/5/1 358/9/1 359/10/1 360/6/1
f 361/3/1 362/6/1 363/11/1 364/12/1
f 365/23/1 366/22/1 367/1/1 368/7/1
f 369/22/1 370/18/1 371/2/1 372/1/1
f 373/18/1 374/19/1 375/5/1 376/2/1
f 377/4/1 378/3/1 379/12/1 380/13/1
f 381/4/1 382/3/1 383/12/1 384/13/1
f 385/4/1 386/3/1 387/12/1 388/13/1
f 389/4/1 390/3/1 391/12/1 392/13/1
f 393/3/1 394/6/1 395/11/1 396/12/1

