# Tiled2Unity generated file. Do not modify by hand.
# Wavefront file for 'Map_Master_mesh_0162.obj'

# Vertices (Count = 20)
v -4 -1 0
v -5 -1 0
v -5 0 0
v -4 0 0
v -5 -1 0
v -6 -1 0
v -6 0 0
v -5 0 0
v -2 -7 0
v -3 -7 0
v -3 -6 0
v -2 -6 0
v -3 -7 0
v -4 -7 0
v -4 -6 0
v -3 -6 0
v -4 -7 0
v -5 -7 0
v -5 -6 0
v -4 -6 0

# Texture cooridinates (Count = 8)
vt 0.6 0.4444444
vt 0.7 0.4444444
vt 0.7 0.5555556
vt 0.6 0.5555556
vt 0.8 0.4444444
vt 0.9 0.4444444
vt 0.9 0.5555556
vt 0.8 0.5555556

# Normal
vn 0 0 -1

# Mesh description
g Map_Master_mesh_0162

# Faces
f 1/1/1 2/2/1 3/3/1 4/4/1
f 5/5/1 6/6/1 7/7/1 8/8/1
f 9/1/1 10/2/1 11/3/1 12/4/1
f 13/2/1 14/5/1 15/8/1 16/3/1
f 17/5/1 18/6/1 19/7/1 20/8/1

