# Tiled2Unity generated file. Do not modify by hand.
# Wavefront file for 'Map_Master_mesh_0135.obj'

# Vertices (Count = 20)
v -10 -1 0
v -11 -1 0
v -11 0 0
v -10 0 0
v -11 -1 0
v -12 -1 0
v -12 0 0
v -11 0 0
v 0 -6 0
v -1 -6 0
v -1 -5 0
v 0 -5 0
v -1 -6 0
v -2 -6 0
v -2 -5 0
v -1 -5 0
v -2 -6 0
v -3 -6 0
v -3 -5 0
v -2 -5 0

# Texture cooridinates (Count = 10)
vt 0.7 0.8888889
vt 0.8 0.8888889
vt 0.8 1
vt 0.7 1
vt 0.9 0.8888889
vt 0.9 1
vt 0.1 0.3333333
vt 0.2 0.3333333
vt 0.2 0.4444444
vt 0.1 0.4444444

# Normal
vn 0 0 -1

# Mesh description
g Map_Master_mesh_0135

# Faces
f 1/1/1 2/2/1 3/3/1 4/4/1
f 5/2/1 6/5/1 7/6/1 8/3/1
f 9/7/1 10/8/1 11/9/1 12/10/1
f 13/7/1 14/8/1 15/9/1 16/10/1
f 17/7/1 18/8/1 19/9/1 20/10/1

