# Tiled2Unity generated file. Do not modify by hand.
# Wavefront file for 'Map_Master_mesh_0196.obj'

# Vertices (Count = 12)
v -1 -1 0
v -2 -1 0
v -2 0 0
v -1 0 0
v -2 -1 0
v -3 -1 0
v -3 0 0
v -2 0 0
v -3 -1 0
v -4 -1 0
v -4 0 0
v -3 0 0

# Texture cooridinates (Count = 6)
vt 0 0.8888889
vt 0.1 0.8888889
vt 0.1 1
vt 0 1
vt 0.2 0.8888889
vt 0.2 1

# Normal
vn 0 0 -1

# Mesh description
g Map_Master_mesh_0196

# Faces
f 1/1/1 2/2/1 3/3/1 4/4/1
f 5/2/1 6/5/1 7/6/1 8/3/1
f 9/2/1 10/5/1 11/6/1 12/3/1

