# Tiled2Unity generated file. Do not modify by hand.
# Wavefront file for 'Map_Master_mesh_0036.obj'

# Vertices (Count = 132)
v -7 -1 0
v -8 -1 0
v -8 0 0
v -7 0 0
v -12 -6 0
v -13 -6 0
v -13 -5 0
v -12 -5 0
v -12 -7 0
v -13 -7 0
v -13 -6 0
v -12 -6 0
v -12 -8 0
v -13 -8 0
v -13 -7 0
v -12 -7 0
v -12 -9 0
v -13 -9 0
v -13 -8 0
v -12 -8 0
v -8 -10 0
v -9 -10 0
v -9 -9 0
v -8 -9 0
v -9 -10 0
v -10 -10 0
v -10 -9 0
v -9 -9 0
v -10 -10 0
v -11 -10 0
v -11 -9 0
v -10 -9 0
v -11 -10 0
v -12 -10 0
v -12 -9 0
v -11 -9 0
v -8 -11 0
v -9 -11 0
v -9 -10 0
v -8 -10 0
v -9 -11 0
v -10 -11 0
v -10 -10 0
v -9 -10 0
v -10 -11 0
v -11 -11 0
v -11 -10 0
v -10 -10 0
v -11 -11 0
v -12 -11 0
v -12 -10 0
v -11 -10 0
v 0 -12 0
v -1 -12 0
v -1 -11 0
v 0 -11 0
v -1 -12 0
v -2 -12 0
v -2 -11 0
v -1 -11 0
v -2 -12 0
v -3 -12 0
v -3 -11 0
v -2 -11 0
v -8 -12 0
v -9 -12 0
v -9 -11 0
v -8 -11 0
v -9 -12 0
v -10 -12 0
v -10 -11 0
v -9 -11 0
v -10 -12 0
v -11 -12 0
v -11 -11 0
v -10 -11 0
v -11 -12 0
v -12 -12 0
v -12 -11 0
v -11 -11 0
v 0 -13 0
v -1 -13 0
v -1 -12 0
v 0 -12 0
v -1 -13 0
v -2 -13 0
v -2 -12 0
v -1 -12 0
v -2 -13 0
v -3 -13 0
v -3 -12 0
v -2 -12 0
v -8 -13 0
v -9 -13 0
v -9 -12 0
v -8 -12 0
v -9 -13 0
v -10 -13 0
v -10 -12 0
v -9 -12 0
v -10 -13 0
v -11 -13 0
v -11 -12 0
v -10 -12 0
v -11 -13 0
v -12 -13 0
v -12 -12 0
v -11 -12 0
v 0 -14 0
v -1 -14 0
v -1 -13 0
v 0 -13 0
v -1 -14 0
v -2 -14 0
v -2 -13 0
v -1 -13 0
v -2 -14 0
v -3 -14 0
v -3 -13 0
v -2 -13 0
v 0 -15 0
v -1 -15 0
v -1 -14 0
v 0 -14 0
v -1 -15 0
v -2 -15 0
v -2 -14 0
v -1 -14 0
v -2 -15 0
v -3 -15 0
v -3 -14 0
v -2 -14 0

# Texture cooridinates (Count = 10)
vt 0.5555556 0
vt 0.6666667 0
vt 0.6666667 0.1666667
vt 0.5555556 0.1666667
vt 0.5555556 0.5
vt 0.6666667 0.5
vt 0.6666667 0.6666666
vt 0.5555556 0.6666666
vt 0.5555556 0.3333333
vt 0.6666667 0.3333333

# Normal
vn 0 0 -1

# Mesh description
g Map_Master_mesh_0036

# Faces
f 1/1/1 2/2/1 3/3/1 4/4/1
f 5/5/1 6/6/1 7/7/1 8/8/1
f 9/9/1 10/10/1 11/6/1 12/5/1
f 13/4/1 14/3/1 15/10/1 16/9/1
f 17/1/1 18/2/1 19/3/1 20/4/1
f 21/5/1 22/6/1 23/7/1 24/8/1
f 25/5/1 26/6/1 27/7/1 28/8/1
f 29/5/1 30/6/1 31/7/1 32/8/1
f 33/5/1 34/6/1 35/7/1 36/8/1
f 37/9/1 38/10/1 39/6/1 40/5/1
f 41/9/1 42/10/1 43/6/1 44/5/1
f 45/9/1 46/10/1 47/6/1 48/5/1
f 49/9/1 50/10/1 51/6/1 52/5/1
f 53/5/1 54/6/1 55/7/1 56/8/1
f 57/5/1 58/6/1 59/7/1 60/8/1
f 61/5/1 62/6/1 63/7/1 64/8/1
f 65/4/1 66/3/1 67/10/1 68/9/1
f 69/4/1 70/3/1 71/10/1 72/9/1
f 73/4/1 74/3/1 75/10/1 76/9/1
f 77/4/1 78/3/1 79/10/1 80/9/1
f 81/9/1 82/10/1 83/6/1 84/5/1
f 85/9/1 86/10/1 87/6/1 88/5/1
f 89/9/1 90/10/1 91/6/1 92/5/1
f 93/1/1 94/2/1 95/3/1 96/4/1
f 97/1/1 98/2/1 99/3/1 100/4/1
f 101/1/1 102/2/1 103/3/1 104/4/1
f 105/1/1 106/2/1 107/3/1 108/4/1
f 109/4/1 110/3/1 111/10/1 112/9/1
f 113/4/1 114/3/1 115/10/1 116/9/1
f 117/4/1 118/3/1 119/10/1 120/9/1
f 121/1/1 122/2/1 123/3/1 124/4/1
f 125/1/1 126/2/1 127/3/1 128/4/1
f 129/1/1 130/2/1 131/3/1 132/4/1

