# Tiled2Unity generated file. Do not modify by hand.
# Wavefront file for 'Map_Master_mesh_0627.obj'

# Vertices (Count = 16)
v -6 -1 0
v -7 -1 0
v -7 0 0
v -6 0 0
v -14 -4 0
v -15 -4 0
v -15 -3 0
v -14 -3 0
v -2 -12 0
v -3 -12 0
v -3 -11 0
v -2 -11 0
v -14 -13 0
v -15 -13 0
v -15 -12 0
v -14 -12 0

# Texture cooridinates (Count = 6)
vt 0.25 0
vt 0.5 0
vt 0.5 1
vt 0.25 1
vt 0 0
vt 0 1

# Normal
vn 0 0 -1

# Mesh description
g Map_Master_mesh_0627

# Faces
f 1/1/1 2/2/1 3/3/1 4/4/1
f 5/5/1 6/1/1 7/4/1 8/6/1
f 9/1/1 10/2/1 11/3/1 12/4/1
f 13/5/1 14/1/1 15/4/1 16/6/1

