# Tiled2Unity generated file. Do not modify by hand.
# Wavefront file for 'Map_Master_mesh_0381.obj'

# Vertices (Count = 400)
v 0 -1 0
v -1 -1 0
v -1 0 0
v 0 0 0
v -1 -1 0
v -2 -1 0
v -2 0 0
v -1 0 0
v -2 -1 0
v -3 -1 0
v -3 0 0
v -2 0 0
v -3 -1 0
v -4 -1 0
v -4 0 0
v -3 0 0
v -4 -1 0
v -5 -1 0
v -5 0 0
v -4 0 0
v -5 -1 0
v -6 -1 0
v -6 0 0
v -5 0 0
v -6 -1 0
v -7 -1 0
v -7 0 0
v -6 0 0
v -7 -1 0
v -8 -1 0
v -8 0 0
v -7 0 0
v -8 -1 0
v -9 -1 0
v -9 0 0
v -8 0 0
v -9 -1 0
v -10 -1 0
v -10 0 0
v -9 0 0
v -10 -1 0
v -11 -1 0
v -11 0 0
v -10 0 0
v -11 -1 0
v -12 -1 0
v -12 0 0
v -11 0 0
v -12 -1 0
v -13 -1 0
v -13 0 0
v -12 0 0
v -13 -1 0
v -14 -1 0
v -14 0 0
v -13 0 0
v -14 -1 0
v -15 -1 0
v -15 0 0
v -14 0 0
v -15 -1 0
v -16 -1 0
v -16 0 0
v -15 0 0
v -3 -2 0
v -4 -2 0
v -4 -1 0
v -3 -1 0
v -4 -2 0
v -5 -2 0
v -5 -1 0
v -4 -1 0
v -5 -2 0
v -6 -2 0
v -6 -1 0
v -5 -1 0
v -9 -2 0
v -10 -2 0
v -10 -1 0
v -9 -1 0
v -10 -2 0
v -11 -2 0
v -11 -1 0
v -10 -1 0
v -11 -2 0
v -12 -2 0
v -12 -1 0
v -11 -1 0
v -15 -2 0
v -16 -2 0
v -16 -1 0
v -15 -1 0
v -3 -3 0
v -4 -3 0
v -4 -2 0
v -3 -2 0
v -4 -3 0
v -5 -3 0
v -5 -2 0
v -4 -2 0
v -5 -3 0
v -6 -3 0
v -6 -2 0
v -5 -2 0
v -9 -3 0
v -10 -3 0
v -10 -2 0
v -9 -2 0
v -10 -3 0
v -11 -3 0
v -11 -2 0
v -10 -2 0
v -11 -3 0
v -12 -3 0
v -12 -2 0
v -11 -2 0
v -15 -3 0
v -16 -3 0
v -16 -2 0
v -15 -2 0
v -3 -4 0
v -4 -4 0
v -4 -3 0
v -3 -3 0
v -4 -4 0
v -5 -4 0
v -5 -3 0
v -4 -3 0
v -5 -4 0
v -6 -4 0
v -6 -3 0
v -5 -3 0
v -9 -4 0
v -10 -4 0
v -10 -3 0
v -9 -3 0
v -10 -4 0
v -11 -4 0
v -11 -3 0
v -10 -3 0
v -11 -4 0
v -12 -4 0
v -12 -3 0
v -11 -3 0
v -15 -4 0
v -16 -4 0
v -16 -3 0
v -15 -3 0
v -3 -5 0
v -4 -5 0
v -4 -4 0
v -3 -4 0
v -4 -5 0
v -5 -5 0
v -5 -4 0
v -4 -4 0
v -5 -5 0
v -6 -5 0
v -6 -4 0
v -5 -4 0
v -9 -5 0
v -10 -5 0
v -10 -4 0
v -9 -4 0
v -10 -5 0
v -11 -5 0
v -11 -4 0
v -10 -4 0
v -11 -5 0
v -12 -5 0
v -12 -4 0
v -11 -4 0
v -15 -5 0
v -16 -5 0
v -16 -4 0
v -15 -4 0
v -3 -6 0
v -4 -6 0
v -4 -5 0
v -3 -5 0
v -4 -6 0
v -5 -6 0
v -5 -5 0
v -4 -5 0
v -5 -6 0
v -6 -6 0
v -6 -5 0
v -5 -5 0
v -9 -6 0
v -10 -6 0
v -10 -5 0
v -9 -5 0
v -10 -6 0
v -11 -6 0
v -11 -5 0
v -10 -5 0
v -11 -6 0
v -12 -6 0
v -12 -5 0
v -11 -5 0
v -15 -6 0
v -16 -6 0
v -16 -5 0
v -15 -5 0
v -3 -7 0
v -4 -7 0
v -4 -6 0
v -3 -6 0
v -4 -7 0
v -5 -7 0
v -5 -6 0
v -4 -6 0
v -5 -7 0
v -6 -7 0
v -6 -6 0
v -5 -6 0
v -9 -7 0
v -10 -7 0
v -10 -6 0
v -9 -6 0
v -10 -7 0
v -11 -7 0
v -11 -6 0
v -10 -6 0
v -11 -7 0
v -12 -7 0
v -12 -6 0
v -11 -6 0
v -15 -7 0
v -16 -7 0
v -16 -6 0
v -15 -6 0
v -3 -8 0
v -4 -8 0
v -4 -7 0
v -3 -7 0
v -4 -8 0
v -5 -8 0
v -5 -7 0
v -4 -7 0
v -5 -8 0
v -6 -8 0
v -6 -7 0
v -5 -7 0
v -9 -8 0
v -10 -8 0
v -10 -7 0
v -9 -7 0
v -10 -8 0
v -11 -8 0
v -11 -7 0
v -10 -7 0
v -11 -8 0
v -12 -8 0
v -12 -7 0
v -11 -7 0
v -15 -8 0
v -16 -8 0
v -16 -7 0
v -15 -7 0
v -3 -9 0
v -4 -9 0
v -4 -8 0
v -3 -8 0
v -4 -9 0
v -5 -9 0
v -5 -8 0
v -4 -8 0
v -5 -9 0
v -6 -9 0
v -6 -8 0
v -5 -8 0
v -15 -9 0
v -16 -9 0
v -16 -8 0
v -15 -8 0
v -3 -10 0
v -4 -10 0
v -4 -9 0
v -3 -9 0
v -4 -10 0
v -5 -10 0
v -5 -9 0
v -4 -9 0
v -5 -10 0
v -6 -10 0
v -6 -9 0
v -5 -9 0
v -15 -10 0
v -16 -10 0
v -16 -9 0
v -15 -9 0
v -3 -11 0
v -4 -11 0
v -4 -10 0
v -3 -10 0
v -4 -11 0
v -5 -11 0
v -5 -10 0
v -4 -10 0
v -5 -11 0
v -6 -11 0
v -6 -10 0
v -5 -10 0
v -3 -12 0
v -4 -12 0
v -4 -11 0
v -3 -11 0
v -4 -12 0
v -5 -12 0
v -5 -11 0
v -4 -11 0
v -5 -12 0
v -6 -12 0
v -6 -11 0
v -5 -11 0
v -9 -12 0
v -10 -12 0
v -10 -11 0
v -9 -11 0
v -10 -12 0
v -11 -12 0
v -11 -11 0
v -10 -11 0
v -11 -12 0
v -12 -12 0
v -12 -11 0
v -11 -11 0
v -9 -13 0
v -10 -13 0
v -10 -12 0
v -9 -12 0
v -10 -13 0
v -11 -13 0
v -11 -12 0
v -10 -12 0
v -11 -13 0
v -12 -13 0
v -12 -12 0
v -11 -12 0
v -9 -14 0
v -10 -14 0
v -10 -13 0
v -9 -13 0
v -10 -14 0
v -11 -14 0
v -11 -13 0
v -10 -13 0
v -11 -14 0
v -12 -14 0
v -12 -13 0
v -11 -13 0
v -15 -14 0
v -16 -14 0
v -16 -13 0
v -15 -13 0
v -9 -15 0
v -10 -15 0
v -10 -14 0
v -9 -14 0
v -10 -15 0
v -11 -15 0
v -11 -14 0
v -10 -14 0
v -11 -15 0
v -12 -15 0
v -12 -14 0
v -11 -14 0
v -15 -15 0
v -16 -15 0
v -16 -14 0
v -15 -14 0
v -3 -16 0
v -4 -16 0
v -4 -15 0
v -3 -15 0
v -4 -16 0
v -5 -16 0
v -5 -15 0
v -4 -15 0
v -5 -16 0
v -6 -16 0
v -6 -15 0
v -5 -15 0
v -9 -16 0
v -10 -16 0
v -10 -15 0
v -9 -15 0
v -10 -16 0
v -11 -16 0
v -11 -15 0
v -10 -15 0
v -11 -16 0
v -12 -16 0
v -12 -15 0
v -11 -15 0
v -15 -16 0
v -16 -16 0
v -16 -15 0
v -15 -15 0

# Texture cooridinates (Count = 26)
vt 0.1111111 0.5
vt 0.2222222 0.5
vt 0.2222222 0.6666666
vt 0.1111111 0.6666666
vt 0.4444444 0.8333333
vt 0.5555556 0.8333333
vt 0.5555556 1
vt 0.4444444 1
vt 0.2222222 0.8333333
vt 0.1111111 0.8333333
vt 0.3333333 0.8333333
vt 0.3333333 1
vt 0.4444444 0.5
vt 0.5555556 0.5
vt 0.5555556 0.6666666
vt 0.4444444 0.6666666
vt 0 0.6666666
vt 0 0.8333333
vt 0.3333333 0.6666666
vt 0.3333333 0.5
vt 0 0.5
vt 0.1111111 1
vt 0 1
vt 0.2222222 1
vt 0.6666667 0.6666666
vt 0.6666667 0.8333333

# Normal
vn 0 0 -1

# Mesh description
g Map_Master_mesh_0381

# Faces
f 1/1/1 2/2/1 3/3/1 4/4/1
f 5/1/1 6/2/1 7/3/1 8/4/1
f 9/1/1 10/2/1 11/3/1 12/4/1
f 13/5/1 14/6/1 15/7/1 16/8/1
f 17/4/1 18/3/1 19/9/1 20/10/1
f 21/11/1 22/5/1 23/8/1 24/12/1
f 25/1/1 26/2/1 27/3/1 28/4/1
f 29/1/1 30/2/1 31/3/1 32/4/1
f 33/1/1 34/2/1 35/3/1 36/4/1
f 37/5/1 38/6/1 39/7/1 40/8/1
f 41/13/1 42/14/1 43/15/1 44/16/1
f 45/11/1 46/5/1 47/8/1 48/12/1
f 49/1/1 50/2/1 51/3/1 52/4/1
f 53/1/1 54/2/1 55/3/1 56/4/1
f 57/1/1 58/2/1 59/3/1 60/4/1
f 61/5/1 62/6/1 63/7/1 64/8/1
f 65/17/1 66/4/1 67/10/1 68/18/1
f 69/4/1 70/3/1 71/9/1 72/10/1
f 73/3/1 74/19/1 75/11/1 76/9/1
f 77/17/1 78/4/1 79/10/1 80/18/1
f 81/20/1 82/13/1 83/16/1 84/19/1
f 85/3/1 86/19/1 87/11/1 88/9/1
f 89/17/1 90/4/1 91/10/1 92/18/1
f 93/17/1 94/4/1 95/10/1 96/18/1
f 97/4/1 98/3/1 99/9/1 100/10/1
f 101/3/1 102/19/1 103/11/1 104/9/1
f 105/17/1 106/4/1 107/10/1 108/18/1
f 109/4/1 110/3/1 111/9/1 112/10/1
f 113/3/1 114/19/1 115/11/1 116/9/1
f 117/17/1 118/4/1 119/10/1 120/18/1
f 121/17/1 122/4/1 123/10/1 124/18/1
f 125/4/1 126/3/1 127/9/1 128/10/1
f 129/3/1 130/19/1 131/11/1 132/9/1
f 133/17/1 134/4/1 135/10/1 136/18/1
f 137/4/1 138/3/1 139/9/1 140/10/1
f 141/3/1 142/19/1 143/11/1 144/9/1
f 145/17/1 146/4/1 147/10/1 148/18/1
f 149/17/1 150/4/1 151/10/1 152/18/1
f 153/4/1 154/3/1 155/9/1 156/10/1
f 157/3/1 158/19/1 159/11/1 160/9/1
f 161/17/1 162/4/1 163/10/1 164/18/1
f 165/20/1 166/13/1 167/16/1 168/19/1
f 169/3/1 170/19/1 171/11/1 172/9/1
f 173/17/1 174/4/1 175/10/1 176/18/1
f 177/17/1 178/4/1 179/10/1 180/18/1
f 181/4/1 182/3/1 183/9/1 184/10/1
f 185/3/1 186/19/1 187/11/1 188/9/1
f 189/17/1 190/4/1 191/10/1 192/18/1
f 193/4/1 194/3/1 195/9/1 196/10/1
f 197/3/1 198/19/1 199/11/1 200/9/1
f 201/17/1 202/4/1 203/10/1 204/18/1
f 205/17/1 206/4/1 207/10/1 208/18/1
f 209/4/1 210/3/1 211/9/1 212/10/1
f 213/3/1 214/19/1 215/11/1 216/9/1
f 217/17/1 218/4/1 219/10/1 220/18/1
f 221/4/1 222/3/1 223/9/1 224/10/1
f 225/3/1 226/19/1 227/11/1 228/9/1
f 229/17/1 230/4/1 231/10/1 232/18/1
f 233/17/1 234/4/1 235/10/1 236/18/1
f 237/20/1 238/13/1 239/16/1 240/19/1
f 241/3/1 242/19/1 243/11/1 244/9/1
f 245/21/1 246/1/1 247/4/1 248/17/1
f 249/1/1 250/2/1 251/3/1 252/4/1
f 253/2/1 254/20/1 255/19/1 256/3/1
f 257/17/1 258/4/1 259/10/1 260/18/1
f 261/17/1 262/4/1 263/10/1 264/18/1
f 265/4/1 266/3/1 267/9/1 268/10/1
f 269/3/1 270/19/1 271/11/1 272/9/1
f 273/17/1 274/4/1 275/10/1 276/18/1
f 277/17/1 278/4/1 279/10/1 280/18/1
f 281/13/1 282/14/1 283/15/1 284/16/1
f 285/3/1 286/19/1 287/11/1 288/9/1
f 289/21/1 290/1/1 291/4/1 292/17/1
f 293/17/1 294/4/1 295/10/1 296/18/1
f 297/4/1 298/3/1 299/9/1 300/10/1
f 301/3/1 302/19/1 303/11/1 304/9/1
f 305/21/1 306/1/1 307/4/1 308/17/1
f 309/1/1 310/2/1 311/3/1 312/4/1
f 313/2/1 314/20/1 315/19/1 316/3/1
f 317/18/1 318/10/1 319/22/1 320/23/1
f 321/10/1 322/9/1 323/24/1 324/22/1
f 325/9/1 326/11/1 327/12/1 328/24/1
f 329/17/1 330/4/1 331/10/1 332/18/1
f 333/4/1 334/3/1 335/9/1 336/10/1
f 337/3/1 338/19/1 339/11/1 340/9/1
f 341/17/1 342/4/1 343/10/1 344/18/1
f 345/13/1 346/14/1 347/15/1 348/16/1
f 349/3/1 350/19/1 351/11/1 352/9/1
f 353/18/1 354/10/1 355/22/1 356/23/1
f 357/17/1 358/4/1 359/10/1 360/18/1
f 361/4/1 362/3/1 363/9/1 364/10/1
f 365/3/1 366/19/1 367/11/1 368/9/1
f 369/17/1 370/4/1 371/10/1 372/18/1
f 373/18/1 374/10/1 375/22/1 376/23/1
f 377/10/1 378/9/1 379/24/1 380/22/1
f 381/9/1 382/11/1 383/12/1 384/24/1
f 385/17/1 386/4/1 387/10/1 388/18/1
f 389/15/1 390/25/1 391/26/1 392/6/1
f 393/3/1 394/19/1 395/11/1 396/9/1
f 397/17/1 398/4/1 399/10/1 400/18/1

