# Tiled2Unity generated file. Do not modify by hand.
# Wavefront file for 'Map_Master_mesh_0186.obj'

# Vertices (Count = 316)
v -15 -1 0
v -16 -1 0
v -16 0 0
v -15 0 0
v -2 -2 0
v -3 -2 0
v -3 -1 0
v -2 -1 0
v -15 -2 0
v -16 -2 0
v -16 -1 0
v -15 -1 0
v -7 -3 0
v -8 -3 0
v -8 -2 0
v -7 -2 0
v -8 -3 0
v -9 -3 0
v -9 -2 0
v -8 -2 0
v -15 -3 0
v -16 -3 0
v -16 -2 0
v -15 -2 0
v -15 -4 0
v -16 -4 0
v -16 -3 0
v -15 -3 0
v -4 -5 0
v -5 -5 0
v -5 -4 0
v -4 -4 0
v -15 -5 0
v -16 -5 0
v -16 -4 0
v -15 -4 0
v -15 -6 0
v -16 -6 0
v -16 -5 0
v -15 -5 0
v -10 -7 0
v -11 -7 0
v -11 -6 0
v -10 -6 0
v -11 -7 0
v -12 -7 0
v -12 -6 0
v -11 -6 0
v -12 -7 0
v -13 -7 0
v -13 -6 0
v -12 -6 0
v -15 -7 0
v -16 -7 0
v -16 -6 0
v -15 -6 0
v -6 -8 0
v -7 -8 0
v -7 -7 0
v -6 -7 0
v -15 -8 0
v -16 -8 0
v -16 -7 0
v -15 -7 0
v 0 -10 0
v -1 -10 0
v -1 -9 0
v 0 -9 0
v 0 -11 0
v -1 -11 0
v -1 -10 0
v 0 -10 0
v 0 -12 0
v -1 -12 0
v -1 -11 0
v 0 -11 0
v -1 -12 0
v -2 -12 0
v -2 -11 0
v -1 -11 0
v 0 -13 0
v -1 -13 0
v -1 -12 0
v 0 -12 0
v -1 -13 0
v -2 -13 0
v -2 -12 0
v -1 -12 0
v -2 -13 0
v -3 -13 0
v -3 -12 0
v -2 -12 0
v -3 -13 0
v -4 -13 0
v -4 -12 0
v -3 -12 0
v -4 -13 0
v -5 -13 0
v -5 -12 0
v -4 -12 0
v -5 -13 0
v -6 -13 0
v -6 -12 0
v -5 -12 0
v -6 -13 0
v -7 -13 0
v -7 -12 0
v -6 -12 0
v -7 -13 0
v -8 -13 0
v -8 -12 0
v -7 -12 0
v -8 -13 0
v -9 -13 0
v -9 -12 0
v -8 -12 0
v -9 -13 0
v -10 -13 0
v -10 -12 0
v -9 -12 0
v -10 -13 0
v -11 -13 0
v -11 -12 0
v -10 -12 0
v 0 -14 0
v -1 -14 0
v -1 -13 0
v 0 -13 0
v -1 -14 0
v -2 -14 0
v -2 -13 0
v -1 -13 0
v -2 -14 0
v -3 -14 0
v -3 -13 0
v -2 -13 0
v -3 -14 0
v -4 -14 0
v -4 -13 0
v -3 -13 0
v -4 -14 0
v -5 -14 0
v -5 -13 0
v -4 -13 0
v -5 -14 0
v -6 -14 0
v -6 -13 0
v -5 -13 0
v -6 -14 0
v -7 -14 0
v -7 -13 0
v -6 -13 0
v -7 -14 0
v -8 -14 0
v -8 -13 0
v -7 -13 0
v -8 -14 0
v -9 -14 0
v -9 -13 0
v -8 -13 0
v -9 -14 0
v -10 -14 0
v -10 -13 0
v -9 -13 0
v -10 -14 0
v -11 -14 0
v -11 -13 0
v -10 -13 0
v -11 -14 0
v -12 -14 0
v -12 -13 0
v -11 -13 0
v -12 -14 0
v -13 -14 0
v -13 -13 0
v -12 -13 0
v -13 -14 0
v -14 -14 0
v -14 -13 0
v -13 -13 0
v -14 -14 0
v -15 -14 0
v -15 -13 0
v -14 -13 0
v -15 -14 0
v -16 -14 0
v -16 -13 0
v -15 -13 0
v 0 -15 0
v -1 -15 0
v -1 -14 0
v 0 -14 0
v -1 -15 0
v -2 -15 0
v -2 -14 0
v -1 -14 0
v -2 -15 0
v -3 -15 0
v -3 -14 0
v -2 -14 0
v -3 -15 0
v -4 -15 0
v -4 -14 0
v -3 -14 0
v -4 -15 0
v -5 -15 0
v -5 -14 0
v -4 -14 0
v -5 -15 0
v -6 -15 0
v -6 -14 0
v -5 -14 0
v -6 -15 0
v -7 -15 0
v -7 -14 0
v -6 -14 0
v -7 -15 0
v -8 -15 0
v -8 -14 0
v -7 -14 0
v -8 -15 0
v -9 -15 0
v -9 -14 0
v -8 -14 0
v -9 -15 0
v -10 -15 0
v -10 -14 0
v -9 -14 0
v -10 -15 0
v -11 -15 0
v -11 -14 0
v -10 -14 0
v -11 -15 0
v -12 -15 0
v -12 -14 0
v -11 -14 0
v -12 -15 0
v -13 -15 0
v -13 -14 0
v -12 -14 0
v -13 -15 0
v -14 -15 0
v -14 -14 0
v -13 -14 0
v -14 -15 0
v -15 -15 0
v -15 -14 0
v -14 -14 0
v -15 -15 0
v -16 -15 0
v -16 -14 0
v -15 -14 0
v 0 -16 0
v -1 -16 0
v -1 -15 0
v 0 -15 0
v -1 -16 0
v -2 -16 0
v -2 -15 0
v -1 -15 0
v -2 -16 0
v -3 -16 0
v -3 -15 0
v -2 -15 0
v -3 -16 0
v -4 -16 0
v -4 -15 0
v -3 -15 0
v -4 -16 0
v -5 -16 0
v -5 -15 0
v -4 -15 0
v -5 -16 0
v -6 -16 0
v -6 -15 0
v -5 -15 0
v -6 -16 0
v -7 -16 0
v -7 -15 0
v -6 -15 0
v -7 -16 0
v -8 -16 0
v -8 -15 0
v -7 -15 0
v -8 -16 0
v -9 -16 0
v -9 -15 0
v -8 -15 0
v -9 -16 0
v -10 -16 0
v -10 -15 0
v -9 -15 0
v -10 -16 0
v -11 -16 0
v -11 -15 0
v -10 -15 0
v -11 -16 0
v -12 -16 0
v -12 -15 0
v -11 -15 0
v -12 -16 0
v -13 -16 0
v -13 -15 0
v -12 -15 0
v -13 -16 0
v -14 -16 0
v -14 -15 0
v -13 -15 0
v -14 -16 0
v -15 -16 0
v -15 -15 0
v -14 -15 0
v -15 -16 0
v -16 -16 0
v -16 -15 0
v -15 -15 0

# Texture cooridinates (Count = 33)
vt 0 0.6666666
vt 0.1 0.6666666
vt 0.1 0.7777778
vt 0 0.7777778
vt 0.8 0.5555556
vt 0.9 0.5555556
vt 0.9 0.6666666
vt 0.8 0.6666666
vt 0.6 0.7777778
vt 0.7 0.7777778
vt 0.7 0.8888889
vt 0.6 0.8888889
vt 0.8 0.7777778
vt 0.9 0.7777778
vt 0.9 0.8888889
vt 0.8 0.8888889
vt 0.3 0.4444444
vt 0.4 0.4444444
vt 0.4 0.5555556
vt 0.3 0.5555556
vt 0.6 0.6666666
vt 0.7 0.6666666
vt 0 0.5555556
vt 0.1 0.5555556
vt 0.2 0.7777778
vt 0.3 0.7777778
vt 0.3 0.8888889
vt 0.2 0.8888889
vt 0.2 0.6666666
vt 0.3 0.6666666
vt 0.4 0.7777778
vt 0.4 0.8888889
vt 0.1 0.8888889

# Normal
vn 0 0 -1

# Mesh description
g Map_Master_mesh_0186

# Faces
f 1/1/1 2/2/1 3/3/1 4/4/1
f 5/5/1 6/6/1 7/7/1 8/8/1
f 9/1/1 10/2/1 11/3/1 12/4/1
f 13/9/1 14/10/1 15/11/1 16/12/1
f 17/13/1 18/14/1 19/15/1 20/16/1
f 21/1/1 22/2/1 23/3/1 24/4/1
f 25/1/1 26/2/1 27/3/1 28/4/1
f 29/17/1 30/18/1 31/19/1 32/20/1
f 33/1/1 34/2/1 35/3/1 36/4/1
f 37/1/1 38/2/1 39/3/1 40/4/1
f 41/21/1 42/22/1 43/10/1 44/9/1
f 45/22/1 46/8/1 47/13/1 48/10/1
f 49/8/1 50/7/1 51/14/1 52/13/1
f 53/1/1 54/2/1 55/3/1 56/4/1
f 57/17/1 58/18/1 59/19/1 60/20/1
f 61/23/1 62/24/1 63/2/1 64/1/1
f 65/25/1 66/26/1 67/27/1 68/28/1
f 69/29/1 70/30/1 71/26/1 72/25/1
f 73/26/1 74/31/1 75/32/1 76/27/1
f 77/29/1 78/30/1 79/26/1 80/25/1
f 81/2/1 82/29/1 83/25/1 84/3/1
f 85/26/1 86/31/1 87/32/1 88/27/1
f 89/3/1 90/25/1 91/28/1 92/33/1
f 93/3/1 94/25/1 95/28/1 96/33/1
f 97/3/1 98/25/1 99/28/1 100/33/1
f 101/3/1 102/25/1 103/28/1 104/33/1
f 105/3/1 106/25/1 107/28/1 108/33/1
f 109/3/1 110/25/1 111/28/1 112/33/1
f 113/3/1 114/25/1 115/28/1 116/33/1
f 117/3/1 118/25/1 119/28/1 120/33/1
f 121/25/1 122/26/1 123/27/1 124/28/1
f 125/2/1 126/29/1 127/25/1 128/3/1
f 129/2/1 130/29/1 131/25/1 132/3/1
f 133/2/1 134/29/1 135/25/1 136/3/1
f 137/2/1 138/29/1 139/25/1 140/3/1
f 141/2/1 142/29/1 143/25/1 144/3/1
f 145/2/1 146/29/1 147/25/1 148/3/1
f 149/2/1 150/29/1 151/25/1 152/3/1
f 153/2/1 154/29/1 155/25/1 156/3/1
f 157/2/1 158/29/1 159/25/1 160/3/1
f 161/2/1 162/29/1 163/25/1 164/3/1
f 165/29/1 166/30/1 167/26/1 168/25/1
f 169/3/1 170/25/1 171/28/1 172/33/1
f 173/3/1 174/25/1 175/28/1 176/33/1
f 177/3/1 178/25/1 179/28/1 180/33/1
f 181/3/1 182/25/1 183/28/1 184/33/1
f 185/3/1 186/25/1 187/28/1 188/33/1
f 189/2/1 190/29/1 191/25/1 192/3/1
f 193/2/1 194/29/1 195/25/1 196/3/1
f 197/2/1 198/29/1 199/25/1 200/3/1
f 201/2/1 202/29/1 203/25/1 204/3/1
f 205/2/1 206/29/1 207/25/1 208/3/1
f 209/2/1 210/29/1 211/25/1 212/3/1
f 213/2/1 214/29/1 215/25/1 216/3/1
f 217/2/1 218/29/1 219/25/1 220/3/1
f 221/2/1 222/29/1 223/25/1 224/3/1
f 225/2/1 226/29/1 227/25/1 228/3/1
f 229/2/1 230/29/1 231/25/1 232/3/1
f 233/2/1 234/29/1 235/25/1 236/3/1
f 237/2/1 238/29/1 239/25/1 240/3/1
f 241/2/1 242/29/1 243/25/1 244/3/1
f 245/2/1 246/29/1 247/25/1 248/3/1
f 249/2/1 250/29/1 251/25/1 252/3/1
f 253/2/1 254/29/1 255/25/1 256/3/1
f 257/2/1 258/29/1 259/25/1 260/3/1
f 261/2/1 262/29/1 263/25/1 264/3/1
f 265/2/1 266/29/1 267/25/1 268/3/1
f 269/2/1 270/29/1 271/25/1 272/3/1
f 273/2/1 274/29/1 275/25/1 276/3/1
f 277/2/1 278/29/1 279/25/1 280/3/1
f 281/2/1 282/29/1 283/25/1 284/3/1
f 285/2/1 286/29/1 287/25/1 288/3/1
f 289/2/1 290/29/1 291/25/1 292/3/1
f 293/2/1 294/29/1 295/25/1 296/3/1
f 297/2/1 298/29/1 299/25/1 300/3/1
f 301/2/1 302/29/1 303/25/1 304/3/1
f 305/2/1 306/29/1 307/25/1 308/3/1
f 309/2/1 310/29/1 311/25/1 312/3/1
f 313/2/1 314/29/1 315/25/1 316/3/1

