# Tiled2Unity generated file. Do not modify by hand.
# Wavefront file for 'Map_Master_mesh_0182.obj'

# Vertices (Count = 416)
v -6 -1 0
v -7 -1 0
v -7 0 0
v -6 0 0
v -7 -1 0
v -8 -1 0
v -8 0 0
v -7 0 0
v -8 -1 0
v -9 -1 0
v -9 0 0
v -8 0 0
v -9 -1 0
v -10 -1 0
v -10 0 0
v -9 0 0
v -10 -1 0
v -11 -1 0
v -11 0 0
v -10 0 0
v -11 -1 0
v -12 -1 0
v -12 0 0
v -11 0 0
v -12 -1 0
v -13 -1 0
v -13 0 0
v -12 0 0
v -13 -1 0
v -14 -1 0
v -14 0 0
v -13 0 0
v -14 -1 0
v -15 -1 0
v -15 0 0
v -14 0 0
v -15 -1 0
v -16 -1 0
v -16 0 0
v -15 0 0
v -6 -2 0
v -7 -2 0
v -7 -1 0
v -6 -1 0
v -7 -2 0
v -8 -2 0
v -8 -1 0
v -7 -1 0
v -8 -2 0
v -9 -2 0
v -9 -1 0
v -8 -1 0
v -9 -2 0
v -10 -2 0
v -10 -1 0
v -9 -1 0
v -10 -2 0
v -11 -2 0
v -11 -1 0
v -10 -1 0
v -11 -2 0
v -12 -2 0
v -12 -1 0
v -11 -1 0
v -12 -2 0
v -13 -2 0
v -13 -1 0
v -12 -1 0
v -13 -2 0
v -14 -2 0
v -14 -1 0
v -13 -1 0
v -14 -2 0
v -15 -2 0
v -15 -1 0
v -14 -1 0
v -15 -2 0
v -16 -2 0
v -16 -1 0
v -15 -1 0
v -2 -3 0
v -3 -3 0
v -3 -2 0
v -2 -2 0
v -3 -3 0
v -4 -3 0
v -4 -2 0
v -3 -2 0
v -4 -3 0
v -5 -3 0
v -5 -2 0
v -4 -2 0
v -5 -3 0
v -6 -3 0
v -6 -2 0
v -5 -2 0
v -6 -3 0
v -7 -3 0
v -7 -2 0
v -6 -2 0
v -7 -3 0
v -8 -3 0
v -8 -2 0
v -7 -2 0
v -8 -3 0
v -9 -3 0
v -9 -2 0
v -8 -2 0
v -9 -3 0
v -10 -3 0
v -10 -2 0
v -9 -2 0
v -10 -3 0
v -11 -3 0
v -11 -2 0
v -10 -2 0
v -11 -3 0
v -12 -3 0
v -12 -2 0
v -11 -2 0
v -12 -3 0
v -13 -3 0
v -13 -2 0
v -12 -2 0
v -13 -3 0
v -14 -3 0
v -14 -2 0
v -13 -2 0
v -14 -3 0
v -15 -3 0
v -15 -2 0
v -14 -2 0
v -15 -3 0
v -16 -3 0
v -16 -2 0
v -15 -2 0
v -2 -4 0
v -3 -4 0
v -3 -3 0
v -2 -3 0
v -3 -4 0
v -4 -4 0
v -4 -3 0
v -3 -3 0
v -4 -4 0
v -5 -4 0
v -5 -3 0
v -4 -3 0
v -5 -4 0
v -6 -4 0
v -6 -3 0
v -5 -3 0
v -6 -4 0
v -7 -4 0
v -7 -3 0
v -6 -3 0
v -7 -4 0
v -8 -4 0
v -8 -3 0
v -7 -3 0
v -8 -4 0
v -9 -4 0
v -9 -3 0
v -8 -3 0
v -9 -4 0
v -10 -4 0
v -10 -3 0
v -9 -3 0
v -10 -4 0
v -11 -4 0
v -11 -3 0
v -10 -3 0
v -11 -4 0
v -12 -4 0
v -12 -3 0
v -11 -3 0
v -12 -4 0
v -13 -4 0
v -13 -3 0
v -12 -3 0
v -13 -4 0
v -14 -4 0
v -14 -3 0
v -13 -3 0
v -14 -4 0
v -15 -4 0
v -15 -3 0
v -14 -3 0
v -15 -4 0
v -16 -4 0
v -16 -3 0
v -15 -3 0
v -3 -5 0
v -4 -5 0
v -4 -4 0
v -3 -4 0
v -4 -5 0
v -5 -5 0
v -5 -4 0
v -4 -4 0
v -5 -5 0
v -6 -5 0
v -6 -4 0
v -5 -4 0
v -6 -5 0
v -7 -5 0
v -7 -4 0
v -6 -4 0
v -7 -5 0
v -8 -5 0
v -8 -4 0
v -7 -4 0
v -8 -5 0
v -9 -5 0
v -9 -4 0
v -8 -4 0
v -9 -5 0
v -10 -5 0
v -10 -4 0
v -9 -4 0
v -10 -5 0
v -11 -5 0
v -11 -4 0
v -10 -4 0
v -11 -5 0
v -12 -5 0
v -12 -4 0
v -11 -4 0
v -12 -5 0
v -13 -5 0
v -13 -4 0
v -12 -4 0
v -13 -5 0
v -14 -5 0
v -14 -4 0
v -13 -4 0
v -14 -5 0
v -15 -5 0
v -15 -4 0
v -14 -4 0
v -15 -5 0
v -16 -5 0
v -16 -4 0
v -15 -4 0
v -10 -6 0
v -11 -6 0
v -11 -5 0
v -10 -5 0
v -11 -6 0
v -12 -6 0
v -12 -5 0
v -11 -5 0
v -12 -6 0
v -13 -6 0
v -13 -5 0
v -12 -5 0
v -13 -6 0
v -14 -6 0
v -14 -5 0
v -13 -5 0
v -14 -6 0
v -15 -6 0
v -15 -5 0
v -14 -5 0
v -15 -6 0
v -16 -6 0
v -16 -5 0
v -15 -5 0
v -12 -7 0
v -13 -7 0
v -13 -6 0
v -12 -6 0
v -13 -7 0
v -14 -7 0
v -14 -6 0
v -13 -6 0
v -14 -7 0
v -15 -7 0
v -15 -6 0
v -14 -6 0
v -15 -7 0
v -16 -7 0
v -16 -6 0
v -15 -6 0
v -2 -8 0
v -3 -8 0
v -3 -7 0
v -2 -7 0
v -12 -8 0
v -13 -8 0
v -13 -7 0
v -12 -7 0
v -13 -8 0
v -14 -8 0
v -14 -7 0
v -13 -7 0
v -14 -8 0
v -15 -8 0
v -15 -7 0
v -14 -7 0
v -15 -8 0
v -16 -8 0
v -16 -7 0
v -15 -7 0
v -14 -9 0
v -15 -9 0
v -15 -8 0
v -14 -8 0
v -15 -9 0
v -16 -9 0
v -16 -8 0
v -15 -8 0
v 0 -12 0
v -1 -12 0
v -1 -11 0
v 0 -11 0
v -1 -12 0
v -2 -12 0
v -2 -11 0
v -1 -11 0
v -2 -12 0
v -3 -12 0
v -3 -11 0
v -2 -11 0
v 0 -13 0
v -1 -13 0
v -1 -12 0
v 0 -12 0
v -1 -13 0
v -2 -13 0
v -2 -12 0
v -1 -12 0
v -2 -13 0
v -3 -13 0
v -3 -12 0
v -2 -12 0
v -3 -13 0
v -4 -13 0
v -4 -12 0
v -3 -12 0
v -13 -13 0
v -14 -13 0
v -14 -12 0
v -13 -12 0
v 0 -14 0
v -1 -14 0
v -1 -13 0
v 0 -13 0
v -1 -14 0
v -2 -14 0
v -2 -13 0
v -1 -13 0
v -2 -14 0
v -3 -14 0
v -3 -13 0
v -2 -13 0
v -3 -14 0
v -4 -14 0
v -4 -13 0
v -3 -13 0
v -4 -14 0
v -5 -14 0
v -5 -13 0
v -4 -13 0
v 0 -15 0
v -1 -15 0
v -1 -14 0
v 0 -14 0
v -1 -15 0
v -2 -15 0
v -2 -14 0
v -1 -14 0
v -2 -15 0
v -3 -15 0
v -3 -14 0
v -2 -14 0
v -3 -15 0
v -4 -15 0
v -4 -14 0
v -3 -14 0
v -4 -15 0
v -5 -15 0
v -5 -14 0
v -4 -14 0
v 0 -16 0
v -1 -16 0
v -1 -15 0
v 0 -15 0
v -1 -16 0
v -2 -16 0
v -2 -15 0
v -1 -15 0
v -2 -16 0
v -3 -16 0
v -3 -15 0
v -2 -15 0
v -3 -16 0
v -4 -16 0
v -4 -15 0
v -3 -15 0
v -4 -16 0
v -5 -16 0
v -5 -15 0
v -4 -15 0
v -8 -16 0
v -9 -16 0
v -9 -15 0
v -8 -15 0
v -9 -16 0
v -10 -16 0
v -10 -15 0
v -9 -15 0
v -10 -16 0
v -11 -16 0
v -11 -15 0
v -10 -15 0

# Texture cooridinates (Count = 47)
vt 0 0.2222222
vt 0.1 0.2222222
vt 0.1 0.3333333
vt 0 0.3333333
vt 0.2 0.2222222
vt 0.2 0.3333333
vt 0.4 0.2222222
vt 0.5 0.2222222
vt 0.5 0.3333333
vt 0.4 0.3333333
vt 0.1 0.1111111
vt 0.2 0.1111111
vt 0 0.1111111
vt 0 0.4444444
vt 0.1 0.4444444
vt 0.1 0.5555556
vt 0 0.5555556
vt 0.4 0.8888889
vt 0.5 0.8888889
vt 0.5 1
vt 0.4 1
vt 0.1 0.6666666
vt 0.2 0.6666666
vt 0.2 0.7777778
vt 0.1 0.7777778
vt 0 0.6666666
vt 0.2 0.4444444
vt 0.2 0.5555556
vt 0 0.7777778
vt 0.8 0.7777778
vt 0.9 0.7777778
vt 0.9 0.8888889
vt 0.8 0.8888889
vt 0.2 0.8888889
vt 0.1 0.8888889
vt 0.3 0.6666666
vt 0.3 0.7777778
vt 0.4 0.7777778
vt 0.3 0.8888889
vt 0.8 0.5555556
vt 0.9 0.5555556
vt 0.9 0.6666666
vt 0.8 0.6666666
vt 0.6 0.7777778
vt 0.7 0.7777778
vt 0.7 0.8888889
vt 0.6 0.8888889

# Normal
vn 0 0 -1

# Mesh description
g Map_Master_mesh_0182

# Faces
f 1/1/1 2/2/1 3/3/1 4/4/1
f 5/2/1 6/5/1 7/6/1 8/3/1
f 9/2/1 10/5/1 11/6/1 12/3/1
f 13/2/1 14/5/1 15/6/1 16/3/1
f 17/2/1 18/5/1 19/6/1 20/3/1
f 21/7/1 22/8/1 23/9/1 24/10/1
f 25/11/1 26/12/1 27/5/1 28/2/1
f 29/11/1 30/12/1 31/5/1 32/2/1
f 33/11/1 34/12/1 35/5/1 36/2/1
f 37/11/1 38/12/1 39/5/1 40/2/1
f 41/13/1 42/11/1 43/2/1 44/1/1
f 45/11/1 46/12/1 47/5/1 48/2/1
f 49/11/1 50/12/1 51/5/1 52/2/1
f 53/11/1 54/12/1 55/5/1 56/2/1
f 57/11/1 58/12/1 59/5/1 60/2/1
f 61/11/1 62/12/1 63/5/1 64/2/1
f 65/11/1 66/12/1 67/5/1 68/2/1
f 69/11/1 70/12/1 71/5/1 72/2/1
f 73/11/1 74/12/1 75/5/1 76/2/1
f 77/11/1 78/12/1 79/5/1 80/2/1
f 81/1/1 82/2/1 83/3/1 84/4/1
f 85/2/1 86/5/1 87/6/1 88/3/1
f 89/2/1 90/5/1 91/6/1 92/3/1
f 93/2/1 94/5/1 95/6/1 96/3/1
f 97/7/1 98/8/1 99/9/1 100/10/1
f 101/11/1 102/12/1 103/5/1 104/2/1
f 105/11/1 106/12/1 107/5/1 108/2/1
f 109/11/1 110/12/1 111/5/1 112/2/1
f 113/11/1 114/12/1 115/5/1 116/2/1
f 117/11/1 118/12/1 119/5/1 120/2/1
f 121/11/1 122/12/1 123/5/1 124/2/1
f 125/11/1 126/12/1 127/5/1 128/2/1
f 129/11/1 130/12/1 131/5/1 132/2/1
f 133/11/1 134/12/1 135/5/1 136/2/1
f 137/14/1 138/15/1 139/16/1 140/17/1
f 141/18/1 142/19/1 143/20/1 144/21/1
f 145/22/1 146/23/1 147/24/1 148/25/1
f 149/22/1 150/23/1 151/24/1 152/25/1
f 153/22/1 154/23/1 155/24/1 156/25/1
f 157/22/1 158/23/1 159/24/1 160/25/1
f 161/22/1 162/23/1 163/24/1 164/25/1
f 165/22/1 166/23/1 167/24/1 168/25/1
f 169/22/1 170/23/1 171/24/1 172/25/1
f 173/22/1 174/23/1 175/24/1 176/25/1
f 177/22/1 178/23/1 179/24/1 180/25/1
f 181/22/1 182/23/1 183/24/1 184/25/1
f 185/22/1 186/23/1 187/24/1 188/25/1
f 189/22/1 190/23/1 191/24/1 192/25/1
f 193/17/1 194/16/1 195/22/1 196/26/1
f 197/15/1 198/27/1 199/28/1 200/16/1
f 201/15/1 202/27/1 203/28/1 204/16/1
f 205/15/1 206/27/1 207/28/1 208/16/1
f 209/15/1 210/27/1 211/28/1 212/16/1
f 213/15/1 214/27/1 215/28/1 216/16/1
f 217/15/1 218/27/1 219/28/1 220/16/1
f 221/18/1 222/19/1 223/20/1 224/21/1
f 225/22/1 226/23/1 227/24/1 228/25/1
f 229/22/1 230/23/1 231/24/1 232/25/1
f 233/22/1 234/23/1 235/24/1 236/25/1
f 237/22/1 238/23/1 239/24/1 240/25/1
f 241/22/1 242/23/1 243/24/1 244/25/1
f 245/17/1 246/16/1 247/22/1 248/26/1
f 249/15/1 250/27/1 251/28/1 252/16/1
f 253/18/1 254/19/1 255/20/1 256/21/1
f 257/22/1 258/23/1 259/24/1 260/25/1
f 261/22/1 262/23/1 263/24/1 264/25/1
f 265/22/1 266/23/1 267/24/1 268/25/1
f 269/26/1 270/22/1 271/25/1 272/29/1
f 273/22/1 274/23/1 275/24/1 276/25/1
f 277/22/1 278/23/1 279/24/1 280/25/1
f 281/22/1 282/23/1 283/24/1 284/25/1
f 285/30/1 286/31/1 287/32/1 288/33/1
f 289/14/1 290/15/1 291/16/1 292/17/1
f 293/15/1 294/27/1 295/28/1 296/16/1
f 297/18/1 298/19/1 299/20/1 300/21/1
f 301/22/1 302/23/1 303/24/1 304/25/1
f 305/14/1 306/15/1 307/16/1 308/17/1
f 309/15/1 310/27/1 311/28/1 312/16/1
f 313/25/1 314/24/1 315/34/1 316/35/1
f 317/25/1 318/24/1 319/34/1 320/35/1
f 321/23/1 322/36/1 323/37/1 324/24/1
f 325/22/1 326/23/1 327/24/1 328/25/1
f 329/22/1 330/23/1 331/24/1 332/25/1
f 333/37/1 334/38/1 335/18/1 336/39/1
f 337/23/1 338/36/1 339/37/1 340/24/1
f 341/40/1 342/41/1 343/42/1 344/43/1
f 345/22/1 346/23/1 347/24/1 348/25/1
f 349/22/1 350/23/1 351/24/1 352/25/1
f 353/22/1 354/23/1 355/24/1 356/25/1
f 357/37/1 358/38/1 359/18/1 360/39/1
f 361/23/1 362/36/1 363/37/1 364/24/1
f 365/22/1 366/23/1 367/24/1 368/25/1
f 369/22/1 370/23/1 371/24/1 372/25/1
f 373/22/1 374/23/1 375/24/1 376/25/1
f 377/22/1 378/23/1 379/24/1 380/25/1
f 381/23/1 382/36/1 383/37/1 384/24/1
f 385/22/1 386/23/1 387/24/1 388/25/1
f 389/22/1 390/23/1 391/24/1 392/25/1
f 393/22/1 394/23/1 395/24/1 396/25/1
f 397/22/1 398/23/1 399/24/1 400/25/1
f 401/23/1 402/36/1 403/37/1 404/24/1
f 405/44/1 406/45/1 407/46/1 408/47/1
f 409/45/1 410/30/1 411/33/1 412/46/1
f 413/30/1 414/31/1 415/32/1 416/33/1

