# Tiled2Unity generated file. Do not modify by hand.
# Wavefront file for 'Map_Master_mesh_0173.obj'

# Vertices (Count = 44)
v -8 -3 0
v -9 -3 0
v -9 -2 0
v -8 -2 0
v -9 -3 0
v -10 -3 0
v -10 -2 0
v -9 -2 0
v -13 -5 0
v -14 -5 0
v -14 -4 0
v -13 -4 0
v -14 -5 0
v -15 -5 0
v -15 -4 0
v -14 -4 0
v -15 -5 0
v -16 -5 0
v -16 -4 0
v -15 -4 0
v 0 -7 0
v -1 -7 0
v -1 -6 0
v 0 -6 0
v -1 -7 0
v -2 -7 0
v -2 -6 0
v -1 -6 0
v -2 -7 0
v -3 -7 0
v -3 -6 0
v -2 -6 0
v -3 -7 0
v -4 -7 0
v -4 -6 0
v -3 -6 0
v -4 -7 0
v -5 -7 0
v -5 -6 0
v -4 -6 0
v -10 -11 0
v -11 -11 0
v -11 -10 0
v -10 -10 0

# Texture cooridinates (Count = 18)
vt 0 0.8888889
vt 0.1 0.8888889
vt 0.1 1
vt 0 1
vt 0.2 0.8888889
vt 0.3 0.8888889
vt 0.3 1
vt 0.2 1
vt 0.6 0.8888889
vt 0.7 0.8888889
vt 0.7 1
vt 0.6 1
vt 0.8 0.8888889
vt 0.8 1
vt 0.4 0.4444444
vt 0.5 0.4444444
vt 0.5 0.5555556
vt 0.4 0.5555556

# Normal
vn 0 0 -1

# Mesh description
g Map_Master_mesh_0173

# Faces
f 1/1/1 2/2/1 3/3/1 4/4/1
f 5/5/1 6/6/1 7/7/1 8/8/1
f 9/9/1 10/10/1 11/11/1 12/12/1
f 13/10/1 14/13/1 15/14/1 16/11/1
f 17/2/1 18/5/1 19/8/1 20/3/1
f 21/2/1 22/5/1 23/8/1 24/3/1
f 25/2/1 26/5/1 27/8/1 28/3/1
f 29/2/1 30/5/1 31/8/1 32/3/1
f 33/2/1 34/5/1 35/8/1 36/3/1
f 37/2/1 38/5/1 39/8/1 40/3/1
f 41/15/1 42/16/1 43/17/1 44/18/1

