# Tiled2Unity generated file. Do not modify by hand.
# Wavefront file for 'Map_Master_mesh_0001.obj'

# Vertices (Count = 32)
v -11 -3 0
v -11.5 -3 0
v -11.5 -2.5 0
v -11 -2.5 0
v -12 -3 0
v -12.5 -3 0
v -12.5 -2.5 0
v -12 -2.5 0
v -11 -4 0
v -11.5 -4 0
v -11.5 -3.5 0
v -11 -3.5 0
v -12 -4 0
v -12.5 -4 0
v -12.5 -3.5 0
v -12 -3.5 0
v -11 -9 0
v -11.5 -9 0
v -11.5 -8.5 0
v -11 -8.5 0
v -12 -9 0
v -12.5 -9 0
v -12.5 -8.5 0
v -12 -8.5 0
v -11 -10 0
v -11.5 -10 0
v -11.5 -9.5 0
v -11 -9.5 0
v -12 -10 0
v -12.5 -10 0
v -12.5 -9.5 0
v -12 -9.5 0

# Texture cooridinates (Count = 6)
vt 0 0.5
vt 0.1666667 0.5
vt 0.1666667 1
vt 0 1
vt 0.3333333 0.5
vt 0.3333333 1

# Normal
vn 0 0 -1

# Mesh description
g Map_Master_mesh_0001

# Faces
f 1/1/1 2/2/1 3/3/1 4/4/1
f 5/1/1 6/2/1 7/3/1 8/4/1
f 9/1/1 10/2/1 11/3/1 12/4/1
f 13/1/1 14/2/1 15/3/1 16/4/1
f 17/2/1 18/5/1 19/6/1 20/3/1
f 21/2/1 22/5/1 23/6/1 24/3/1
f 25/2/1 26/5/1 27/6/1 28/3/1
f 29/2/1 30/5/1 31/6/1 32/3/1

