# Tiled2Unity generated file. Do not modify by hand.
# Wavefront file for 'Map_Master_mesh_0151.obj'

# Vertices (Count = 580)
v -1 -5 0
v -2 -5 0
v -2 -4 0
v -1 -4 0
v -2 -5 0
v -3 -5 0
v -3 -4 0
v -2 -4 0
v -3 -5 0
v -4 -5 0
v -4 -4 0
v -3 -4 0
v -9 -5 0
v -10 -5 0
v -10 -4 0
v -9 -4 0
v -10 -5 0
v -11 -5 0
v -11 -4 0
v -10 -4 0
v -11 -5 0
v -12 -5 0
v -12 -4 0
v -11 -4 0
v -12 -5 0
v -13 -5 0
v -13 -4 0
v -12 -4 0
v -13 -5 0
v -14 -5 0
v -14 -4 0
v -13 -4 0
v -14 -5 0
v -15 -5 0
v -15 -4 0
v -14 -4 0
v -15 -5 0
v -16 -5 0
v -16 -4 0
v -15 -4 0
v -1 -6 0
v -2 -6 0
v -2 -5 0
v -1 -5 0
v -2 -6 0
v -3 -6 0
v -3 -5 0
v -2 -5 0
v -3 -6 0
v -4 -6 0
v -4 -5 0
v -3 -5 0
v -7 -6 0
v -8 -6 0
v -8 -5 0
v -7 -5 0
v -8 -6 0
v -9 -6 0
v -9 -5 0
v -8 -5 0
v -9 -6 0
v -10 -6 0
v -10 -5 0
v -9 -5 0
v -10 -6 0
v -11 -6 0
v -11 -5 0
v -10 -5 0
v -11 -6 0
v -12 -6 0
v -12 -5 0
v -11 -5 0
v -12 -6 0
v -13 -6 0
v -13 -5 0
v -12 -5 0
v -13 -6 0
v -14 -6 0
v -14 -5 0
v -13 -5 0
v -14 -6 0
v -15 -6 0
v -15 -5 0
v -14 -5 0
v -15 -6 0
v -16 -6 0
v -16 -5 0
v -15 -5 0
v -1 -7 0
v -2 -7 0
v -2 -6 0
v -1 -6 0
v -2 -7 0
v -3 -7 0
v -3 -6 0
v -2 -6 0
v -3 -7 0
v -4 -7 0
v -4 -6 0
v -3 -6 0
v -7 -7 0
v -8 -7 0
v -8 -6 0
v -7 -6 0
v -8 -7 0
v -9 -7 0
v -9 -6 0
v -8 -6 0
v -9 -7 0
v -10 -7 0
v -10 -6 0
v -9 -6 0
v -10 -7 0
v -11 -7 0
v -11 -6 0
v -10 -6 0
v -11 -7 0
v -12 -7 0
v -12 -6 0
v -11 -6 0
v -12 -7 0
v -13 -7 0
v -13 -6 0
v -12 -6 0
v -13 -7 0
v -14 -7 0
v -14 -6 0
v -13 -6 0
v -14 -7 0
v -15 -7 0
v -15 -6 0
v -14 -6 0
v -15 -7 0
v -16 -7 0
v -16 -6 0
v -15 -6 0
v -1 -8 0
v -2 -8 0
v -2 -7 0
v -1 -7 0
v -2 -8 0
v -3 -8 0
v -3 -7 0
v -2 -7 0
v -3 -8 0
v -4 -8 0
v -4 -7 0
v -3 -7 0
v -7 -8 0
v -8 -8 0
v -8 -7 0
v -7 -7 0
v -8 -8 0
v -9 -8 0
v -9 -7 0
v -8 -7 0
v -9 -8 0
v -10 -8 0
v -10 -7 0
v -9 -7 0
v -10 -8 0
v -11 -8 0
v -11 -7 0
v -10 -7 0
v -11 -8 0
v -12 -8 0
v -12 -7 0
v -11 -7 0
v -12 -8 0
v -13 -8 0
v -13 -7 0
v -12 -7 0
v -13 -8 0
v -14 -8 0
v -14 -7 0
v -13 -7 0
v -14 -8 0
v -15 -8 0
v -15 -7 0
v -14 -7 0
v -15 -8 0
v -16 -8 0
v -16 -7 0
v -15 -7 0
v -1 -9 0
v -2 -9 0
v -2 -8 0
v -1 -8 0
v -2 -9 0
v -3 -9 0
v -3 -8 0
v -2 -8 0
v -3 -9 0
v -4 -9 0
v -4 -8 0
v -3 -8 0
v -7 -9 0
v -8 -9 0
v -8 -8 0
v -7 -8 0
v -8 -9 0
v -9 -9 0
v -9 -8 0
v -8 -8 0
v -9 -9 0
v -10 -9 0
v -10 -8 0
v -9 -8 0
v -10 -9 0
v -11 -9 0
v -11 -8 0
v -10 -8 0
v -11 -9 0
v -12 -9 0
v -12 -8 0
v -11 -8 0
v -12 -9 0
v -13 -9 0
v -13 -8 0
v -12 -8 0
v -13 -9 0
v -14 -9 0
v -14 -8 0
v -13 -8 0
v -14 -9 0
v -15 -9 0
v -15 -8 0
v -14 -8 0
v -15 -9 0
v -16 -9 0
v -16 -8 0
v -15 -8 0
v -1 -10 0
v -2 -10 0
v -2 -9 0
v -1 -9 0
v -2 -10 0
v -3 -10 0
v -3 -9 0
v -2 -9 0
v -3 -10 0
v -4 -10 0
v -4 -9 0
v -3 -9 0
v -7 -10 0
v -8 -10 0
v -8 -9 0
v -7 -9 0
v -8 -10 0
v -9 -10 0
v -9 -9 0
v -8 -9 0
v -9 -10 0
v -10 -10 0
v -10 -9 0
v -9 -9 0
v -10 -10 0
v -11 -10 0
v -11 -9 0
v -10 -9 0
v -11 -10 0
v -12 -10 0
v -12 -9 0
v -11 -9 0
v -12 -10 0
v -13 -10 0
v -13 -9 0
v -12 -9 0
v -13 -10 0
v -14 -10 0
v -14 -9 0
v -13 -9 0
v -14 -10 0
v -15 -10 0
v -15 -9 0
v -14 -9 0
v -15 -10 0
v -16 -10 0
v -16 -9 0
v -15 -9 0
v -1 -11 0
v -2 -11 0
v -2 -10 0
v -1 -10 0
v -2 -11 0
v -3 -11 0
v -3 -10 0
v -2 -10 0
v -3 -11 0
v -4 -11 0
v -4 -10 0
v -3 -10 0
v -7 -11 0
v -8 -11 0
v -8 -10 0
v -7 -10 0
v -8 -11 0
v -9 -11 0
v -9 -10 0
v -8 -10 0
v -9 -11 0
v -10 -11 0
v -10 -10 0
v -9 -10 0
v -10 -11 0
v -11 -11 0
v -11 -10 0
v -10 -10 0
v -11 -11 0
v -12 -11 0
v -12 -10 0
v -11 -10 0
v -12 -11 0
v -13 -11 0
v -13 -10 0
v -12 -10 0
v -13 -11 0
v -14 -11 0
v -14 -10 0
v -13 -10 0
v -14 -11 0
v -15 -11 0
v -15 -10 0
v -14 -10 0
v -15 -11 0
v -16 -11 0
v -16 -10 0
v -15 -10 0
v -1 -12 0
v -2 -12 0
v -2 -11 0
v -1 -11 0
v -2 -12 0
v -3 -12 0
v -3 -11 0
v -2 -11 0
v -3 -12 0
v -4 -12 0
v -4 -11 0
v -3 -11 0
v -7 -12 0
v -8 -12 0
v -8 -11 0
v -7 -11 0
v -8 -12 0
v -9 -12 0
v -9 -11 0
v -8 -11 0
v -9 -12 0
v -10 -12 0
v -10 -11 0
v -9 -11 0
v -10 -12 0
v -11 -12 0
v -11 -11 0
v -10 -11 0
v -11 -12 0
v -12 -12 0
v -12 -11 0
v -11 -11 0
v -12 -12 0
v -13 -12 0
v -13 -11 0
v -12 -11 0
v -13 -12 0
v -14 -12 0
v -14 -11 0
v -13 -11 0
v -14 -12 0
v -15 -12 0
v -15 -11 0
v -14 -11 0
v -15 -12 0
v -16 -12 0
v -16 -11 0
v -15 -11 0
v -1 -13 0
v -2 -13 0
v -2 -12 0
v -1 -12 0
v -2 -13 0
v -3 -13 0
v -3 -12 0
v -2 -12 0
v -3 -13 0
v -4 -13 0
v -4 -12 0
v -3 -12 0
v -7 -13 0
v -8 -13 0
v -8 -12 0
v -7 -12 0
v -8 -13 0
v -9 -13 0
v -9 -12 0
v -8 -12 0
v -9 -13 0
v -10 -13 0
v -10 -12 0
v -9 -12 0
v -10 -13 0
v -11 -13 0
v -11 -12 0
v -10 -12 0
v -11 -13 0
v -12 -13 0
v -12 -12 0
v -11 -12 0
v -12 -13 0
v -13 -13 0
v -13 -12 0
v -12 -12 0
v -13 -13 0
v -14 -13 0
v -14 -12 0
v -13 -12 0
v -14 -13 0
v -15 -13 0
v -15 -12 0
v -14 -12 0
v -15 -13 0
v -16 -13 0
v -16 -12 0
v -15 -12 0
v 0 -14 0
v -1 -14 0
v -1 -13 0
v 0 -13 0
v -1 -14 0
v -2 -14 0
v -2 -13 0
v -1 -13 0
v -2 -14 0
v -3 -14 0
v -3 -13 0
v -2 -13 0
v -3 -14 0
v -4 -14 0
v -4 -13 0
v -3 -13 0
v -7 -14 0
v -8 -14 0
v -8 -13 0
v -7 -13 0
v -8 -14 0
v -9 -14 0
v -9 -13 0
v -8 -13 0
v -9 -14 0
v -10 -14 0
v -10 -13 0
v -9 -13 0
v -10 -14 0
v -11 -14 0
v -11 -13 0
v -10 -13 0
v -11 -14 0
v -12 -14 0
v -12 -13 0
v -11 -13 0
v -12 -14 0
v -13 -14 0
v -13 -13 0
v -12 -13 0
v -13 -14 0
v -14 -14 0
v -14 -13 0
v -13 -13 0
v -14 -14 0
v -15 -14 0
v -15 -13 0
v -14 -13 0
v -15 -14 0
v -16 -14 0
v -16 -13 0
v -15 -13 0
v 0 -15 0
v -1 -15 0
v -1 -14 0
v 0 -14 0
v -1 -15 0
v -2 -15 0
v -2 -14 0
v -1 -14 0
v -2 -15 0
v -3 -15 0
v -3 -14 0
v -2 -14 0
v -3 -15 0
v -4 -15 0
v -4 -14 0
v -3 -14 0
v -7 -15 0
v -8 -15 0
v -8 -14 0
v -7 -14 0
v -8 -15 0
v -9 -15 0
v -9 -14 0
v -8 -14 0
v -9 -15 0
v -10 -15 0
v -10 -14 0
v -9 -14 0
v -10 -15 0
v -11 -15 0
v -11 -14 0
v -10 -14 0
v -11 -15 0
v -12 -15 0
v -12 -14 0
v -11 -14 0
v -12 -15 0
v -13 -15 0
v -13 -14 0
v -12 -14 0
v -13 -15 0
v -14 -15 0
v -14 -14 0
v -13 -14 0
v -14 -15 0
v -15 -15 0
v -15 -14 0
v -14 -14 0
v -15 -15 0
v -16 -15 0
v -16 -14 0
v -15 -14 0
v 0 -16 0
v -1 -16 0
v -1 -15 0
v 0 -15 0
v -1 -16 0
v -2 -16 0
v -2 -15 0
v -1 -15 0
v -2 -16 0
v -3 -16 0
v -3 -15 0
v -2 -15 0
v -3 -16 0
v -4 -16 0
v -4 -15 0
v -3 -15 0
v -7 -16 0
v -8 -16 0
v -8 -15 0
v -7 -15 0
v -8 -16 0
v -9 -16 0
v -9 -15 0
v -8 -15 0
v -9 -16 0
v -10 -16 0
v -10 -15 0
v -9 -15 0
v -10 -16 0
v -11 -16 0
v -11 -15 0
v -10 -15 0
v -11 -16 0
v -12 -16 0
v -12 -15 0
v -11 -15 0
v -12 -16 0
v -13 -16 0
v -13 -15 0
v -12 -15 0
v -13 -16 0
v -14 -16 0
v -14 -15 0
v -13 -15 0
v -14 -16 0
v -15 -16 0
v -15 -15 0
v -14 -15 0
v -15 -16 0
v -16 -16 0
v -16 -15 0
v -15 -15 0

# Texture cooridinates (Count = 25)
vt 0 0.6666666
vt 0.1 0.6666666
vt 0.1 0.7777778
vt 0 0.7777778
vt 0.2 0.7777778
vt 0.2 0.8888889
vt 0.1 0.8888889
vt 0.3 0.7777778
vt 0.3 0.8888889
vt 0.2 0.6666666
vt 0.3 0.6666666
vt 0.4 0.7777778
vt 0.5 0.7777778
vt 0.5 0.8888889
vt 0.4 0.8888889
vt 0.4 0.5555556
vt 0.5 0.5555556
vt 0.5 0.6666666
vt 0.4 0.6666666
vt 0.5 0.4444444
vt 0.6 0.4444444
vt 0.6 0.5555556
vt 0.6 0.6666666
vt 0.4 0.4444444
vt 0 0.8888889

# Normal
vn 0 0 -1

# Mesh description
g Map_Master_mesh_0151

# Faces
f 1/1/1 2/2/1 3/3/1 4/4/1
f 5/3/1 6/5/1 7/6/1 8/7/1
f 9/5/1 10/8/1 11/9/1 12/6/1
f 13/1/1 14/2/1 15/3/1 16/4/1
f 17/3/1 18/5/1 19/6/1 20/7/1
f 21/3/1 22/5/1 23/6/1 24/7/1
f 25/3/1 26/5/1 27/6/1 28/7/1
f 29/3/1 30/5/1 31/6/1 32/7/1
f 33/3/1 34/5/1 35/6/1 36/7/1
f 37/3/1 38/5/1 39/6/1 40/7/1
f 41/1/1 42/2/1 43/3/1 44/4/1
f 45/2/1 46/10/1 47/5/1 48/3/1
f 49/10/1 50/11/1 51/8/1 52/5/1
f 53/1/1 54/2/1 55/3/1 56/4/1
f 57/3/1 58/5/1 59/6/1 60/7/1
f 61/12/1 62/13/1 63/14/1 64/15/1
f 65/2/1 66/10/1 67/5/1 68/3/1
f 69/2/1 70/10/1 71/5/1 72/3/1
f 73/2/1 74/10/1 75/5/1 76/3/1
f 77/2/1 78/10/1 79/5/1 80/3/1
f 81/2/1 82/10/1 83/5/1 84/3/1
f 85/2/1 86/10/1 87/5/1 88/3/1
f 89/1/1 90/2/1 91/3/1 92/4/1
f 93/16/1 94/17/1 95/18/1 96/19/1
f 97/10/1 98/11/1 99/8/1 100/5/1
f 101/1/1 102/2/1 103/3/1 104/4/1
f 105/2/1 106/10/1 107/5/1 108/3/1
f 109/2/1 110/10/1 111/5/1 112/3/1
f 113/2/1 114/10/1 115/5/1 116/3/1
f 117/2/1 118/10/1 119/5/1 120/3/1
f 121/2/1 122/10/1 123/5/1 124/3/1
f 125/2/1 126/10/1 127/5/1 128/3/1
f 129/2/1 130/10/1 131/5/1 132/3/1
f 133/2/1 134/10/1 135/5/1 136/3/1
f 137/1/1 138/2/1 139/3/1 140/4/1
f 141/2/1 142/10/1 143/5/1 144/3/1
f 145/10/1 146/11/1 147/8/1 148/5/1
f 149/1/1 150/2/1 151/3/1 152/4/1
f 153/2/1 154/10/1 155/5/1 156/3/1
f 157/2/1 158/10/1 159/5/1 160/3/1
f 161/2/1 162/10/1 163/5/1 164/3/1
f 165/2/1 166/10/1 167/5/1 168/3/1
f 169/16/1 170/17/1 171/18/1 172/19/1
f 173/2/1 174/10/1 175/5/1 176/3/1
f 177/2/1 178/10/1 179/5/1 180/3/1
f 181/2/1 182/10/1 183/5/1 184/3/1
f 185/1/1 186/2/1 187/3/1 188/4/1
f 189/20/1 190/21/1 191/22/1 192/17/1
f 193/10/1 194/11/1 195/8/1 196/5/1
f 197/1/1 198/2/1 199/3/1 200/4/1
f 201/2/1 202/10/1 203/5/1 204/3/1
f 205/17/1 206/22/1 207/23/1 208/18/1
f 209/2/1 210/10/1 211/5/1 212/3/1
f 213/2/1 214/10/1 215/5/1 216/3/1
f 217/2/1 218/10/1 219/5/1 220/3/1
f 221/2/1 222/10/1 223/5/1 224/3/1
f 225/2/1 226/10/1 227/5/1 228/3/1
f 229/2/1 230/10/1 231/5/1 232/3/1
f 233/1/1 234/2/1 235/3/1 236/4/1
f 237/2/1 238/10/1 239/5/1 240/3/1
f 241/10/1 242/11/1 243/8/1 244/5/1
f 245/1/1 246/2/1 247/3/1 248/4/1
f 249/2/1 250/10/1 251/5/1 252/3/1
f 253/2/1 254/10/1 255/5/1 256/3/1
f 257/2/1 258/10/1 259/5/1 260/3/1
f 261/2/1 262/10/1 263/5/1 264/3/1
f 265/2/1 266/10/1 267/5/1 268/3/1
f 269/2/1 270/10/1 271/5/1 272/3/1
f 273/16/1 274/17/1 275/18/1 276/19/1
f 277/2/1 278/10/1 279/5/1 280/3/1
f 281/1/1 282/2/1 283/3/1 284/4/1
f 285/2/1 286/10/1 287/5/1 288/3/1
f 289/10/1 290/11/1 291/8/1 292/5/1
f 293/1/1 294/2/1 295/3/1 296/4/1
f 297/2/1 298/10/1 299/5/1 300/3/1
f 301/2/1 302/10/1 303/5/1 304/3/1
f 305/2/1 306/10/1 307/5/1 308/3/1
f 309/2/1 310/10/1 311/5/1 312/3/1
f 313/2/1 314/10/1 315/5/1 316/3/1
f 317/2/1 318/10/1 319/5/1 320/3/1
f 321/2/1 322/10/1 323/5/1 324/3/1
f 325/2/1 326/10/1 327/5/1 328/3/1
f 329/1/1 330/2/1 331/3/1 332/4/1
f 333/2/1 334/10/1 335/5/1 336/3/1
f 337/10/1 338/11/1 339/8/1 340/5/1
f 341/1/1 342/2/1 343/3/1 344/4/1
f 345/16/1 346/17/1 347/18/1 348/19/1
f 349/2/1 350/10/1 351/5/1 352/3/1
f 353/2/1 354/10/1 355/5/1 356/3/1
f 357/2/1 358/10/1 359/5/1 360/3/1
f 361/2/1 362/10/1 363/5/1 364/3/1
f 365/2/1 366/10/1 367/5/1 368/3/1
f 369/2/1 370/10/1 371/5/1 372/3/1
f 373/2/1 374/10/1 375/5/1 376/3/1
f 377/1/1 378/2/1 379/3/1 380/4/1
f 381/2/1 382/10/1 383/5/1 384/3/1
f 385/10/1 386/11/1 387/8/1 388/5/1
f 389/1/1 390/2/1 391/3/1 392/4/1
f 393/2/1 394/10/1 395/5/1 396/3/1
f 397/24/1 398/20/1 399/17/1 400/16/1
f 401/2/1 402/10/1 403/5/1 404/3/1
f 405/2/1 406/10/1 407/5/1 408/3/1
f 409/2/1 410/10/1 411/5/1 412/3/1
f 413/2/1 414/10/1 415/5/1 416/3/1
f 417/2/1 418/10/1 419/5/1 420/3/1
f 421/2/1 422/10/1 423/5/1 424/3/1
f 425/4/1 426/3/1 427/7/1 428/25/1
f 429/12/1 430/13/1 431/14/1 432/15/1
f 433/2/1 434/10/1 435/5/1 436/3/1
f 437/10/1 438/11/1 439/8/1 440/5/1
f 441/1/1 442/2/1 443/3/1 444/4/1
f 445/2/1 446/10/1 447/5/1 448/3/1
f 449/2/1 450/10/1 451/5/1 452/3/1
f 453/2/1 454/10/1 455/5/1 456/3/1
f 457/2/1 458/10/1 459/5/1 460/3/1
f 461/2/1 462/10/1 463/5/1 464/3/1
f 465/2/1 466/10/1 467/5/1 468/3/1
f 469/2/1 470/10/1 471/5/1 472/3/1
f 473/2/1 474/10/1 475/5/1 476/3/1
f 477/12/1 478/13/1 479/14/1 480/15/1
f 481/2/1 482/10/1 483/5/1 484/3/1
f 485/2/1 486/10/1 487/5/1 488/3/1
f 489/10/1 490/11/1 491/8/1 492/5/1
f 493/1/1 494/2/1 495/3/1 496/4/1
f 497/2/1 498/10/1 499/5/1 500/3/1
f 501/2/1 502/10/1 503/5/1 504/3/1
f 505/2/1 506/10/1 507/5/1 508/3/1
f 509/2/1 510/10/1 511/5/1 512/3/1
f 513/2/1 514/10/1 515/5/1 516/3/1
f 517/2/1 518/10/1 519/5/1 520/3/1
f 521/2/1 522/10/1 523/5/1 524/3/1
f 525/2/1 526/10/1 527/5/1 528/3/1
f 529/2/1 530/10/1 531/5/1 532/3/1
f 533/2/1 534/10/1 535/5/1 536/3/1
f 537/16/1 538/17/1 539/18/1 540/19/1
f 541/10/1 542/11/1 543/8/1 544/5/1
f 545/1/1 546/2/1 547/3/1 548/4/1
f 549/16/1 550/17/1 551/18/1 552/19/1
f 553/2/1 554/10/1 555/5/1 556/3/1
f 557/2/1 558/10/1 559/5/1 560/3/1
f 561/2/1 562/10/1 563/5/1 564/3/1
f 565/2/1 566/10/1 567/5/1 568/3/1
f 569/2/1 570/10/1 571/5/1 572/3/1
f 573/2/1 574/10/1 575/5/1 576/3/1
f 577/2/1 578/10/1 579/5/1 580/3/1

