# Tiled2Unity generated file. Do not modify by hand.
# Wavefront file for 'Map_Master_mesh_0191.obj'

# Vertices (Count = 20)
v -4 -11 0
v -5 -11 0
v -5 -10 0
v -4 -10 0
v -5 -11 0
v -6 -11 0
v -6 -10 0
v -5 -10 0
v -6 -11 0
v -7 -11 0
v -7 -10 0
v -6 -10 0
v -7 -11 0
v -8 -11 0
v -8 -10 0
v -7 -10 0
v -1 -15 0
v -2 -15 0
v -2 -14 0
v -1 -14 0

# Texture cooridinates (Count = 12)
vt 0.6 0.8888889
vt 0.7 0.8888889
vt 0.7 1
vt 0.6 1
vt 0.8 0.8888889
vt 0.8 1
vt 0.9 0.8888889
vt 0.9 1
vt 0.4 0.4444444
vt 0.5 0.4444444
vt 0.5 0.5555556
vt 0.4 0.5555556

# Normal
vn 0 0 -1

# Mesh description
g Map_Master_mesh_0191

# Faces
f 1/1/1 2/2/1 3/3/1 4/4/1
f 5/2/1 6/5/1 7/6/1 8/3/1
f 9/2/1 10/5/1 11/6/1 12/3/1
f 13/5/1 14/7/1 15/8/1 16/6/1
f 17/9/1 18/10/1 19/11/1 20/12/1

