# Tiled2Unity generated file. Do not modify by hand.
# Wavefront file for 'Map_Master_mesh_0317.obj'

# Vertices (Count = 488)
v -10 -4 0
v -11 -4 0
v -11 -3 0
v -10 -3 0
v -11 -4 0
v -12 -4 0
v -12 -3 0
v -11 -3 0
v -12 -4 0
v -13 -4 0
v -13 -3 0
v -12 -3 0
v -13 -4 0
v -14 -4 0
v -14 -3 0
v -13 -3 0
v -8 -5 0
v -9 -5 0
v -9 -4 0
v -8 -4 0
v -9 -5 0
v -10 -5 0
v -10 -4 0
v -9 -4 0
v -10 -5 0
v -11 -5 0
v -11 -4 0
v -10 -4 0
v -11 -5 0
v -12 -5 0
v -12 -4 0
v -11 -4 0
v -12 -5 0
v -13 -5 0
v -13 -4 0
v -12 -4 0
v -13 -5 0
v -14 -5 0
v -14 -4 0
v -13 -4 0
v -14 -5 0
v -15 -5 0
v -15 -4 0
v -14 -4 0
v -15 -5 0
v -16 -5 0
v -16 -4 0
v -15 -4 0
v 0 -6 0
v -1 -6 0
v -1 -5 0
v 0 -5 0
v -8 -6 0
v -9 -6 0
v -9 -5 0
v -8 -5 0
v -9 -6 0
v -10 -6 0
v -10 -5 0
v -9 -5 0
v -10 -6 0
v -11 -6 0
v -11 -5 0
v -10 -5 0
v -11 -6 0
v -12 -6 0
v -12 -5 0
v -11 -5 0
v -12 -6 0
v -13 -6 0
v -13 -5 0
v -12 -5 0
v -13 -6 0
v -14 -6 0
v -14 -5 0
v -13 -5 0
v -14 -6 0
v -15 -6 0
v -15 -5 0
v -14 -5 0
v -15 -6 0
v -16 -6 0
v -16 -5 0
v -15 -5 0
v 0 -7 0
v -1 -7 0
v -1 -6 0
v 0 -6 0
v -1 -7 0
v -2 -7 0
v -2 -6 0
v -1 -6 0
v -8 -7 0
v -9 -7 0
v -9 -6 0
v -8 -6 0
v -9 -7 0
v -10 -7 0
v -10 -6 0
v -9 -6 0
v -10 -7 0
v -11 -7 0
v -11 -6 0
v -10 -6 0
v -11 -7 0
v -12 -7 0
v -12 -6 0
v -11 -6 0
v -12 -7 0
v -13 -7 0
v -13 -6 0
v -12 -6 0
v -13 -7 0
v -14 -7 0
v -14 -6 0
v -13 -6 0
v -14 -7 0
v -15 -7 0
v -15 -6 0
v -14 -6 0
v -15 -7 0
v -16 -7 0
v -16 -6 0
v -15 -6 0
v 0 -8 0
v -1 -8 0
v -1 -7 0
v 0 -7 0
v -1 -8 0
v -2 -8 0
v -2 -7 0
v -1 -7 0
v -8 -8 0
v -9 -8 0
v -9 -7 0
v -8 -7 0
v -9 -8 0
v -10 -8 0
v -10 -7 0
v -9 -7 0
v -10 -8 0
v -11 -8 0
v -11 -7 0
v -10 -7 0
v -11 -8 0
v -12 -8 0
v -12 -7 0
v -11 -7 0
v -12 -8 0
v -13 -8 0
v -13 -7 0
v -12 -7 0
v -13 -8 0
v -14 -8 0
v -14 -7 0
v -13 -7 0
v -14 -8 0
v -15 -8 0
v -15 -7 0
v -14 -7 0
v -15 -8 0
v -16 -8 0
v -16 -7 0
v -15 -7 0
v 0 -9 0
v -1 -9 0
v -1 -8 0
v 0 -8 0
v -8 -9 0
v -9 -9 0
v -9 -8 0
v -8 -8 0
v -9 -9 0
v -10 -9 0
v -10 -8 0
v -9 -8 0
v -10 -9 0
v -11 -9 0
v -11 -8 0
v -10 -8 0
v -11 -9 0
v -12 -9 0
v -12 -8 0
v -11 -8 0
v -12 -9 0
v -13 -9 0
v -13 -8 0
v -12 -8 0
v -13 -9 0
v -14 -9 0
v -14 -8 0
v -13 -8 0
v -14 -9 0
v -15 -9 0
v -15 -8 0
v -14 -8 0
v -15 -9 0
v -16 -9 0
v -16 -8 0
v -15 -8 0
v 0 -10 0
v -1 -10 0
v -1 -9 0
v 0 -9 0
v -8 -10 0
v -9 -10 0
v -9 -9 0
v -8 -9 0
v -9 -10 0
v -10 -10 0
v -10 -9 0
v -9 -9 0
v -10 -10 0
v -11 -10 0
v -11 -9 0
v -10 -9 0
v -11 -10 0
v -12 -10 0
v -12 -9 0
v -11 -9 0
v -12 -10 0
v -13 -10 0
v -13 -9 0
v -12 -9 0
v -13 -10 0
v -14 -10 0
v -14 -9 0
v -13 -9 0
v -14 -10 0
v -15 -10 0
v -15 -9 0
v -14 -9 0
v -15 -10 0
v -16 -10 0
v -16 -9 0
v -15 -9 0
v 0 -11 0
v -1 -11 0
v -1 -10 0
v 0 -10 0
v -8 -11 0
v -9 -11 0
v -9 -10 0
v -8 -10 0
v -9 -11 0
v -10 -11 0
v -10 -10 0
v -9 -10 0
v -10 -11 0
v -11 -11 0
v -11 -10 0
v -10 -10 0
v -11 -11 0
v -12 -11 0
v -12 -10 0
v -11 -10 0
v -12 -11 0
v -13 -11 0
v -13 -10 0
v -12 -10 0
v -13 -11 0
v -14 -11 0
v -14 -10 0
v -13 -10 0
v -14 -11 0
v -15 -11 0
v -15 -10 0
v -14 -10 0
v -15 -11 0
v -16 -11 0
v -16 -10 0
v -15 -10 0
v 0 -12 0
v -1 -12 0
v -1 -11 0
v 0 -11 0
v -8 -12 0
v -9 -12 0
v -9 -11 0
v -8 -11 0
v -9 -12 0
v -10 -12 0
v -10 -11 0
v -9 -11 0
v -10 -12 0
v -11 -12 0
v -11 -11 0
v -10 -11 0
v -11 -12 0
v -12 -12 0
v -12 -11 0
v -11 -11 0
v -12 -12 0
v -13 -12 0
v -13 -11 0
v -12 -11 0
v -13 -12 0
v -14 -12 0
v -14 -11 0
v -13 -11 0
v -14 -12 0
v -15 -12 0
v -15 -11 0
v -14 -11 0
v -15 -12 0
v -16 -12 0
v -16 -11 0
v -15 -11 0
v 0 -13 0
v -1 -13 0
v -1 -12 0
v 0 -12 0
v -1 -13 0
v -2 -13 0
v -2 -12 0
v -1 -12 0
v -4 -13 0
v -5 -13 0
v -5 -12 0
v -4 -12 0
v -5 -13 0
v -6 -13 0
v -6 -12 0
v -5 -12 0
v -9 -13 0
v -10 -13 0
v -10 -12 0
v -9 -12 0
v -10 -13 0
v -11 -13 0
v -11 -12 0
v -10 -12 0
v -11 -13 0
v -12 -13 0
v -12 -12 0
v -11 -12 0
v -12 -13 0
v -13 -13 0
v -13 -12 0
v -12 -12 0
v -13 -13 0
v -14 -13 0
v -14 -12 0
v -13 -12 0
v -14 -13 0
v -15 -13 0
v -15 -12 0
v -14 -12 0
v 0 -14 0
v -1 -14 0
v -1 -13 0
v 0 -13 0
v -1 -14 0
v -2 -14 0
v -2 -13 0
v -1 -13 0
v -4 -14 0
v -5 -14 0
v -5 -13 0
v -4 -13 0
v -5 -14 0
v -6 -14 0
v -6 -13 0
v -5 -13 0
v -6 -14 0
v -7 -14 0
v -7 -13 0
v -6 -13 0
v -7 -14 0
v -8 -14 0
v -8 -13 0
v -7 -13 0
v -9 -14 0
v -10 -14 0
v -10 -13 0
v -9 -13 0
v -10 -14 0
v -11 -14 0
v -11 -13 0
v -10 -13 0
v -11 -14 0
v -12 -14 0
v -12 -13 0
v -11 -13 0
v -12 -14 0
v -13 -14 0
v -13 -13 0
v -12 -13 0
v -13 -14 0
v -14 -14 0
v -14 -13 0
v -13 -13 0
v -14 -14 0
v -15 -14 0
v -15 -13 0
v -14 -13 0
v 0 -15 0
v -1 -15 0
v -1 -14 0
v 0 -14 0
v -1 -15 0
v -2 -15 0
v -2 -14 0
v -1 -14 0
v -4 -15 0
v -5 -15 0
v -5 -14 0
v -4 -14 0
v -5 -15 0
v -6 -15 0
v -6 -14 0
v -5 -14 0
v -6 -15 0
v -7 -15 0
v -7 -14 0
v -6 -14 0
v -7 -15 0
v -8 -15 0
v -8 -14 0
v -7 -14 0
v -9 -15 0
v -10 -15 0
v -10 -14 0
v -9 -14 0
v -10 -15 0
v -11 -15 0
v -11 -14 0
v -10 -14 0
v -11 -15 0
v -12 -15 0
v -12 -14 0
v -11 -14 0
v -12 -15 0
v -13 -15 0
v -13 -14 0
v -12 -14 0
v -13 -15 0
v -14 -15 0
v -14 -14 0
v -13 -14 0
v -14 -15 0
v -15 -15 0
v -15 -14 0
v -14 -14 0
v 0 -16 0
v -1 -16 0
v -1 -15 0
v 0 -15 0
v -1 -16 0
v -2 -16 0
v -2 -15 0
v -1 -15 0
v -5 -16 0
v -6 -16 0
v -6 -15 0
v -5 -15 0
v -6 -16 0
v -7 -16 0
v -7 -15 0
v -6 -15 0
v -7 -16 0
v -8 -16 0
v -8 -15 0
v -7 -15 0
v -9 -16 0
v -10 -16 0
v -10 -15 0
v -9 -15 0
v -10 -16 0
v -11 -16 0
v -11 -15 0
v -10 -15 0
v -11 -16 0
v -12 -16 0
v -12 -15 0
v -11 -15 0
v -12 -16 0
v -13 -16 0
v -13 -15 0
v -12 -15 0
v -13 -16 0
v -14 -16 0
v -14 -15 0
v -13 -15 0
v -14 -16 0
v -15 -16 0
v -15 -15 0
v -14 -15 0

# Texture cooridinates (Count = 22)
vt 0 0.8333333
vt 0.1111111 0.8333333
vt 0.1111111 1
vt 0 1
vt 0.2222222 0.8333333
vt 0.2222222 1
vt 0.3333333 0.8333333
vt 0.3333333 1
vt 0.4444444 0.6666666
vt 0.5555556 0.6666666
vt 0.5555556 0.8333333
vt 0.4444444 0.8333333
vt 0.1111111 0.6666666
vt 0.2222222 0.6666666
vt 0.3333333 0.6666666
vt 0 0.6666666
vt 0.4444444 1
vt 0.2222222 0.5
vt 0.3333333 0.5
vt 0 0.5
vt 0.1111111 0.5
vt 0.5555556 1

# Normal
vn 0 0 -1

# Mesh description
g Map_Master_mesh_0317

# Faces
f 1/1/1 2/2/1 3/3/1 4/4/1
f 5/2/1 6/5/1 7/6/1 8/3/1
f 9/2/1 10/5/1 11/6/1 12/3/1
f 13/5/1 14/7/1 15/8/1 16/6/1
f 17/1/1 18/2/1 19/3/1 20/4/1
f 21/2/1 22/5/1 23/6/1 24/3/1
f 25/9/1 26/10/1 27/11/1 28/12/1
f 29/13/1 30/14/1 31/5/1 32/2/1
f 33/13/1 34/14/1 35/5/1 36/2/1
f 37/15/1 38/9/1 39/12/1 40/7/1
f 41/2/1 42/5/1 43/6/1 44/3/1
f 45/5/1 46/7/1 47/8/1 48/6/1
f 49/5/1 50/7/1 51/8/1 52/6/1
f 53/16/1 54/13/1 55/2/1 56/1/1
f 57/13/1 58/14/1 59/5/1 60/2/1
f 61/13/1 62/14/1 63/5/1 64/2/1
f 65/13/1 66/14/1 67/5/1 68/2/1
f 69/13/1 70/14/1 71/5/1 72/2/1
f 73/13/1 74/14/1 75/5/1 76/2/1
f 77/13/1 78/14/1 79/5/1 80/2/1
f 81/14/1 82/15/1 83/7/1 84/5/1
f 85/15/1 86/9/1 87/12/1 88/7/1
f 89/5/1 90/7/1 91/8/1 92/6/1
f 93/16/1 94/13/1 95/2/1 96/1/1
f 97/13/1 98/14/1 99/5/1 100/2/1
f 101/13/1 102/14/1 103/5/1 104/2/1
f 105/13/1 106/14/1 107/5/1 108/2/1
f 109/13/1 110/14/1 111/5/1 112/2/1
f 113/13/1 114/14/1 115/5/1 116/2/1
f 117/13/1 118/14/1 119/5/1 120/2/1
f 121/14/1 122/15/1 123/7/1 124/5/1
f 125/7/1 126/12/1 127/17/1 128/8/1
f 129/18/1 130/19/1 131/15/1 132/14/1
f 133/16/1 134/13/1 135/2/1 136/1/1
f 137/13/1 138/14/1 139/5/1 140/2/1
f 141/13/1 142/14/1 143/5/1 144/2/1
f 145/13/1 146/14/1 147/5/1 148/2/1
f 149/13/1 150/14/1 151/5/1 152/2/1
f 153/13/1 154/14/1 155/5/1 156/2/1
f 157/13/1 158/14/1 159/5/1 160/2/1
f 161/14/1 162/15/1 163/7/1 164/5/1
f 165/14/1 166/15/1 167/7/1 168/5/1
f 169/16/1 170/13/1 171/2/1 172/1/1
f 173/13/1 174/14/1 175/5/1 176/2/1
f 177/13/1 178/14/1 179/5/1 180/2/1
f 181/13/1 182/14/1 183/5/1 184/2/1
f 185/13/1 186/14/1 187/5/1 188/2/1
f 189/13/1 190/14/1 191/5/1 192/2/1
f 193/13/1 194/14/1 195/5/1 196/2/1
f 197/14/1 198/15/1 199/7/1 200/5/1
f 201/14/1 202/15/1 203/7/1 204/5/1
f 205/16/1 206/13/1 207/2/1 208/1/1
f 209/13/1 210/14/1 211/5/1 212/2/1
f 213/13/1 214/14/1 215/5/1 216/2/1
f 217/13/1 218/14/1 219/5/1 220/2/1
f 221/13/1 222/14/1 223/5/1 224/2/1
f 225/13/1 226/14/1 227/5/1 228/2/1
f 229/13/1 230/14/1 231/5/1 232/2/1
f 233/14/1 234/15/1 235/7/1 236/5/1
f 237/14/1 238/15/1 239/7/1 240/5/1
f 241/16/1 242/13/1 243/2/1 244/1/1
f 245/13/1 246/14/1 247/5/1 248/2/1
f 249/13/1 250/14/1 251/5/1 252/2/1
f 253/13/1 254/14/1 255/5/1 256/2/1
f 257/13/1 258/14/1 259/5/1 260/2/1
f 261/13/1 262/14/1 263/5/1 264/2/1
f 265/13/1 266/14/1 267/5/1 268/2/1
f 269/14/1 270/15/1 271/7/1 272/5/1
f 273/14/1 274/15/1 275/7/1 276/5/1
f 277/20/1 278/21/1 279/13/1 280/16/1
f 281/12/1 282/11/1 283/22/1 284/17/1
f 285/13/1 286/14/1 287/5/1 288/2/1
f 289/13/1 290/14/1 291/5/1 292/2/1
f 293/13/1 294/14/1 295/5/1 296/2/1
f 297/13/1 298/14/1 299/5/1 300/2/1
f 301/7/1 302/12/1 303/17/1 304/8/1
f 305/18/1 306/19/1 307/15/1 308/14/1
f 309/15/1 310/9/1 311/12/1 312/7/1
f 313/5/1 314/7/1 315/8/1 316/6/1
f 317/1/1 318/2/1 319/3/1 320/4/1
f 321/5/1 322/7/1 323/8/1 324/6/1
f 325/16/1 326/13/1 327/2/1 328/1/1
f 329/13/1 330/14/1 331/5/1 332/2/1
f 333/13/1 334/14/1 335/5/1 336/2/1
f 337/13/1 338/14/1 339/5/1 340/2/1
f 341/13/1 342/14/1 343/5/1 344/2/1
f 345/14/1 346/15/1 347/7/1 348/5/1
f 349/13/1 350/14/1 351/5/1 352/2/1
f 353/14/1 354/15/1 355/7/1 356/5/1
f 357/16/1 358/13/1 359/2/1 360/1/1
f 361/15/1 362/9/1 363/12/1 364/7/1
f 365/2/1 366/5/1 367/6/1 368/3/1
f 369/5/1 370/7/1 371/8/1 372/6/1
f 373/16/1 374/13/1 375/2/1 376/1/1
f 377/13/1 378/14/1 379/5/1 380/2/1
f 381/13/1 382/14/1 383/5/1 384/2/1
f 385/13/1 386/14/1 387/5/1 388/2/1
f 389/13/1 390/14/1 391/5/1 392/2/1
f 393/14/1 394/15/1 395/7/1 396/5/1
f 397/13/1 398/14/1 399/5/1 400/2/1
f 401/14/1 402/15/1 403/7/1 404/5/1
f 405/20/1 406/21/1 407/13/1 408/16/1
f 409/12/1 410/11/1 411/22/1 412/17/1
f 413/13/1 414/14/1 415/5/1 416/2/1
f 417/14/1 418/15/1 419/7/1 420/5/1
f 421/16/1 422/13/1 423/2/1 424/1/1
f 425/13/1 426/14/1 427/5/1 428/2/1
f 429/13/1 430/14/1 431/5/1 432/2/1
f 433/13/1 434/14/1 435/5/1 436/2/1
f 437/13/1 438/14/1 439/5/1 440/2/1
f 441/14/1 442/15/1 443/7/1 444/5/1
f 445/13/1 446/14/1 447/5/1 448/2/1
f 449/14/1 450/15/1 451/7/1 452/5/1
f 453/20/1 454/21/1 455/13/1 456/16/1
f 457/21/1 458/18/1 459/14/1 460/13/1
f 461/18/1 462/19/1 463/15/1 464/14/1
f 465/16/1 466/13/1 467/2/1 468/1/1
f 469/13/1 470/14/1 471/5/1 472/2/1
f 473/13/1 474/14/1 475/5/1 476/2/1
f 477/13/1 478/14/1 479/5/1 480/2/1
f 481/13/1 482/14/1 483/5/1 484/2/1
f 485/14/1 486/15/1 487/7/1 488/5/1

