# Tiled2Unity generated file. Do not modify by hand.
# Wavefront file for 'Map_Master_mesh_0175.obj'

# Vertices (Count = 456)
v -5 -1 0
v -6 -1 0
v -6 0 0
v -5 0 0
v -6 -1 0
v -7 -1 0
v -7 0 0
v -6 0 0
v -7 -1 0
v -8 -1 0
v -8 0 0
v -7 0 0
v -8 -1 0
v -9 -1 0
v -9 0 0
v -8 0 0
v -9 -1 0
v -10 -1 0
v -10 0 0
v -9 0 0
v 0 -2 0
v -1 -2 0
v -1 -1 0
v 0 -1 0
v -4 -2 0
v -5 -2 0
v -5 -1 0
v -4 -1 0
v -5 -2 0
v -6 -2 0
v -6 -1 0
v -5 -1 0
v -6 -2 0
v -7 -2 0
v -7 -1 0
v -6 -1 0
v -7 -2 0
v -8 -2 0
v -8 -1 0
v -7 -1 0
v -8 -2 0
v -9 -2 0
v -9 -1 0
v -8 -1 0
v -9 -2 0
v -10 -2 0
v -10 -1 0
v -9 -1 0
v 0 -3 0
v -1 -3 0
v -1 -2 0
v 0 -2 0
v -2 -3 0
v -3 -3 0
v -3 -2 0
v -2 -2 0
v -4 -3 0
v -5 -3 0
v -5 -2 0
v -4 -2 0
v -5 -3 0
v -6 -3 0
v -6 -2 0
v -5 -2 0
v -6 -3 0
v -7 -3 0
v -7 -2 0
v -6 -2 0
v -7 -3 0
v -8 -3 0
v -8 -2 0
v -7 -2 0
v -8 -3 0
v -9 -3 0
v -9 -2 0
v -8 -2 0
v -9 -3 0
v -10 -3 0
v -10 -2 0
v -9 -2 0
v -10 -3 0
v -11 -3 0
v -11 -2 0
v -10 -2 0
v -11 -3 0
v -12 -3 0
v -12 -2 0
v -11 -2 0
v -12 -3 0
v -13 -3 0
v -13 -2 0
v -12 -2 0
v -13 -3 0
v -14 -3 0
v -14 -2 0
v -13 -2 0
v -14 -3 0
v -15 -3 0
v -15 -2 0
v -14 -2 0
v -15 -3 0
v -16 -3 0
v -16 -2 0
v -15 -2 0
v 0 -4 0
v -1 -4 0
v -1 -3 0
v 0 -3 0
v -4 -4 0
v -5 -4 0
v -5 -3 0
v -4 -3 0
v -5 -4 0
v -6 -4 0
v -6 -3 0
v -5 -3 0
v -6 -4 0
v -7 -4 0
v -7 -3 0
v -6 -3 0
v -7 -4 0
v -8 -4 0
v -8 -3 0
v -7 -3 0
v -8 -4 0
v -9 -4 0
v -9 -3 0
v -8 -3 0
v -9 -4 0
v -10 -4 0
v -10 -3 0
v -9 -3 0
v -10 -4 0
v -11 -4 0
v -11 -3 0
v -10 -3 0
v -11 -4 0
v -12 -4 0
v -12 -3 0
v -11 -3 0
v -12 -4 0
v -13 -4 0
v -13 -3 0
v -12 -3 0
v -13 -4 0
v -14 -4 0
v -14 -3 0
v -13 -3 0
v -14 -4 0
v -15 -4 0
v -15 -3 0
v -14 -3 0
v -15 -4 0
v -16 -4 0
v -16 -3 0
v -15 -3 0
v -5 -5 0
v -6 -5 0
v -6 -4 0
v -5 -4 0
v -6 -5 0
v -7 -5 0
v -7 -4 0
v -6 -4 0
v -7 -5 0
v -8 -5 0
v -8 -4 0
v -7 -4 0
v -8 -5 0
v -9 -5 0
v -9 -4 0
v -8 -4 0
v -9 -5 0
v -10 -5 0
v -10 -4 0
v -9 -4 0
v -10 -5 0
v -11 -5 0
v -11 -4 0
v -10 -4 0
v -11 -5 0
v -12 -5 0
v -12 -4 0
v -11 -4 0
v -12 -5 0
v -13 -5 0
v -13 -4 0
v -12 -4 0
v -13 -5 0
v -14 -5 0
v -14 -4 0
v -13 -4 0
v -14 -5 0
v -15 -5 0
v -15 -4 0
v -14 -4 0
v -15 -5 0
v -16 -5 0
v -16 -4 0
v -15 -4 0
v -7 -6 0
v -8 -6 0
v -8 -5 0
v -7 -5 0
v -8 -6 0
v -9 -6 0
v -9 -5 0
v -8 -5 0
v -9 -6 0
v -10 -6 0
v -10 -5 0
v -9 -5 0
v -10 -6 0
v -11 -6 0
v -11 -5 0
v -10 -5 0
v -11 -6 0
v -12 -6 0
v -12 -5 0
v -11 -5 0
v -12 -6 0
v -13 -6 0
v -13 -5 0
v -12 -5 0
v -13 -6 0
v -14 -6 0
v -14 -5 0
v -13 -5 0
v -14 -6 0
v -15 -6 0
v -15 -5 0
v -14 -5 0
v -8 -7 0
v -9 -7 0
v -9 -6 0
v -8 -6 0
v -9 -7 0
v -10 -7 0
v -10 -6 0
v -9 -6 0
v -10 -7 0
v -11 -7 0
v -11 -6 0
v -10 -6 0
v -11 -7 0
v -12 -7 0
v -12 -6 0
v -11 -6 0
v -12 -7 0
v -13 -7 0
v -13 -6 0
v -12 -6 0
v -13 -7 0
v -14 -7 0
v -14 -6 0
v -13 -6 0
v -14 -7 0
v -15 -7 0
v -15 -6 0
v -14 -6 0
v -8 -8 0
v -9 -8 0
v -9 -7 0
v -8 -7 0
v -9 -8 0
v -10 -8 0
v -10 -7 0
v -9 -7 0
v -10 -8 0
v -11 -8 0
v -11 -7 0
v -10 -7 0
v -11 -8 0
v -12 -8 0
v -12 -7 0
v -11 -7 0
v -12 -8 0
v -13 -8 0
v -13 -7 0
v -12 -7 0
v -13 -8 0
v -14 -8 0
v -14 -7 0
v -13 -7 0
v -14 -8 0
v -15 -8 0
v -15 -7 0
v -14 -7 0
v 0 -11 0
v -1 -11 0
v -1 -10 0
v 0 -10 0
v 0 -12 0
v -1 -12 0
v -1 -11 0
v 0 -11 0
v -1 -12 0
v -2 -12 0
v -2 -11 0
v -1 -11 0
v 0 -13 0
v -1 -13 0
v -1 -12 0
v 0 -12 0
v -1 -13 0
v -2 -13 0
v -2 -12 0
v -1 -12 0
v 0 -14 0
v -1 -14 0
v -1 -13 0
v 0 -13 0
v -1 -14 0
v -2 -14 0
v -2 -13 0
v -1 -13 0
v -7 -14 0
v -8 -14 0
v -8 -13 0
v -7 -13 0
v -8 -14 0
v -9 -14 0
v -9 -13 0
v -8 -13 0
v -9 -14 0
v -10 -14 0
v -10 -13 0
v -9 -13 0
v -10 -14 0
v -11 -14 0
v -11 -13 0
v -10 -13 0
v -11 -14 0
v -12 -14 0
v -12 -13 0
v -11 -13 0
v -12 -14 0
v -13 -14 0
v -13 -13 0
v -12 -13 0
v -13 -14 0
v -14 -14 0
v -14 -13 0
v -13 -13 0
v -14 -14 0
v -15 -14 0
v -15 -13 0
v -14 -13 0
v -15 -14 0
v -16 -14 0
v -16 -13 0
v -15 -13 0
v 0 -15 0
v -1 -15 0
v -1 -14 0
v 0 -14 0
v -1 -15 0
v -2 -15 0
v -2 -14 0
v -1 -14 0
v -6 -15 0
v -7 -15 0
v -7 -14 0
v -6 -14 0
v -7 -15 0
v -8 -15 0
v -8 -14 0
v -7 -14 0
v -8 -15 0
v -9 -15 0
v -9 -14 0
v -8 -14 0
v -9 -15 0
v -10 -15 0
v -10 -14 0
v -9 -14 0
v -10 -15 0
v -11 -15 0
v -11 -14 0
v -10 -14 0
v -11 -15 0
v -12 -15 0
v -12 -14 0
v -11 -14 0
v -12 -15 0
v -13 -15 0
v -13 -14 0
v -12 -14 0
v -13 -15 0
v -14 -15 0
v -14 -14 0
v -13 -14 0
v -14 -15 0
v -15 -15 0
v -15 -14 0
v -14 -14 0
v -15 -15 0
v -16 -15 0
v -16 -14 0
v -15 -14 0
v 0 -16 0
v -1 -16 0
v -1 -15 0
v 0 -15 0
v -1 -16 0
v -2 -16 0
v -2 -15 0
v -1 -15 0
v -2 -16 0
v -3 -16 0
v -3 -15 0
v -2 -15 0
v -5 -16 0
v -6 -16 0
v -6 -15 0
v -5 -15 0
v -6 -16 0
v -7 -16 0
v -7 -15 0
v -6 -15 0
v -7 -16 0
v -8 -16 0
v -8 -15 0
v -7 -15 0
v -8 -16 0
v -9 -16 0
v -9 -15 0
v -8 -15 0
v -9 -16 0
v -10 -16 0
v -10 -15 0
v -9 -15 0
v -10 -16 0
v -11 -16 0
v -11 -15 0
v -10 -15 0
v -11 -16 0
v -12 -16 0
v -12 -15 0
v -11 -15 0
v -12 -16 0
v -13 -16 0
v -13 -15 0
v -12 -15 0
v -13 -16 0
v -14 -16 0
v -14 -15 0
v -13 -15 0
v -14 -16 0
v -15 -16 0
v -15 -15 0
v -14 -15 0
v -15 -16 0
v -16 -16 0
v -16 -15 0
v -15 -15 0

# Texture cooridinates (Count = 27)
vt 0 0.2222222
vt 0.1 0.2222222
vt 0.1 0.3333333
vt 0 0.3333333
vt 0.4 0.2222222
vt 0.5 0.2222222
vt 0.5 0.3333333
vt 0.4 0.3333333
vt 0.1 0.1111111
vt 0.2 0.1111111
vt 0.2 0.2222222
vt 0.3 0.2222222
vt 0.3 0.3333333
vt 0.2 0.3333333
vt 0.3 0.1111111
vt 0.6 0.2222222
vt 0.7 0.2222222
vt 0.7 0.3333333
vt 0.6 0.3333333
vt 0 0.1111111
vt 0.2 0
vt 0.3 0
vt 0 0
vt 0.1 0
vt 0.5 0.4444444
vt 0.4 0.4444444
vt 0.3 0.4444444

# Normal
vn 0 0 -1

# Mesh description
g Map_Master_mesh_0175

# Faces
f 1/1/1 2/2/1 3/3/1 4/4/1
f 5/5/1 6/6/1 7/7/1 8/8/1
f 9/9/1 10/10/1 11/11/1 12/2/1
f 13/9/1 14/10/1 15/11/1 16/2/1
f 17/9/1 18/10/1 19/11/1 20/2/1
f 21/11/1 22/12/1 23/13/1 24/14/1
f 25/1/1 26/2/1 27/3/1 28/4/1
f 29/5/1 30/6/1 31/7/1 32/8/1
f 33/9/1 34/10/1 35/11/1 36/2/1
f 37/9/1 38/10/1 39/11/1 40/2/1
f 41/9/1 42/10/1 43/11/1 44/2/1
f 45/9/1 46/10/1 47/11/1 48/2/1
f 49/10/1 50/15/1 51/12/1 52/11/1
f 53/16/1 54/17/1 55/18/1 56/19/1
f 57/20/1 58/9/1 59/2/1 60/1/1
f 61/9/1 62/10/1 63/11/1 64/2/1
f 65/9/1 66/10/1 67/11/1 68/2/1
f 69/9/1 70/10/1 71/11/1 72/2/1
f 73/9/1 74/10/1 75/11/1 76/2/1
f 77/9/1 78/10/1 79/11/1 80/2/1
f 81/9/1 82/10/1 83/11/1 84/2/1
f 85/9/1 86/10/1 87/11/1 88/2/1
f 89/9/1 90/10/1 91/11/1 92/2/1
f 93/9/1 94/10/1 95/11/1 96/2/1
f 97/9/1 98/10/1 99/11/1 100/2/1
f 101/9/1 102/10/1 103/11/1 104/2/1
f 105/21/1 106/22/1 107/15/1 108/10/1
f 109/23/1 110/24/1 111/9/1 112/20/1
f 113/8/1 114/7/1 115/25/1 116/26/1
f 117/9/1 118/10/1 119/11/1 120/2/1
f 121/9/1 122/10/1 123/11/1 124/2/1
f 125/9/1 126/10/1 127/11/1 128/2/1
f 129/9/1 130/10/1 131/11/1 132/2/1
f 133/9/1 134/10/1 135/11/1 136/2/1
f 137/9/1 138/10/1 139/11/1 140/2/1
f 141/9/1 142/10/1 143/11/1 144/2/1
f 145/9/1 146/10/1 147/11/1 148/2/1
f 149/9/1 150/10/1 151/11/1 152/2/1
f 153/9/1 154/10/1 155/11/1 156/2/1
f 157/23/1 158/24/1 159/9/1 160/20/1
f 161/24/1 162/21/1 163/10/1 164/9/1
f 165/8/1 166/7/1 167/25/1 168/26/1
f 169/9/1 170/10/1 171/11/1 172/2/1
f 173/9/1 174/10/1 175/11/1 176/2/1
f 177/9/1 178/10/1 179/11/1 180/2/1
f 181/9/1 182/10/1 183/11/1 184/2/1
f 185/9/1 186/10/1 187/11/1 188/2/1
f 189/9/1 190/10/1 191/11/1 192/2/1
f 193/13/1 194/8/1 195/26/1 196/27/1
f 197/24/1 198/21/1 199/10/1 200/9/1
f 201/23/1 202/24/1 203/9/1 204/20/1
f 205/8/1 206/7/1 207/25/1 208/26/1
f 209/9/1 210/10/1 211/11/1 212/2/1
f 213/9/1 214/10/1 215/11/1 216/2/1
f 217/9/1 218/10/1 219/11/1 220/2/1
f 221/9/1 222/10/1 223/11/1 224/2/1
f 225/9/1 226/10/1 227/11/1 228/2/1
f 229/10/1 230/15/1 231/12/1 232/11/1
f 233/20/1 234/9/1 235/2/1 236/1/1
f 237/9/1 238/10/1 239/11/1 240/2/1
f 241/9/1 242/10/1 243/11/1 244/2/1
f 245/9/1 246/10/1 247/11/1 248/2/1
f 249/9/1 250/10/1 251/11/1 252/2/1
f 253/9/1 254/10/1 255/11/1 256/2/1
f 257/10/1 258/15/1 259/12/1 260/11/1
f 261/23/1 262/24/1 263/9/1 264/20/1
f 265/24/1 266/21/1 267/10/1 268/9/1
f 269/24/1 270/21/1 271/10/1 272/9/1
f 273/24/1 274/21/1 275/10/1 276/9/1
f 277/24/1 278/21/1 279/10/1 280/9/1
f 281/24/1 282/21/1 283/10/1 284/9/1
f 285/21/1 286/22/1 287/15/1 288/10/1
f 289/11/1 290/12/1 291/13/1 292/14/1
f 293/12/1 294/5/1 295/8/1 296/13/1
f 297/10/1 298/15/1 299/12/1 300/11/1
f 301/9/1 302/10/1 303/11/1 304/2/1
f 305/10/1 306/15/1 307/12/1 308/11/1
f 309/9/1 310/10/1 311/11/1 312/2/1
f 313/10/1 314/15/1 315/12/1 316/11/1
f 317/1/1 318/2/1 319/3/1 320/4/1
f 321/2/1 322/11/1 323/14/1 324/3/1
f 325/2/1 326/11/1 327/14/1 328/3/1
f 329/2/1 330/11/1 331/14/1 332/3/1
f 333/2/1 334/11/1 335/14/1 336/3/1
f 337/2/1 338/11/1 339/14/1 340/3/1
f 341/2/1 342/11/1 343/14/1 344/3/1
f 345/2/1 346/11/1 347/14/1 348/3/1
f 349/2/1 350/11/1 351/14/1 352/3/1
f 353/9/1 354/10/1 355/11/1 356/2/1
f 357/10/1 358/15/1 359/12/1 360/11/1
f 361/1/1 362/2/1 363/3/1 364/4/1
f 365/5/1 366/6/1 367/7/1 368/8/1
f 369/9/1 370/10/1 371/11/1 372/2/1
f 373/9/1 374/10/1 375/11/1 376/2/1
f 377/9/1 378/10/1 379/11/1 380/2/1
f 381/9/1 382/10/1 383/11/1 384/2/1
f 385/9/1 386/10/1 387/11/1 388/2/1
f 389/9/1 390/10/1 391/11/1 392/2/1
f 393/9/1 394/10/1 395/11/1 396/2/1
f 397/9/1 398/10/1 399/11/1 400/2/1
f 401/9/1 402/10/1 403/11/1 404/2/1
f 405/12/1 406/5/1 407/8/1 408/13/1
f 409/10/1 410/15/1 411/12/1 412/11/1
f 413/1/1 414/2/1 415/3/1 416/4/1
f 417/5/1 418/6/1 419/7/1 420/8/1
f 421/9/1 422/10/1 423/11/1 424/2/1
f 425/9/1 426/10/1 427/11/1 428/2/1
f 429/9/1 430/10/1 431/11/1 432/2/1
f 433/9/1 434/10/1 435/11/1 436/2/1
f 437/9/1 438/10/1 439/11/1 440/2/1
f 441/9/1 442/10/1 443/11/1 444/2/1
f 445/9/1 446/10/1 447/11/1 448/2/1
f 449/9/1 450/10/1 451/11/1 452/2/1
f 453/9/1 454/10/1 455/11/1 456/2/1

