# Tiled2Unity generated file. Do not modify by hand.
# Wavefront file for 'Map_Master_mesh_0039.obj'

# Vertices (Count = 100)
v -11 -4 0
v -12 -4 0
v -12 -3 0
v -11 -3 0
v -12 -4 0
v -13 -4 0
v -13 -3 0
v -12 -3 0
v -13 -4 0
v -14 -4 0
v -14 -3 0
v -13 -3 0
v -14 -4 0
v -15 -4 0
v -15 -3 0
v -14 -3 0
v -15 -4 0
v -16 -4 0
v -16 -3 0
v -15 -3 0
v -11 -7 0
v -12 -7 0
v -12 -6 0
v -11 -6 0
v -12 -7 0
v -13 -7 0
v -13 -6 0
v -12 -6 0
v -11 -8 0
v -12 -8 0
v -12 -7 0
v -11 -7 0
v -12 -8 0
v -13 -8 0
v -13 -7 0
v -12 -7 0
v -11 -9 0
v -12 -9 0
v -12 -8 0
v -11 -8 0
v -12 -9 0
v -13 -9 0
v -13 -8 0
v -12 -8 0
v -11 -10 0
v -12 -10 0
v -12 -9 0
v -11 -9 0
v -12 -10 0
v -13 -10 0
v -13 -9 0
v -12 -9 0
v -11 -11 0
v -12 -11 0
v -12 -10 0
v -11 -10 0
v -12 -11 0
v -13 -11 0
v -13 -10 0
v -12 -10 0
v -11 -12 0
v -12 -12 0
v -12 -11 0
v -11 -11 0
v -12 -12 0
v -13 -12 0
v -13 -11 0
v -12 -11 0
v -11 -13 0
v -12 -13 0
v -12 -12 0
v -11 -12 0
v -12 -13 0
v -13 -13 0
v -13 -12 0
v -12 -12 0
v -11 -14 0
v -12 -14 0
v -12 -13 0
v -11 -13 0
v -12 -14 0
v -13 -14 0
v -13 -13 0
v -12 -13 0
v -11 -15 0
v -12 -15 0
v -12 -14 0
v -11 -14 0
v -12 -15 0
v -13 -15 0
v -13 -14 0
v -12 -14 0
v -11 -16 0
v -12 -16 0
v -12 -15 0
v -11 -15 0
v -12 -16 0
v -13 -16 0
v -13 -15 0
v -12 -15 0

# Texture cooridinates (Count = 4)
vt 0.2 0.1111111
vt 0.2 0.2222222
vt 0.1 0.2222222
vt 0.1 0.1111111

# Normal
vn 0 0 -1

# Mesh description
g Map_Master_mesh_0039

# Faces
f 1/1/1 2/2/1 3/3/1 4/4/1
f 5/1/1 6/2/1 7/3/1 8/4/1
f 9/1/1 10/2/1 11/3/1 12/4/1
f 13/1/1 14/2/1 15/3/1 16/4/1
f 17/1/1 18/2/1 19/3/1 20/4/1
f 21/4/1 22/1/1 23/2/1 24/3/1
f 25/4/1 26/1/1 27/2/1 28/3/1
f 29/4/1 30/1/1 31/2/1 32/3/1
f 33/4/1 34/1/1 35/2/1 36/3/1
f 37/4/1 38/1/1 39/2/1 40/3/1
f 41/4/1 42/1/1 43/2/1 44/3/1
f 45/4/1 46/1/1 47/2/1 48/3/1
f 49/4/1 50/1/1 51/2/1 52/3/1
f 53/4/1 54/1/1 55/2/1 56/3/1
f 57/4/1 58/1/1 59/2/1 60/3/1
f 61/4/1 62/1/1 63/2/1 64/3/1
f 65/4/1 66/1/1 67/2/1 68/3/1
f 69/4/1 70/1/1 71/2/1 72/3/1
f 73/4/1 74/1/1 75/2/1 76/3/1
f 77/4/1 78/1/1 79/2/1 80/3/1
f 81/4/1 82/1/1 83/2/1 84/3/1
f 85/4/1 86/1/1 87/2/1 88/3/1
f 89/4/1 90/1/1 91/2/1 92/3/1
f 93/4/1 94/1/1 95/2/1 96/3/1
f 97/4/1 98/1/1 99/2/1 100/3/1

