# Tiled2Unity generated file. Do not modify by hand.
# Wavefront file for 'Map_Master_mesh_0215.obj'

# Vertices (Count = 196)
v -3 -1 0
v -4 -1 0
v -4 0 0
v -3 0 0
v -4 -1 0
v -5 -1 0
v -5 0 0
v -4 0 0
v -5 -1 0
v -6 -1 0
v -6 0 0
v -5 0 0
v -6 -1 0
v -7 -1 0
v -7 0 0
v -6 0 0
v -7 -1 0
v -8 -1 0
v -8 0 0
v -7 0 0
v -11 -1 0
v -12 -1 0
v -12 0 0
v -11 0 0
v -12 -1 0
v -13 -1 0
v -13 0 0
v -12 0 0
v -13 -1 0
v -14 -1 0
v -14 0 0
v -13 0 0
v -14 -1 0
v -15 -1 0
v -15 0 0
v -14 0 0
v -15 -1 0
v -16 -1 0
v -16 0 0
v -15 0 0
v -11 -2 0
v -12 -2 0
v -12 -1 0
v -11 -1 0
v -12 -2 0
v -13 -2 0
v -13 -1 0
v -12 -1 0
v -13 -2 0
v -14 -2 0
v -14 -1 0
v -13 -1 0
v -14 -2 0
v -15 -2 0
v -15 -1 0
v -14 -1 0
v -15 -2 0
v -16 -2 0
v -16 -1 0
v -15 -1 0
v -12 -3 0
v -13 -3 0
v -13 -2 0
v -12 -2 0
v -13 -3 0
v -14 -3 0
v -14 -2 0
v -13 -2 0
v -14 -3 0
v -15 -3 0
v -15 -2 0
v -14 -2 0
v -15 -3 0
v -16 -3 0
v -16 -2 0
v -15 -2 0
v -15 -4 0
v -16 -4 0
v -16 -3 0
v -15 -3 0
v -15 -5 0
v -16 -5 0
v -16 -4 0
v -15 -4 0
v -13 -12 0
v -14 -12 0
v -14 -11 0
v -13 -11 0
v -14 -12 0
v -15 -12 0
v -15 -11 0
v -14 -11 0
v 0 -13 0
v -1 -13 0
v -1 -12 0
v 0 -12 0
v -12 -13 0
v -13 -13 0
v -13 -12 0
v -12 -12 0
v -13 -13 0
v -14 -13 0
v -14 -12 0
v -13 -12 0
v -14 -13 0
v -15 -13 0
v -15 -12 0
v -14 -12 0
v -15 -13 0
v -16 -13 0
v -16 -12 0
v -15 -12 0
v 0 -14 0
v -1 -14 0
v -1 -13 0
v 0 -13 0
v -4 -14 0
v -5 -14 0
v -5 -13 0
v -4 -13 0
v -5 -14 0
v -6 -14 0
v -6 -13 0
v -5 -13 0
v -6 -14 0
v -7 -14 0
v -7 -13 0
v -6 -13 0
v -12 -14 0
v -13 -14 0
v -13 -13 0
v -12 -13 0
v -13 -14 0
v -14 -14 0
v -14 -13 0
v -13 -13 0
v -14 -14 0
v -15 -14 0
v -15 -13 0
v -14 -13 0
v -15 -14 0
v -16 -14 0
v -16 -13 0
v -15 -13 0
v 0 -15 0
v -1 -15 0
v -1 -14 0
v 0 -14 0
v -4 -15 0
v -5 -15 0
v -5 -14 0
v -4 -14 0
v -5 -15 0
v -6 -15 0
v -6 -14 0
v -5 -14 0
v -6 -15 0
v -7 -15 0
v -7 -14 0
v -6 -14 0
v -9 -15 0
v -10 -15 0
v -10 -14 0
v -9 -14 0
v -10 -15 0
v -11 -15 0
v -11 -14 0
v -10 -14 0
v -14 -15 0
v -15 -15 0
v -15 -14 0
v -14 -14 0
v -15 -15 0
v -16 -15 0
v -16 -14 0
v -15 -14 0
v 0 -16 0
v -1 -16 0
v -1 -15 0
v 0 -15 0
v -4 -16 0
v -5 -16 0
v -5 -15 0
v -4 -15 0
v -5 -16 0
v -6 -16 0
v -6 -15 0
v -5 -15 0
v -6 -16 0
v -7 -16 0
v -7 -15 0
v -6 -15 0
v -15 -16 0
v -16 -16 0
v -16 -15 0
v -15 -15 0

# Texture cooridinates (Count = 28)
vt 0 0
vt 0.1 0
vt 0.1 0.1111111
vt 0 0.1111111
vt 0.2 0
vt 0.2 0.1111111
vt 0.3 0
vt 0.3 0.1111111
vt 0.1 0.2222222
vt 0 0.2222222
vt 0.2 0.2222222
vt 0.4 0.3333333
vt 0.5 0.3333333
vt 0.5 0.4444444
vt 0.4 0.4444444
vt 0.1 0.3333333
vt 0 0.3333333
vt 0.3 0.2222222
vt 0.3 0.3333333
vt 0.2 0.3333333
vt 0.7 0.2222222
vt 0.8 0.2222222
vt 0.8 0.3333333
vt 0.7 0.3333333
vt 0.4 0.2222222
vt 0.5 0.2222222
vt 0.6 0.2222222
vt 0.6 0.3333333

# Normal
vn 0 0 -1

# Mesh description
g Map_Master_mesh_0215

# Faces
f 1/1/1 2/2/1 3/3/1 4/4/1
f 5/2/1 6/5/1 7/6/1 8/3/1
f 9/2/1 10/5/1 11/6/1 12/3/1
f 13/2/1 14/5/1 15/6/1 16/3/1
f 17/5/1 18/7/1 19/8/1 20/6/1
f 21/4/1 22/3/1 23/9/1 24/10/1
f 25/3/1 26/6/1 27/11/1 28/9/1
f 29/3/1 30/6/1 31/11/1 32/9/1
f 33/3/1 34/6/1 35/11/1 36/9/1
f 37/3/1 38/6/1 39/11/1 40/9/1
f 41/1/1 42/2/1 43/3/1 44/4/1
f 45/12/1 46/13/1 47/14/1 48/15/1
f 49/3/1 50/6/1 51/11/1 52/9/1
f 53/3/1 54/6/1 55/11/1 56/9/1
f 57/3/1 58/6/1 59/11/1 60/9/1
f 61/1/1 62/2/1 63/3/1 64/4/1
f 65/2/1 66/5/1 67/6/1 68/3/1
f 69/2/1 70/5/1 71/6/1 72/3/1
f 73/12/1 74/13/1 75/14/1 76/15/1
f 77/4/1 78/3/1 79/9/1 80/10/1
f 81/1/1 82/2/1 83/3/1 84/4/1
f 85/10/1 86/9/1 87/16/1 88/17/1
f 89/11/1 90/18/1 91/19/1 92/20/1
f 93/21/1 94/22/1 95/23/1 96/24/1
f 97/10/1 98/9/1 99/16/1 100/17/1
f 101/25/1 102/26/1 103/13/1 104/12/1
f 105/18/1 106/25/1 107/12/1 108/19/1
f 109/9/1 110/11/1 111/20/1 112/16/1
f 113/6/1 114/8/1 115/18/1 116/11/1
f 117/10/1 118/9/1 119/16/1 120/17/1
f 121/9/1 122/11/1 123/20/1 124/16/1
f 125/11/1 126/18/1 127/19/1 128/20/1
f 129/1/1 130/2/1 131/3/1 132/4/1
f 133/2/1 134/5/1 135/6/1 136/3/1
f 137/12/1 138/13/1 139/14/1 140/15/1
f 141/3/1 142/6/1 143/11/1 144/9/1
f 145/6/1 146/8/1 147/18/1 148/11/1
f 149/4/1 150/3/1 151/9/1 152/10/1
f 153/3/1 154/6/1 155/11/1 156/9/1
f 157/6/1 158/8/1 159/18/1 160/11/1
f 161/26/1 162/27/1 163/28/1 164/13/1
f 165/21/1 166/22/1 167/23/1 168/24/1
f 169/1/1 170/2/1 171/3/1 172/4/1
f 173/12/1 174/13/1 175/14/1 176/15/1
f 177/6/1 178/8/1 179/18/1 180/11/1
f 181/4/1 182/3/1 183/9/1 184/10/1
f 185/3/1 186/6/1 187/11/1 188/9/1
f 189/6/1 190/8/1 191/18/1 192/11/1
f 193/1/1 194/2/1 195/3/1 196/4/1

