# Tiled2Unity generated file. Do not modify by hand.
# Wavefront file for 'Map_Master_mesh_0623.obj'

# Vertices (Count = 28)
v -8 -1 0
v -8.5 -1 0
v -8.5 -0.5 0
v -8 -0.5 0
v -14 -11 0
v -14.5 -11 0
v -14.5 -10.5 0
v -14 -10.5 0
v -15 -11 0
v -15.5 -11 0
v -15.5 -10.5 0
v -15 -10.5 0
v -14 -12 0
v -14.5 -12 0
v -14.5 -11.5 0
v -14 -11.5 0
v -15 -12 0
v -15.5 -12 0
v -15.5 -11.5 0
v -15 -11.5 0
v -14 -13 0
v -14.5 -13 0
v -14.5 -12.5 0
v -14 -12.5 0
v -15 -13 0
v -15.5 -13 0
v -15.5 -12.5 0
v -15 -12.5 0

# Texture cooridinates (Count = 6)
vt 0 0.5
vt 0.1666667 0.5
vt 0.1666667 1
vt 0 1
vt 0.3333333 0.5
vt 0.3333333 1

# Normal
vn 0 0 -1

# Mesh description
g Map_Master_mesh_0623

# Faces
f 1/1/1 2/2/1 3/3/1 4/4/1
f 5/2/1 6/5/1 7/6/1 8/3/1
f 9/2/1 10/5/1 11/6/1 12/3/1
f 13/2/1 14/5/1 15/6/1 16/3/1
f 17/2/1 18/5/1 19/6/1 20/3/1
f 21/2/1 22/5/1 23/6/1 24/3/1
f 25/2/1 26/5/1 27/6/1 28/3/1

