# Tiled2Unity generated file. Do not modify by hand.
# Wavefront file for 'Map_Master_mesh_0248.obj'

# Vertices (Count = 24)
v -1 -12 0
v -1.5 -12 0
v -1.5 -11.5 0
v -1 -11.5 0
v -2 -12 0
v -2.5 -12 0
v -2.5 -11.5 0
v -2 -11.5 0
v -1 -13 0
v -1.5 -13 0
v -1.5 -12.5 0
v -1 -12.5 0
v -2 -13 0
v -2.5 -13 0
v -2.5 -12.5 0
v -2 -12.5 0
v -1 -14 0
v -1.5 -14 0
v -1.5 -13.5 0
v -1 -13.5 0
v -2 -14 0
v -2.5 -14 0
v -2.5 -13.5 0
v -2 -13.5 0

# Texture cooridinates (Count = 4)
vt 0.1666667 0.5
vt 0.3333333 0.5
vt 0.3333333 1
vt 0.1666667 1

# Normal
vn 0 0 -1

# Mesh description
g Map_Master_mesh_0248

# Faces
f 1/1/1 2/2/1 3/3/1 4/4/1
f 5/1/1 6/2/1 7/3/1 8/4/1
f 9/1/1 10/2/1 11/3/1 12/4/1
f 13/1/1 14/2/1 15/3/1 16/4/1
f 17/1/1 18/2/1 19/3/1 20/4/1
f 21/1/1 22/2/1 23/3/1 24/4/1

