# Tiled2Unity generated file. Do not modify by hand.
# Wavefront file for 'Map_Master_mesh_0275.obj'

# Vertices (Count = 752)
v 0 -1 0
v -1 -1 0
v -1 0 0
v 0 0 0
v -1 -1 0
v -2 -1 0
v -2 0 0
v -1 0 0
v -2 -1 0
v -3 -1 0
v -3 0 0
v -2 0 0
v -3 -1 0
v -4 -1 0
v -4 0 0
v -3 0 0
v -4 -1 0
v -5 -1 0
v -5 0 0
v -4 0 0
v -5 -1 0
v -6 -1 0
v -6 0 0
v -5 0 0
v -6 -1 0
v -7 -1 0
v -7 0 0
v -6 0 0
v -7 -1 0
v -8 -1 0
v -8 0 0
v -7 0 0
v -8 -1 0
v -9 -1 0
v -9 0 0
v -8 0 0
v -9 -1 0
v -10 -1 0
v -10 0 0
v -9 0 0
v -10 -1 0
v -11 -1 0
v -11 0 0
v -10 0 0
v -11 -1 0
v -12 -1 0
v -12 0 0
v -11 0 0
v -12 -1 0
v -13 -1 0
v -13 0 0
v -12 0 0
v -13 -1 0
v -14 -1 0
v -14 0 0
v -13 0 0
v -14 -1 0
v -15 -1 0
v -15 0 0
v -14 0 0
v -15 -1 0
v -16 -1 0
v -16 0 0
v -15 0 0
v 0 -2 0
v -1 -2 0
v -1 -1 0
v 0 -1 0
v -1 -2 0
v -2 -2 0
v -2 -1 0
v -1 -1 0
v -2 -2 0
v -3 -2 0
v -3 -1 0
v -2 -1 0
v -3 -2 0
v -4 -2 0
v -4 -1 0
v -3 -1 0
v -4 -2 0
v -5 -2 0
v -5 -1 0
v -4 -1 0
v -5 -2 0
v -6 -2 0
v -6 -1 0
v -5 -1 0
v -6 -2 0
v -7 -2 0
v -7 -1 0
v -6 -1 0
v -7 -2 0
v -8 -2 0
v -8 -1 0
v -7 -1 0
v -8 -2 0
v -9 -2 0
v -9 -1 0
v -8 -1 0
v -9 -2 0
v -10 -2 0
v -10 -1 0
v -9 -1 0
v -10 -2 0
v -11 -2 0
v -11 -1 0
v -10 -1 0
v -11 -2 0
v -12 -2 0
v -12 -1 0
v -11 -1 0
v -12 -2 0
v -13 -2 0
v -13 -1 0
v -12 -1 0
v -13 -2 0
v -14 -2 0
v -14 -1 0
v -13 -1 0
v -14 -2 0
v -15 -2 0
v -15 -1 0
v -14 -1 0
v -15 -2 0
v -16 -2 0
v -16 -1 0
v -15 -1 0
v 0 -3 0
v -1 -3 0
v -1 -2 0
v 0 -2 0
v -1 -3 0
v -2 -3 0
v -2 -2 0
v -1 -2 0
v -2 -3 0
v -3 -3 0
v -3 -2 0
v -2 -2 0
v -3 -3 0
v -4 -3 0
v -4 -2 0
v -3 -2 0
v -4 -3 0
v -5 -3 0
v -5 -2 0
v -4 -2 0
v -5 -3 0
v -6 -3 0
v -6 -2 0
v -5 -2 0
v -6 -3 0
v -7 -3 0
v -7 -2 0
v -6 -2 0
v -7 -3 0
v -8 -3 0
v -8 -2 0
v -7 -2 0
v -8 -3 0
v -9 -3 0
v -9 -2 0
v -8 -2 0
v -9 -3 0
v -10 -3 0
v -10 -2 0
v -9 -2 0
v -10 -3 0
v -11 -3 0
v -11 -2 0
v -10 -2 0
v -11 -3 0
v -12 -3 0
v -12 -2 0
v -11 -2 0
v -12 -3 0
v -13 -3 0
v -13 -2 0
v -12 -2 0
v -13 -3 0
v -14 -3 0
v -14 -2 0
v -13 -2 0
v -14 -3 0
v -15 -3 0
v -15 -2 0
v -14 -2 0
v -15 -3 0
v -16 -3 0
v -16 -2 0
v -15 -2 0
v 0 -4 0
v -1 -4 0
v -1 -3 0
v 0 -3 0
v -1 -4 0
v -2 -4 0
v -2 -3 0
v -1 -3 0
v -2 -4 0
v -3 -4 0
v -3 -3 0
v -2 -3 0
v -3 -4 0
v -4 -4 0
v -4 -3 0
v -3 -3 0
v -4 -4 0
v -5 -4 0
v -5 -3 0
v -4 -3 0
v -5 -4 0
v -6 -4 0
v -6 -3 0
v -5 -3 0
v -9 -4 0
v -10 -4 0
v -10 -3 0
v -9 -3 0
v -10 -4 0
v -11 -4 0
v -11 -3 0
v -10 -3 0
v -11 -4 0
v -12 -4 0
v -12 -3 0
v -11 -3 0
v -12 -4 0
v -13 -4 0
v -13 -3 0
v -12 -3 0
v -13 -4 0
v -14 -4 0
v -14 -3 0
v -13 -3 0
v -14 -4 0
v -15 -4 0
v -15 -3 0
v -14 -3 0
v -15 -4 0
v -16 -4 0
v -16 -3 0
v -15 -3 0
v 0 -5 0
v -1 -5 0
v -1 -4 0
v 0 -4 0
v -1 -5 0
v -2 -5 0
v -2 -4 0
v -1 -4 0
v -2 -5 0
v -3 -5 0
v -3 -4 0
v -2 -4 0
v -3 -5 0
v -4 -5 0
v -4 -4 0
v -3 -4 0
v -4 -5 0
v -5 -5 0
v -5 -4 0
v -4 -4 0
v -10 -5 0
v -11 -5 0
v -11 -4 0
v -10 -4 0
v -11 -5 0
v -12 -5 0
v -12 -4 0
v -11 -4 0
v -12 -5 0
v -13 -5 0
v -13 -4 0
v -12 -4 0
v -13 -5 0
v -14 -5 0
v -14 -4 0
v -13 -4 0
v -14 -5 0
v -15 -5 0
v -15 -4 0
v -14 -4 0
v -15 -5 0
v -16 -5 0
v -16 -4 0
v -15 -4 0
v 0 -6 0
v -1 -6 0
v -1 -5 0
v 0 -5 0
v -1 -6 0
v -2 -6 0
v -2 -5 0
v -1 -5 0
v -2 -6 0
v -3 -6 0
v -3 -5 0
v -2 -5 0
v -3 -6 0
v -4 -6 0
v -4 -5 0
v -3 -5 0
v -4 -6 0
v -5 -6 0
v -5 -5 0
v -4 -5 0
v -10 -6 0
v -11 -6 0
v -11 -5 0
v -10 -5 0
v -11 -6 0
v -12 -6 0
v -12 -5 0
v -11 -5 0
v -12 -6 0
v -13 -6 0
v -13 -5 0
v -12 -5 0
v -13 -6 0
v -14 -6 0
v -14 -5 0
v -13 -5 0
v -14 -6 0
v -15 -6 0
v -15 -5 0
v -14 -5 0
v -15 -6 0
v -16 -6 0
v -16 -5 0
v -15 -5 0
v 0 -7 0
v -1 -7 0
v -1 -6 0
v 0 -6 0
v -1 -7 0
v -2 -7 0
v -2 -6 0
v -1 -6 0
v -2 -7 0
v -3 -7 0
v -3 -6 0
v -2 -6 0
v -3 -7 0
v -4 -7 0
v -4 -6 0
v -3 -6 0
v -11 -7 0
v -12 -7 0
v -12 -6 0
v -11 -6 0
v -12 -7 0
v -13 -7 0
v -13 -6 0
v -12 -6 0
v -13 -7 0
v -14 -7 0
v -14 -6 0
v -13 -6 0
v -14 -7 0
v -15 -7 0
v -15 -6 0
v -14 -6 0
v -15 -7 0
v -16 -7 0
v -16 -6 0
v -15 -6 0
v -12 -8 0
v -13 -8 0
v -13 -7 0
v -12 -7 0
v -13 -8 0
v -14 -8 0
v -14 -7 0
v -13 -7 0
v -14 -8 0
v -15 -8 0
v -15 -7 0
v -14 -7 0
v -15 -8 0
v -16 -8 0
v -16 -7 0
v -15 -7 0
v -12 -9 0
v -13 -9 0
v -13 -8 0
v -12 -8 0
v -13 -9 0
v -14 -9 0
v -14 -8 0
v -13 -8 0
v -14 -9 0
v -15 -9 0
v -15 -8 0
v -14 -8 0
v -15 -9 0
v -16 -9 0
v -16 -8 0
v -15 -8 0
v -12 -10 0
v -13 -10 0
v -13 -9 0
v -12 -9 0
v -13 -10 0
v -14 -10 0
v -14 -9 0
v -13 -9 0
v -14 -10 0
v -15 -10 0
v -15 -9 0
v -14 -9 0
v -15 -10 0
v -16 -10 0
v -16 -9 0
v -15 -9 0
v 0 -11 0
v -1 -11 0
v -1 -10 0
v 0 -10 0
v -1 -11 0
v -2 -11 0
v -2 -10 0
v -1 -10 0
v -2 -11 0
v -3 -11 0
v -3 -10 0
v -2 -10 0
v -3 -11 0
v -4 -11 0
v -4 -10 0
v -3 -10 0
v -11 -11 0
v -12 -11 0
v -12 -10 0
v -11 -10 0
v -12 -11 0
v -13 -11 0
v -13 -10 0
v -12 -10 0
v -13 -11 0
v -14 -11 0
v -14 -10 0
v -13 -10 0
v -14 -11 0
v -15 -11 0
v -15 -10 0
v -14 -10 0
v -15 -11 0
v -16 -11 0
v -16 -10 0
v -15 -10 0
v 0 -12 0
v -1 -12 0
v -1 -11 0
v 0 -11 0
v -1 -12 0
v -2 -12 0
v -2 -11 0
v -1 -11 0
v -2 -12 0
v -3 -12 0
v -3 -11 0
v -2 -11 0
v -3 -12 0
v -4 -12 0
v -4 -11 0
v -3 -11 0
v -4 -12 0
v -5 -12 0
v -5 -11 0
v -4 -11 0
v -10 -12 0
v -11 -12 0
v -11 -11 0
v -10 -11 0
v -11 -12 0
v -12 -12 0
v -12 -11 0
v -11 -11 0
v -12 -12 0
v -13 -12 0
v -13 -11 0
v -12 -11 0
v -13 -12 0
v -14 -12 0
v -14 -11 0
v -13 -11 0
v -14 -12 0
v -15 -12 0
v -15 -11 0
v -14 -11 0
v -15 -12 0
v -16 -12 0
v -16 -11 0
v -15 -11 0
v 0 -13 0
v -1 -13 0
v -1 -12 0
v 0 -12 0
v -1 -13 0
v -2 -13 0
v -2 -12 0
v -1 -12 0
v -2 -13 0
v -3 -13 0
v -3 -12 0
v -2 -12 0
v -3 -13 0
v -4 -13 0
v -4 -12 0
v -3 -12 0
v -4 -13 0
v -5 -13 0
v -5 -12 0
v -4 -12 0
v -5 -13 0
v -6 -13 0
v -6 -12 0
v -5 -12 0
v -6 -13 0
v -7 -13 0
v -7 -12 0
v -6 -12 0
v -7 -13 0
v -8 -13 0
v -8 -12 0
v -7 -12 0
v -8 -13 0
v -9 -13 0
v -9 -12 0
v -8 -12 0
v -9 -13 0
v -10 -13 0
v -10 -12 0
v -9 -12 0
v -10 -13 0
v -11 -13 0
v -11 -12 0
v -10 -12 0
v -11 -13 0
v -12 -13 0
v -12 -12 0
v -11 -12 0
v -12 -13 0
v -13 -13 0
v -13 -12 0
v -12 -12 0
v -13 -13 0
v -14 -13 0
v -14 -12 0
v -13 -12 0
v -14 -13 0
v -15 -13 0
v -15 -12 0
v -14 -12 0
v -15 -13 0
v -16 -13 0
v -16 -12 0
v -15 -12 0
v 0 -14 0
v -1 -14 0
v -1 -13 0
v 0 -13 0
v -1 -14 0
v -2 -14 0
v -2 -13 0
v -1 -13 0
v -2 -14 0
v -3 -14 0
v -3 -13 0
v -2 -13 0
v -3 -14 0
v -4 -14 0
v -4 -13 0
v -3 -13 0
v -4 -14 0
v -5 -14 0
v -5 -13 0
v -4 -13 0
v -5 -14 0
v -6 -14 0
v -6 -13 0
v -5 -13 0
v -6 -14 0
v -7 -14 0
v -7 -13 0
v -6 -13 0
v -7 -14 0
v -8 -14 0
v -8 -13 0
v -7 -13 0
v -8 -14 0
v -9 -14 0
v -9 -13 0
v -8 -13 0
v -9 -14 0
v -10 -14 0
v -10 -13 0
v -9 -13 0
v -10 -14 0
v -11 -14 0
v -11 -13 0
v -10 -13 0
v -11 -14 0
v -12 -14 0
v -12 -13 0
v -11 -13 0
v -12 -14 0
v -13 -14 0
v -13 -13 0
v -12 -13 0
v -13 -14 0
v -14 -14 0
v -14 -13 0
v -13 -13 0
v -14 -14 0
v -15 -14 0
v -15 -13 0
v -14 -13 0
v -15 -14 0
v -16 -14 0
v -16 -13 0
v -15 -13 0
v 0 -15 0
v -1 -15 0
v -1 -14 0
v 0 -14 0
v -1 -15 0
v -2 -15 0
v -2 -14 0
v -1 -14 0
v -2 -15 0
v -3 -15 0
v -3 -14 0
v -2 -14 0
v -3 -15 0
v -4 -15 0
v -4 -14 0
v -3 -14 0
v -4 -15 0
v -5 -15 0
v -5 -14 0
v -4 -14 0
v -5 -15 0
v -6 -15 0
v -6 -14 0
v -5 -14 0
v -6 -15 0
v -7 -15 0
v -7 -14 0
v -6 -14 0
v -7 -15 0
v -8 -15 0
v -8 -14 0
v -7 -14 0
v -8 -15 0
v -9 -15 0
v -9 -14 0
v -8 -14 0
v -9 -15 0
v -10 -15 0
v -10 -14 0
v -9 -14 0
v -10 -15 0
v -11 -15 0
v -11 -14 0
v -10 -14 0
v -11 -15 0
v -12 -15 0
v -12 -14 0
v -11 -14 0
v -12 -15 0
v -13 -15 0
v -13 -14 0
v -12 -14 0
v -13 -15 0
v -14 -15 0
v -14 -14 0
v -13 -14 0
v -14 -15 0
v -15 -15 0
v -15 -14 0
v -14 -14 0
v -15 -15 0
v -16 -15 0
v -16 -14 0
v -15 -14 0
v 0 -16 0
v -1 -16 0
v -1 -15 0
v 0 -15 0
v -1 -16 0
v -2 -16 0
v -2 -15 0
v -1 -15 0
v -2 -16 0
v -3 -16 0
v -3 -15 0
v -2 -15 0
v -3 -16 0
v -4 -16 0
v -4 -15 0
v -3 -15 0
v -4 -16 0
v -5 -16 0
v -5 -15 0
v -4 -15 0
v -5 -16 0
v -6 -16 0
v -6 -15 0
v -5 -15 0
v -6 -16 0
v -7 -16 0
v -7 -15 0
v -6 -15 0
v -7 -16 0
v -8 -16 0
v -8 -15 0
v -7 -15 0
v -8 -16 0
v -9 -16 0
v -9 -15 0
v -8 -15 0
v -9 -16 0
v -10 -16 0
v -10 -15 0
v -9 -15 0
v -10 -16 0
v -11 -16 0
v -11 -15 0
v -10 -15 0
v -11 -16 0
v -12 -16 0
v -12 -15 0
v -11 -15 0
v -12 -16 0
v -13 -16 0
v -13 -15 0
v -12 -15 0
v -13 -16 0
v -14 -16 0
v -14 -15 0
v -13 -15 0
v -14 -16 0
v -15 -16 0
v -15 -15 0
v -14 -15 0
v -15 -16 0
v -16 -16 0
v -16 -15 0
v -15 -15 0

# Texture cooridinates (Count = 27)
vt 0.1111111 0.6666666
vt 0.2222222 0.6666666
vt 0.2222222 0.8333333
vt 0.1111111 0.8333333
vt 0.3333333 0.5
vt 0.4444444 0.5
vt 0.4444444 0.6666666
vt 0.3333333 0.6666666
vt 0.5555556 0.5
vt 0.5555556 0.6666666
vt 0.5555556 0.8333333
vt 0.6666667 0.8333333
vt 0.6666667 1
vt 0.5555556 1
vt 0.6666667 0.6666666
vt 0.3333333 0.8333333
vt 0.4444444 0.8333333
vt 0.4444444 1
vt 0.3333333 1
vt 0.1111111 0.5
vt 0.2222222 0.5
vt 0 0.5
vt 0 0.6666666
vt 0 0.8333333
vt 0.2222222 1
vt 0.1111111 1
vt 0 1

# Normal
vn 0 0 -1

# Mesh description
g Map_Master_mesh_0275

# Faces
f 1/1/1 2/2/1 3/3/1 4/4/1
f 5/1/1 6/2/1 7/3/1 8/4/1
f 9/1/1 10/2/1 11/3/1 12/4/1
f 13/1/1 14/2/1 15/3/1 16/4/1
f 17/1/1 18/2/1 19/3/1 20/4/1
f 21/5/1 22/6/1 23/7/1 24/8/1
f 25/6/1 26/9/1 27/10/1 28/7/1
f 29/1/1 30/2/1 31/3/1 32/4/1
f 33/1/1 34/2/1 35/3/1 36/4/1
f 37/1/1 38/2/1 39/3/1 40/4/1
f 41/1/1 42/2/1 43/3/1 44/4/1
f 45/1/1 46/2/1 47/3/1 48/4/1
f 49/1/1 50/2/1 51/3/1 52/4/1
f 53/1/1 54/2/1 55/3/1 56/4/1
f 57/1/1 58/2/1 59/3/1 60/4/1
f 61/1/1 62/2/1 63/3/1 64/4/1
f 65/1/1 66/2/1 67/3/1 68/4/1
f 69/1/1 70/2/1 71/3/1 72/4/1
f 73/1/1 74/2/1 75/3/1 76/4/1
f 77/1/1 78/2/1 79/3/1 80/4/1
f 81/1/1 82/2/1 83/3/1 84/4/1
f 85/5/1 86/6/1 87/7/1 88/8/1
f 89/1/1 90/2/1 91/3/1 92/4/1
f 93/11/1 94/12/1 95/13/1 96/14/1
f 97/1/1 98/2/1 99/3/1 100/4/1
f 101/1/1 102/2/1 103/3/1 104/4/1
f 105/10/1 106/15/1 107/12/1 108/11/1
f 109/1/1 110/2/1 111/3/1 112/4/1
f 113/1/1 114/2/1 115/3/1 116/4/1
f 117/1/1 118/2/1 119/3/1 120/4/1
f 121/1/1 122/2/1 123/3/1 124/4/1
f 125/1/1 126/2/1 127/3/1 128/4/1
f 129/1/1 130/2/1 131/3/1 132/4/1
f 133/1/1 134/2/1 135/3/1 136/4/1
f 137/1/1 138/2/1 139/3/1 140/4/1
f 141/1/1 142/2/1 143/3/1 144/4/1
f 145/5/1 146/6/1 147/7/1 148/8/1
f 149/16/1 150/17/1 151/18/1 152/19/1
f 153/20/1 154/21/1 155/2/1 156/1/1
f 157/20/1 158/21/1 159/2/1 160/1/1
f 161/20/1 162/21/1 163/2/1 164/1/1
f 165/17/1 166/11/1 167/14/1 168/18/1
f 169/6/1 170/9/1 171/10/1 172/7/1
f 173/10/1 174/15/1 175/12/1 176/11/1
f 177/1/1 178/2/1 179/3/1 180/4/1
f 181/1/1 182/2/1 183/3/1 184/4/1
f 185/1/1 186/2/1 187/3/1 188/4/1
f 189/1/1 190/2/1 191/3/1 192/4/1
f 193/1/1 194/2/1 195/3/1 196/4/1
f 197/1/1 198/2/1 199/3/1 200/4/1
f 201/1/1 202/2/1 203/3/1 204/4/1
f 205/1/1 206/2/1 207/3/1 208/4/1
f 209/16/1 210/17/1 211/18/1 212/19/1
f 213/21/1 214/5/1 215/8/1 216/2/1
f 217/22/1 218/20/1 219/1/1 220/23/1
f 221/17/1 222/11/1 223/14/1 224/18/1
f 225/1/1 226/2/1 227/3/1 228/4/1
f 229/1/1 230/2/1 231/3/1 232/4/1
f 233/1/1 234/2/1 235/3/1 236/4/1
f 237/1/1 238/2/1 239/3/1 240/4/1
f 241/1/1 242/2/1 243/3/1 244/4/1
f 245/1/1 246/2/1 247/3/1 248/4/1
f 249/1/1 250/2/1 251/3/1 252/4/1
f 253/5/1 254/6/1 255/7/1 256/8/1
f 257/5/1 258/6/1 259/7/1 260/8/1
f 261/2/1 262/8/1 263/16/1 264/3/1
f 265/23/1 266/1/1 267/4/1 268/24/1
f 269/1/1 270/2/1 271/3/1 272/4/1
f 273/1/1 274/2/1 275/3/1 276/4/1
f 277/1/1 278/2/1 279/3/1 280/4/1
f 281/1/1 282/2/1 283/3/1 284/4/1
f 285/1/1 286/2/1 287/3/1 288/4/1
f 289/1/1 290/2/1 291/3/1 292/4/1
f 293/1/1 294/2/1 295/3/1 296/4/1
f 297/1/1 298/2/1 299/3/1 300/4/1
f 301/16/1 302/17/1 303/18/1 304/19/1
f 305/21/1 306/5/1 307/8/1 308/2/1
f 309/22/1 310/20/1 311/1/1 312/23/1
f 313/17/1 314/11/1 315/14/1 316/18/1
f 317/1/1 318/2/1 319/3/1 320/4/1
f 321/5/1 322/6/1 323/7/1 324/8/1
f 325/1/1 326/2/1 327/3/1 328/4/1
f 329/1/1 330/2/1 331/3/1 332/4/1
f 333/20/1 334/21/1 335/2/1 336/1/1
f 337/20/1 338/21/1 339/2/1 340/1/1
f 341/20/1 342/21/1 343/2/1 344/1/1
f 345/21/1 346/5/1 347/8/1 348/2/1
f 349/22/1 350/20/1 351/1/1 352/23/1
f 353/17/1 354/11/1 355/14/1 356/18/1
f 357/6/1 358/9/1 359/10/1 360/7/1
f 361/1/1 362/2/1 363/3/1 364/4/1
f 365/1/1 366/2/1 367/3/1 368/4/1
f 369/23/1 370/1/1 371/4/1 372/24/1
f 373/5/1 374/6/1 375/7/1 376/8/1
f 377/5/1 378/6/1 379/7/1 380/8/1
f 381/1/1 382/2/1 383/3/1 384/4/1
f 385/23/1 386/1/1 387/4/1 388/24/1
f 389/11/1 390/12/1 391/13/1 392/14/1
f 393/10/1 394/15/1 395/12/1 396/11/1
f 397/1/1 398/2/1 399/3/1 400/4/1
f 401/23/1 402/1/1 403/4/1 404/24/1
f 405/1/1 406/2/1 407/3/1 408/4/1
f 409/1/1 410/2/1 411/3/1 412/4/1
f 413/1/1 414/2/1 415/3/1 416/4/1
f 417/4/1 418/3/1 419/25/1 420/26/1
f 421/4/1 422/3/1 423/25/1 424/26/1
f 425/4/1 426/3/1 427/25/1 428/26/1
f 429/3/1 430/16/1 431/19/1 432/25/1
f 433/24/1 434/4/1 435/26/1 436/27/1
f 437/7/1 438/10/1 439/11/1 440/17/1
f 441/1/1 442/2/1 443/3/1 444/4/1
f 445/1/1 446/2/1 447/3/1 448/4/1
f 449/1/1 450/2/1 451/3/1 452/4/1
f 453/6/1 454/9/1 455/10/1 456/7/1
f 457/1/1 458/2/1 459/3/1 460/4/1
f 461/1/1 462/2/1 463/3/1 464/4/1
f 465/8/1 466/7/1 467/17/1 468/16/1
f 469/3/1 470/16/1 471/19/1 472/25/1
f 473/24/1 474/4/1 475/26/1 476/27/1
f 477/7/1 478/10/1 479/11/1 480/17/1
f 481/1/1 482/2/1 483/3/1 484/4/1
f 485/1/1 486/2/1 487/3/1 488/4/1
f 489/1/1 490/2/1 491/3/1 492/4/1
f 493/1/1 494/2/1 495/3/1 496/4/1
f 497/1/1 498/2/1 499/3/1 500/4/1
f 501/1/1 502/2/1 503/3/1 504/4/1
f 505/1/1 506/2/1 507/3/1 508/4/1
f 509/1/1 510/2/1 511/3/1 512/4/1
f 513/8/1 514/7/1 515/17/1 516/16/1
f 517/4/1 518/3/1 519/25/1 520/26/1
f 521/4/1 522/3/1 523/25/1 524/26/1
f 525/4/1 526/3/1 527/25/1 528/26/1
f 529/4/1 530/3/1 531/25/1 532/26/1
f 533/4/1 534/3/1 535/25/1 536/26/1
f 537/7/1 538/10/1 539/11/1 540/17/1
f 541/1/1 542/2/1 543/3/1 544/4/1
f 545/1/1 546/2/1 547/3/1 548/4/1
f 549/1/1 550/2/1 551/3/1 552/4/1
f 553/1/1 554/2/1 555/3/1 556/4/1
f 557/1/1 558/2/1 559/3/1 560/4/1
f 561/1/1 562/2/1 563/3/1 564/4/1
f 565/1/1 566/2/1 567/3/1 568/4/1
f 569/5/1 570/6/1 571/7/1 572/8/1
f 573/6/1 574/9/1 575/10/1 576/7/1
f 577/1/1 578/2/1 579/3/1 580/4/1
f 581/1/1 582/2/1 583/3/1 584/4/1
f 585/1/1 586/2/1 587/3/1 588/4/1
f 589/11/1 590/12/1 591/13/1 592/14/1
f 593/1/1 594/2/1 595/3/1 596/4/1
f 597/1/1 598/2/1 599/3/1 600/4/1
f 601/1/1 602/2/1 603/3/1 604/4/1
f 605/5/1 606/6/1 607/7/1 608/8/1
f 609/10/1 610/15/1 611/12/1 612/11/1
f 613/1/1 614/2/1 615/3/1 616/4/1
f 617/1/1 618/2/1 619/3/1 620/4/1
f 621/1/1 622/2/1 623/3/1 624/4/1
f 625/1/1 626/2/1 627/3/1 628/4/1
f 629/1/1 630/2/1 631/3/1 632/4/1
f 633/1/1 634/2/1 635/3/1 636/4/1
f 637/10/1 638/15/1 639/12/1 640/11/1
f 641/6/1 642/9/1 643/10/1 644/7/1
f 645/1/1 646/2/1 647/3/1 648/4/1
f 649/1/1 650/2/1 651/3/1 652/4/1
f 653/1/1 654/2/1 655/3/1 656/4/1
f 657/1/1 658/2/1 659/3/1 660/4/1
f 661/1/1 662/2/1 663/3/1 664/4/1
f 665/10/1 666/15/1 667/12/1 668/11/1
f 669/10/1 670/15/1 671/12/1 672/11/1
f 673/1/1 674/2/1 675/3/1 676/4/1
f 677/1/1 678/2/1 679/3/1 680/4/1
f 681/1/1 682/2/1 683/3/1 684/4/1
f 685/1/1 686/2/1 687/3/1 688/4/1
f 689/1/1 690/2/1 691/3/1 692/4/1
f 693/1/1 694/2/1 695/3/1 696/4/1
f 697/1/1 698/2/1 699/3/1 700/4/1
f 701/1/1 702/2/1 703/3/1 704/4/1
f 705/1/1 706/2/1 707/3/1 708/4/1
f 709/1/1 710/2/1 711/3/1 712/4/1
f 713/1/1 714/2/1 715/3/1 716/4/1
f 717/1/1 718/2/1 719/3/1 720/4/1
f 721/1/1 722/2/1 723/3/1 724/4/1
f 725/1/1 726/2/1 727/3/1 728/4/1
f 729/1/1 730/2/1 731/3/1 732/4/1
f 733/1/1 734/2/1 735/3/1 736/4/1
f 737/1/1 738/2/1 739/3/1 740/4/1
f 741/1/1 742/2/1 743/3/1 744/4/1
f 745/1/1 746/2/1 747/3/1 748/4/1
f 749/1/1 750/2/1 751/3/1 752/4/1

