# Tiled2Unity generated file. Do not modify by hand.
# Wavefront file for 'Map_Master_mesh_0593.obj'

# Vertices (Count = 20)
v 0 -15 0
v -0.5 -15 0
v -0.5 -14.5 0
v 0 -14.5 0
v -1 -15 0
v -1.5 -15 0
v -1.5 -14.5 0
v -1 -14.5 0
v -2 -15 0
v -2.5 -15 0
v -2.5 -14.5 0
v -2 -14.5 0
v -3 -15 0
v -3.5 -15 0
v -3.5 -14.5 0
v -3 -14.5 0
v -4 -15 0
v -4.5 -15 0
v -4.5 -14.5 0
v -4 -14.5 0

# Texture cooridinates (Count = 4)
vt 0.3333333 0.5
vt 0.5 0.5
vt 0.5 1
vt 0.3333333 1

# Normal
vn 0 0 -1

# Mesh description
g Map_Master_mesh_0593

# Faces
f 1/1/1 2/2/1 3/3/1 4/4/1
f 5/1/1 6/2/1 7/3/1 8/4/1
f 9/1/1 10/2/1 11/3/1 12/4/1
f 13/1/1 14/2/1 15/3/1 16/4/1
f 17/1/1 18/2/1 19/3/1 20/4/1

