# Tiled2Unity generated file. Do not modify by hand.
# Wavefront file for 'Map_Master_mesh_0313.obj'

# Vertices (Count = 528)
v 0 -3 0
v -1 -3 0
v -1 -2 0
v 0 -2 0
v -1 -3 0
v -2 -3 0
v -2 -2 0
v -1 -2 0
v -2 -3 0
v -3 -3 0
v -3 -2 0
v -2 -2 0
v -3 -3 0
v -4 -3 0
v -4 -2 0
v -3 -2 0
v -4 -3 0
v -5 -3 0
v -5 -2 0
v -4 -2 0
v -5 -3 0
v -6 -3 0
v -6 -2 0
v -5 -2 0
v -6 -3 0
v -7 -3 0
v -7 -2 0
v -6 -2 0
v -7 -3 0
v -8 -3 0
v -8 -2 0
v -7 -2 0
v -8 -3 0
v -9 -3 0
v -9 -2 0
v -8 -2 0
v 0 -4 0
v -1 -4 0
v -1 -3 0
v 0 -3 0
v -1 -4 0
v -2 -4 0
v -2 -3 0
v -1 -3 0
v -2 -4 0
v -3 -4 0
v -3 -3 0
v -2 -3 0
v -3 -4 0
v -4 -4 0
v -4 -3 0
v -3 -3 0
v -4 -4 0
v -5 -4 0
v -5 -3 0
v -4 -3 0
v -5 -4 0
v -6 -4 0
v -6 -3 0
v -5 -3 0
v -6 -4 0
v -7 -4 0
v -7 -3 0
v -6 -3 0
v -7 -4 0
v -8 -4 0
v -8 -3 0
v -7 -3 0
v -8 -4 0
v -9 -4 0
v -9 -3 0
v -8 -3 0
v -9 -4 0
v -10 -4 0
v -10 -3 0
v -9 -3 0
v 0 -5 0
v -1 -5 0
v -1 -4 0
v 0 -4 0
v -1 -5 0
v -2 -5 0
v -2 -4 0
v -1 -4 0
v -2 -5 0
v -3 -5 0
v -3 -4 0
v -2 -4 0
v -3 -5 0
v -4 -5 0
v -4 -4 0
v -3 -4 0
v -4 -5 0
v -5 -5 0
v -5 -4 0
v -4 -4 0
v -5 -5 0
v -6 -5 0
v -6 -4 0
v -5 -4 0
v -6 -5 0
v -7 -5 0
v -7 -4 0
v -6 -4 0
v -7 -5 0
v -8 -5 0
v -8 -4 0
v -7 -4 0
v -8 -5 0
v -9 -5 0
v -9 -4 0
v -8 -4 0
v -9 -5 0
v -10 -5 0
v -10 -4 0
v -9 -4 0
v 0 -6 0
v -1 -6 0
v -1 -5 0
v 0 -5 0
v -1 -6 0
v -2 -6 0
v -2 -5 0
v -1 -5 0
v -2 -6 0
v -3 -6 0
v -3 -5 0
v -2 -5 0
v -3 -6 0
v -4 -6 0
v -4 -5 0
v -3 -5 0
v -4 -6 0
v -5 -6 0
v -5 -5 0
v -4 -5 0
v -5 -6 0
v -6 -6 0
v -6 -5 0
v -5 -5 0
v -6 -6 0
v -7 -6 0
v -7 -5 0
v -6 -5 0
v -7 -6 0
v -8 -6 0
v -8 -5 0
v -7 -5 0
v -8 -6 0
v -9 -6 0
v -9 -5 0
v -8 -5 0
v -9 -6 0
v -10 -6 0
v -10 -5 0
v -9 -5 0
v 0 -7 0
v -1 -7 0
v -1 -6 0
v 0 -6 0
v -1 -7 0
v -2 -7 0
v -2 -6 0
v -1 -6 0
v -2 -7 0
v -3 -7 0
v -3 -6 0
v -2 -6 0
v -3 -7 0
v -4 -7 0
v -4 -6 0
v -3 -6 0
v -4 -7 0
v -5 -7 0
v -5 -6 0
v -4 -6 0
v -5 -7 0
v -6 -7 0
v -6 -6 0
v -5 -6 0
v -6 -7 0
v -7 -7 0
v -7 -6 0
v -6 -6 0
v -7 -7 0
v -8 -7 0
v -8 -6 0
v -7 -6 0
v -8 -7 0
v -9 -7 0
v -9 -6 0
v -8 -6 0
v -9 -7 0
v -10 -7 0
v -10 -6 0
v -9 -6 0
v -10 -7 0
v -11 -7 0
v -11 -6 0
v -10 -6 0
v -11 -7 0
v -12 -7 0
v -12 -6 0
v -11 -6 0
v -15 -7 0
v -16 -7 0
v -16 -6 0
v -15 -6 0
v 0 -8 0
v -1 -8 0
v -1 -7 0
v 0 -7 0
v -1 -8 0
v -2 -8 0
v -2 -7 0
v -1 -7 0
v -2 -8 0
v -3 -8 0
v -3 -7 0
v -2 -7 0
v -3 -8 0
v -4 -8 0
v -4 -7 0
v -3 -7 0
v -4 -8 0
v -5 -8 0
v -5 -7 0
v -4 -7 0
v -5 -8 0
v -6 -8 0
v -6 -7 0
v -5 -7 0
v -6 -8 0
v -7 -8 0
v -7 -7 0
v -6 -7 0
v -7 -8 0
v -8 -8 0
v -8 -7 0
v -7 -7 0
v -8 -8 0
v -9 -8 0
v -9 -7 0
v -8 -7 0
v -9 -8 0
v -10 -8 0
v -10 -7 0
v -9 -7 0
v -10 -8 0
v -11 -8 0
v -11 -7 0
v -10 -7 0
v -11 -8 0
v -12 -8 0
v -12 -7 0
v -11 -7 0
v -12 -8 0
v -13 -8 0
v -13 -7 0
v -12 -7 0
v -13 -8 0
v -14 -8 0
v -14 -7 0
v -13 -7 0
v -14 -8 0
v -15 -8 0
v -15 -7 0
v -14 -7 0
v -15 -8 0
v -16 -8 0
v -16 -7 0
v -15 -7 0
v 0 -9 0
v -1 -9 0
v -1 -8 0
v 0 -8 0
v -1 -9 0
v -2 -9 0
v -2 -8 0
v -1 -8 0
v -2 -9 0
v -3 -9 0
v -3 -8 0
v -2 -8 0
v -3 -9 0
v -4 -9 0
v -4 -8 0
v -3 -8 0
v -4 -9 0
v -5 -9 0
v -5 -8 0
v -4 -8 0
v -5 -9 0
v -6 -9 0
v -6 -8 0
v -5 -8 0
v -6 -9 0
v -7 -9 0
v -7 -8 0
v -6 -8 0
v -7 -9 0
v -8 -9 0
v -8 -8 0
v -7 -8 0
v -8 -9 0
v -9 -9 0
v -9 -8 0
v -8 -8 0
v -9 -9 0
v -10 -9 0
v -10 -8 0
v -9 -8 0
v -10 -9 0
v -11 -9 0
v -11 -8 0
v -10 -8 0
v -11 -9 0
v -12 -9 0
v -12 -8 0
v -11 -8 0
v -12 -9 0
v -13 -9 0
v -13 -8 0
v -12 -8 0
v -13 -9 0
v -14 -9 0
v -14 -8 0
v -13 -8 0
v -14 -9 0
v -15 -9 0
v -15 -8 0
v -14 -8 0
v -15 -9 0
v -16 -9 0
v -16 -8 0
v -15 -8 0
v 0 -10 0
v -1 -10 0
v -1 -9 0
v 0 -9 0
v -1 -10 0
v -2 -10 0
v -2 -9 0
v -1 -9 0
v -2 -10 0
v -3 -10 0
v -3 -9 0
v -2 -9 0
v -3 -10 0
v -4 -10 0
v -4 -9 0
v -3 -9 0
v -4 -10 0
v -5 -10 0
v -5 -9 0
v -4 -9 0
v -5 -10 0
v -6 -10 0
v -6 -9 0
v -5 -9 0
v -6 -10 0
v -7 -10 0
v -7 -9 0
v -6 -9 0
v -7 -10 0
v -8 -10 0
v -8 -9 0
v -7 -9 0
v -8 -10 0
v -9 -10 0
v -9 -9 0
v -8 -9 0
v -9 -10 0
v -10 -10 0
v -10 -9 0
v -9 -9 0
v -10 -10 0
v -11 -10 0
v -11 -9 0
v -10 -9 0
v -11 -10 0
v -12 -10 0
v -12 -9 0
v -11 -9 0
v -12 -10 0
v -13 -10 0
v -13 -9 0
v -12 -9 0
v -13 -10 0
v -14 -10 0
v -14 -9 0
v -13 -9 0
v -14 -10 0
v -15 -10 0
v -15 -9 0
v -14 -9 0
v -15 -10 0
v -16 -10 0
v -16 -9 0
v -15 -9 0
v 0 -11 0
v -1 -11 0
v -1 -10 0
v 0 -10 0
v -1 -11 0
v -2 -11 0
v -2 -10 0
v -1 -10 0
v -2 -11 0
v -3 -11 0
v -3 -10 0
v -2 -10 0
v -3 -11 0
v -4 -11 0
v -4 -10 0
v -3 -10 0
v -4 -11 0
v -5 -11 0
v -5 -10 0
v -4 -10 0
v -5 -11 0
v -6 -11 0
v -6 -10 0
v -5 -10 0
v -6 -11 0
v -7 -11 0
v -7 -10 0
v -6 -10 0
v -7 -11 0
v -8 -11 0
v -8 -10 0
v -7 -10 0
v -8 -11 0
v -9 -11 0
v -9 -10 0
v -8 -10 0
v -9 -11 0
v -10 -11 0
v -10 -10 0
v -9 -10 0
v -10 -11 0
v -11 -11 0
v -11 -10 0
v -10 -10 0
v -11 -11 0
v -12 -11 0
v -12 -10 0
v -11 -10 0
v -12 -11 0
v -13 -11 0
v -13 -10 0
v -12 -10 0
v -13 -11 0
v -14 -11 0
v -14 -10 0
v -13 -10 0
v -14 -11 0
v -15 -11 0
v -15 -10 0
v -14 -10 0
v -15 -11 0
v -16 -11 0
v -16 -10 0
v -15 -10 0
v 0 -12 0
v -1 -12 0
v -1 -11 0
v 0 -11 0
v -1 -12 0
v -2 -12 0
v -2 -11 0
v -1 -11 0
v -2 -12 0
v -3 -12 0
v -3 -11 0
v -2 -11 0
v -3 -12 0
v -4 -12 0
v -4 -11 0
v -3 -11 0
v -4 -12 0
v -5 -12 0
v -5 -11 0
v -4 -11 0
v -5 -12 0
v -6 -12 0
v -6 -11 0
v -5 -11 0
v -6 -12 0
v -7 -12 0
v -7 -11 0
v -6 -11 0
v -7 -12 0
v -8 -12 0
v -8 -11 0
v -7 -11 0
v -8 -12 0
v -9 -12 0
v -9 -11 0
v -8 -11 0
v -9 -12 0
v -10 -12 0
v -10 -11 0
v -9 -11 0
v -10 -12 0
v -11 -12 0
v -11 -11 0
v -10 -11 0
v -11 -12 0
v -12 -12 0
v -12 -11 0
v -11 -11 0
v -12 -12 0
v -13 -12 0
v -13 -11 0
v -12 -11 0
v -13 -12 0
v -14 -12 0
v -14 -11 0
v -13 -11 0
v -14 -12 0
v -15 -12 0
v -15 -11 0
v -14 -11 0
v -15 -12 0
v -16 -12 0
v -16 -11 0
v -15 -11 0

# Texture cooridinates (Count = 15)
vt 0.1 0.7777778
vt 0.2 0.7777778
vt 0.2 0.8888889
vt 0.1 0.8888889
vt 0.3 0.7777778
vt 0.3 0.8888889
vt 0.1 0.6666666
vt 0.2 0.6666666
vt 0.4 0.7777778
vt 0.4 0.8888889
vt 0.3 0.6666666
vt 0 0.7777778
vt 0 0.8888889
vt 0.5 0.7777778
vt 0.5 0.8888889

# Normal
vn 0 0 -1

# Mesh description
g Map_Master_mesh_0313

# Faces
f 1/1/1 2/2/1 3/3/1 4/4/1
f 5/1/1 6/2/1 7/3/1 8/4/1
f 9/1/1 10/2/1 11/3/1 12/4/1
f 13/1/1 14/2/1 15/3/1 16/4/1
f 17/1/1 18/2/1 19/3/1 20/4/1
f 21/1/1 22/2/1 23/3/1 24/4/1
f 25/1/1 26/2/1 27/3/1 28/4/1
f 29/1/1 30/2/1 31/3/1 32/4/1
f 33/2/1 34/5/1 35/6/1 36/3/1
f 37/7/1 38/8/1 39/2/1 40/1/1
f 41/7/1 42/8/1 43/2/1 44/1/1
f 45/7/1 46/8/1 47/2/1 48/1/1
f 49/7/1 50/8/1 51/2/1 52/1/1
f 53/7/1 54/8/1 55/2/1 56/1/1
f 57/7/1 58/8/1 59/2/1 60/1/1
f 61/7/1 62/8/1 63/2/1 64/1/1
f 65/7/1 66/8/1 67/2/1 68/1/1
f 69/5/1 70/9/1 71/10/1 72/6/1
f 73/2/1 74/5/1 75/6/1 76/3/1
f 77/7/1 78/8/1 79/2/1 80/1/1
f 81/7/1 82/8/1 83/2/1 84/1/1
f 85/7/1 86/8/1 87/2/1 88/1/1
f 89/7/1 90/8/1 91/2/1 92/1/1
f 93/7/1 94/8/1 95/2/1 96/1/1
f 97/7/1 98/8/1 99/2/1 100/1/1
f 101/7/1 102/8/1 103/2/1 104/1/1
f 105/7/1 106/8/1 107/2/1 108/1/1
f 109/7/1 110/8/1 111/2/1 112/1/1
f 113/8/1 114/11/1 115/5/1 116/2/1
f 117/7/1 118/8/1 119/2/1 120/1/1
f 121/7/1 122/8/1 123/2/1 124/1/1
f 125/7/1 126/8/1 127/2/1 128/1/1
f 129/7/1 130/8/1 131/2/1 132/1/1
f 133/7/1 134/8/1 135/2/1 136/1/1
f 137/7/1 138/8/1 139/2/1 140/1/1
f 141/7/1 142/8/1 143/2/1 144/1/1
f 145/7/1 146/8/1 147/2/1 148/1/1
f 149/7/1 150/8/1 151/2/1 152/1/1
f 153/8/1 154/11/1 155/5/1 156/2/1
f 157/7/1 158/8/1 159/2/1 160/1/1
f 161/7/1 162/8/1 163/2/1 164/1/1
f 165/7/1 166/8/1 167/2/1 168/1/1
f 169/7/1 170/8/1 171/2/1 172/1/1
f 173/7/1 174/8/1 175/2/1 176/1/1
f 177/7/1 178/8/1 179/2/1 180/1/1
f 181/7/1 182/8/1 183/2/1 184/1/1
f 185/7/1 186/8/1 187/2/1 188/1/1
f 189/7/1 190/8/1 191/2/1 192/1/1
f 193/5/1 194/9/1 195/10/1 196/6/1
f 197/1/1 198/2/1 199/3/1 200/4/1
f 201/2/1 202/5/1 203/6/1 204/3/1
f 205/12/1 206/1/1 207/4/1 208/13/1
f 209/7/1 210/8/1 211/2/1 212/1/1
f 213/7/1 214/8/1 215/2/1 216/1/1
f 217/7/1 218/8/1 219/2/1 220/1/1
f 221/7/1 222/8/1 223/2/1 224/1/1
f 225/7/1 226/8/1 227/2/1 228/1/1
f 229/7/1 230/8/1 231/2/1 232/1/1
f 233/7/1 234/8/1 235/2/1 236/1/1
f 237/7/1 238/8/1 239/2/1 240/1/1
f 241/7/1 242/8/1 243/2/1 244/1/1
f 245/7/1 246/8/1 247/2/1 248/1/1
f 249/7/1 250/8/1 251/2/1 252/1/1
f 253/5/1 254/9/1 255/10/1 256/6/1
f 257/1/1 258/2/1 259/3/1 260/4/1
f 261/1/1 262/2/1 263/3/1 264/4/1
f 265/1/1 266/2/1 267/3/1 268/4/1
f 269/9/1 270/14/1 271/15/1 272/10/1
f 273/7/1 274/8/1 275/2/1 276/1/1
f 277/7/1 278/8/1 279/2/1 280/1/1
f 281/7/1 282/8/1 283/2/1 284/1/1
f 285/7/1 286/8/1 287/2/1 288/1/1
f 289/7/1 290/8/1 291/2/1 292/1/1
f 293/7/1 294/8/1 295/2/1 296/1/1
f 297/7/1 298/8/1 299/2/1 300/1/1
f 301/7/1 302/8/1 303/2/1 304/1/1
f 305/7/1 306/8/1 307/2/1 308/1/1
f 309/7/1 310/8/1 311/2/1 312/1/1
f 313/7/1 314/8/1 315/2/1 316/1/1
f 317/7/1 318/8/1 319/2/1 320/1/1
f 321/7/1 322/8/1 323/2/1 324/1/1
f 325/7/1 326/8/1 327/2/1 328/1/1
f 329/7/1 330/8/1 331/2/1 332/1/1
f 333/7/1 334/8/1 335/2/1 336/1/1
f 337/7/1 338/8/1 339/2/1 340/1/1
f 341/7/1 342/8/1 343/2/1 344/1/1
f 345/7/1 346/8/1 347/2/1 348/1/1
f 349/7/1 350/8/1 351/2/1 352/1/1
f 353/7/1 354/8/1 355/2/1 356/1/1
f 357/7/1 358/8/1 359/2/1 360/1/1
f 361/7/1 362/8/1 363/2/1 364/1/1
f 365/7/1 366/8/1 367/2/1 368/1/1
f 369/7/1 370/8/1 371/2/1 372/1/1
f 373/7/1 374/8/1 375/2/1 376/1/1
f 377/7/1 378/8/1 379/2/1 380/1/1
f 381/7/1 382/8/1 383/2/1 384/1/1
f 385/7/1 386/8/1 387/2/1 388/1/1
f 389/7/1 390/8/1 391/2/1 392/1/1
f 393/7/1 394/8/1 395/2/1 396/1/1
f 397/7/1 398/8/1 399/2/1 400/1/1
f 401/7/1 402/8/1 403/2/1 404/1/1
f 405/7/1 406/8/1 407/2/1 408/1/1
f 409/7/1 410/8/1 411/2/1 412/1/1
f 413/7/1 414/8/1 415/2/1 416/1/1
f 417/7/1 418/8/1 419/2/1 420/1/1
f 421/7/1 422/8/1 423/2/1 424/1/1
f 425/7/1 426/8/1 427/2/1 428/1/1
f 429/7/1 430/8/1 431/2/1 432/1/1
f 433/7/1 434/8/1 435/2/1 436/1/1
f 437/7/1 438/8/1 439/2/1 440/1/1
f 441/7/1 442/8/1 443/2/1 444/1/1
f 445/7/1 446/8/1 447/2/1 448/1/1
f 449/7/1 450/8/1 451/2/1 452/1/1
f 453/7/1 454/8/1 455/2/1 456/1/1
f 457/7/1 458/8/1 459/2/1 460/1/1
f 461/7/1 462/8/1 463/2/1 464/1/1
f 465/7/1 466/8/1 467/2/1 468/1/1
f 469/7/1 470/8/1 471/2/1 472/1/1
f 473/7/1 474/8/1 475/2/1 476/1/1
f 477/7/1 478/8/1 479/2/1 480/1/1
f 481/7/1 482/8/1 483/2/1 484/1/1
f 485/7/1 486/8/1 487/2/1 488/1/1
f 489/7/1 490/8/1 491/2/1 492/1/1
f 493/7/1 494/8/1 495/2/1 496/1/1
f 497/7/1 498/8/1 499/2/1 500/1/1
f 501/7/1 502/8/1 503/2/1 504/1/1
f 505/7/1 506/8/1 507/2/1 508/1/1
f 509/7/1 510/8/1 511/2/1 512/1/1
f 513/7/1 514/8/1 515/2/1 516/1/1
f 517/7/1 518/8/1 519/2/1 520/1/1
f 521/7/1 522/8/1 523/2/1 524/1/1
f 525/7/1 526/8/1 527/2/1 528/1/1

