# Tiled2Unity generated file. Do not modify by hand.
# Wavefront file for 'Map_Master_mesh_0165.obj'

# Vertices (Count = 20)
v 0 -2 0
v -1 -2 0
v -1 -1 0
v 0 -1 0
v -1 -2 0
v -2 -2 0
v -2 -1 0
v -1 -1 0
v -13 -3 0
v -14 -3 0
v -14 -2 0
v -13 -2 0
v -14 -3 0
v -15 -3 0
v -15 -2 0
v -14 -2 0
v -15 -3 0
v -16 -3 0
v -16 -2 0
v -15 -2 0

# Texture cooridinates (Count = 8)
vt 0.7 0.4444444
vt 0.8 0.4444444
vt 0.8 0.5555556
vt 0.7 0.5555556
vt 0.9 0.4444444
vt 0.9 0.5555556
vt 0.6 0.4444444
vt 0.6 0.5555556

# Normal
vn 0 0 -1

# Mesh description
g Map_Master_mesh_0165

# Faces
f 1/1/1 2/2/1 3/3/1 4/4/1
f 5/2/1 6/5/1 7/6/1 8/3/1
f 9/7/1 10/1/1 11/4/1 12/8/1
f 13/1/1 14/2/1 15/3/1 16/4/1
f 17/1/1 18/2/1 19/3/1 20/4/1

