# Tiled2Unity generated file. Do not modify by hand.
# Wavefront file for 'Map_Master_mesh_0607.obj'

# Vertices (Count = 52)
v 0 -1 0
v -0.5 -1 0
v -0.5 -0.5 0
v 0 -0.5 0
v -1 -1 0
v -1.5 -1 0
v -1.5 -0.5 0
v -1 -0.5 0
v -5 -1 0
v -5.5 -1 0
v -5.5 -0.5 0
v -5 -0.5 0
v -6 -1 0
v -6.5 -1 0
v -6.5 -0.5 0
v -6 -0.5 0
v -7 -1 0
v -7.5 -1 0
v -7.5 -0.5 0
v -7 -0.5 0
v -11 -1 0
v -11.5 -1 0
v -11.5 -0.5 0
v -11 -0.5 0
v -12 -1 0
v -12.5 -1 0
v -12.5 -0.5 0
v -12 -0.5 0
v -13 -1 0
v -13.5 -1 0
v -13.5 -0.5 0
v -13 -0.5 0
v -12 -2 0
v -12.5 -2 0
v -12.5 -1.5 0
v -12 -1.5 0
v -8 -15 0
v -8.5 -15 0
v -8.5 -14.5 0
v -8 -14.5 0
v -7 -16 0
v -7.5 -16 0
v -7.5 -15.5 0
v -7 -15.5 0
v -8 -16 0
v -8.5 -16 0
v -8.5 -15.5 0
v -8 -15.5 0
v -9 -16 0
v -9.5 -16 0
v -9.5 -15.5 0
v -9 -15.5 0

# Texture cooridinates (Count = 8)
vt 0.3333333 0.5
vt 0.5 0.5
vt 0.5 1
vt 0.3333333 1
vt 0 0.5
vt 0.1666667 0.5
vt 0.1666667 1
vt 0 1

# Normal
vn 0 0 -1

# Mesh description
g Map_Master_mesh_0607

# Faces
f 1/1/1 2/2/1 3/3/1 4/4/1
f 5/1/1 6/2/1 7/3/1 8/4/1
f 9/1/1 10/2/1 11/3/1 12/4/1
f 13/1/1 14/2/1 15/3/1 16/4/1
f 17/1/1 18/2/1 19/3/1 20/4/1
f 21/5/1 22/6/1 23/7/1 24/8/1
f 25/5/1 26/6/1 27/7/1 28/8/1
f 29/5/1 30/6/1 31/7/1 32/8/1
f 33/5/1 34/6/1 35/7/1 36/8/1
f 37/5/1 38/6/1 39/7/1 40/8/1
f 41/5/1 42/6/1 43/7/1 44/8/1
f 45/5/1 46/6/1 47/7/1 48/8/1
f 49/5/1 50/6/1 51/7/1 52/8/1

