# Tiled2Unity generated file. Do not modify by hand.
# Wavefront file for 'Map_Master_mesh_0067.obj'

# Vertices (Count = 12)
v -12 -12 0
v -13 -12 0
v -13 -11 0
v -12 -11 0
v -13 -12 0
v -14 -12 0
v -14 -11 0
v -13 -11 0
v -14 -13 0
v -15 -13 0
v -15 -12 0
v -14 -12 0

# Texture cooridinates (Count = 8)
vt 0.5 0.3333333
vt 0.6 0.3333333
vt 0.6 0.4444444
vt 0.5 0.4444444
vt 0.7 0.3333333
vt 0.7 0.4444444
vt 0.8 0.3333333
vt 0.8 0.4444444

# Normal
vn 0 0 -1

# Mesh description
g Map_Master_mesh_0067

# Faces
f 1/1/1 2/2/1 3/3/1 4/4/1
f 5/2/1 6/5/1 7/6/1 8/3/1
f 9/5/1 10/7/1 11/8/1 12/6/1

