# Tiled2Unity generated file. Do not modify by hand.
# Wavefront file for 'Map_Master_mesh_0118.obj'

# Vertices (Count = 700)
v -2 -1 0
v -3 -1 0
v -3 0 0
v -2 0 0
v -6 -1 0
v -7 -1 0
v -7 0 0
v -6 0 0
v -7 -1 0
v -8 -1 0
v -8 0 0
v -7 0 0
v -8 -1 0
v -9 -1 0
v -9 0 0
v -8 0 0
v -9 -1 0
v -10 -1 0
v -10 0 0
v -9 0 0
v -10 -1 0
v -11 -1 0
v -11 0 0
v -10 0 0
v -11 -1 0
v -12 -1 0
v -12 0 0
v -11 0 0
v -12 -1 0
v -13 -1 0
v -13 0 0
v -12 0 0
v -13 -1 0
v -14 -1 0
v -14 0 0
v -13 0 0
v -14 -1 0
v -15 -1 0
v -15 0 0
v -14 0 0
v -2 -2 0
v -3 -2 0
v -3 -1 0
v -2 -1 0
v -6 -2 0
v -7 -2 0
v -7 -1 0
v -6 -1 0
v -7 -2 0
v -8 -2 0
v -8 -1 0
v -7 -1 0
v -8 -2 0
v -9 -2 0
v -9 -1 0
v -8 -1 0
v -9 -2 0
v -10 -2 0
v -10 -1 0
v -9 -1 0
v -10 -2 0
v -11 -2 0
v -11 -1 0
v -10 -1 0
v -11 -2 0
v -12 -2 0
v -12 -1 0
v -11 -1 0
v -12 -2 0
v -13 -2 0
v -13 -1 0
v -12 -1 0
v -13 -2 0
v -14 -2 0
v -14 -1 0
v -13 -1 0
v -14 -2 0
v -15 -2 0
v -15 -1 0
v -14 -1 0
v -15 -2 0
v -16 -2 0
v -16 -1 0
v -15 -1 0
v -2 -3 0
v -3 -3 0
v -3 -2 0
v -2 -2 0
v -6 -3 0
v -7 -3 0
v -7 -2 0
v -6 -2 0
v -7 -3 0
v -8 -3 0
v -8 -2 0
v -7 -2 0
v -8 -3 0
v -9 -3 0
v -9 -2 0
v -8 -2 0
v -9 -3 0
v -10 -3 0
v -10 -2 0
v -9 -2 0
v -10 -3 0
v -11 -3 0
v -11 -2 0
v -10 -2 0
v -11 -3 0
v -12 -3 0
v -12 -2 0
v -11 -2 0
v -12 -3 0
v -13 -3 0
v -13 -2 0
v -12 -2 0
v -13 -3 0
v -14 -3 0
v -14 -2 0
v -13 -2 0
v -14 -3 0
v -15 -3 0
v -15 -2 0
v -14 -2 0
v -15 -3 0
v -16 -3 0
v -16 -2 0
v -15 -2 0
v -2 -4 0
v -3 -4 0
v -3 -3 0
v -2 -3 0
v -6 -4 0
v -7 -4 0
v -7 -3 0
v -6 -3 0
v -7 -4 0
v -8 -4 0
v -8 -3 0
v -7 -3 0
v -8 -4 0
v -9 -4 0
v -9 -3 0
v -8 -3 0
v -9 -4 0
v -10 -4 0
v -10 -3 0
v -9 -3 0
v -10 -4 0
v -11 -4 0
v -11 -3 0
v -10 -3 0
v -11 -4 0
v -12 -4 0
v -12 -3 0
v -11 -3 0
v -12 -4 0
v -13 -4 0
v -13 -3 0
v -12 -3 0
v -13 -4 0
v -14 -4 0
v -14 -3 0
v -13 -3 0
v -14 -4 0
v -15 -4 0
v -15 -3 0
v -14 -3 0
v -15 -4 0
v -16 -4 0
v -16 -3 0
v -15 -3 0
v -6 -5 0
v -7 -5 0
v -7 -4 0
v -6 -4 0
v -7 -5 0
v -8 -5 0
v -8 -4 0
v -7 -4 0
v -8 -5 0
v -9 -5 0
v -9 -4 0
v -8 -4 0
v -9 -5 0
v -10 -5 0
v -10 -4 0
v -9 -4 0
v -10 -5 0
v -11 -5 0
v -11 -4 0
v -10 -4 0
v -11 -5 0
v -12 -5 0
v -12 -4 0
v -11 -4 0
v -12 -5 0
v -13 -5 0
v -13 -4 0
v -12 -4 0
v -13 -5 0
v -14 -5 0
v -14 -4 0
v -13 -4 0
v -14 -5 0
v -15 -5 0
v -15 -4 0
v -14 -4 0
v -15 -5 0
v -16 -5 0
v -16 -4 0
v -15 -4 0
v -6 -6 0
v -7 -6 0
v -7 -5 0
v -6 -5 0
v -7 -6 0
v -8 -6 0
v -8 -5 0
v -7 -5 0
v -8 -6 0
v -9 -6 0
v -9 -5 0
v -8 -5 0
v -9 -6 0
v -10 -6 0
v -10 -5 0
v -9 -5 0
v -10 -6 0
v -11 -6 0
v -11 -5 0
v -10 -5 0
v -11 -6 0
v -12 -6 0
v -12 -5 0
v -11 -5 0
v -12 -6 0
v -13 -6 0
v -13 -5 0
v -12 -5 0
v -13 -6 0
v -14 -6 0
v -14 -5 0
v -13 -5 0
v -14 -6 0
v -15 -6 0
v -15 -5 0
v -14 -5 0
v -15 -6 0
v -16 -6 0
v -16 -5 0
v -15 -5 0
v 0 -7 0
v -1 -7 0
v -1 -6 0
v 0 -6 0
v -1 -7 0
v -2 -7 0
v -2 -6 0
v -1 -6 0
v -2 -7 0
v -3 -7 0
v -3 -6 0
v -2 -6 0
v -3 -7 0
v -4 -7 0
v -4 -6 0
v -3 -6 0
v -4 -7 0
v -5 -7 0
v -5 -6 0
v -4 -6 0
v -5 -7 0
v -6 -7 0
v -6 -6 0
v -5 -6 0
v -6 -7 0
v -7 -7 0
v -7 -6 0
v -6 -6 0
v -7 -7 0
v -8 -7 0
v -8 -6 0
v -7 -6 0
v -8 -7 0
v -9 -7 0
v -9 -6 0
v -8 -6 0
v -9 -7 0
v -10 -7 0
v -10 -6 0
v -9 -6 0
v -10 -7 0
v -11 -7 0
v -11 -6 0
v -10 -6 0
v -11 -7 0
v -12 -7 0
v -12 -6 0
v -11 -6 0
v -12 -7 0
v -13 -7 0
v -13 -6 0
v -12 -6 0
v -13 -7 0
v -14 -7 0
v -14 -6 0
v -13 -6 0
v -14 -7 0
v -15 -7 0
v -15 -6 0
v -14 -6 0
v -15 -7 0
v -16 -7 0
v -16 -6 0
v -15 -6 0
v 0 -8 0
v -1 -8 0
v -1 -7 0
v 0 -7 0
v -1 -8 0
v -2 -8 0
v -2 -7 0
v -1 -7 0
v -2 -8 0
v -3 -8 0
v -3 -7 0
v -2 -7 0
v -3 -8 0
v -4 -8 0
v -4 -7 0
v -3 -7 0
v -4 -8 0
v -5 -8 0
v -5 -7 0
v -4 -7 0
v -5 -8 0
v -6 -8 0
v -6 -7 0
v -5 -7 0
v -6 -8 0
v -7 -8 0
v -7 -7 0
v -6 -7 0
v -7 -8 0
v -8 -8 0
v -8 -7 0
v -7 -7 0
v -8 -8 0
v -9 -8 0
v -9 -7 0
v -8 -7 0
v -9 -8 0
v -10 -8 0
v -10 -7 0
v -9 -7 0
v -10 -8 0
v -11 -8 0
v -11 -7 0
v -10 -7 0
v -11 -8 0
v -12 -8 0
v -12 -7 0
v -11 -7 0
v -12 -8 0
v -13 -8 0
v -13 -7 0
v -12 -7 0
v -13 -8 0
v -14 -8 0
v -14 -7 0
v -13 -7 0
v -14 -8 0
v -15 -8 0
v -15 -7 0
v -14 -7 0
v -15 -8 0
v -16 -8 0
v -16 -7 0
v -15 -7 0
v 0 -9 0
v -1 -9 0
v -1 -8 0
v 0 -8 0
v -1 -9 0
v -2 -9 0
v -2 -8 0
v -1 -8 0
v -2 -9 0
v -3 -9 0
v -3 -8 0
v -2 -8 0
v -3 -9 0
v -4 -9 0
v -4 -8 0
v -3 -8 0
v -4 -9 0
v -5 -9 0
v -5 -8 0
v -4 -8 0
v -5 -9 0
v -6 -9 0
v -6 -8 0
v -5 -8 0
v -6 -9 0
v -7 -9 0
v -7 -8 0
v -6 -8 0
v -7 -9 0
v -8 -9 0
v -8 -8 0
v -7 -8 0
v -8 -9 0
v -9 -9 0
v -9 -8 0
v -8 -8 0
v -9 -9 0
v -10 -9 0
v -10 -8 0
v -9 -8 0
v -10 -9 0
v -11 -9 0
v -11 -8 0
v -10 -8 0
v -11 -9 0
v -12 -9 0
v -12 -8 0
v -11 -8 0
v -12 -9 0
v -13 -9 0
v -13 -8 0
v -12 -8 0
v -13 -9 0
v -14 -9 0
v -14 -8 0
v -13 -8 0
v -14 -9 0
v -15 -9 0
v -15 -8 0
v -14 -8 0
v -15 -9 0
v -16 -9 0
v -16 -8 0
v -15 -8 0
v 0 -10 0
v -1 -10 0
v -1 -9 0
v 0 -9 0
v -1 -10 0
v -2 -10 0
v -2 -9 0
v -1 -9 0
v -2 -10 0
v -3 -10 0
v -3 -9 0
v -2 -9 0
v -3 -10 0
v -4 -10 0
v -4 -9 0
v -3 -9 0
v -4 -10 0
v -5 -10 0
v -5 -9 0
v -4 -9 0
v -5 -10 0
v -6 -10 0
v -6 -9 0
v -5 -9 0
v -6 -10 0
v -7 -10 0
v -7 -9 0
v -6 -9 0
v -7 -10 0
v -8 -10 0
v -8 -9 0
v -7 -9 0
v -8 -10 0
v -9 -10 0
v -9 -9 0
v -8 -9 0
v -9 -10 0
v -10 -10 0
v -10 -9 0
v -9 -9 0
v -10 -10 0
v -11 -10 0
v -11 -9 0
v -10 -9 0
v -11 -10 0
v -12 -10 0
v -12 -9 0
v -11 -9 0
v -12 -10 0
v -13 -10 0
v -13 -9 0
v -12 -9 0
v -13 -10 0
v -14 -10 0
v -14 -9 0
v -13 -9 0
v -14 -10 0
v -15 -10 0
v -15 -9 0
v -14 -9 0
v -15 -10 0
v -16 -10 0
v -16 -9 0
v -15 -9 0
v 0 -11 0
v -1 -11 0
v -1 -10 0
v 0 -10 0
v -1 -11 0
v -2 -11 0
v -2 -10 0
v -1 -10 0
v -2 -11 0
v -3 -11 0
v -3 -10 0
v -2 -10 0
v -3 -11 0
v -4 -11 0
v -4 -10 0
v -3 -10 0
v -4 -11 0
v -5 -11 0
v -5 -10 0
v -4 -10 0
v -5 -11 0
v -6 -11 0
v -6 -10 0
v -5 -10 0
v -6 -11 0
v -7 -11 0
v -7 -10 0
v -6 -10 0
v -7 -11 0
v -8 -11 0
v -8 -10 0
v -7 -10 0
v -8 -11 0
v -9 -11 0
v -9 -10 0
v -8 -10 0
v -9 -11 0
v -10 -11 0
v -10 -10 0
v -9 -10 0
v -10 -11 0
v -11 -11 0
v -11 -10 0
v -10 -10 0
v -11 -11 0
v -12 -11 0
v -12 -10 0
v -11 -10 0
v -12 -11 0
v -13 -11 0
v -13 -10 0
v -12 -10 0
v -13 -11 0
v -14 -11 0
v -14 -10 0
v -13 -10 0
v -14 -11 0
v -15 -11 0
v -15 -10 0
v -14 -10 0
v -15 -11 0
v -16 -11 0
v -16 -10 0
v -15 -10 0
v 0 -12 0
v -1 -12 0
v -1 -11 0
v 0 -11 0
v -1 -12 0
v -2 -12 0
v -2 -11 0
v -1 -11 0
v -2 -12 0
v -3 -12 0
v -3 -11 0
v -2 -11 0
v -3 -12 0
v -4 -12 0
v -4 -11 0
v -3 -11 0
v -4 -12 0
v -5 -12 0
v -5 -11 0
v -4 -11 0
v -5 -12 0
v -6 -12 0
v -6 -11 0
v -5 -11 0
v -6 -12 0
v -7 -12 0
v -7 -11 0
v -6 -11 0
v -7 -12 0
v -8 -12 0
v -8 -11 0
v -7 -11 0
v -8 -12 0
v -9 -12 0
v -9 -11 0
v -8 -11 0
v -9 -12 0
v -10 -12 0
v -10 -11 0
v -9 -11 0
v -10 -12 0
v -11 -12 0
v -11 -11 0
v -10 -11 0
v -11 -12 0
v -12 -12 0
v -12 -11 0
v -11 -11 0
v -12 -12 0
v -13 -12 0
v -13 -11 0
v -12 -11 0
v -13 -12 0
v -14 -12 0
v -14 -11 0
v -13 -11 0
v -14 -12 0
v -15 -12 0
v -15 -11 0
v -14 -11 0
v -15 -12 0
v -16 -12 0
v -16 -11 0
v -15 -11 0
v 0 -13 0
v -1 -13 0
v -1 -12 0
v 0 -12 0
v -1 -13 0
v -2 -13 0
v -2 -12 0
v -1 -12 0
v -2 -13 0
v -3 -13 0
v -3 -12 0
v -2 -12 0
v -3 -13 0
v -4 -13 0
v -4 -12 0
v -3 -12 0
v -4 -13 0
v -5 -13 0
v -5 -12 0
v -4 -12 0
v -5 -13 0
v -6 -13 0
v -6 -12 0
v -5 -12 0
v -6 -13 0
v -7 -13 0
v -7 -12 0
v -6 -12 0
v -7 -13 0
v -8 -13 0
v -8 -12 0
v -7 -12 0
v -8 -13 0
v -9 -13 0
v -9 -12 0
v -8 -12 0
v -9 -13 0
v -10 -13 0
v -10 -12 0
v -9 -12 0
v -10 -13 0
v -11 -13 0
v -11 -12 0
v -10 -12 0
v -11 -13 0
v -12 -13 0
v -12 -12 0
v -11 -12 0
v -12 -13 0
v -13 -13 0
v -13 -12 0
v -12 -12 0
v -13 -13 0
v -14 -13 0
v -14 -12 0
v -13 -12 0
v -14 -13 0
v -15 -13 0
v -15 -12 0
v -14 -12 0
v -15 -13 0
v -16 -13 0
v -16 -12 0
v -15 -12 0

# Texture cooridinates (Count = 29)
vt 0.3 0.5555556
vt 0.4 0.5555556
vt 0.4 0.6666666
vt 0.3 0.6666666
vt 0 0.6666666
vt 0.1 0.6666666
vt 0.1 0.7777778
vt 0 0.7777778
vt 0.5 0.5555556
vt 0.5 0.6666666
vt 0.5 0.4444444
vt 0.6 0.4444444
vt 0.6 0.5555556
vt 0.2 0.6666666
vt 0.2 0.7777778
vt 0.3 0.7777778
vt 0.2 0.8888889
vt 0.1 0.8888889
vt 0.7 0.7777778
vt 0.8 0.7777778
vt 0.8 0.8888889
vt 0.7 0.8888889
vt 0.4 0.4444444
vt 0.6 0.6666666
vt 0.3 0.4444444
vt 0.4 0.7777778
vt 0.5 0.7777778
vt 0.5 0.8888889
vt 0.4 0.8888889

# Normal
vn 0 0 -1

# Mesh description
g Map_Master_mesh_0118

# Faces
f 1/1/1 2/2/1 3/3/1 4/4/1
f 5/5/1 6/6/1 7/7/1 8/8/1
f 9/2/1 10/9/1 11/10/1 12/3/1
f 13/11/1 14/12/1 15/13/1 16/9/1
f 17/6/1 18/14/1 19/15/1 20/7/1
f 21/6/1 22/14/1 23/15/1 24/7/1
f 25/6/1 26/14/1 27/15/1 28/7/1
f 29/6/1 30/14/1 31/15/1 32/7/1
f 33/6/1 34/14/1 35/15/1 36/7/1
f 37/14/1 38/4/1 39/16/1 40/15/1
f 41/1/1 42/2/1 43/3/1 44/4/1
f 45/5/1 46/6/1 47/7/1 48/8/1
f 49/6/1 50/14/1 51/15/1 52/7/1
f 53/6/1 54/14/1 55/15/1 56/7/1
f 57/6/1 58/14/1 59/15/1 60/7/1
f 61/6/1 62/14/1 63/15/1 64/7/1
f 65/6/1 66/14/1 67/15/1 68/7/1
f 69/6/1 70/14/1 71/15/1 72/7/1
f 73/6/1 74/14/1 75/15/1 76/7/1
f 77/7/1 78/15/1 79/17/1 80/18/1
f 81/19/1 82/20/1 83/21/1 84/22/1
f 85/1/1 86/2/1 87/3/1 88/4/1
f 89/5/1 90/6/1 91/7/1 92/8/1
f 93/6/1 94/14/1 95/15/1 96/7/1
f 97/6/1 98/14/1 99/15/1 100/7/1
f 101/6/1 102/14/1 103/15/1 104/7/1
f 105/23/1 106/11/1 107/9/1 108/2/1
f 109/6/1 110/14/1 111/15/1 112/7/1
f 113/6/1 114/14/1 115/15/1 116/7/1
f 117/6/1 118/14/1 119/15/1 120/7/1
f 121/9/1 122/13/1 123/24/1 124/10/1
f 125/11/1 126/12/1 127/13/1 128/9/1
f 129/25/1 130/23/1 131/2/1 132/1/1
f 133/5/1 134/6/1 135/7/1 136/8/1
f 137/6/1 138/14/1 139/15/1 140/7/1
f 141/6/1 142/14/1 143/15/1 144/7/1
f 145/6/1 146/14/1 147/15/1 148/7/1
f 149/6/1 150/14/1 151/15/1 152/7/1
f 153/6/1 154/14/1 155/15/1 156/7/1
f 157/2/1 158/9/1 159/10/1 160/3/1
f 161/6/1 162/14/1 163/15/1 164/7/1
f 165/6/1 166/14/1 167/15/1 168/7/1
f 169/6/1 170/14/1 171/15/1 172/7/1
f 173/5/1 174/6/1 175/7/1 176/8/1
f 177/6/1 178/14/1 179/15/1 180/7/1
f 181/6/1 182/14/1 183/15/1 184/7/1
f 185/6/1 186/14/1 187/15/1 188/7/1
f 189/6/1 190/14/1 191/15/1 192/7/1
f 193/6/1 194/14/1 195/15/1 196/7/1
f 197/6/1 198/14/1 199/15/1 200/7/1
f 201/6/1 202/14/1 203/15/1 204/7/1
f 205/6/1 206/14/1 207/15/1 208/7/1
f 209/6/1 210/14/1 211/15/1 212/7/1
f 213/5/1 214/6/1 215/7/1 216/8/1
f 217/6/1 218/14/1 219/15/1 220/7/1
f 221/6/1 222/14/1 223/15/1 224/7/1
f 225/6/1 226/14/1 227/15/1 228/7/1
f 229/6/1 230/14/1 231/15/1 232/7/1
f 233/6/1 234/14/1 235/15/1 236/7/1
f 237/6/1 238/14/1 239/15/1 240/7/1
f 241/6/1 242/14/1 243/15/1 244/7/1
f 245/6/1 246/14/1 247/15/1 248/7/1
f 249/6/1 250/14/1 251/15/1 252/7/1
f 253/19/1 254/20/1 255/21/1 256/22/1
f 257/19/1 258/20/1 259/21/1 260/22/1
f 261/19/1 262/20/1 263/21/1 264/22/1
f 265/19/1 266/20/1 267/21/1 268/22/1
f 269/19/1 270/20/1 271/21/1 272/22/1
f 273/19/1 274/20/1 275/21/1 276/22/1
f 277/26/1 278/27/1 279/28/1 280/29/1
f 281/6/1 282/14/1 283/15/1 284/7/1
f 285/6/1 286/14/1 287/15/1 288/7/1
f 289/6/1 290/14/1 291/15/1 292/7/1
f 293/6/1 294/14/1 295/15/1 296/7/1
f 297/9/1 298/13/1 299/24/1 300/10/1
f 301/6/1 302/14/1 303/15/1 304/7/1
f 305/6/1 306/14/1 307/15/1 308/7/1
f 309/6/1 310/14/1 311/15/1 312/7/1
f 313/6/1 314/14/1 315/15/1 316/7/1
f 317/6/1 318/14/1 319/15/1 320/7/1
f 321/6/1 322/14/1 323/15/1 324/7/1
f 325/6/1 326/14/1 327/15/1 328/7/1
f 329/6/1 330/14/1 331/15/1 332/7/1
f 333/6/1 334/14/1 335/15/1 336/7/1
f 337/6/1 338/14/1 339/15/1 340/7/1
f 341/6/1 342/14/1 343/15/1 344/7/1
f 345/11/1 346/12/1 347/13/1 348/9/1
f 349/2/1 350/9/1 351/10/1 352/3/1
f 353/6/1 354/14/1 355/15/1 356/7/1
f 357/6/1 358/14/1 359/15/1 360/7/1
f 361/6/1 362/14/1 363/15/1 364/7/1
f 365/6/1 366/14/1 367/15/1 368/7/1
f 369/6/1 370/14/1 371/15/1 372/7/1
f 373/6/1 374/14/1 375/15/1 376/7/1
f 377/6/1 378/14/1 379/15/1 380/7/1
f 381/6/1 382/14/1 383/15/1 384/7/1
f 385/6/1 386/14/1 387/15/1 388/7/1
f 389/9/1 390/13/1 391/24/1 392/10/1
f 393/6/1 394/14/1 395/15/1 396/7/1
f 397/6/1 398/14/1 399/15/1 400/7/1
f 401/6/1 402/14/1 403/15/1 404/7/1
f 405/6/1 406/14/1 407/15/1 408/7/1
f 409/6/1 410/14/1 411/15/1 412/7/1
f 413/6/1 414/14/1 415/15/1 416/7/1
f 417/6/1 418/14/1 419/15/1 420/7/1
f 421/6/1 422/14/1 423/15/1 424/7/1
f 425/6/1 426/14/1 427/15/1 428/7/1
f 429/6/1 430/14/1 431/15/1 432/7/1
f 433/6/1 434/14/1 435/15/1 436/7/1
f 437/6/1 438/14/1 439/15/1 440/7/1
f 441/6/1 442/14/1 443/15/1 444/7/1
f 445/6/1 446/14/1 447/15/1 448/7/1
f 449/6/1 450/14/1 451/15/1 452/7/1
f 453/6/1 454/14/1 455/15/1 456/7/1
f 457/6/1 458/14/1 459/15/1 460/7/1
f 461/6/1 462/14/1 463/15/1 464/7/1
f 465/6/1 466/14/1 467/15/1 468/7/1
f 469/6/1 470/14/1 471/15/1 472/7/1
f 473/6/1 474/14/1 475/15/1 476/7/1
f 477/6/1 478/14/1 479/15/1 480/7/1
f 481/6/1 482/14/1 483/15/1 484/7/1
f 485/6/1 486/14/1 487/15/1 488/7/1
f 489/6/1 490/14/1 491/15/1 492/7/1
f 493/6/1 494/14/1 495/15/1 496/7/1
f 497/6/1 498/14/1 499/15/1 500/7/1
f 501/6/1 502/14/1 503/15/1 504/7/1
f 505/6/1 506/14/1 507/15/1 508/7/1
f 509/6/1 510/14/1 511/15/1 512/7/1
f 513/6/1 514/14/1 515/15/1 516/7/1
f 517/6/1 518/14/1 519/15/1 520/7/1
f 521/6/1 522/14/1 523/15/1 524/7/1
f 525/6/1 526/14/1 527/15/1 528/7/1
f 529/6/1 530/14/1 531/15/1 532/7/1
f 533/6/1 534/14/1 535/15/1 536/7/1
f 537/6/1 538/14/1 539/15/1 540/7/1
f 541/6/1 542/14/1 543/15/1 544/7/1
f 545/6/1 546/14/1 547/15/1 548/7/1
f 549/6/1 550/14/1 551/15/1 552/7/1
f 553/6/1 554/14/1 555/15/1 556/7/1
f 557/6/1 558/14/1 559/15/1 560/7/1
f 561/6/1 562/14/1 563/15/1 564/7/1
f 565/6/1 566/14/1 567/15/1 568/7/1
f 569/6/1 570/14/1 571/15/1 572/7/1
f 573/6/1 574/14/1 575/15/1 576/7/1
f 577/6/1 578/14/1 579/15/1 580/7/1
f 581/6/1 582/14/1 583/15/1 584/7/1
f 585/6/1 586/14/1 587/15/1 588/7/1
f 589/6/1 590/14/1 591/15/1 592/7/1
f 593/6/1 594/14/1 595/15/1 596/7/1
f 597/6/1 598/14/1 599/15/1 600/7/1
f 601/6/1 602/14/1 603/15/1 604/7/1
f 605/6/1 606/14/1 607/15/1 608/7/1
f 609/6/1 610/14/1 611/15/1 612/7/1
f 613/6/1 614/14/1 615/15/1 616/7/1
f 617/6/1 618/14/1 619/15/1 620/7/1
f 621/6/1 622/14/1 623/15/1 624/7/1
f 625/6/1 626/14/1 627/15/1 628/7/1
f 629/6/1 630/14/1 631/15/1 632/7/1
f 633/2/1 634/9/1 635/10/1 636/3/1
f 637/6/1 638/14/1 639/15/1 640/7/1
f 641/6/1 642/14/1 643/15/1 644/7/1
f 645/6/1 646/14/1 647/15/1 648/7/1
f 649/6/1 650/14/1 651/15/1 652/7/1
f 653/6/1 654/14/1 655/15/1 656/7/1
f 657/6/1 658/14/1 659/15/1 660/7/1
f 661/6/1 662/14/1 663/15/1 664/7/1
f 665/6/1 666/14/1 667/15/1 668/7/1
f 669/6/1 670/14/1 671/15/1 672/7/1
f 673/6/1 674/14/1 675/15/1 676/7/1
f 677/6/1 678/14/1 679/15/1 680/7/1
f 681/6/1 682/14/1 683/15/1 684/7/1
f 685/6/1 686/14/1 687/15/1 688/7/1
f 689/6/1 690/14/1 691/15/1 692/7/1
f 693/6/1 694/14/1 695/15/1 696/7/1
f 697/6/1 698/14/1 699/15/1 700/7/1

