# Tiled2Unity generated file. Do not modify by hand.
# Wavefront file for 'Map_Master_mesh_0160.obj'

# Vertices (Count = 16)
v 0 -11 0
v -1 -11 0
v -1 -10 0
v 0 -10 0
v -4 -11 0
v -5 -11 0
v -5 -10 0
v -4 -10 0
v -8 -13 0
v -9 -13 0
v -9 -12 0
v -8 -12 0
v -11 -13 0
v -12 -13 0
v -12 -12 0
v -11 -12 0

# Texture cooridinates (Count = 6)
vt 0 0.5
vt 0.5 0.5
vt 0.5 1
vt 0 1
vt 1 0.5
vt 1 1

# Normal
vn 0 0 -1

# Mesh description
g Map_Master_mesh_0160

# Faces
f 1/1/1 2/2/1 3/3/1 4/4/1
f 5/2/1 6/5/1 7/6/1 8/3/1
f 9/1/1 10/2/1 11/3/1 12/4/1
f 13/2/1 14/5/1 15/6/1 16/3/1

