# Tiled2Unity generated file. Do not modify by hand.
# Wavefront file for 'Map_Master_mesh_0279.obj'

# Vertices (Count = 160)
v -15 -1 0
v -16 -1 0
v -16 0 0
v -15 0 0
v -15 -2 0
v -16 -2 0
v -16 -1 0
v -15 -1 0
v -15 -3 0
v -16 -3 0
v -16 -2 0
v -15 -2 0
v 0 -6 0
v -1 -6 0
v -1 -5 0
v 0 -5 0
v -1 -6 0
v -2 -6 0
v -2 -5 0
v -1 -5 0
v -12 -6 0
v -13 -6 0
v -13 -5 0
v -12 -5 0
v -13 -6 0
v -14 -6 0
v -14 -5 0
v -13 -5 0
v 0 -7 0
v -1 -7 0
v -1 -6 0
v 0 -6 0
v -1 -7 0
v -2 -7 0
v -2 -6 0
v -1 -6 0
v -2 -7 0
v -3 -7 0
v -3 -6 0
v -2 -6 0
v -11 -7 0
v -12 -7 0
v -12 -6 0
v -11 -6 0
v -12 -7 0
v -13 -7 0
v -13 -6 0
v -12 -6 0
v -13 -7 0
v -14 -7 0
v -14 -6 0
v -13 -6 0
v -14 -7 0
v -15 -7 0
v -15 -6 0
v -14 -6 0
v -15 -7 0
v -16 -7 0
v -16 -6 0
v -15 -6 0
v 0 -8 0
v -1 -8 0
v -1 -7 0
v 0 -7 0
v -1 -8 0
v -2 -8 0
v -2 -7 0
v -1 -7 0
v -2 -8 0
v -3 -8 0
v -3 -7 0
v -2 -7 0
v -11 -8 0
v -12 -8 0
v -12 -7 0
v -11 -7 0
v -12 -8 0
v -13 -8 0
v -13 -7 0
v -12 -7 0
v -13 -8 0
v -14 -8 0
v -14 -7 0
v -13 -7 0
v -14 -8 0
v -15 -8 0
v -15 -7 0
v -14 -7 0
v -15 -8 0
v -16 -8 0
v -16 -7 0
v -15 -7 0
v 0 -9 0
v -1 -9 0
v -1 -8 0
v 0 -8 0
v -13 -9 0
v -14 -9 0
v -14 -8 0
v -13 -8 0
v -14 -9 0
v -15 -9 0
v -15 -8 0
v -14 -8 0
v -15 -9 0
v -16 -9 0
v -16 -8 0
v -15 -8 0
v -14 -10 0
v -15 -10 0
v -15 -9 0
v -14 -9 0
v -15 -10 0
v -16 -10 0
v -16 -9 0
v -15 -9 0
v -15 -11 0
v -16 -11 0
v -16 -10 0
v -15 -10 0
v -15 -12 0
v -16 -12 0
v -16 -11 0
v -15 -11 0
v -15 -13 0
v -16 -13 0
v -16 -12 0
v -15 -12 0
v -14 -14 0
v -15 -14 0
v -15 -13 0
v -14 -13 0
v -15 -14 0
v -16 -14 0
v -16 -13 0
v -15 -13 0
v -14 -15 0
v -15 -15 0
v -15 -14 0
v -14 -14 0
v -15 -15 0
v -16 -15 0
v -16 -14 0
v -15 -14 0
v 0 -16 0
v -1 -16 0
v -1 -15 0
v 0 -15 0
v -13 -16 0
v -14 -16 0
v -14 -15 0
v -13 -15 0
v -14 -16 0
v -15 -16 0
v -15 -15 0
v -14 -15 0
v -15 -16 0
v -16 -16 0
v -16 -15 0
v -15 -15 0

# Texture cooridinates (Count = 26)
vt 0 0.6666666
vt 0.1 0.6666666
vt 0.1 0.7777778
vt 0 0.7777778
vt 0 0.4444444
vt 0.1 0.4444444
vt 0.1 0.5555556
vt 0 0.5555556
vt 0.1 0.8888889
vt 0 0.8888889
vt 0.2 0.7777778
vt 0.3 0.7777778
vt 0.3 0.8888889
vt 0.2 0.8888889
vt 0.4 0.7777778
vt 0.5 0.7777778
vt 0.5 0.8888889
vt 0.4 0.8888889
vt 0.4 1
vt 0.3 1
vt 0.2 0.4444444
vt 0.2 0.5555556
vt 0.3 0.4444444
vt 0.3 0.5555556
vt 0.5 1
vt 0.2 0.6666666

# Normal
vn 0 0 -1

# Mesh description
g Map_Master_mesh_0279

# Faces
f 1/1/1 2/2/1 3/3/1 4/4/1
f 5/1/1 6/2/1 7/3/1 8/4/1
f 9/5/1 10/6/1 11/7/1 12/8/1
f 13/4/1 14/3/1 15/9/1 16/10/1
f 17/11/1 18/12/1 19/13/1 20/14/1
f 21/4/1 22/3/1 23/9/1 24/10/1
f 25/11/1 26/12/1 27/13/1 28/14/1
f 29/15/1 30/16/1 31/17/1 32/18/1
f 33/12/1 34/15/1 35/18/1 36/13/1
f 37/11/1 38/12/1 39/13/1 40/14/1
f 41/4/1 42/3/1 43/9/1 44/10/1
f 45/15/1 46/16/1 47/17/1 48/18/1
f 49/12/1 50/15/1 51/18/1 52/13/1
f 53/3/1 54/11/1 55/14/1 56/9/1
f 57/3/1 58/11/1 59/14/1 60/9/1
f 61/13/1 62/18/1 63/19/1 64/20/1
f 65/6/1 66/21/1 67/22/1 68/7/1
f 69/21/1 70/23/1 71/24/1 72/22/1
f 73/5/1 74/6/1 75/7/1 76/8/1
f 77/6/1 78/21/1 79/22/1 80/7/1
f 81/18/1 82/17/1 83/25/1 84/19/1
f 85/2/1 86/26/1 87/11/1 88/3/1
f 89/2/1 90/26/1 91/11/1 92/3/1
f 93/21/1 94/23/1 95/24/1 96/22/1
f 97/5/1 98/6/1 99/7/1 100/8/1
f 101/18/1 102/17/1 103/25/1 104/19/1
f 105/2/1 106/26/1 107/11/1 108/3/1
f 109/5/1 110/6/1 111/7/1 112/8/1
f 113/18/1 114/17/1 115/25/1 116/19/1
f 117/1/1 118/2/1 119/3/1 120/4/1
f 121/1/1 122/2/1 123/3/1 124/4/1
f 125/1/1 126/2/1 127/3/1 128/4/1
f 129/4/1 130/3/1 131/9/1 132/10/1
f 133/15/1 134/16/1 135/17/1 136/18/1
f 137/4/1 138/3/1 139/9/1 140/10/1
f 141/2/1 142/26/1 143/11/1 144/3/1
f 145/11/1 146/12/1 147/13/1 148/14/1
f 149/4/1 150/3/1 151/9/1 152/10/1
f 153/15/1 154/16/1 155/17/1 156/18/1
f 157/2/1 158/26/1 159/11/1 160/3/1

