# Tiled2Unity generated file. Do not modify by hand.
# Wavefront file for 'Map_Master_mesh_0173.obj'

# Vertices (Count = 16)
v -8 -2 0
v -9 -2 0
v -9 -1 0
v -8 -1 0
v -13 -4 0
v -14 -4 0
v -14 -3 0
v -13 -3 0
v -14 -4 0
v -15 -4 0
v -15 -3 0
v -14 -3 0
v -15 -4 0
v -16 -4 0
v -16 -3 0
v -15 -3 0

# Texture cooridinates (Count = 10)
vt 0.4 0.6666666
vt 0.5 0.6666666
vt 0.5 0.7777778
vt 0.4 0.7777778
vt 0 0.8888889
vt 0.1 0.8888889
vt 0.1 1
vt 0 1
vt 0.2 0.8888889
vt 0.2 1

# Normal
vn 0 0 -1

# Mesh description
g Map_Master_mesh_0173

# Faces
f 1/1/1 2/2/1 3/3/1 4/4/1
f 5/5/1 6/6/1 7/7/1 8/8/1
f 9/6/1 10/9/1 11/10/1 12/7/1
f 13/9/1 14/6/1 15/7/1 16/10/1

