# Tiled2Unity generated file. Do not modify by hand.
# Wavefront file for 'Map_Master_mesh_0598.obj'

# Vertices (Count = 12)
v -1 -1 0
v -2 -1 0
v -2 0 0
v -1 0 0
v -1 -11 0
v -2 -11 0
v -2 -10 0
v -1 -10 0
v -13 -13 0
v -14 -13 0
v -14 -12 0
v -13 -12 0

# Texture cooridinates (Count = 8)
vt 0.25 0
vt 0.5 0
vt 0.5 1
vt 0.25 1
vt 0.75 0
vt 0.75 1
vt 0 0
vt 0 1

# Normal
vn 0 0 -1

# Mesh description
g Map_Master_mesh_0598

# Faces
f 1/1/1 2/2/1 3/3/1 4/4/1
f 5/2/1 6/5/1 7/6/1 8/3/1
f 9/7/1 10/1/1 11/4/1 12/8/1

