# Tiled2Unity generated file. Do not modify by hand.
# Wavefront file for 'Map_Master_mesh_0234.obj'

# Vertices (Count = 12)
v -15 -12 0
v -16 -12 0
v -16 -11 0
v -15 -11 0
v -9 -13 0
v -10 -13 0
v -10 -12 0
v -9 -12 0
v -9 -14 0
v -10 -14 0
v -10 -13 0
v -9 -13 0

# Texture cooridinates (Count = 10)
vt 0.9 0.4444444
vt 1 0.4444444
vt 1 0.5555556
vt 0.9 0.5555556
vt 0.9 0.8888889
vt 1 0.8888889
vt 1 1
vt 0.9 1
vt 0.9 0.7777778
vt 1 0.7777778

# Normal
vn 0 0 -1

# Mesh description
g Map_Master_mesh_0234

# Faces
f 1/1/1 2/2/1 3/3/1 4/4/1
f 5/5/1 6/6/1 7/7/1 8/8/1
f 9/9/1 10/10/1 11/6/1 12/5/1

