# Tiled2Unity generated file. Do not modify by hand.
# Wavefront file for 'Map_Master_mesh_0380.obj'

# Vertices (Count = 580)
v 0 -1 0
v -1 -1 0
v -1 0 0
v 0 0 0
v -1 -1 0
v -2 -1 0
v -2 0 0
v -1 0 0
v -2 -1 0
v -3 -1 0
v -3 0 0
v -2 0 0
v -3 -1 0
v -4 -1 0
v -4 0 0
v -3 0 0
v -7 -1 0
v -8 -1 0
v -8 0 0
v -7 0 0
v -8 -1 0
v -9 -1 0
v -9 0 0
v -8 0 0
v -9 -1 0
v -10 -1 0
v -10 0 0
v -9 0 0
v -10 -1 0
v -11 -1 0
v -11 0 0
v -10 0 0
v -11 -1 0
v -12 -1 0
v -12 0 0
v -11 0 0
v -12 -1 0
v -13 -1 0
v -13 0 0
v -12 0 0
v -13 -1 0
v -14 -1 0
v -14 0 0
v -13 0 0
v -14 -1 0
v -15 -1 0
v -15 0 0
v -14 0 0
v -15 -1 0
v -16 -1 0
v -16 0 0
v -15 0 0
v 0 -2 0
v -1 -2 0
v -1 -1 0
v 0 -1 0
v -1 -2 0
v -2 -2 0
v -2 -1 0
v -1 -1 0
v -2 -2 0
v -3 -2 0
v -3 -1 0
v -2 -1 0
v -3 -2 0
v -4 -2 0
v -4 -1 0
v -3 -1 0
v -7 -2 0
v -8 -2 0
v -8 -1 0
v -7 -1 0
v -8 -2 0
v -9 -2 0
v -9 -1 0
v -8 -1 0
v -9 -2 0
v -10 -2 0
v -10 -1 0
v -9 -1 0
v -13 -2 0
v -14 -2 0
v -14 -1 0
v -13 -1 0
v -14 -2 0
v -15 -2 0
v -15 -1 0
v -14 -1 0
v -15 -2 0
v -16 -2 0
v -16 -1 0
v -15 -1 0
v 0 -3 0
v -1 -3 0
v -1 -2 0
v 0 -2 0
v -1 -3 0
v -2 -3 0
v -2 -2 0
v -1 -2 0
v -2 -3 0
v -3 -3 0
v -3 -2 0
v -2 -2 0
v -3 -3 0
v -4 -3 0
v -4 -2 0
v -3 -2 0
v -7 -3 0
v -8 -3 0
v -8 -2 0
v -7 -2 0
v -8 -3 0
v -9 -3 0
v -9 -2 0
v -8 -2 0
v -9 -3 0
v -10 -3 0
v -10 -2 0
v -9 -2 0
v -13 -3 0
v -14 -3 0
v -14 -2 0
v -13 -2 0
v -14 -3 0
v -15 -3 0
v -15 -2 0
v -14 -2 0
v -15 -3 0
v -16 -3 0
v -16 -2 0
v -15 -2 0
v 0 -4 0
v -1 -4 0
v -1 -3 0
v 0 -3 0
v -1 -4 0
v -2 -4 0
v -2 -3 0
v -1 -3 0
v -2 -4 0
v -3 -4 0
v -3 -3 0
v -2 -3 0
v -3 -4 0
v -4 -4 0
v -4 -3 0
v -3 -3 0
v -7 -4 0
v -8 -4 0
v -8 -3 0
v -7 -3 0
v -8 -4 0
v -9 -4 0
v -9 -3 0
v -8 -3 0
v -9 -4 0
v -10 -4 0
v -10 -3 0
v -9 -3 0
v 0 -5 0
v -1 -5 0
v -1 -4 0
v 0 -4 0
v -1 -5 0
v -2 -5 0
v -2 -4 0
v -1 -4 0
v -2 -5 0
v -3 -5 0
v -3 -4 0
v -2 -4 0
v -3 -5 0
v -4 -5 0
v -4 -4 0
v -3 -4 0
v -7 -5 0
v -8 -5 0
v -8 -4 0
v -7 -4 0
v -8 -5 0
v -9 -5 0
v -9 -4 0
v -8 -4 0
v -9 -5 0
v -10 -5 0
v -10 -4 0
v -9 -4 0
v 0 -6 0
v -1 -6 0
v -1 -5 0
v 0 -5 0
v -1 -6 0
v -2 -6 0
v -2 -5 0
v -1 -5 0
v -2 -6 0
v -3 -6 0
v -3 -5 0
v -2 -5 0
v -3 -6 0
v -4 -6 0
v -4 -5 0
v -3 -5 0
v -7 -6 0
v -8 -6 0
v -8 -5 0
v -7 -5 0
v -8 -6 0
v -9 -6 0
v -9 -5 0
v -8 -5 0
v -9 -6 0
v -10 -6 0
v -10 -5 0
v -9 -5 0
v 0 -7 0
v -1 -7 0
v -1 -6 0
v 0 -6 0
v -1 -7 0
v -2 -7 0
v -2 -6 0
v -1 -6 0
v -2 -7 0
v -3 -7 0
v -3 -6 0
v -2 -6 0
v -3 -7 0
v -4 -7 0
v -4 -6 0
v -3 -6 0
v -7 -7 0
v -8 -7 0
v -8 -6 0
v -7 -6 0
v -8 -7 0
v -9 -7 0
v -9 -6 0
v -8 -6 0
v -9 -7 0
v -10 -7 0
v -10 -6 0
v -9 -6 0
v -13 -7 0
v -14 -7 0
v -14 -6 0
v -13 -6 0
v -14 -7 0
v -15 -7 0
v -15 -6 0
v -14 -6 0
v -15 -7 0
v -16 -7 0
v -16 -6 0
v -15 -6 0
v 0 -8 0
v -1 -8 0
v -1 -7 0
v 0 -7 0
v -1 -8 0
v -2 -8 0
v -2 -7 0
v -1 -7 0
v -2 -8 0
v -3 -8 0
v -3 -7 0
v -2 -7 0
v -3 -8 0
v -4 -8 0
v -4 -7 0
v -3 -7 0
v -7 -8 0
v -8 -8 0
v -8 -7 0
v -7 -7 0
v -8 -8 0
v -9 -8 0
v -9 -7 0
v -8 -7 0
v -9 -8 0
v -10 -8 0
v -10 -7 0
v -9 -7 0
v -13 -8 0
v -14 -8 0
v -14 -7 0
v -13 -7 0
v -14 -8 0
v -15 -8 0
v -15 -7 0
v -14 -7 0
v -15 -8 0
v -16 -8 0
v -16 -7 0
v -15 -7 0
v 0 -9 0
v -1 -9 0
v -1 -8 0
v 0 -8 0
v -1 -9 0
v -2 -9 0
v -2 -8 0
v -1 -8 0
v -2 -9 0
v -3 -9 0
v -3 -8 0
v -2 -8 0
v -3 -9 0
v -4 -9 0
v -4 -8 0
v -3 -8 0
v -7 -9 0
v -8 -9 0
v -8 -8 0
v -7 -8 0
v -8 -9 0
v -9 -9 0
v -9 -8 0
v -8 -8 0
v -9 -9 0
v -10 -9 0
v -10 -8 0
v -9 -8 0
v -13 -9 0
v -14 -9 0
v -14 -8 0
v -13 -8 0
v -14 -9 0
v -15 -9 0
v -15 -8 0
v -14 -8 0
v -15 -9 0
v -16 -9 0
v -16 -8 0
v -15 -8 0
v 0 -10 0
v -1 -10 0
v -1 -9 0
v 0 -9 0
v -1 -10 0
v -2 -10 0
v -2 -9 0
v -1 -9 0
v -2 -10 0
v -3 -10 0
v -3 -9 0
v -2 -9 0
v -3 -10 0
v -4 -10 0
v -4 -9 0
v -3 -9 0
v -7 -10 0
v -8 -10 0
v -8 -9 0
v -7 -9 0
v -8 -10 0
v -9 -10 0
v -9 -9 0
v -8 -9 0
v -9 -10 0
v -10 -10 0
v -10 -9 0
v -9 -9 0
v -13 -10 0
v -14 -10 0
v -14 -9 0
v -13 -9 0
v -14 -10 0
v -15 -10 0
v -15 -9 0
v -14 -9 0
v -15 -10 0
v -16 -10 0
v -16 -9 0
v -15 -9 0
v 0 -11 0
v -1 -11 0
v -1 -10 0
v 0 -10 0
v -1 -11 0
v -2 -11 0
v -2 -10 0
v -1 -10 0
v -2 -11 0
v -3 -11 0
v -3 -10 0
v -2 -10 0
v -3 -11 0
v -4 -11 0
v -4 -10 0
v -3 -10 0
v -7 -11 0
v -8 -11 0
v -8 -10 0
v -7 -10 0
v -8 -11 0
v -9 -11 0
v -9 -10 0
v -8 -10 0
v -9 -11 0
v -10 -11 0
v -10 -10 0
v -9 -10 0
v -13 -11 0
v -14 -11 0
v -14 -10 0
v -13 -10 0
v -14 -11 0
v -15 -11 0
v -15 -10 0
v -14 -10 0
v -15 -11 0
v -16 -11 0
v -16 -10 0
v -15 -10 0
v 0 -12 0
v -1 -12 0
v -1 -11 0
v 0 -11 0
v -1 -12 0
v -2 -12 0
v -2 -11 0
v -1 -11 0
v -2 -12 0
v -3 -12 0
v -3 -11 0
v -2 -11 0
v -3 -12 0
v -4 -12 0
v -4 -11 0
v -3 -11 0
v -7 -12 0
v -8 -12 0
v -8 -11 0
v -7 -11 0
v -8 -12 0
v -9 -12 0
v -9 -11 0
v -8 -11 0
v -9 -12 0
v -10 -12 0
v -10 -11 0
v -9 -11 0
v -13 -12 0
v -14 -12 0
v -14 -11 0
v -13 -11 0
v -14 -12 0
v -15 -12 0
v -15 -11 0
v -14 -11 0
v -15 -12 0
v -16 -12 0
v -16 -11 0
v -15 -11 0
v 0 -13 0
v -1 -13 0
v -1 -12 0
v 0 -12 0
v -1 -13 0
v -2 -13 0
v -2 -12 0
v -1 -12 0
v -2 -13 0
v -3 -13 0
v -3 -12 0
v -2 -12 0
v -3 -13 0
v -4 -13 0
v -4 -12 0
v -3 -12 0
v -7 -13 0
v -8 -13 0
v -8 -12 0
v -7 -12 0
v -8 -13 0
v -9 -13 0
v -9 -12 0
v -8 -12 0
v -9 -13 0
v -10 -13 0
v -10 -12 0
v -9 -12 0
v -13 -13 0
v -14 -13 0
v -14 -12 0
v -13 -12 0
v -14 -13 0
v -15 -13 0
v -15 -12 0
v -14 -12 0
v -15 -13 0
v -16 -13 0
v -16 -12 0
v -15 -12 0
v 0 -14 0
v -1 -14 0
v -1 -13 0
v 0 -13 0
v -1 -14 0
v -2 -14 0
v -2 -13 0
v -1 -13 0
v -2 -14 0
v -3 -14 0
v -3 -13 0
v -2 -13 0
v -3 -14 0
v -4 -14 0
v -4 -13 0
v -3 -13 0
v -13 -14 0
v -14 -14 0
v -14 -13 0
v -13 -13 0
v -14 -14 0
v -15 -14 0
v -15 -13 0
v -14 -13 0
v -15 -14 0
v -16 -14 0
v -16 -13 0
v -15 -13 0
v 0 -15 0
v -1 -15 0
v -1 -14 0
v 0 -14 0
v -1 -15 0
v -2 -15 0
v -2 -14 0
v -1 -14 0
v -2 -15 0
v -3 -15 0
v -3 -14 0
v -2 -14 0
v -3 -15 0
v -4 -15 0
v -4 -14 0
v -3 -14 0
v -13 -15 0
v -14 -15 0
v -14 -14 0
v -13 -14 0
v -14 -15 0
v -15 -15 0
v -15 -14 0
v -14 -14 0
v -15 -15 0
v -16 -15 0
v -16 -14 0
v -15 -14 0
v 0 -16 0
v -1 -16 0
v -1 -15 0
v 0 -15 0
v -1 -16 0
v -2 -16 0
v -2 -15 0
v -1 -15 0
v -2 -16 0
v -3 -16 0
v -3 -15 0
v -2 -15 0
v -3 -16 0
v -4 -16 0
v -4 -15 0
v -3 -15 0
v -13 -16 0
v -14 -16 0
v -14 -15 0
v -13 -15 0
v -14 -16 0
v -15 -16 0
v -15 -15 0
v -14 -15 0
v -15 -16 0
v -16 -16 0
v -16 -15 0
v -15 -15 0

# Texture cooridinates (Count = 27)
vt 0.1111111 0.6666666
vt 0.2222222 0.6666666
vt 0.2222222 0.8333333
vt 0.1111111 0.8333333
vt 0.5555556 0.6666666
vt 0.6666667 0.6666666
vt 0.6666667 0.8333333
vt 0.5555556 0.8333333
vt 0.3333333 0.6666666
vt 0.3333333 0.8333333
vt 0 0.6666666
vt 0 0.8333333
vt 0.4444444 0.8333333
vt 0.4444444 1
vt 0.3333333 1
vt 0.1111111 0.5
vt 0.2222222 0.5
vt 0.5555556 1
vt 0 0.5
vt 0.3333333 0.5
vt 0.4444444 0.5
vt 0.4444444 0.6666666
vt 0.6666667 1
vt 0.1111111 1
vt 0 1
vt 0.2222222 1
vt 0.5555556 0.5

# Normal
vn 0 0 -1

# Mesh description
g Map_Master_mesh_0380

# Faces
f 1/1/1 2/2/1 3/3/1 4/4/1
f 5/5/1 6/6/1 7/7/1 8/8/1
f 9/1/1 10/2/1 11/3/1 12/4/1
f 13/2/1 14/9/1 15/10/1 16/3/1
f 17/11/1 18/1/1 19/4/1 20/12/1
f 21/1/1 22/2/1 23/3/1 24/4/1
f 25/10/1 26/13/1 27/14/1 28/15/1
f 29/16/1 30/17/1 31/2/1 32/1/1
f 33/16/1 34/17/1 35/2/1 36/1/1
f 37/16/1 38/17/1 39/2/1 40/1/1
f 41/13/1 42/8/1 43/18/1 44/14/1
f 45/5/1 46/6/1 47/7/1 48/8/1
f 49/10/1 50/13/1 51/14/1 52/15/1
f 53/1/1 54/2/1 55/3/1 56/4/1
f 57/1/1 58/2/1 59/3/1 60/4/1
f 61/1/1 62/2/1 63/3/1 64/4/1
f 65/2/1 66/9/1 67/10/1 68/3/1
f 69/11/1 70/1/1 71/4/1 72/12/1
f 73/1/1 74/2/1 75/3/1 76/4/1
f 77/2/1 78/9/1 79/10/1 80/3/1
f 81/11/1 82/1/1 83/4/1 84/12/1
f 85/1/1 86/2/1 87/3/1 88/4/1
f 89/2/1 90/9/1 91/10/1 92/3/1
f 93/1/1 94/2/1 95/3/1 96/4/1
f 97/1/1 98/2/1 99/3/1 100/4/1
f 101/1/1 102/2/1 103/3/1 104/4/1
f 105/2/1 106/9/1 107/10/1 108/3/1
f 109/11/1 110/1/1 111/4/1 112/12/1
f 113/1/1 114/2/1 115/3/1 116/4/1
f 117/2/1 118/9/1 119/10/1 120/3/1
f 121/19/1 122/16/1 123/1/1 124/11/1
f 125/16/1 126/17/1 127/2/1 128/1/1
f 129/17/1 130/20/1 131/9/1 132/2/1
f 133/1/1 134/2/1 135/3/1 136/4/1
f 137/20/1 138/21/1 139/22/1 140/9/1
f 141/1/1 142/2/1 143/3/1 144/4/1
f 145/2/1 146/9/1 147/10/1 148/3/1
f 149/11/1 150/1/1 151/4/1 152/12/1
f 153/1/1 154/2/1 155/3/1 156/4/1
f 157/2/1 158/9/1 159/10/1 160/3/1
f 161/1/1 162/2/1 163/3/1 164/4/1
f 165/1/1 166/2/1 167/3/1 168/4/1
f 169/8/1 170/7/1 171/23/1 172/18/1
f 173/2/1 174/9/1 175/10/1 176/3/1
f 177/11/1 178/1/1 179/4/1 180/12/1
f 181/1/1 182/2/1 183/3/1 184/4/1
f 185/2/1 186/9/1 187/10/1 188/3/1
f 189/1/1 190/2/1 191/3/1 192/4/1
f 193/1/1 194/2/1 195/3/1 196/4/1
f 197/1/1 198/2/1 199/3/1 200/4/1
f 201/2/1 202/9/1 203/10/1 204/3/1
f 205/11/1 206/1/1 207/4/1 208/12/1
f 209/1/1 210/2/1 211/3/1 212/4/1
f 213/2/1 214/9/1 215/10/1 216/3/1
f 217/1/1 218/2/1 219/3/1 220/4/1
f 221/1/1 222/2/1 223/3/1 224/4/1
f 225/5/1 226/6/1 227/7/1 228/8/1
f 229/2/1 230/9/1 231/10/1 232/3/1
f 233/11/1 234/1/1 235/4/1 236/12/1
f 237/1/1 238/2/1 239/3/1 240/4/1
f 241/2/1 242/9/1 243/10/1 244/3/1
f 245/12/1 246/4/1 247/24/1 248/25/1
f 249/4/1 250/3/1 251/26/1 252/24/1
f 253/3/1 254/10/1 255/15/1 256/26/1
f 257/1/1 258/2/1 259/3/1 260/4/1
f 261/1/1 262/2/1 263/3/1 264/4/1
f 265/1/1 266/2/1 267/3/1 268/4/1
f 269/2/1 270/9/1 271/10/1 272/3/1
f 273/11/1 274/1/1 275/4/1 276/12/1
f 277/5/1 278/6/1 279/7/1 280/8/1
f 281/2/1 282/9/1 283/10/1 284/3/1
f 285/11/1 286/1/1 287/4/1 288/12/1
f 289/1/1 290/2/1 291/3/1 292/4/1
f 293/2/1 294/9/1 295/10/1 296/3/1
f 297/1/1 298/2/1 299/3/1 300/4/1
f 301/5/1 302/6/1 303/7/1 304/8/1
f 305/1/1 306/2/1 307/3/1 308/4/1
f 309/2/1 310/9/1 311/10/1 312/3/1
f 313/11/1 314/1/1 315/4/1 316/12/1
f 317/1/1 318/2/1 319/3/1 320/4/1
f 321/2/1 322/9/1 323/10/1 324/3/1
f 325/11/1 326/1/1 327/4/1 328/12/1
f 329/21/1 330/27/1 331/5/1 332/22/1
f 333/2/1 334/9/1 335/10/1 336/3/1
f 337/1/1 338/2/1 339/3/1 340/4/1
f 341/1/1 342/2/1 343/3/1 344/4/1
f 345/1/1 346/2/1 347/3/1 348/4/1
f 349/2/1 350/9/1 351/10/1 352/3/1
f 353/11/1 354/1/1 355/4/1 356/12/1
f 357/5/1 358/6/1 359/7/1 360/8/1
f 361/2/1 362/9/1 363/10/1 364/3/1
f 365/11/1 366/1/1 367/4/1 368/12/1
f 369/1/1 370/2/1 371/3/1 372/4/1
f 373/2/1 374/9/1 375/10/1 376/3/1
f 377/1/1 378/2/1 379/3/1 380/4/1
f 381/1/1 382/2/1 383/3/1 384/4/1
f 385/1/1 386/2/1 387/3/1 388/4/1
f 389/2/1 390/9/1 391/10/1 392/3/1
f 393/11/1 394/1/1 395/4/1 396/12/1
f 397/1/1 398/2/1 399/3/1 400/4/1
f 401/2/1 402/9/1 403/10/1 404/3/1
f 405/11/1 406/1/1 407/4/1 408/12/1
f 409/1/1 410/2/1 411/3/1 412/4/1
f 413/2/1 414/9/1 415/10/1 416/3/1
f 417/1/1 418/2/1 419/3/1 420/4/1
f 421/1/1 422/2/1 423/3/1 424/4/1
f 425/5/1 426/6/1 427/7/1 428/8/1
f 429/2/1 430/9/1 431/10/1 432/3/1
f 433/11/1 434/1/1 435/4/1 436/12/1
f 437/1/1 438/2/1 439/3/1 440/4/1
f 441/2/1 442/9/1 443/10/1 444/3/1
f 445/11/1 446/1/1 447/4/1 448/12/1
f 449/1/1 450/2/1 451/3/1 452/4/1
f 453/2/1 454/9/1 455/10/1 456/3/1
f 457/1/1 458/2/1 459/3/1 460/4/1
f 461/1/1 462/2/1 463/3/1 464/4/1
f 465/5/1 466/6/1 467/7/1 468/8/1
f 469/2/1 470/9/1 471/10/1 472/3/1
f 473/19/1 474/16/1 475/1/1 476/11/1
f 477/16/1 478/17/1 479/2/1 480/1/1
f 481/17/1 482/20/1 483/9/1 484/2/1
f 485/11/1 486/1/1 487/4/1 488/12/1
f 489/1/1 490/2/1 491/3/1 492/4/1
f 493/2/1 494/9/1 495/10/1 496/3/1
f 497/1/1 498/2/1 499/3/1 500/4/1
f 501/1/1 502/2/1 503/3/1 504/4/1
f 505/1/1 506/2/1 507/3/1 508/4/1
f 509/2/1 510/9/1 511/10/1 512/3/1
f 513/11/1 514/1/1 515/4/1 516/12/1
f 517/5/1 518/6/1 519/7/1 520/8/1
f 521/2/1 522/9/1 523/10/1 524/3/1
f 525/1/1 526/2/1 527/3/1 528/4/1
f 529/1/1 530/2/1 531/3/1 532/4/1
f 533/1/1 534/2/1 535/3/1 536/4/1
f 537/2/1 538/9/1 539/10/1 540/3/1
f 541/11/1 542/1/1 543/4/1 544/12/1
f 545/1/1 546/2/1 547/3/1 548/4/1
f 549/2/1 550/9/1 551/10/1 552/3/1
f 553/1/1 554/2/1 555/3/1 556/4/1
f 557/1/1 558/2/1 559/3/1 560/4/1
f 561/1/1 562/2/1 563/3/1 564/4/1
f 565/2/1 566/9/1 567/10/1 568/3/1
f 569/11/1 570/1/1 571/4/1 572/12/1
f 573/1/1 574/2/1 575/3/1 576/4/1
f 577/2/1 578/9/1 579/10/1 580/3/1

