# Tiled2Unity generated file. Do not modify by hand.
# Wavefront file for 'Map_Master_mesh_0174.obj'

# Vertices (Count = 320)
v 0 -1 0
v -1 -1 0
v -1 0 0
v 0 0 0
v -1 -1 0
v -2 -1 0
v -2 0 0
v -1 0 0
v -10 -1 0
v -11 -1 0
v -11 0 0
v -10 0 0
v -11 -1 0
v -12 -1 0
v -12 0 0
v -11 0 0
v -12 -1 0
v -13 -1 0
v -13 0 0
v -12 0 0
v -13 -1 0
v -14 -1 0
v -14 0 0
v -13 0 0
v -14 -1 0
v -15 -1 0
v -15 0 0
v -14 0 0
v -15 -1 0
v -16 -1 0
v -16 0 0
v -15 0 0
v 0 -2 0
v -1 -2 0
v -1 -1 0
v 0 -1 0
v -1 -2 0
v -2 -2 0
v -2 -1 0
v -1 -1 0
v -12 -2 0
v -13 -2 0
v -13 -1 0
v -12 -1 0
v -13 -2 0
v -14 -2 0
v -14 -1 0
v -13 -1 0
v -14 -2 0
v -15 -2 0
v -15 -1 0
v -14 -1 0
v -15 -2 0
v -16 -2 0
v -16 -1 0
v -15 -1 0
v -7 -3 0
v -8 -3 0
v -8 -2 0
v -7 -2 0
v -8 -3 0
v -9 -3 0
v -9 -2 0
v -8 -2 0
v -9 -3 0
v -10 -3 0
v -10 -2 0
v -9 -2 0
v -12 -3 0
v -13 -3 0
v -13 -2 0
v -12 -2 0
v -13 -3 0
v -14 -3 0
v -14 -2 0
v -13 -2 0
v -14 -3 0
v -15 -3 0
v -15 -2 0
v -14 -2 0
v -15 -3 0
v -16 -3 0
v -16 -2 0
v -15 -2 0
v -7 -4 0
v -8 -4 0
v -8 -3 0
v -7 -3 0
v -8 -4 0
v -9 -4 0
v -9 -3 0
v -8 -3 0
v -9 -4 0
v -10 -4 0
v -10 -3 0
v -9 -3 0
v -12 -4 0
v -13 -4 0
v -13 -3 0
v -12 -3 0
v -13 -4 0
v -14 -4 0
v -14 -3 0
v -13 -3 0
v -14 -4 0
v -15 -4 0
v -15 -3 0
v -14 -3 0
v -15 -4 0
v -16 -4 0
v -16 -3 0
v -15 -3 0
v -8 -5 0
v -9 -5 0
v -9 -4 0
v -8 -4 0
v -9 -5 0
v -10 -5 0
v -10 -4 0
v -9 -4 0
v -13 -5 0
v -14 -5 0
v -14 -4 0
v -13 -4 0
v -14 -5 0
v -15 -5 0
v -15 -4 0
v -14 -4 0
v -15 -5 0
v -16 -5 0
v -16 -4 0
v -15 -4 0
v -13 -6 0
v -14 -6 0
v -14 -5 0
v -13 -5 0
v -14 -6 0
v -15 -6 0
v -15 -5 0
v -14 -5 0
v -15 -6 0
v -16 -6 0
v -16 -5 0
v -15 -5 0
v -2 -7 0
v -3 -7 0
v -3 -6 0
v -2 -6 0
v -3 -7 0
v -4 -7 0
v -4 -6 0
v -3 -6 0
v -4 -7 0
v -5 -7 0
v -5 -6 0
v -4 -6 0
v -1 -8 0
v -2 -8 0
v -2 -7 0
v -1 -7 0
v -2 -8 0
v -3 -8 0
v -3 -7 0
v -2 -7 0
v -3 -8 0
v -4 -8 0
v -4 -7 0
v -3 -7 0
v -4 -8 0
v -5 -8 0
v -5 -7 0
v -4 -7 0
v -5 -8 0
v -6 -8 0
v -6 -7 0
v -5 -7 0
v -2 -9 0
v -3 -9 0
v -3 -8 0
v -2 -8 0
v -3 -9 0
v -4 -9 0
v -4 -8 0
v -3 -8 0
v -4 -9 0
v -5 -9 0
v -5 -8 0
v -4 -8 0
v -5 -9 0
v -6 -9 0
v -6 -8 0
v -5 -8 0
v -7 -9 0
v -8 -9 0
v -8 -8 0
v -7 -8 0
v -8 -9 0
v -9 -9 0
v -9 -8 0
v -8 -8 0
v 0 -10 0
v -1 -10 0
v -1 -9 0
v 0 -9 0
v -2 -10 0
v -3 -10 0
v -3 -9 0
v -2 -9 0
v -3 -10 0
v -4 -10 0
v -4 -9 0
v -3 -9 0
v -4 -10 0
v -5 -10 0
v -5 -9 0
v -4 -9 0
v -5 -10 0
v -6 -10 0
v -6 -9 0
v -5 -9 0
v -7 -10 0
v -8 -10 0
v -8 -9 0
v -7 -9 0
v -8 -10 0
v -9 -10 0
v -9 -9 0
v -8 -9 0
v 0 -11 0
v -1 -11 0
v -1 -10 0
v 0 -10 0
v -3 -11 0
v -4 -11 0
v -4 -10 0
v -3 -10 0
v -4 -11 0
v -5 -11 0
v -5 -10 0
v -4 -10 0
v -15 -11 0
v -16 -11 0
v -16 -10 0
v -15 -10 0
v -14 -12 0
v -15 -12 0
v -15 -11 0
v -14 -11 0
v -15 -12 0
v -16 -12 0
v -16 -11 0
v -15 -11 0
v 0 -13 0
v -1 -13 0
v -1 -12 0
v 0 -12 0
v -14 -13 0
v -15 -13 0
v -15 -12 0
v -14 -12 0
v -15 -13 0
v -16 -13 0
v -16 -12 0
v -15 -12 0
v 0 -14 0
v -1 -14 0
v -1 -13 0
v 0 -13 0
v -13 -14 0
v -14 -14 0
v -14 -13 0
v -13 -13 0
v -14 -14 0
v -15 -14 0
v -15 -13 0
v -14 -13 0
v -15 -14 0
v -16 -14 0
v -16 -13 0
v -15 -13 0
v -11 -15 0
v -12 -15 0
v -12 -14 0
v -11 -14 0
v -12 -15 0
v -13 -15 0
v -13 -14 0
v -12 -14 0
v -13 -15 0
v -14 -15 0
v -14 -14 0
v -13 -14 0
v -14 -15 0
v -15 -15 0
v -15 -14 0
v -14 -14 0
v -15 -15 0
v -16 -15 0
v -16 -14 0
v -15 -14 0
v -11 -16 0
v -12 -16 0
v -12 -15 0
v -11 -15 0
v -12 -16 0
v -13 -16 0
v -13 -15 0
v -12 -15 0
v -13 -16 0
v -14 -16 0
v -14 -15 0
v -13 -15 0
v -14 -16 0
v -15 -16 0
v -15 -15 0
v -14 -15 0
v -15 -16 0
v -16 -16 0
v -16 -15 0
v -15 -15 0

# Texture cooridinates (Count = 33)
vt 0.1 0.1111111
vt 0.2 0.1111111
vt 0.2 0.2222222
vt 0.1 0.2222222
vt 0.3 0.1111111
vt 0.3 0.2222222
vt 0 0
vt 0.1 0
vt 0 0.1111111
vt 0.2 0
vt 0.4 0.3333333
vt 0.5 0.3333333
vt 0.5 0.4444444
vt 0.4 0.4444444
vt 0.4 0
vt 0.5 0
vt 0.5 0.1111111
vt 0.4 0.1111111
vt 0.3 0
vt 0 0.2222222
vt 0.4 0.2222222
vt 0.3 0.3333333
vt 0.5 0.2222222
vt 0.6 0.2222222
vt 0.6 0.3333333
vt 0.7 0.2222222
vt 0.7 0.3333333
vt 0.8 0.2222222
vt 0.8 0.3333333
vt 0.2 0.3333333
vt 0.3 0.4444444
vt 0.1 0.3333333
vt 0 0.3333333

# Normal
vn 0 0 -1

# Mesh description
g Map_Master_mesh_0174

# Faces
f 1/1/1 2/2/1 3/3/1 4/4/1
f 5/2/1 6/5/1 7/6/1 8/3/1
f 9/7/1 10/8/1 11/1/1 12/9/1
f 13/8/1 14/10/1 15/2/1 16/1/1
f 17/11/1 18/12/1 19/13/1 20/14/1
f 21/15/1 22/16/1 23/17/1 24/18/1
f 25/1/1 26/2/1 27/3/1 28/4/1
f 29/2/1 30/5/1 31/6/1 32/3/1
f 33/8/1 34/10/1 35/2/1 36/1/1
f 37/10/1 38/19/1 39/5/1 40/2/1
f 41/9/1 42/1/1 43/4/1 44/20/1
f 45/1/1 46/2/1 47/3/1 48/4/1
f 49/1/1 50/2/1 51/3/1 52/4/1
f 53/6/1 54/21/1 55/11/1 56/22/1
f 57/23/1 58/24/1 59/25/1 60/12/1
f 61/24/1 62/26/1 63/27/1 64/25/1
f 65/26/1 66/28/1 67/29/1 68/27/1
f 69/9/1 70/1/1 71/4/1 72/20/1
f 73/1/1 74/2/1 75/3/1 76/4/1
f 77/1/1 78/2/1 79/3/1 80/4/1
f 81/18/1 82/17/1 83/23/1 84/21/1
f 85/7/1 86/8/1 87/1/1 88/9/1
f 89/11/1 90/12/1 91/13/1 92/14/1
f 93/3/1 94/6/1 95/22/1 96/30/1
f 97/7/1 98/8/1 99/1/1 100/9/1
f 101/11/1 102/12/1 103/13/1 104/14/1
f 105/1/1 106/2/1 107/3/1 108/4/1
f 109/22/1 110/11/1 111/14/1 112/31/1
f 113/7/1 114/8/1 115/1/1 116/9/1
f 117/10/1 118/19/1 119/5/1 120/2/1
f 121/9/1 122/1/1 123/4/1 124/20/1
f 125/5/1 126/18/1 127/21/1 128/6/1
f 129/2/1 130/5/1 131/6/1 132/3/1
f 133/7/1 134/8/1 135/1/1 136/9/1
f 137/8/1 138/10/1 139/2/1 140/1/1
f 141/10/1 142/19/1 143/5/1 144/2/1
f 145/20/1 146/4/1 147/32/1 148/33/1
f 149/4/1 150/3/1 151/30/1 152/32/1
f 153/3/1 154/6/1 155/22/1 156/30/1
f 157/7/1 158/8/1 159/1/1 160/9/1
f 161/11/1 162/12/1 163/13/1 164/14/1
f 165/1/1 166/2/1 167/3/1 168/4/1
f 169/6/1 170/21/1 171/11/1 172/22/1
f 173/26/1 174/28/1 175/29/1 176/27/1
f 177/9/1 178/1/1 179/4/1 180/20/1
f 181/1/1 182/2/1 183/3/1 184/4/1
f 185/1/1 186/2/1 187/3/1 188/4/1
f 189/3/1 190/6/1 191/22/1 192/30/1
f 193/20/1 194/4/1 195/32/1 196/33/1
f 197/3/1 198/6/1 199/22/1 200/30/1
f 201/26/1 202/28/1 203/29/1 204/27/1
f 205/7/1 206/8/1 207/1/1 208/9/1
f 209/11/1 210/12/1 211/13/1 212/14/1
f 213/22/1 214/11/1 215/14/1 216/31/1
f 217/10/1 218/19/1 219/5/1 220/2/1
f 221/7/1 222/8/1 223/1/1 224/9/1
f 225/10/1 226/19/1 227/5/1 228/2/1
f 229/10/1 230/19/1 231/5/1 232/2/1
f 233/7/1 234/8/1 235/1/1 236/9/1
f 237/10/1 238/19/1 239/5/1 240/2/1
f 241/20/1 242/4/1 243/32/1 244/33/1
f 245/20/1 246/4/1 247/32/1 248/33/1
f 249/21/1 250/23/1 251/12/1 252/11/1
f 253/3/1 254/6/1 255/22/1 256/30/1
f 257/9/1 258/1/1 259/4/1 260/20/1
f 261/1/1 262/2/1 263/3/1 264/4/1
f 265/10/1 266/19/1 267/5/1 268/2/1
f 269/20/1 270/4/1 271/32/1 272/33/1
f 273/21/1 274/23/1 275/12/1 276/11/1
f 277/1/1 278/2/1 279/3/1 280/4/1
f 281/20/1 282/4/1 283/32/1 284/33/1
f 285/4/1 286/3/1 287/30/1 288/32/1
f 289/21/1 290/23/1 291/12/1 292/11/1
f 293/1/1 294/2/1 295/3/1 296/4/1
f 297/1/1 298/2/1 299/3/1 300/4/1
f 301/9/1 302/1/1 303/4/1 304/20/1
f 305/1/1 306/2/1 307/3/1 308/4/1
f 309/1/1 310/2/1 311/3/1 312/4/1
f 313/1/1 314/2/1 315/3/1 316/4/1
f 317/1/1 318/2/1 319/3/1 320/4/1

