# Tiled2Unity generated file. Do not modify by hand.
# Wavefront file for 'Map_Master_mesh_0201.obj'

# Vertices (Count = 664)
v -14 -1 0
v -15 -1 0
v -15 0 0
v -14 0 0
v -15 -1 0
v -16 -1 0
v -16 0 0
v -15 0 0
v -14 -2 0
v -15 -2 0
v -15 -1 0
v -14 -1 0
v -15 -2 0
v -16 -2 0
v -16 -1 0
v -15 -1 0
v -13 -3 0
v -14 -3 0
v -14 -2 0
v -13 -2 0
v -14 -3 0
v -15 -3 0
v -15 -2 0
v -14 -2 0
v -15 -3 0
v -16 -3 0
v -16 -2 0
v -15 -2 0
v -5 -4 0
v -6 -4 0
v -6 -3 0
v -5 -3 0
v -6 -4 0
v -7 -4 0
v -7 -3 0
v -6 -3 0
v -7 -4 0
v -8 -4 0
v -8 -3 0
v -7 -3 0
v -8 -4 0
v -9 -4 0
v -9 -3 0
v -8 -3 0
v -9 -4 0
v -10 -4 0
v -10 -3 0
v -9 -3 0
v -10 -4 0
v -11 -4 0
v -11 -3 0
v -10 -3 0
v -11 -4 0
v -12 -4 0
v -12 -3 0
v -11 -3 0
v -12 -4 0
v -13 -4 0
v -13 -3 0
v -12 -3 0
v -13 -4 0
v -14 -4 0
v -14 -3 0
v -13 -3 0
v -14 -4 0
v -15 -4 0
v -15 -3 0
v -14 -3 0
v -15 -4 0
v -16 -4 0
v -16 -3 0
v -15 -3 0
v -4 -5 0
v -5 -5 0
v -5 -4 0
v -4 -4 0
v -5 -5 0
v -6 -5 0
v -6 -4 0
v -5 -4 0
v -6 -5 0
v -7 -5 0
v -7 -4 0
v -6 -4 0
v -7 -5 0
v -8 -5 0
v -8 -4 0
v -7 -4 0
v -8 -5 0
v -9 -5 0
v -9 -4 0
v -8 -4 0
v -9 -5 0
v -10 -5 0
v -10 -4 0
v -9 -4 0
v -10 -5 0
v -11 -5 0
v -11 -4 0
v -10 -4 0
v -11 -5 0
v -12 -5 0
v -12 -4 0
v -11 -4 0
v -12 -5 0
v -13 -5 0
v -13 -4 0
v -12 -4 0
v -13 -5 0
v -14 -5 0
v -14 -4 0
v -13 -4 0
v -14 -5 0
v -15 -5 0
v -15 -4 0
v -14 -4 0
v -15 -5 0
v -16 -5 0
v -16 -4 0
v -15 -4 0
v -3 -6 0
v -4 -6 0
v -4 -5 0
v -3 -5 0
v -4 -6 0
v -5 -6 0
v -5 -5 0
v -4 -5 0
v -5 -6 0
v -6 -6 0
v -6 -5 0
v -5 -5 0
v -6 -6 0
v -7 -6 0
v -7 -5 0
v -6 -5 0
v -7 -6 0
v -8 -6 0
v -8 -5 0
v -7 -5 0
v -8 -6 0
v -9 -6 0
v -9 -5 0
v -8 -5 0
v -9 -6 0
v -10 -6 0
v -10 -5 0
v -9 -5 0
v -10 -6 0
v -11 -6 0
v -11 -5 0
v -10 -5 0
v -11 -6 0
v -12 -6 0
v -12 -5 0
v -11 -5 0
v -12 -6 0
v -13 -6 0
v -13 -5 0
v -12 -5 0
v -13 -6 0
v -14 -6 0
v -14 -5 0
v -13 -5 0
v -14 -6 0
v -15 -6 0
v -15 -5 0
v -14 -5 0
v -15 -6 0
v -16 -6 0
v -16 -5 0
v -15 -5 0
v -3 -7 0
v -4 -7 0
v -4 -6 0
v -3 -6 0
v -4 -7 0
v -5 -7 0
v -5 -6 0
v -4 -6 0
v -5 -7 0
v -6 -7 0
v -6 -6 0
v -5 -6 0
v -6 -7 0
v -7 -7 0
v -7 -6 0
v -6 -6 0
v -7 -7 0
v -8 -7 0
v -8 -6 0
v -7 -6 0
v -8 -7 0
v -9 -7 0
v -9 -6 0
v -8 -6 0
v -9 -7 0
v -10 -7 0
v -10 -6 0
v -9 -6 0
v -10 -7 0
v -11 -7 0
v -11 -6 0
v -10 -6 0
v -11 -7 0
v -12 -7 0
v -12 -6 0
v -11 -6 0
v -12 -7 0
v -13 -7 0
v -13 -6 0
v -12 -6 0
v -13 -7 0
v -14 -7 0
v -14 -6 0
v -13 -6 0
v -14 -7 0
v -15 -7 0
v -15 -6 0
v -14 -6 0
v -15 -7 0
v -16 -7 0
v -16 -6 0
v -15 -6 0
v -2 -8 0
v -3 -8 0
v -3 -7 0
v -2 -7 0
v -3 -8 0
v -4 -8 0
v -4 -7 0
v -3 -7 0
v -4 -8 0
v -5 -8 0
v -5 -7 0
v -4 -7 0
v -5 -8 0
v -6 -8 0
v -6 -7 0
v -5 -7 0
v -6 -8 0
v -7 -8 0
v -7 -7 0
v -6 -7 0
v -7 -8 0
v -8 -8 0
v -8 -7 0
v -7 -7 0
v -8 -8 0
v -9 -8 0
v -9 -7 0
v -8 -7 0
v -9 -8 0
v -10 -8 0
v -10 -7 0
v -9 -7 0
v -10 -8 0
v -11 -8 0
v -11 -7 0
v -10 -7 0
v -11 -8 0
v -12 -8 0
v -12 -7 0
v -11 -7 0
v -12 -8 0
v -13 -8 0
v -13 -7 0
v -12 -7 0
v -13 -8 0
v -14 -8 0
v -14 -7 0
v -13 -7 0
v -14 -8 0
v -15 -8 0
v -15 -7 0
v -14 -7 0
v -15 -8 0
v -16 -8 0
v -16 -7 0
v -15 -7 0
v 0 -9 0
v -1 -9 0
v -1 -8 0
v 0 -8 0
v -1 -9 0
v -2 -9 0
v -2 -8 0
v -1 -8 0
v -2 -9 0
v -3 -9 0
v -3 -8 0
v -2 -8 0
v -3 -9 0
v -4 -9 0
v -4 -8 0
v -3 -8 0
v -4 -9 0
v -5 -9 0
v -5 -8 0
v -4 -8 0
v -5 -9 0
v -6 -9 0
v -6 -8 0
v -5 -8 0
v -6 -9 0
v -7 -9 0
v -7 -8 0
v -6 -8 0
v -7 -9 0
v -8 -9 0
v -8 -8 0
v -7 -8 0
v -8 -9 0
v -9 -9 0
v -9 -8 0
v -8 -8 0
v -9 -9 0
v -10 -9 0
v -10 -8 0
v -9 -8 0
v -10 -9 0
v -11 -9 0
v -11 -8 0
v -10 -8 0
v -11 -9 0
v -12 -9 0
v -12 -8 0
v -11 -8 0
v -12 -9 0
v -13 -9 0
v -13 -8 0
v -12 -8 0
v -13 -9 0
v -14 -9 0
v -14 -8 0
v -13 -8 0
v -14 -9 0
v -15 -9 0
v -15 -8 0
v -14 -8 0
v -15 -9 0
v -16 -9 0
v -16 -8 0
v -15 -8 0
v 0 -10 0
v -1 -10 0
v -1 -9 0
v 0 -9 0
v -1 -10 0
v -2 -10 0
v -2 -9 0
v -1 -9 0
v -2 -10 0
v -3 -10 0
v -3 -9 0
v -2 -9 0
v -3 -10 0
v -4 -10 0
v -4 -9 0
v -3 -9 0
v -4 -10 0
v -5 -10 0
v -5 -9 0
v -4 -9 0
v -5 -10 0
v -6 -10 0
v -6 -9 0
v -5 -9 0
v -6 -10 0
v -7 -10 0
v -7 -9 0
v -6 -9 0
v -7 -10 0
v -8 -10 0
v -8 -9 0
v -7 -9 0
v -8 -10 0
v -9 -10 0
v -9 -9 0
v -8 -9 0
v -9 -10 0
v -10 -10 0
v -10 -9 0
v -9 -9 0
v -10 -10 0
v -11 -10 0
v -11 -9 0
v -10 -9 0
v -11 -10 0
v -12 -10 0
v -12 -9 0
v -11 -9 0
v -12 -10 0
v -13 -10 0
v -13 -9 0
v -12 -9 0
v -13 -10 0
v -14 -10 0
v -14 -9 0
v -13 -9 0
v -14 -10 0
v -15 -10 0
v -15 -9 0
v -14 -9 0
v -15 -10 0
v -16 -10 0
v -16 -9 0
v -15 -9 0
v 0 -11 0
v -1 -11 0
v -1 -10 0
v 0 -10 0
v -1 -11 0
v -2 -11 0
v -2 -10 0
v -1 -10 0
v -2 -11 0
v -3 -11 0
v -3 -10 0
v -2 -10 0
v -3 -11 0
v -4 -11 0
v -4 -10 0
v -3 -10 0
v -4 -11 0
v -5 -11 0
v -5 -10 0
v -4 -10 0
v -5 -11 0
v -6 -11 0
v -6 -10 0
v -5 -10 0
v -6 -11 0
v -7 -11 0
v -7 -10 0
v -6 -10 0
v -7 -11 0
v -8 -11 0
v -8 -10 0
v -7 -10 0
v -8 -11 0
v -9 -11 0
v -9 -10 0
v -8 -10 0
v -9 -11 0
v -10 -11 0
v -10 -10 0
v -9 -10 0
v -10 -11 0
v -11 -11 0
v -11 -10 0
v -10 -10 0
v -11 -11 0
v -12 -11 0
v -12 -10 0
v -11 -10 0
v -12 -11 0
v -13 -11 0
v -13 -10 0
v -12 -10 0
v -13 -11 0
v -14 -11 0
v -14 -10 0
v -13 -10 0
v -14 -11 0
v -15 -11 0
v -15 -10 0
v -14 -10 0
v -15 -11 0
v -16 -11 0
v -16 -10 0
v -15 -10 0
v 0 -12 0
v -1 -12 0
v -1 -11 0
v 0 -11 0
v -1 -12 0
v -2 -12 0
v -2 -11 0
v -1 -11 0
v -2 -12 0
v -3 -12 0
v -3 -11 0
v -2 -11 0
v -3 -12 0
v -4 -12 0
v -4 -11 0
v -3 -11 0
v -4 -12 0
v -5 -12 0
v -5 -11 0
v -4 -11 0
v -5 -12 0
v -6 -12 0
v -6 -11 0
v -5 -11 0
v -6 -12 0
v -7 -12 0
v -7 -11 0
v -6 -11 0
v -7 -12 0
v -8 -12 0
v -8 -11 0
v -7 -11 0
v -8 -12 0
v -9 -12 0
v -9 -11 0
v -8 -11 0
v -9 -12 0
v -10 -12 0
v -10 -11 0
v -9 -11 0
v -10 -12 0
v -11 -12 0
v -11 -11 0
v -10 -11 0
v -11 -12 0
v -12 -12 0
v -12 -11 0
v -11 -11 0
v -12 -12 0
v -13 -12 0
v -13 -11 0
v -12 -11 0
v -13 -12 0
v -14 -12 0
v -14 -11 0
v -13 -11 0
v -14 -12 0
v -15 -12 0
v -15 -11 0
v -14 -11 0
v -15 -12 0
v -16 -12 0
v -16 -11 0
v -15 -11 0
v 0 -15 0
v -1 -15 0
v -1 -14 0
v 0 -14 0
v -1 -15 0
v -2 -15 0
v -2 -14 0
v -1 -14 0
v -2 -15 0
v -3 -15 0
v -3 -14 0
v -2 -14 0
v -3 -15 0
v -4 -15 0
v -4 -14 0
v -3 -14 0
v -4 -15 0
v -5 -15 0
v -5 -14 0
v -4 -14 0
v -5 -15 0
v -6 -15 0
v -6 -14 0
v -5 -14 0
v -6 -15 0
v -7 -15 0
v -7 -14 0
v -6 -14 0
v -7 -15 0
v -8 -15 0
v -8 -14 0
v -7 -14 0
v -8 -15 0
v -9 -15 0
v -9 -14 0
v -8 -14 0
v -9 -15 0
v -10 -15 0
v -10 -14 0
v -9 -14 0
v -10 -15 0
v -11 -15 0
v -11 -14 0
v -10 -14 0
v -11 -15 0
v -12 -15 0
v -12 -14 0
v -11 -14 0
v -12 -15 0
v -13 -15 0
v -13 -14 0
v -12 -14 0
v -13 -15 0
v -14 -15 0
v -14 -14 0
v -13 -14 0
v -14 -15 0
v -15 -15 0
v -15 -14 0
v -14 -14 0
v -15 -15 0
v -16 -15 0
v -16 -14 0
v -15 -14 0
v 0 -16 0
v -1 -16 0
v -1 -15 0
v 0 -15 0
v -1 -16 0
v -2 -16 0
v -2 -15 0
v -1 -15 0
v -2 -16 0
v -3 -16 0
v -3 -15 0
v -2 -15 0
v -3 -16 0
v -4 -16 0
v -4 -15 0
v -3 -15 0
v -4 -16 0
v -5 -16 0
v -5 -15 0
v -4 -15 0
v -5 -16 0
v -6 -16 0
v -6 -15 0
v -5 -15 0
v -6 -16 0
v -7 -16 0
v -7 -15 0
v -6 -15 0
v -7 -16 0
v -8 -16 0
v -8 -15 0
v -7 -15 0
v -8 -16 0
v -9 -16 0
v -9 -15 0
v -8 -15 0
v -9 -16 0
v -10 -16 0
v -10 -15 0
v -9 -15 0
v -10 -16 0
v -11 -16 0
v -11 -15 0
v -10 -15 0
v -11 -16 0
v -12 -16 0
v -12 -15 0
v -11 -15 0
v -12 -16 0
v -13 -16 0
v -13 -15 0
v -12 -15 0
v -13 -16 0
v -14 -16 0
v -14 -15 0
v -13 -15 0
v -14 -16 0
v -15 -16 0
v -15 -15 0
v -14 -15 0
v -15 -16 0
v -16 -16 0
v -16 -15 0
v -15 -15 0

# Texture cooridinates (Count = 21)
vt 0 0.2222222
vt 0.1 0.2222222
vt 0.1 0.3333333
vt 0 0.3333333
vt 0.4 0.2222222
vt 0.5 0.2222222
vt 0.5 0.3333333
vt 0.4 0.3333333
vt 0 0.1111111
vt 0.1 0.1111111
vt 0.2 0.1111111
vt 0.2 0.2222222
vt 0.2 0.3333333
vt 0.6 0.2222222
vt 0.7 0.2222222
vt 0.7 0.3333333
vt 0.6 0.3333333
vt 0.1 0.6666666
vt 0.2 0.6666666
vt 0.2 0.7777778
vt 0.1 0.7777778

# Normal
vn 0 0 -1

# Mesh description
g Map_Master_mesh_0201

# Faces
f 1/1/1 2/2/1 3/3/1 4/4/1
f 5/5/1 6/6/1 7/7/1 8/8/1
f 9/9/1 10/10/1 11/2/1 12/1/1
f 13/10/1 14/11/1 15/12/1 16/2/1
f 17/1/1 18/2/1 19/3/1 20/4/1
f 21/5/1 22/6/1 23/7/1 24/8/1
f 25/10/1 26/11/1 27/12/1 28/2/1
f 29/1/1 30/2/1 31/3/1 32/4/1
f 33/2/1 34/12/1 35/13/1 36/3/1
f 37/2/1 38/12/1 39/13/1 40/3/1
f 41/14/1 42/15/1 43/16/1 44/17/1
f 45/14/1 46/15/1 47/16/1 48/17/1
f 49/14/1 50/15/1 51/16/1 52/17/1
f 53/2/1 54/12/1 55/13/1 56/3/1
f 57/2/1 58/12/1 59/13/1 60/3/1
f 61/5/1 62/6/1 63/7/1 64/8/1
f 65/10/1 66/11/1 67/12/1 68/2/1
f 69/10/1 70/11/1 71/12/1 72/2/1
f 73/1/1 74/2/1 75/3/1 76/4/1
f 77/5/1 78/6/1 79/7/1 80/8/1
f 81/10/1 82/11/1 83/12/1 84/2/1
f 85/10/1 86/11/1 87/12/1 88/2/1
f 89/10/1 90/11/1 91/12/1 92/2/1
f 93/10/1 94/11/1 95/12/1 96/2/1
f 97/10/1 98/11/1 99/12/1 100/2/1
f 101/10/1 102/11/1 103/12/1 104/2/1
f 105/10/1 106/11/1 107/12/1 108/2/1
f 109/10/1 110/11/1 111/12/1 112/2/1
f 113/10/1 114/11/1 115/12/1 116/2/1
f 117/10/1 118/11/1 119/12/1 120/2/1
f 121/1/1 122/2/1 123/3/1 124/4/1
f 125/5/1 126/6/1 127/7/1 128/8/1
f 129/10/1 130/11/1 131/12/1 132/2/1
f 133/10/1 134/11/1 135/12/1 136/2/1
f 137/10/1 138/11/1 139/12/1 140/2/1
f 141/10/1 142/11/1 143/12/1 144/2/1
f 145/10/1 146/11/1 147/12/1 148/2/1
f 149/10/1 150/11/1 151/12/1 152/2/1
f 153/10/1 154/11/1 155/12/1 156/2/1
f 157/10/1 158/11/1 159/12/1 160/2/1
f 161/10/1 162/11/1 163/12/1 164/2/1
f 165/10/1 166/11/1 167/12/1 168/2/1
f 169/10/1 170/11/1 171/12/1 172/2/1
f 173/9/1 174/10/1 175/2/1 176/1/1
f 177/10/1 178/11/1 179/12/1 180/2/1
f 181/10/1 182/11/1 183/12/1 184/2/1
f 185/10/1 186/11/1 187/12/1 188/2/1
f 189/10/1 190/11/1 191/12/1 192/2/1
f 193/10/1 194/11/1 195/12/1 196/2/1
f 197/10/1 198/11/1 199/12/1 200/2/1
f 201/10/1 202/11/1 203/12/1 204/2/1
f 205/10/1 206/11/1 207/12/1 208/2/1
f 209/10/1 210/11/1 211/12/1 212/2/1
f 213/10/1 214/11/1 215/12/1 216/2/1
f 217/10/1 218/11/1 219/12/1 220/2/1
f 221/10/1 222/11/1 223/12/1 224/2/1
f 225/1/1 226/2/1 227/3/1 228/4/1
f 229/5/1 230/6/1 231/7/1 232/8/1
f 233/10/1 234/11/1 235/12/1 236/2/1
f 237/10/1 238/11/1 239/12/1 240/2/1
f 241/10/1 242/11/1 243/12/1 244/2/1
f 245/10/1 246/11/1 247/12/1 248/2/1
f 249/10/1 250/11/1 251/12/1 252/2/1
f 253/10/1 254/11/1 255/12/1 256/2/1
f 257/10/1 258/11/1 259/12/1 260/2/1
f 261/10/1 262/11/1 263/12/1 264/2/1
f 265/10/1 266/11/1 267/12/1 268/2/1
f 269/10/1 270/11/1 271/12/1 272/2/1
f 273/10/1 274/11/1 275/12/1 276/2/1
f 277/10/1 278/11/1 279/12/1 280/2/1
f 281/1/1 282/2/1 283/3/1 284/4/1
f 285/2/1 286/12/1 287/13/1 288/3/1
f 289/5/1 290/6/1 291/7/1 292/8/1
f 293/10/1 294/11/1 295/12/1 296/2/1
f 297/10/1 298/11/1 299/12/1 300/2/1
f 301/10/1 302/11/1 303/12/1 304/2/1
f 305/10/1 306/11/1 307/12/1 308/2/1
f 309/10/1 310/11/1 311/12/1 312/2/1
f 313/10/1 314/11/1 315/12/1 316/2/1
f 317/10/1 318/11/1 319/12/1 320/2/1
f 321/10/1 322/11/1 323/12/1 324/2/1
f 325/10/1 326/11/1 327/12/1 328/2/1
f 329/10/1 330/11/1 331/12/1 332/2/1
f 333/10/1 334/11/1 335/12/1 336/2/1
f 337/10/1 338/11/1 339/12/1 340/2/1
f 341/10/1 342/11/1 343/12/1 344/2/1
f 345/5/1 346/6/1 347/7/1 348/8/1
f 349/10/1 350/11/1 351/12/1 352/2/1
f 353/10/1 354/11/1 355/12/1 356/2/1
f 357/10/1 358/11/1 359/12/1 360/2/1
f 361/10/1 362/11/1 363/12/1 364/2/1
f 365/10/1 366/11/1 367/12/1 368/2/1
f 369/10/1 370/11/1 371/12/1 372/2/1
f 373/10/1 374/11/1 375/12/1 376/2/1
f 377/10/1 378/11/1 379/12/1 380/2/1
f 381/10/1 382/11/1 383/12/1 384/2/1
f 385/10/1 386/11/1 387/12/1 388/2/1
f 389/10/1 390/11/1 391/12/1 392/2/1
f 393/10/1 394/11/1 395/12/1 396/2/1
f 397/10/1 398/11/1 399/12/1 400/2/1
f 401/10/1 402/11/1 403/12/1 404/2/1
f 405/10/1 406/11/1 407/12/1 408/2/1
f 409/10/1 410/11/1 411/12/1 412/2/1
f 413/10/1 414/11/1 415/12/1 416/2/1
f 417/10/1 418/11/1 419/12/1 420/2/1
f 421/10/1 422/11/1 423/12/1 424/2/1
f 425/10/1 426/11/1 427/12/1 428/2/1
f 429/10/1 430/11/1 431/12/1 432/2/1
f 433/10/1 434/11/1 435/12/1 436/2/1
f 437/10/1 438/11/1 439/12/1 440/2/1
f 441/10/1 442/11/1 443/12/1 444/2/1
f 445/10/1 446/11/1 447/12/1 448/2/1
f 449/10/1 450/11/1 451/12/1 452/2/1
f 453/10/1 454/11/1 455/12/1 456/2/1
f 457/10/1 458/11/1 459/12/1 460/2/1
f 461/10/1 462/11/1 463/12/1 464/2/1
f 465/10/1 466/11/1 467/12/1 468/2/1
f 469/10/1 470/11/1 471/12/1 472/2/1
f 473/10/1 474/11/1 475/12/1 476/2/1
f 477/10/1 478/11/1 479/12/1 480/2/1
f 481/10/1 482/11/1 483/12/1 484/2/1
f 485/10/1 486/11/1 487/12/1 488/2/1
f 489/10/1 490/11/1 491/12/1 492/2/1
f 493/10/1 494/11/1 495/12/1 496/2/1
f 497/10/1 498/11/1 499/12/1 500/2/1
f 501/10/1 502/11/1 503/12/1 504/2/1
f 505/10/1 506/11/1 507/12/1 508/2/1
f 509/10/1 510/11/1 511/12/1 512/2/1
f 513/10/1 514/11/1 515/12/1 516/2/1
f 517/10/1 518/11/1 519/12/1 520/2/1
f 521/10/1 522/11/1 523/12/1 524/2/1
f 525/10/1 526/11/1 527/12/1 528/2/1
f 529/10/1 530/11/1 531/12/1 532/2/1
f 533/10/1 534/11/1 535/12/1 536/2/1
f 537/18/1 538/19/1 539/20/1 540/21/1
f 541/18/1 542/19/1 543/20/1 544/21/1
f 545/18/1 546/19/1 547/20/1 548/21/1
f 549/18/1 550/19/1 551/20/1 552/21/1
f 553/18/1 554/19/1 555/20/1 556/21/1
f 557/18/1 558/19/1 559/20/1 560/21/1
f 561/18/1 562/19/1 563/20/1 564/21/1
f 565/18/1 566/19/1 567/20/1 568/21/1
f 569/18/1 570/19/1 571/20/1 572/21/1
f 573/18/1 574/19/1 575/20/1 576/21/1
f 577/18/1 578/19/1 579/20/1 580/21/1
f 581/18/1 582/19/1 583/20/1 584/21/1
f 585/18/1 586/19/1 587/20/1 588/21/1
f 589/18/1 590/19/1 591/20/1 592/21/1
f 593/18/1 594/19/1 595/20/1 596/21/1
f 597/18/1 598/19/1 599/20/1 600/21/1
f 601/18/1 602/19/1 603/20/1 604/21/1
f 605/18/1 606/19/1 607/20/1 608/21/1
f 609/18/1 610/19/1 611/20/1 612/21/1
f 613/18/1 614/19/1 615/20/1 616/21/1
f 617/18/1 618/19/1 619/20/1 620/21/1
f 621/18/1 622/19/1 623/20/1 624/21/1
f 625/18/1 626/19/1 627/20/1 628/21/1
f 629/18/1 630/19/1 631/20/1 632/21/1
f 633/18/1 634/19/1 635/20/1 636/21/1
f 637/18/1 638/19/1 639/20/1 640/21/1
f 641/18/1 642/19/1 643/20/1 644/21/1
f 645/18/1 646/19/1 647/20/1 648/21/1
f 649/18/1 650/19/1 651/20/1 652/21/1
f 653/18/1 654/19/1 655/20/1 656/21/1
f 657/18/1 658/19/1 659/20/1 660/21/1
f 661/18/1 662/19/1 663/20/1 664/21/1

