# Tiled2Unity generated file. Do not modify by hand.
# Wavefront file for 'Map_Master_mesh_0307.obj'

# Vertices (Count = 16)
v -12 -1 0
v -12.5 -1 0
v -12.5 -0.5 0
v -12 -0.5 0
v -13 -1 0
v -13.5 -1 0
v -13.5 -0.5 0
v -13 -0.5 0
v -14 -1 0
v -14.5 -1 0
v -14.5 -0.5 0
v -14 -0.5 0
v -15 -1 0
v -15.5 -1 0
v -15.5 -0.5 0
v -15 -0.5 0

# Texture cooridinates (Count = 4)
vt 0.3333333 0.5
vt 0.5 0.5
vt 0.5 1
vt 0.3333333 1

# Normal
vn 0 0 -1

# Mesh description
g Map_Master_mesh_0307

# Faces
f 1/1/1 2/2/1 3/3/1 4/4/1
f 5/1/1 6/2/1 7/3/1 8/4/1
f 9/1/1 10/2/1 11/3/1 12/4/1
f 13/1/1 14/2/1 15/3/1 16/4/1

