# Tiled2Unity generated file. Do not modify by hand.
# Wavefront file for 'Map_Master_mesh_0557.obj'

# Vertices (Count = 12)
v -9 -6 0
v -10 -6 0
v -10 -5 0
v -9 -5 0
v 0 -12 0
v -1 -12 0
v -1 -11 0
v 0 -11 0
v -3 -12 0
v -4 -12 0
v -4 -11 0
v -3 -11 0

# Texture cooridinates (Count = 8)
vt 0.25 0
vt 0.5 0
vt 0.5 1
vt 0.25 1
vt 0 0
vt 0 1
vt 0.75 0
vt 0.75 1

# Normal
vn 0 0 -1

# Mesh description
g Map_Master_mesh_0557

# Faces
f 1/1/1 2/2/1 3/3/1 4/4/1
f 5/5/1 6/1/1 7/4/1 8/6/1
f 9/2/1 10/7/1 11/8/1 12/3/1

