# Tiled2Unity generated file. Do not modify by hand.
# Wavefront file for 'Map_Master_mesh_0316.obj'

# Vertices (Count = 180)
v -2 -1 0
v -3 -1 0
v -3 0 0
v -2 0 0
v -3 -1 0
v -4 -1 0
v -4 0 0
v -3 0 0
v -4 -1 0
v -5 -1 0
v -5 0 0
v -4 0 0
v -5 -1 0
v -6 -1 0
v -6 0 0
v -5 0 0
v -6 -1 0
v -7 -1 0
v -7 0 0
v -6 0 0
v -7 -1 0
v -8 -1 0
v -8 0 0
v -7 0 0
v -8 -1 0
v -9 -1 0
v -9 0 0
v -8 0 0
v -9 -1 0
v -10 -1 0
v -10 0 0
v -9 0 0
v -10 -1 0
v -11 -1 0
v -11 0 0
v -10 0 0
v -11 -1 0
v -12 -1 0
v -12 0 0
v -11 0 0
v -12 -1 0
v -13 -1 0
v -13 0 0
v -12 0 0
v -13 -1 0
v -14 -1 0
v -14 0 0
v -13 0 0
v -14 -1 0
v -15 -1 0
v -15 0 0
v -14 0 0
v -15 -1 0
v -16 -1 0
v -16 0 0
v -15 0 0
v -1 -2 0
v -2 -2 0
v -2 -1 0
v -1 -1 0
v -2 -2 0
v -3 -2 0
v -3 -1 0
v -2 -1 0
v -3 -2 0
v -4 -2 0
v -4 -1 0
v -3 -1 0
v -4 -2 0
v -5 -2 0
v -5 -1 0
v -4 -1 0
v -5 -2 0
v -6 -2 0
v -6 -1 0
v -5 -1 0
v -6 -2 0
v -7 -2 0
v -7 -1 0
v -6 -1 0
v -7 -2 0
v -8 -2 0
v -8 -1 0
v -7 -1 0
v -8 -2 0
v -9 -2 0
v -9 -1 0
v -8 -1 0
v -9 -2 0
v -10 -2 0
v -10 -1 0
v -9 -1 0
v -10 -2 0
v -11 -2 0
v -11 -1 0
v -10 -1 0
v -11 -2 0
v -12 -2 0
v -12 -1 0
v -11 -1 0
v -12 -2 0
v -13 -2 0
v -13 -1 0
v -12 -1 0
v -13 -2 0
v -14 -2 0
v -14 -1 0
v -13 -1 0
v -14 -2 0
v -15 -2 0
v -15 -1 0
v -14 -1 0
v -15 -2 0
v -16 -2 0
v -16 -1 0
v -15 -1 0
v 0 -3 0
v -1 -3 0
v -1 -2 0
v 0 -2 0
v -1 -3 0
v -2 -3 0
v -2 -2 0
v -1 -2 0
v -2 -3 0
v -3 -3 0
v -3 -2 0
v -2 -2 0
v -3 -3 0
v -4 -3 0
v -4 -2 0
v -3 -2 0
v -4 -3 0
v -5 -3 0
v -5 -2 0
v -4 -2 0
v -5 -3 0
v -6 -3 0
v -6 -2 0
v -5 -2 0
v -6 -3 0
v -7 -3 0
v -7 -2 0
v -6 -2 0
v -7 -3 0
v -8 -3 0
v -8 -2 0
v -7 -2 0
v -8 -3 0
v -9 -3 0
v -9 -2 0
v -8 -2 0
v -9 -3 0
v -10 -3 0
v -10 -2 0
v -9 -2 0
v -10 -3 0
v -11 -3 0
v -11 -2 0
v -10 -2 0
v -11 -3 0
v -12 -3 0
v -12 -2 0
v -11 -2 0
v -12 -3 0
v -13 -3 0
v -13 -2 0
v -12 -2 0
v -13 -3 0
v -14 -3 0
v -14 -2 0
v -13 -2 0
v -14 -3 0
v -15 -3 0
v -15 -2 0
v -14 -2 0
v -15 -3 0
v -16 -3 0
v -16 -2 0
v -15 -2 0

# Texture cooridinates (Count = 12)
vt 0 0.8333333
vt 0.1111111 0.8333333
vt 0.1111111 1
vt 0 1
vt 0.4444444 0.6666666
vt 0.5555556 0.6666666
vt 0.5555556 0.8333333
vt 0.4444444 0.8333333
vt 0.1111111 0.6666666
vt 0.2222222 0.6666666
vt 0.2222222 0.8333333
vt 0.2222222 1

# Normal
vn 0 0 -1

# Mesh description
g Map_Master_mesh_0316

# Faces
f 1/1/1 2/2/1 3/3/1 4/4/1
f 5/5/1 6/6/1 7/7/1 8/8/1
f 9/9/1 10/10/1 11/11/1 12/2/1
f 13/9/1 14/10/1 15/11/1 16/2/1
f 17/9/1 18/10/1 19/11/1 20/2/1
f 21/9/1 22/10/1 23/11/1 24/2/1
f 25/9/1 26/10/1 27/11/1 28/2/1
f 29/9/1 30/10/1 31/11/1 32/2/1
f 33/9/1 34/10/1 35/11/1 36/2/1
f 37/9/1 38/10/1 39/11/1 40/2/1
f 41/9/1 42/10/1 43/11/1 44/2/1
f 45/9/1 46/10/1 47/11/1 48/2/1
f 49/9/1 50/10/1 51/11/1 52/2/1
f 53/9/1 54/10/1 55/11/1 56/2/1
f 57/1/1 58/2/1 59/3/1 60/4/1
f 61/5/1 62/6/1 63/7/1 64/8/1
f 65/9/1 66/10/1 67/11/1 68/2/1
f 69/9/1 70/10/1 71/11/1 72/2/1
f 73/9/1 74/10/1 75/11/1 76/2/1
f 77/9/1 78/10/1 79/11/1 80/2/1
f 81/9/1 82/10/1 83/11/1 84/2/1
f 85/9/1 86/10/1 87/11/1 88/2/1
f 89/9/1 90/10/1 91/11/1 92/2/1
f 93/9/1 94/10/1 95/11/1 96/2/1
f 97/9/1 98/10/1 99/11/1 100/2/1
f 101/9/1 102/10/1 103/11/1 104/2/1
f 105/9/1 106/10/1 107/11/1 108/2/1
f 109/9/1 110/10/1 111/11/1 112/2/1
f 113/9/1 114/10/1 115/11/1 116/2/1
f 117/2/1 118/11/1 119/12/1 120/3/1
f 121/5/1 122/6/1 123/7/1 124/8/1
f 125/9/1 126/10/1 127/11/1 128/2/1
f 129/9/1 130/10/1 131/11/1 132/2/1
f 133/9/1 134/10/1 135/11/1 136/2/1
f 137/9/1 138/10/1 139/11/1 140/2/1
f 141/9/1 142/10/1 143/11/1 144/2/1
f 145/9/1 146/10/1 147/11/1 148/2/1
f 149/9/1 150/10/1 151/11/1 152/2/1
f 153/9/1 154/10/1 155/11/1 156/2/1
f 157/9/1 158/10/1 159/11/1 160/2/1
f 161/9/1 162/10/1 163/11/1 164/2/1
f 165/9/1 166/10/1 167/11/1 168/2/1
f 169/9/1 170/10/1 171/11/1 172/2/1
f 173/9/1 174/10/1 175/11/1 176/2/1
f 177/9/1 178/10/1 179/11/1 180/2/1

