# Tiled2Unity generated file. Do not modify by hand.
# Wavefront file for 'Map_Master_mesh_0641.obj'

# Vertices (Count = 16)
v -9 -3 0
v -10 -3 0
v -10 -2 0
v -9 -2 0
v -4 -5 0
v -5 -5 0
v -5 -4 0
v -4 -4 0
v -2 -15 0
v -3 -15 0
v -3 -14 0
v -2 -14 0
v -7 -16 0
v -8 -16 0
v -8 -15 0
v -7 -15 0

# Texture cooridinates (Count = 8)
vt 0.25 0
vt 0.5 0
vt 0.5 1
vt 0.25 1
vt 0 0
vt 0 1
vt 0.75 0
vt 0.75 1

# Normal
vn 0 0 -1

# Mesh description
g Map_Master_mesh_0641

# Faces
f 1/1/1 2/2/1 3/3/1 4/4/1
f 5/5/1 6/1/1 7/4/1 8/6/1
f 9/2/1 10/7/1 11/8/1 12/3/1
f 13/1/1 14/2/1 15/3/1 16/4/1

