# Tiled2Unity generated file. Do not modify by hand.
# Wavefront file for 'Map_Master_mesh_0116.obj'

# Vertices (Count = 540)
v -2 -2 0
v -3 -2 0
v -3 -1 0
v -2 -1 0
v -3 -2 0
v -4 -2 0
v -4 -1 0
v -3 -1 0
v -4 -2 0
v -5 -2 0
v -5 -1 0
v -4 -1 0
v -5 -2 0
v -6 -2 0
v -6 -1 0
v -5 -1 0
v -10 -2 0
v -11 -2 0
v -11 -1 0
v -10 -1 0
v -11 -2 0
v -12 -2 0
v -12 -1 0
v -11 -1 0
v -12 -2 0
v -13 -2 0
v -13 -1 0
v -12 -1 0
v -13 -2 0
v -14 -2 0
v -14 -1 0
v -13 -1 0
v -2 -3 0
v -3 -3 0
v -3 -2 0
v -2 -2 0
v -3 -3 0
v -4 -3 0
v -4 -2 0
v -3 -2 0
v -4 -3 0
v -5 -3 0
v -5 -2 0
v -4 -2 0
v -5 -3 0
v -6 -3 0
v -6 -2 0
v -5 -2 0
v -10 -3 0
v -11 -3 0
v -11 -2 0
v -10 -2 0
v -11 -3 0
v -12 -3 0
v -12 -2 0
v -11 -2 0
v -12 -3 0
v -13 -3 0
v -13 -2 0
v -12 -2 0
v -13 -3 0
v -14 -3 0
v -14 -2 0
v -13 -2 0
v -14 -3 0
v -15 -3 0
v -15 -2 0
v -14 -2 0
v -15 -3 0
v -16 -3 0
v -16 -2 0
v -15 -2 0
v -2 -4 0
v -3 -4 0
v -3 -3 0
v -2 -3 0
v -3 -4 0
v -4 -4 0
v -4 -3 0
v -3 -3 0
v -4 -4 0
v -5 -4 0
v -5 -3 0
v -4 -3 0
v -5 -4 0
v -6 -4 0
v -6 -3 0
v -5 -3 0
v -10 -4 0
v -11 -4 0
v -11 -3 0
v -10 -3 0
v -11 -4 0
v -12 -4 0
v -12 -3 0
v -11 -3 0
v -12 -4 0
v -13 -4 0
v -13 -3 0
v -12 -3 0
v -13 -4 0
v -14 -4 0
v -14 -3 0
v -13 -3 0
v -14 -4 0
v -15 -4 0
v -15 -3 0
v -14 -3 0
v -15 -4 0
v -16 -4 0
v -16 -3 0
v -15 -3 0
v -1 -5 0
v -2 -5 0
v -2 -4 0
v -1 -4 0
v -2 -5 0
v -3 -5 0
v -3 -4 0
v -2 -4 0
v -3 -5 0
v -4 -5 0
v -4 -4 0
v -3 -4 0
v -4 -5 0
v -5 -5 0
v -5 -4 0
v -4 -4 0
v -5 -5 0
v -6 -5 0
v -6 -4 0
v -5 -4 0
v -10 -5 0
v -11 -5 0
v -11 -4 0
v -10 -4 0
v -11 -5 0
v -12 -5 0
v -12 -4 0
v -11 -4 0
v -12 -5 0
v -13 -5 0
v -13 -4 0
v -12 -4 0
v -13 -5 0
v -14 -5 0
v -14 -4 0
v -13 -4 0
v -14 -5 0
v -15 -5 0
v -15 -4 0
v -14 -4 0
v -15 -5 0
v -16 -5 0
v -16 -4 0
v -15 -4 0
v 0 -6 0
v -1 -6 0
v -1 -5 0
v 0 -5 0
v -1 -6 0
v -2 -6 0
v -2 -5 0
v -1 -5 0
v -2 -6 0
v -3 -6 0
v -3 -5 0
v -2 -5 0
v -3 -6 0
v -4 -6 0
v -4 -5 0
v -3 -5 0
v -4 -6 0
v -5 -6 0
v -5 -5 0
v -4 -5 0
v -5 -6 0
v -6 -6 0
v -6 -5 0
v -5 -5 0
v -10 -6 0
v -11 -6 0
v -11 -5 0
v -10 -5 0
v -11 -6 0
v -12 -6 0
v -12 -5 0
v -11 -5 0
v -12 -6 0
v -13 -6 0
v -13 -5 0
v -12 -5 0
v -13 -6 0
v -14 -6 0
v -14 -5 0
v -13 -5 0
v -14 -6 0
v -15 -6 0
v -15 -5 0
v -14 -5 0
v -15 -6 0
v -16 -6 0
v -16 -5 0
v -15 -5 0
v 0 -7 0
v -1 -7 0
v -1 -6 0
v 0 -6 0
v -1 -7 0
v -2 -7 0
v -2 -6 0
v -1 -6 0
v -2 -7 0
v -3 -7 0
v -3 -6 0
v -2 -6 0
v -3 -7 0
v -4 -7 0
v -4 -6 0
v -3 -6 0
v -4 -7 0
v -5 -7 0
v -5 -6 0
v -4 -6 0
v -5 -7 0
v -6 -7 0
v -6 -6 0
v -5 -6 0
v -10 -7 0
v -11 -7 0
v -11 -6 0
v -10 -6 0
v -11 -7 0
v -12 -7 0
v -12 -6 0
v -11 -6 0
v -12 -7 0
v -13 -7 0
v -13 -6 0
v -12 -6 0
v -13 -7 0
v -14 -7 0
v -14 -6 0
v -13 -6 0
v -14 -7 0
v -15 -7 0
v -15 -6 0
v -14 -6 0
v -15 -7 0
v -16 -7 0
v -16 -6 0
v -15 -6 0
v 0 -8 0
v -1 -8 0
v -1 -7 0
v 0 -7 0
v -1 -8 0
v -2 -8 0
v -2 -7 0
v -1 -7 0
v -2 -8 0
v -3 -8 0
v -3 -7 0
v -2 -7 0
v -3 -8 0
v -4 -8 0
v -4 -7 0
v -3 -7 0
v -4 -8 0
v -5 -8 0
v -5 -7 0
v -4 -7 0
v -5 -8 0
v -6 -8 0
v -6 -7 0
v -5 -7 0
v -10 -8 0
v -11 -8 0
v -11 -7 0
v -10 -7 0
v -11 -8 0
v -12 -8 0
v -12 -7 0
v -11 -7 0
v -12 -8 0
v -13 -8 0
v -13 -7 0
v -12 -7 0
v -13 -8 0
v -14 -8 0
v -14 -7 0
v -13 -7 0
v -14 -8 0
v -15 -8 0
v -15 -7 0
v -14 -7 0
v -15 -8 0
v -16 -8 0
v -16 -7 0
v -15 -7 0
v 0 -9 0
v -1 -9 0
v -1 -8 0
v 0 -8 0
v -1 -9 0
v -2 -9 0
v -2 -8 0
v -1 -8 0
v -2 -9 0
v -3 -9 0
v -3 -8 0
v -2 -8 0
v -3 -9 0
v -4 -9 0
v -4 -8 0
v -3 -8 0
v -4 -9 0
v -5 -9 0
v -5 -8 0
v -4 -8 0
v -5 -9 0
v -6 -9 0
v -6 -8 0
v -5 -8 0
v -10 -9 0
v -11 -9 0
v -11 -8 0
v -10 -8 0
v -11 -9 0
v -12 -9 0
v -12 -8 0
v -11 -8 0
v -12 -9 0
v -13 -9 0
v -13 -8 0
v -12 -8 0
v -13 -9 0
v -14 -9 0
v -14 -8 0
v -13 -8 0
v -14 -9 0
v -15 -9 0
v -15 -8 0
v -14 -8 0
v -15 -9 0
v -16 -9 0
v -16 -8 0
v -15 -8 0
v 0 -10 0
v -1 -10 0
v -1 -9 0
v 0 -9 0
v -1 -10 0
v -2 -10 0
v -2 -9 0
v -1 -9 0
v -2 -10 0
v -3 -10 0
v -3 -9 0
v -2 -9 0
v -3 -10 0
v -4 -10 0
v -4 -9 0
v -3 -9 0
v -4 -10 0
v -5 -10 0
v -5 -9 0
v -4 -9 0
v -5 -10 0
v -6 -10 0
v -6 -9 0
v -5 -9 0
v -10 -10 0
v -11 -10 0
v -11 -9 0
v -10 -9 0
v -11 -10 0
v -12 -10 0
v -12 -9 0
v -11 -9 0
v -12 -10 0
v -13 -10 0
v -13 -9 0
v -12 -9 0
v -13 -10 0
v -14 -10 0
v -14 -9 0
v -13 -9 0
v -14 -10 0
v -15 -10 0
v -15 -9 0
v -14 -9 0
v -15 -10 0
v -16 -10 0
v -16 -9 0
v -15 -9 0
v 0 -11 0
v -1 -11 0
v -1 -10 0
v 0 -10 0
v -1 -11 0
v -2 -11 0
v -2 -10 0
v -1 -10 0
v -2 -11 0
v -3 -11 0
v -3 -10 0
v -2 -10 0
v -3 -11 0
v -4 -11 0
v -4 -10 0
v -3 -10 0
v -4 -11 0
v -5 -11 0
v -5 -10 0
v -4 -10 0
v -5 -11 0
v -6 -11 0
v -6 -10 0
v -5 -10 0
v -10 -11 0
v -11 -11 0
v -11 -10 0
v -10 -10 0
v -11 -11 0
v -12 -11 0
v -12 -10 0
v -11 -10 0
v -12 -11 0
v -13 -11 0
v -13 -10 0
v -12 -10 0
v -13 -11 0
v -14 -11 0
v -14 -10 0
v -13 -10 0
v -14 -11 0
v -15 -11 0
v -15 -10 0
v -14 -10 0
v -15 -11 0
v -16 -11 0
v -16 -10 0
v -15 -10 0
v 0 -12 0
v -1 -12 0
v -1 -11 0
v 0 -11 0
v -1 -12 0
v -2 -12 0
v -2 -11 0
v -1 -11 0
v -2 -12 0
v -3 -12 0
v -3 -11 0
v -2 -11 0
v -3 -12 0
v -4 -12 0
v -4 -11 0
v -3 -11 0
v -4 -12 0
v -5 -12 0
v -5 -11 0
v -4 -11 0
v -5 -12 0
v -6 -12 0
v -6 -11 0
v -5 -11 0
v -10 -12 0
v -11 -12 0
v -11 -11 0
v -10 -11 0
v -11 -12 0
v -12 -12 0
v -12 -11 0
v -11 -11 0
v -12 -12 0
v -13 -12 0
v -13 -11 0
v -12 -11 0
v -13 -12 0
v -14 -12 0
v -14 -11 0
v -13 -11 0
v -14 -12 0
v -15 -12 0
v -15 -11 0
v -14 -11 0
v -15 -12 0
v -16 -12 0
v -16 -11 0
v -15 -11 0
v 0 -13 0
v -1 -13 0
v -1 -12 0
v 0 -12 0
v -1 -13 0
v -2 -13 0
v -2 -12 0
v -1 -12 0
v -2 -13 0
v -3 -13 0
v -3 -12 0
v -2 -12 0
v -3 -13 0
v -4 -13 0
v -4 -12 0
v -3 -12 0
v -4 -13 0
v -5 -13 0
v -5 -12 0
v -4 -12 0
v -5 -13 0
v -6 -13 0
v -6 -12 0
v -5 -12 0
v -10 -13 0
v -11 -13 0
v -11 -12 0
v -10 -12 0
v -11 -13 0
v -12 -13 0
v -12 -12 0
v -11 -12 0
v -12 -13 0
v -13 -13 0
v -13 -12 0
v -12 -12 0
v -13 -13 0
v -14 -13 0
v -14 -12 0
v -13 -12 0
v -14 -13 0
v -15 -13 0
v -15 -12 0
v -14 -12 0
v -15 -13 0
v -16 -13 0
v -16 -12 0
v -15 -12 0

# Texture cooridinates (Count = 24)
vt 0 0.7777778
vt 0.1 0.7777778
vt 0.1 0.8888889
vt 0 0.8888889
vt 0.2 0.7777778
vt 0.2 0.8888889
vt 0 0.6666666
vt 0.1 0.6666666
vt 0.2 0.6666666
vt 0.5 0.4444444
vt 0.6 0.4444444
vt 0.6 0.5555556
vt 0.5 0.5555556
vt 0.3 0.7777778
vt 0.4 0.7777778
vt 0.4 0.8888889
vt 0.3 0.8888889
vt 0.6 0.6666666
vt 0.5 0.6666666
vt 0.5 0.7777778
vt 0.5 0.8888889
vt 0.4 0.5555556
vt 0.4 0.6666666
vt 0.4 0.4444444

# Normal
vn 0 0 -1

# Mesh description
g Map_Master_mesh_0116

# Faces
f 1/1/1 2/2/1 3/3/1 4/4/1
f 5/2/1 6/5/1 7/6/1 8/3/1
f 9/2/1 10/5/1 11/6/1 12/3/1
f 13/2/1 14/5/1 15/6/1 16/3/1
f 17/2/1 18/5/1 19/6/1 20/3/1
f 21/2/1 22/5/1 23/6/1 24/3/1
f 25/2/1 26/5/1 27/6/1 28/3/1
f 29/2/1 30/5/1 31/6/1 32/3/1
f 33/7/1 34/8/1 35/2/1 36/1/1
f 37/8/1 38/9/1 39/5/1 40/2/1
f 41/8/1 42/9/1 43/5/1 44/2/1
f 45/10/1 46/11/1 47/12/1 48/13/1
f 49/8/1 50/9/1 51/5/1 52/2/1
f 53/8/1 54/9/1 55/5/1 56/2/1
f 57/8/1 58/9/1 59/5/1 60/2/1
f 61/14/1 62/15/1 63/16/1 64/17/1
f 65/2/1 66/5/1 67/6/1 68/3/1
f 69/2/1 70/5/1 71/6/1 72/3/1
f 73/1/1 74/2/1 75/3/1 76/4/1
f 77/8/1 78/9/1 79/5/1 80/2/1
f 81/13/1 82/12/1 83/18/1 84/19/1
f 85/8/1 86/9/1 87/5/1 88/2/1
f 89/10/1 90/11/1 91/12/1 92/13/1
f 93/8/1 94/9/1 95/5/1 96/2/1
f 97/8/1 98/9/1 99/5/1 100/2/1
f 101/8/1 102/9/1 103/5/1 104/2/1
f 105/13/1 106/12/1 107/18/1 108/19/1
f 109/8/1 110/9/1 111/5/1 112/2/1
f 113/1/1 114/2/1 115/3/1 116/4/1
f 117/15/1 118/20/1 119/21/1 120/16/1
f 121/8/1 122/9/1 123/5/1 124/2/1
f 125/8/1 126/9/1 127/5/1 128/2/1
f 129/8/1 130/9/1 131/5/1 132/2/1
f 133/22/1 134/13/1 135/19/1 136/23/1
f 137/8/1 138/9/1 139/5/1 140/2/1
f 141/8/1 142/9/1 143/5/1 144/2/1
f 145/8/1 146/9/1 147/5/1 148/2/1
f 149/8/1 150/9/1 151/5/1 152/2/1
f 153/8/1 154/9/1 155/5/1 156/2/1
f 157/2/1 158/5/1 159/6/1 160/3/1
f 161/2/1 162/5/1 163/6/1 164/3/1
f 165/8/1 166/9/1 167/5/1 168/2/1
f 169/8/1 170/9/1 171/5/1 172/2/1
f 173/8/1 174/9/1 175/5/1 176/2/1
f 177/24/1 178/10/1 179/13/1 180/22/1
f 181/8/1 182/9/1 183/5/1 184/2/1
f 185/8/1 186/9/1 187/5/1 188/2/1
f 189/8/1 190/9/1 191/5/1 192/2/1
f 193/8/1 194/9/1 195/5/1 196/2/1
f 197/8/1 198/9/1 199/5/1 200/2/1
f 201/8/1 202/9/1 203/5/1 204/2/1
f 205/8/1 206/9/1 207/5/1 208/2/1
f 209/8/1 210/9/1 211/5/1 212/2/1
f 213/8/1 214/9/1 215/5/1 216/2/1
f 217/8/1 218/9/1 219/5/1 220/2/1
f 221/8/1 222/9/1 223/5/1 224/2/1
f 225/8/1 226/9/1 227/5/1 228/2/1
f 229/8/1 230/9/1 231/5/1 232/2/1
f 233/8/1 234/9/1 235/5/1 236/2/1
f 237/8/1 238/9/1 239/5/1 240/2/1
f 241/8/1 242/9/1 243/5/1 244/2/1
f 245/8/1 246/9/1 247/5/1 248/2/1
f 249/8/1 250/9/1 251/5/1 252/2/1
f 253/8/1 254/9/1 255/5/1 256/2/1
f 257/8/1 258/9/1 259/5/1 260/2/1
f 261/8/1 262/9/1 263/5/1 264/2/1
f 265/8/1 266/9/1 267/5/1 268/2/1
f 269/8/1 270/9/1 271/5/1 272/2/1
f 273/8/1 274/9/1 275/5/1 276/2/1
f 277/8/1 278/9/1 279/5/1 280/2/1
f 281/8/1 282/9/1 283/5/1 284/2/1
f 285/8/1 286/9/1 287/5/1 288/2/1
f 289/22/1 290/13/1 291/19/1 292/23/1
f 293/8/1 294/9/1 295/5/1 296/2/1
f 297/8/1 298/9/1 299/5/1 300/2/1
f 301/8/1 302/9/1 303/5/1 304/2/1
f 305/8/1 306/9/1 307/5/1 308/2/1
f 309/8/1 310/9/1 311/5/1 312/2/1
f 313/8/1 314/9/1 315/5/1 316/2/1
f 317/8/1 318/9/1 319/5/1 320/2/1
f 321/8/1 322/9/1 323/5/1 324/2/1
f 325/8/1 326/9/1 327/5/1 328/2/1
f 329/8/1 330/9/1 331/5/1 332/2/1
f 333/8/1 334/9/1 335/5/1 336/2/1
f 337/8/1 338/9/1 339/5/1 340/2/1
f 341/8/1 342/9/1 343/5/1 344/2/1
f 345/8/1 346/9/1 347/5/1 348/2/1
f 349/8/1 350/9/1 351/5/1 352/2/1
f 353/8/1 354/9/1 355/5/1 356/2/1
f 357/8/1 358/9/1 359/5/1 360/2/1
f 361/8/1 362/9/1 363/5/1 364/2/1
f 365/8/1 366/9/1 367/5/1 368/2/1
f 369/8/1 370/9/1 371/5/1 372/2/1
f 373/8/1 374/9/1 375/5/1 376/2/1
f 377/8/1 378/9/1 379/5/1 380/2/1
f 381/8/1 382/9/1 383/5/1 384/2/1
f 385/8/1 386/9/1 387/5/1 388/2/1
f 389/8/1 390/9/1 391/5/1 392/2/1
f 393/8/1 394/9/1 395/5/1 396/2/1
f 397/8/1 398/9/1 399/5/1 400/2/1
f 401/8/1 402/9/1 403/5/1 404/2/1
f 405/8/1 406/9/1 407/5/1 408/2/1
f 409/8/1 410/9/1 411/5/1 412/2/1
f 413/8/1 414/9/1 415/5/1 416/2/1
f 417/8/1 418/9/1 419/5/1 420/2/1
f 421/8/1 422/9/1 423/5/1 424/2/1
f 425/8/1 426/9/1 427/5/1 428/2/1
f 429/8/1 430/9/1 431/5/1 432/2/1
f 433/8/1 434/9/1 435/5/1 436/2/1
f 437/8/1 438/9/1 439/5/1 440/2/1
f 441/8/1 442/9/1 443/5/1 444/2/1
f 445/8/1 446/9/1 447/5/1 448/2/1
f 449/8/1 450/9/1 451/5/1 452/2/1
f 453/8/1 454/9/1 455/5/1 456/2/1
f 457/8/1 458/9/1 459/5/1 460/2/1
f 461/8/1 462/9/1 463/5/1 464/2/1
f 465/8/1 466/9/1 467/5/1 468/2/1
f 469/8/1 470/9/1 471/5/1 472/2/1
f 473/8/1 474/9/1 475/5/1 476/2/1
f 477/8/1 478/9/1 479/5/1 480/2/1
f 481/8/1 482/9/1 483/5/1 484/2/1
f 485/8/1 486/9/1 487/5/1 488/2/1
f 489/8/1 490/9/1 491/5/1 492/2/1
f 493/8/1 494/9/1 495/5/1 496/2/1
f 497/8/1 498/9/1 499/5/1 500/2/1
f 501/8/1 502/9/1 503/5/1 504/2/1
f 505/8/1 506/9/1 507/5/1 508/2/1
f 509/8/1 510/9/1 511/5/1 512/2/1
f 513/8/1 514/9/1 515/5/1 516/2/1
f 517/8/1 518/9/1 519/5/1 520/2/1
f 521/8/1 522/9/1 523/5/1 524/2/1
f 525/8/1 526/9/1 527/5/1 528/2/1
f 529/8/1 530/9/1 531/5/1 532/2/1
f 533/8/1 534/9/1 535/5/1 536/2/1
f 537/8/1 538/9/1 539/5/1 540/2/1

