# Tiled2Unity generated file. Do not modify by hand.
# Wavefront file for 'Map_Master_mesh_0254.obj'

# Vertices (Count = 92)
v 0 -13 0
v -1 -13 0
v -1 -12 0
v 0 -12 0
v -1 -13 0
v -2 -13 0
v -2 -12 0
v -1 -12 0
v -2 -13 0
v -3 -13 0
v -3 -12 0
v -2 -12 0
v -3 -13 0
v -4 -13 0
v -4 -12 0
v -3 -12 0
v -4 -13 0
v -5 -13 0
v -5 -12 0
v -4 -12 0
v -5 -13 0
v -6 -13 0
v -6 -12 0
v -5 -12 0
v -6 -13 0
v -7 -13 0
v -7 -12 0
v -6 -12 0
v -7 -13 0
v -8 -13 0
v -8 -12 0
v -7 -12 0
v -8 -13 0
v -9 -13 0
v -9 -12 0
v -8 -12 0
v -9 -13 0
v -10 -13 0
v -10 -12 0
v -9 -12 0
v -10 -13 0
v -11 -13 0
v -11 -12 0
v -10 -12 0
v -7 -14 0
v -8 -14 0
v -8 -13 0
v -7 -13 0
v -8 -14 0
v -9 -14 0
v -9 -13 0
v -8 -13 0
v -9 -14 0
v -10 -14 0
v -10 -13 0
v -9 -13 0
v -10 -14 0
v -11 -14 0
v -11 -13 0
v -10 -13 0
v -10 -15 0
v -11 -15 0
v -11 -14 0
v -10 -14 0
v -15 -15 0
v -16 -15 0
v -16 -14 0
v -15 -14 0
v -10 -16 0
v -11 -16 0
v -11 -15 0
v -10 -15 0
v -11 -16 0
v -12 -16 0
v -12 -15 0
v -11 -15 0
v -12 -16 0
v -13 -16 0
v -13 -15 0
v -12 -15 0
v -13 -16 0
v -14 -16 0
v -14 -15 0
v -13 -15 0
v -14 -16 0
v -15 -16 0
v -15 -15 0
v -14 -15 0
v -15 -16 0
v -16 -16 0
v -16 -15 0
v -15 -15 0

# Texture cooridinates (Count = 13)
vt 0.1111111 0.5
vt 0.2222222 0.5
vt 0.2222222 0.6666666
vt 0.1111111 0.6666666
vt 0.4444444 0.8333333
vt 0.5555556 0.8333333
vt 0.5555556 1
vt 0.4444444 1
vt 0.2222222 0.8333333
vt 0.1111111 0.8333333
vt 0 0.5
vt 0 0.6666666
vt 0 0.8333333

# Normal
vn 0 0 -1

# Mesh description
g Map_Master_mesh_0254

# Faces
f 1/1/1 2/2/1 3/3/1 4/4/1
f 5/1/1 6/2/1 7/3/1 8/4/1
f 9/1/1 10/2/1 11/3/1 12/4/1
f 13/1/1 14/2/1 15/3/1 16/4/1
f 17/1/1 18/2/1 19/3/1 20/4/1
f 21/1/1 22/2/1 23/3/1 24/4/1
f 25/1/1 26/2/1 27/3/1 28/4/1
f 29/5/1 30/6/1 31/7/1 32/8/1
f 33/4/1 34/3/1 35/9/1 36/10/1
f 37/4/1 38/3/1 39/9/1 40/10/1
f 41/4/1 42/3/1 43/9/1 44/10/1
f 45/11/1 46/1/1 47/4/1 48/12/1
f 49/1/1 50/2/1 51/3/1 52/4/1
f 53/1/1 54/2/1 55/3/1 56/4/1
f 57/5/1 58/6/1 59/7/1 60/8/1
f 61/12/1 62/4/1 63/10/1 64/13/1
f 65/4/1 66/3/1 67/9/1 68/10/1
f 69/12/1 70/4/1 71/10/1 72/13/1
f 73/4/1 74/3/1 75/9/1 76/10/1
f 77/4/1 78/3/1 79/9/1 80/10/1
f 81/4/1 82/3/1 83/9/1 84/10/1
f 85/4/1 86/3/1 87/9/1 88/10/1
f 89/4/1 90/3/1 91/9/1 92/10/1

